<svg xmlns="http://www.w3.org/2000/svg" width="33.147" height="48.931" viewBox="0 0 33.147 48.931">
  <g id="telefono-inteligente" transform="translate(-11 -1)">
    <path id="Trazado_100628" data-name="Trazado 100628" d="M15.735,49.931H39.411A4.74,4.74,0,0,0,44.147,45.2V5.735A4.74,4.74,0,0,0,39.411,1H15.735A4.74,4.74,0,0,0,11,5.735V45.2a4.74,4.74,0,0,0,4.735,4.735Zm-3.157-44.2a3.157,3.157,0,0,1,3.157-3.157H39.411a3.157,3.157,0,0,1,3.157,3.157V45.2a3.157,3.157,0,0,1-3.157,3.157H15.735A3.157,3.157,0,0,1,12.578,45.2Z" fill="#ffa726"/>
    <path id="Trazado_100629" data-name="Trazado 100629" d="M15.789,42.147H41.044a.789.789,0,0,0,.789-.789V9.789A.789.789,0,0,0,41.044,9H15.789A.789.789,0,0,0,15,9.789V41.357A.789.789,0,0,0,15.789,42.147Zm.789-31.568H40.255v29.99H16.578Z" transform="translate(-0.843 -1.686)" fill="#ffa726"/>
    <path id="Trazado_100630" data-name="Trazado 100630" d="M26,5h6.314V6.578H26Z" transform="translate(-3.162 -0.843)" fill="#ffa726"/>
    <path id="Trazado_100631" data-name="Trazado 100631" d="M36,5h1.578V6.578H36Z" transform="translate(-5.27 -0.843)" fill="#ffa726"/>
    <path id="Trazado_100632" data-name="Trazado 100632" d="M31.368,53a2.368,2.368,0,1,0,2.368,2.368A2.368,2.368,0,0,0,31.368,53Zm0,3.157a.789.789,0,1,1,.789-.789A.789.789,0,0,1,31.368,56.157Z" transform="translate(-3.794 -10.961)" fill="#ffa726"/>
    <path id="Trazado_100633" data-name="Trazado 100633" d="M39.5,23.7l-1.376-.345a9.4,9.4,0,0,0-.758-1.825l.732-1.219a.789.789,0,0,0-.119-.964l-2.232-2.232A.789.789,0,0,0,34.784,17l-1.219.731a9.47,9.47,0,0,0-1.825-.757L31.4,15.6a.789.789,0,0,0-.768-.6H27.47a.789.789,0,0,0-.766.6l-.345,1.376a9.471,9.471,0,0,0-1.825.757L23.316,17a.789.789,0,0,0-.964.119L20.121,19.35a.789.789,0,0,0-.119.964l.732,1.219a9.4,9.4,0,0,0-.758,1.825L18.6,23.7a.789.789,0,0,0-.6.768v3.157a.789.789,0,0,0,.6.766l1.378.345a9.4,9.4,0,0,0,.758,1.825L20,31.782a.789.789,0,0,0,.119.964l2.232,2.232a.789.789,0,0,0,.964.119l1.219-.732a9.37,9.37,0,0,0,1.825.757L26.7,36.5a.789.789,0,0,0,.766.6h3.157a.789.789,0,0,0,.766-.6l.345-1.379a9.369,9.369,0,0,0,1.825-.757l1.219.732a.789.789,0,0,0,.964-.119l2.232-2.232a.789.789,0,0,0,.119-.964l-.732-1.219a9.4,9.4,0,0,0,.758-1.825l1.378-.345a.789.789,0,0,0,.6-.766V24.47a.789.789,0,0,0-.6-.766Zm-.981,3.306-1.23.308a.789.789,0,0,0-.576.581,7.833,7.833,0,0,1-.937,2.259.789.789,0,0,0,0,.818l.653,1.088-1.361,1.361-1.088-.653a.789.789,0,0,0-.818,0,7.813,7.813,0,0,1-2.259.937.789.789,0,0,0-.581.575l-.311,1.234H28.087l-.308-1.231a.789.789,0,0,0-.581-.575,7.813,7.813,0,0,1-2.259-.937.789.789,0,0,0-.818,0l-1.088.653-1.361-1.361.653-1.088a.789.789,0,0,0,0-.818,7.833,7.833,0,0,1-.937-2.259.789.789,0,0,0-.576-.581l-1.234-.311V25.087l1.23-.308a.789.789,0,0,0,.576-.581,7.833,7.833,0,0,1,.937-2.259.789.789,0,0,0,0-.818l-.653-1.088,1.361-1.361,1.089.653a.789.789,0,0,0,.818,0,7.813,7.813,0,0,1,2.259-.937.789.789,0,0,0,.581-.576l.311-1.234h1.924l.308,1.23a.789.789,0,0,0,.581.576,7.813,7.813,0,0,1,2.259.937.789.789,0,0,0,.818,0l1.089-.653,1.361,1.361-.653,1.088a.789.789,0,0,0,0,.818A7.833,7.833,0,0,1,36.71,24.2a.789.789,0,0,0,.576.581l1.23.308Z" transform="translate(-1.476 -2.951)" fill="#ffa726"/>
    <path id="Trazado_100634" data-name="Trazado 100634" d="M30.314,21a6.314,6.314,0,1,0,6.314,6.314A6.314,6.314,0,0,0,30.314,21ZM27.946,31.408V31.26a2.368,2.368,0,0,1,4.735,0v.148a4.694,4.694,0,0,1-4.735,0Zm1.578-4.884a.789.789,0,1,1,.789.789A.789.789,0,0,1,29.524,26.524Zm4.562,3.64a3.939,3.939,0,0,0-1.815-2.31,2.368,2.368,0,1,0-3.914,0,3.939,3.939,0,0,0-1.815,2.31,4.735,4.735,0,1,1,7.545,0Z" transform="translate(-2.74 -4.216)" fill="#ffa726"/>
    <path id="Trazado_100635" data-name="Trazado 100635" d="M43,45h1.578v1.578H43Z" transform="translate(-6.745 -9.275)" fill="#ffa726"/>
    <path id="Trazado_100636" data-name="Trazado 100636" d="M39,45h1.578v1.578H39Z" transform="translate(-5.902 -9.275)" fill="#ffa726"/>
    <path id="Trazado_100637" data-name="Trazado 100637" d="M35,45h1.578v1.578H35Z" transform="translate(-5.059 -9.275)" fill="#ffa726"/>
  </g>
</svg>
