<svg xmlns="http://www.w3.org/2000/svg" xmlns:xlink="http://www.w3.org/1999/xlink" width="295" height="179.186" viewBox="0 0 295 179.186">
  <defs>
    <linearGradient id="linear-gradient" y1="0.5" x2="1" y2="0.5" gradientUnits="objectBoundingBox">
      <stop offset="0" stop-color="#3bbfff"/>
      <stop offset="0.291" stop-color="#2f93ef"/>
      <stop offset="0.603" stop-color="#246be1"/>
      <stop offset="0.85" stop-color="#1e52d9"/>
      <stop offset="1" stop-color="#1c49d6"/>
    </linearGradient>
  </defs>
  <g id="Grupo_56730" data-name="Grupo 56730" transform="translate(-285 -3253.814)">
    <rect id="Rectángulo_5200" data-name="Rectángulo 5200" width="295" height="114" rx="10" transform="translate(285 3319)" fill="#ffca28" opacity="0.5"/>
    <g id="Grupo_56729" data-name="Grupo 56729" transform="translate(134.971 3174.846)">
      <g id="Grupo_56677" data-name="Grupo 56677" transform="translate(333.708 125.79)">
        <g id="Grupo_56674" data-name="Grupo 56674">
          <g id="Grupo_56673" data-name="Grupo 56673">
            <path id="Trazado_102510" data-name="Trazado 102510" d="M738.178,334.961V350l-18.6-10.68V324.259Z" transform="translate(-719.575 -323.164)" fill="#ed66ed"/>
            <path id="Trazado_102511" data-name="Trazado 102511" d="M719.575,319.745l18.6,10.7,1.9-1.1-18.6-10.7Z" transform="translate(-719.575 -318.649)" fill="#fc92ff"/>
            <path id="Trazado_102512" data-name="Trazado 102512" d="M814.8,374.513v15.037l1.9-1.1V373.413Z" transform="translate(-796.201 -362.715)" fill="#d845d8"/>
          </g>
          <path id="Trazado_102513" data-name="Trazado 102513" d="M747.855,417.454l1.724,5.584,2.177-3.331Z" transform="translate(-742.331 -398.153)" fill="#ed66ed"/>
          <path id="Trazado_102514" data-name="Trazado 102514" d="M756.683,432.317l4.009-2.274-1.832-1.058Z" transform="translate(-749.434 -407.432)" fill="#d845d8"/>
        </g>
        <g id="Grupo_56676" data-name="Grupo 56676" transform="translate(1.208 6.164)">
          <path id="Trazado_102515" data-name="Trazado 102515" d="M740.649,362.115v-4.177l-1.031-.595-.756.417-.066-.892-1.1-.633-.057.032h0l-.057.032h0l-.057.032h0l-.057.032h0l-.057.032h0l-.057.032h0l-.057.032h0l-.057.032h0l-.057.032h0l-.057.032h0l-.057.032h0l-.057.032h0l-.057.032h0l-.057.032h0l-.057.032h0l-.057.032h0l-.057.032h0l-.057.032h0l-.057.032h0l-.057.032h0l-.057.032h0l-.057.032h0l-.057.032h0l-.057.032h0l-.057.032h0l-.029.016-.55-1.971-1.014-.586h0l-.086-.05-.533.3v-.6l-3.179-1.835-.109.06v-.123l-1.03-.6-1.458.814V350.8l-1.03-.595-.057.032h0l-.057.032-.114.064h0l-.057.032-.114.064-.171.1-.228.128h0l-.057.032-.114.064h0l-.057.032-.114.064-.171.1-.171.1v5.221l1.03.6v-.065l.057.033v-.065l.057.033v-.065l.057.033v-.065l.057.033v-.065l.057.033v-.065l.057.033v-.065l.057.033v-.065l.057.033v-.065l.057.033V356.5l.057.033v-.065l.057.033v-.065l.057.033V356.4l.057.033v-.065l.057.033v-.065l.057.033v-.065l.057.033v-.065l.057.033v-.065l.057.033v-.065l.057.033v-.065l.057.033v-.065l.057.033v-.065l.057.033v-.065l.057.033v-.065l.057.033v-.065l.057.033v-.065l.031.018v1.686l1.027.593v.01l1.186-.662v1.338l1.027.593v.01l1.325-.742-.116,1.43,1.028.593v.01l.879-.5.291,1.13.611.353v.01l1.084-.6.086,1.3,1.03.595.417-.219v.46l2.583,1.491v.011l1.487-.837v-1.044Zm-7.662-5.274v-1.032l.088-.079,0-.016h0Z" transform="translate(-725.768 -350.205)" fill="#d845d8" style="mix-blend-mode: multiply;isolation: isolate"/>
          <g id="Grupo_56675" data-name="Grupo 56675" transform="translate(0 0.837)">
            <path id="Trazado_102516" data-name="Trazado 102516" d="M726.788,360.307l-1.03-.595v-5.221l1.03.595v2.082l1.458.842v-2.082l1.031.595v5.221l-1.031-.595v-2.095l-1.458-.842Z" transform="translate(-725.758 -354.491)" fill="#fff"/>
            <path id="Trazado_102517" data-name="Trazado 102517" d="M744.33,365.213l3.179,1.835v1.044l-1.074-.62v4.177l-1.03-.595v-4.177l-1.074-.62Z" transform="translate(-740.702 -363.118)" fill="#fff"/>
            <path id="Trazado_102518" data-name="Trazado 102518" d="M765.04,380.261l-.027-.016-.926,2.528-.614-.354-.926-3.6-.027-.016-.214,2.971-1.03-.595.406-4.987,1.1.633,1,3.591,1-2.433,1.1.633.406,5.455-1.03-.595Z" transform="translate(-754.337 -371.955)" fill="#fff"/>
            <path id="Trazado_102519" data-name="Trazado 102519" d="M790.079,395.8l1.556.9v1.044l-2.587-1.493v-5.221l1.03.595Z" transform="translate(-776.685 -383.894)" fill="#fff"/>
          </g>
        </g>
      </g>
      <path id="Trazado_102520" data-name="Trazado 102520" d="M471.628,626.69l35.165-20.863a4.2,4.2,0,0,0-.019-7.232l-32.563-19.084-42.19,27.65Z" transform="translate(-154.487 -402.761)" opacity="0.09" fill="url(#linear-gradient)" style="mix-blend-mode: multiply;isolation: isolate"/>
      <path id="Trazado_102521" data-name="Trazado 102521" d="M441.125,146.549l-39.537-22.81a1.881,1.881,0,0,0-2.384,0l-6.81,3.881,4.655,2.364v91.65h0v3.811c0,2.872,1.769,6.221,3.95,7.48l37.2,21.479-2.469,3.431,2.159,1.776,5.716-2.191h0c.9-.436,1.469-1.563,1.469-3.2v-4.11h0V154.029C445.075,151.157,443.307,147.808,441.125,146.549Z" transform="translate(-122.601 -35.684)" fill="#9fbaff"/>
      <path id="Trazado_102522" data-name="Trazado 102522" d="M571.091,257.24l-1.5-.136-1.3,92.031,11.447,6.609-2.469,3.431L579.426,362l5.716-3.24h0c.9-.436,1.469-1.563,1.469-3.2v-4.11h0V255.367a9.955,9.955,0,0,0-2.35-6.111Z" transform="translate(-264.134 -137.022)" fill="#87a7f9"/>
      <g id="Grupo_56678" data-name="Grupo 56678" transform="translate(240.029 97.672)">
        <path id="Trazado_102523" data-name="Trazado 102523" d="M253.938,186.038l.9-.52c.451-.23.341-.306-.107-2.156a1.028,1.028,0,0,0-.646-.753c-.691-.14-.806-.078-1.172-.854a.659.659,0,0,1,0-.705l.311-.315c.166-.168.116-.568-.113-.892-1.6-2.264-1.217-1.88-2.334-1.313a1.253,1.253,0,0,1-.4-.307c-.433-.4-.364-.83-.364-1.385a1.133,1.133,0,0,0-.513-.888c-1.459-.843-1.374-.878-1.716-.651l-.208.12s-.846.487-.892.512l-.308-.667c-.166-.361-.487-.6-.716-.544-.909.238-1.014.239-1.194.372-.007,0-2.441,1.4-2.448,1.407-.234.132-.2.449-.106.689-.01.007-1.286.74-1.286.74-.22.131-.13-.007-.576,1.318a1.028,1.028,0,0,0,.329.936c.468.445.772.663.843,1.125l-.8.461c-.575.293-.469.263,0,2.216a1.029,1.029,0,0,0,.646.753c.692.14.806.079,1.172.854a.659.659,0,0,1,0,.705l-.311.315c-.166.168-.116.568.113.893,1.6,2.267,1.214,1.877,2.334,1.313a1.251,1.251,0,0,1,.4.307c.433.4.364.83.364,1.384a1.133,1.133,0,0,0,.513.888l1.211.7c.329.19.324.007,1.6-.68l.308.667c.166.361.487.6.716.544a3.59,3.59,0,0,0,1.324-.447l2.344-1.347c.166-.093.2-.37.08-.674.011-.007,1.286-.74,1.286-.74.22-.131.129.012.576-1.318a1.029,1.029,0,0,0-.329-.936C254.318,186.722,254.009,186.5,253.938,186.038Zm-7.992-5.2a6.365,6.365,0,0,1,3.272,5.675A6.365,6.365,0,0,1,245.946,180.835Z" transform="translate(-240.029 -174.711)" fill="#8aa8ff"/>
        <path id="Trazado_102524" data-name="Trazado 102524" d="M252.151,194.9l-.5-.475a1.142,1.142,0,0,1-.354-.779c0-.029,0-.058,0-.088s0-.059,0-.088c0-.264.139-.414.354-.37l.5.1c.269.055.417-.194.329-.556l-.374-1.546a1.029,1.029,0,0,0-.646-.753l-.5-.1a.95.95,0,0,1-.578-.556q-.044-.1-.09-.2a.659.659,0,0,1,0-.705l.311-.315c.166-.168.116-.568-.114-.892l-.98-1.388c-.229-.324-.55-.451-.716-.282l-.309.313c-.132.133-.366.084-.578-.121q-.074-.072-.149-.141a1.148,1.148,0,0,1-.364-.777v-.608a1.132,1.132,0,0,0-.513-.888l-1.211-.7c-.283-.164-.513-.031-.513.3v.608c0,.261-.148.406-.364.357l-.149-.031a.938.938,0,0,1-.578-.547l-.309-.669c-.166-.361-.487-.6-.716-.544l-.98.256c-.229.06-.28.4-.113.761l.311.675a.647.647,0,0,1,0,.7q-.046.045-.09.092c-.13.138-.364.093-.578-.111l-.5-.48c-.269-.257-.559-.253-.646.007l-.374,1.114a1.028,1.028,0,0,0,.329.936l.5.475a1.142,1.142,0,0,1,.354.779c0,.029,0,.058,0,.088s0,.059,0,.088c0,.264-.139.414-.354.37l-.5-.1c-.269-.054-.417.195-.329.556l.374,1.546a1.029,1.029,0,0,0,.646.753l.5.1a.95.95,0,0,1,.578.556q.045.1.09.2a.659.659,0,0,1,0,.705l-.311.315c-.166.168-.116.568.113.892l.98,1.388c.229.324.55.451.716.282l.309-.313c.132-.133.366-.085.578.121q.074.071.149.141a1.148,1.148,0,0,1,.364.777v.608a1.133,1.133,0,0,0,.513.888l1.211.7c.283.164.513.031.513-.3v-.608c0-.261.148-.406.364-.357l.149.031a.939.939,0,0,1,.578.547l.309.669c.166.361.487.6.716.544l.98-.256c.229-.06.28-.4.114-.761l-.311-.674a.647.647,0,0,1,0-.7q.046-.045.09-.092c.13-.138.364-.093.578.111l.5.48c.269.257.559.253.646-.007l.374-1.114A1.028,1.028,0,0,0,252.151,194.9Zm-5.884-.818a6.563,6.563,0,0,1-2.969-5.143c0-1.894,1.329-2.661,2.969-1.714a6.563,6.563,0,0,1,2.969,5.143C249.236,194.263,247.907,195.031,246.267,194.084Z" transform="translate(-240.029 -180.938)" fill="#deebff"/>
      </g>
      <g id="Grupo_56679" data-name="Grupo 56679" transform="translate(325.613 103.839)">
        <path id="Trazado_102525" data-name="Trazado 102525" d="M687.2,213.662l.589-.339c.294-.15.223-.2-.069-1.406a.67.67,0,0,0-.421-.491c-.45-.091-.525-.051-.764-.557a.429.429,0,0,1,0-.46l.2-.205c.108-.11.075-.37-.074-.582-1.042-1.475-.793-1.225-1.521-.855a.817.817,0,0,1-.259-.2c-.282-.262-.237-.541-.237-.9a.738.738,0,0,0-.334-.579c-.951-.549-.9-.572-1.118-.424l-.136.078s-.551.317-.581.333l-.2-.434c-.108-.235-.317-.394-.467-.355-.593.155-.661.156-.778.243l-1.6.917c-.153.086-.131.293-.069.449l-.838.482c-.144.085-.085,0-.375.859a.67.67,0,0,0,.215.61c.3.29.5.432.549.733l-.522.3c-.375.191-.306.171,0,1.444a.67.67,0,0,0,.421.491c.451.091.525.051.764.557a.429.429,0,0,1,0,.46l-.2.205c-.109.11-.075.37.074.582,1.044,1.478.791,1.223,1.521.855a.818.818,0,0,1,.259.2c.282.262.237.541.237.9a.738.738,0,0,0,.334.579l.789.456c.215.124.211,0,1.046-.443l.2.435c.109.235.317.394.467.355a2.343,2.343,0,0,0,.863-.291l1.527-.878c.108-.061.13-.241.052-.439l.838-.482c.143-.085.084.007.375-.859a.67.67,0,0,0-.215-.61C687.449,214.108,687.248,213.964,687.2,213.662Zm-5.209-3.391a4.148,4.148,0,0,1,2.132,3.7A4.149,4.149,0,0,1,681.993,210.271Z" transform="translate(-678.136 -206.279)" fill="#8aa8ff"/>
        <path id="Trazado_102526" data-name="Trazado 102526" d="M686.037,219.439l-.325-.31a.744.744,0,0,1-.231-.508c0-.019,0-.038,0-.057s0-.038,0-.058c0-.172.091-.27.231-.241l.325.066c.175.036.272-.127.215-.362l-.244-1.008a.671.671,0,0,0-.421-.491l-.328-.066a.619.619,0,0,1-.377-.362c-.019-.043-.039-.085-.059-.128a.429.429,0,0,1,0-.46l.2-.205c.109-.11.075-.37-.074-.582l-.639-.9c-.149-.211-.358-.294-.467-.184l-.2.2c-.086.087-.239.055-.377-.079l-.1-.092a.748.748,0,0,1-.237-.506v-.4a.738.738,0,0,0-.334-.579l-.789-.456c-.185-.107-.334-.02-.334.193v.4c0,.17-.1.264-.237.232l-.1-.02a.611.611,0,0,1-.377-.357l-.2-.436c-.108-.235-.318-.394-.467-.355l-.639.167c-.149.039-.182.261-.074.5l.2.44a.421.421,0,0,1,0,.457c-.02.019-.04.039-.059.06-.084.09-.237.061-.377-.072l-.328-.313c-.175-.167-.364-.165-.421,0l-.244.726a.67.67,0,0,0,.215.61l.325.31a.745.745,0,0,1,.231.508c0,.019,0,.038,0,.057s0,.038,0,.058c0,.172-.091.269-.231.241l-.325-.066c-.175-.036-.272.127-.215.362l.244,1.008a.67.67,0,0,0,.421.491l.328.066a.619.619,0,0,1,.377.362c.019.043.039.086.059.128a.429.429,0,0,1,0,.46l-.2.205c-.109.11-.075.37.074.582l.639.9c.149.211.358.294.467.184l.2-.2c.086-.087.239-.055.377.079l.1.092a.748.748,0,0,1,.237.506v.4a.738.738,0,0,0,.334.579l.789.456c.185.107.334.02.334-.193v-.4c0-.17.1-.265.237-.232l.1.02a.612.612,0,0,1,.377.357l.2.436c.109.235.317.394.467.355l.639-.167c.149-.039.182-.261.074-.5l-.2-.44a.421.421,0,0,1,0-.457c.02-.019.04-.039.059-.06.084-.09.237-.061.377.072l.328.313c.175.167.364.165.421,0l.244-.726A.67.67,0,0,0,686.037,219.439Zm-3.835-.533a4.277,4.277,0,0,1-1.935-3.352c0-1.234.866-1.735,1.935-1.117a4.278,4.278,0,0,1,1.935,3.352C684.137,219.023,683.271,219.523,682.2,218.906Z" transform="translate(-678.136 -210.337)" fill="#deebff"/>
      </g>
      <g id="Grupo_56680" data-name="Grupo 56680" transform="translate(268.659 91.531)">
        <path id="Trazado_102527" data-name="Trazado 102527" d="M430.663,276.468,390.537,253.3c-2.182-1.26-3.95-4.609-3.95-7.481V146.675c0-2.872,1.769-4.179,3.95-2.919l40.126,23.167c2.182,1.26,3.95,4.609,3.95,7.481v99.146C434.614,276.421,432.845,277.728,430.663,276.468Z" transform="translate(-386.587 -143.276)" fill="#d7e4ff"/>
        <path id="Trazado_102528" data-name="Trazado 102528" d="M434.614,311.453l-48.027-28.477V196.51l48.027,27.728Z" transform="translate(-386.587 -186.111)" fill="#353fb0"/>
        <path id="Trazado_102529" data-name="Trazado 102529" d="M485.041,223.316l-14.18-8.187a1.369,1.369,0,0,1-.572-1.093h0c0-.421.256-.615.572-.433l14.18,8.187a1.369,1.369,0,0,1,.572,1.093h0C485.613,223.3,485.357,223.5,485.041,223.316Z" transform="translate(-453.938 -199.81)" fill="#8aa8ff"/>
        <path id="Trazado_102530" data-name="Trazado 102530" d="M562.743,267.536c0,.421-.3.592-.66.381a1.46,1.46,0,0,1-.66-1.144c0-.421.3-.592.66-.381A1.459,1.459,0,0,1,562.743,267.536Z" transform="translate(-527.268 -242.269)" fill="#8aa8ff"/>
      </g>
      <path id="Trazado_102531" data-name="Trazado 102531" d="M390.537,144.717l40.126,23.167c2.182,1.259,3.95,4.609,3.95,7.48V174.4c0-2.872-1.768-6.221-3.95-7.481l-40.126-23.167c-2.182-1.26-3.95.047-3.95,2.919v.961C386.587,144.765,388.356,143.458,390.537,144.717Z" transform="translate(-117.928 -51.746)" fill="#fff"/>
      <path id="Trazado_102532" data-name="Trazado 102532" d="M430.663,693.931l-40.126-23.167c-2.182-1.259-3.95-4.609-3.95-7.48v.961c0,2.872,1.769,6.221,3.95,7.481l40.126,23.167c2.182,1.259,3.95-.047,3.95-2.919v-.961C434.614,693.884,432.845,695.191,430.663,693.931Z" transform="translate(-117.928 -470.169)" fill="#c4d5f2"/>
      <g id="Grupo_56681" data-name="Grupo 56681" transform="translate(318.561 131.032)">
        <path id="Trazado_102533" data-name="Trazado 102533" d="M643.279,364.116l-.162.093c-.6.345-1.083-.021-1.083-.819V347.776a2.594,2.594,0,0,1,1.083-2.07l.162-.093c.6-.345,1.083.021,1.083.819v15.615A2.594,2.594,0,0,1,643.279,364.116Z" transform="translate(-642.034 -345.483)" fill="#353da5"/>
        <path id="Trazado_102534" data-name="Trazado 102534" d="M643.279,465.62l-.162.093c-.6.345-1.083-.021-1.083-.819v-7.366a2.594,2.594,0,0,1,1.083-2.07l.162-.093c.6-.345,1.083.021,1.083.819v7.366A2.594,2.594,0,0,1,643.279,465.62Z" transform="translate(-642.034 -433.795)" fill="#353da5"/>
      </g>
      <g id="Grupo_56682" data-name="Grupo 56682" transform="translate(319.087 131.032)">
        <path id="Trazado_102535" data-name="Trazado 102535" d="M645.971,364.116l-.162.093c-.6.345-1.083-.021-1.083-.819V347.776a2.594,2.594,0,0,1,1.083-2.07l.162-.093c.6-.345,1.083.021,1.083.819v15.615A2.594,2.594,0,0,1,645.971,364.116Z" transform="translate(-644.726 -345.483)" fill="#6969cc"/>
        <path id="Trazado_102536" data-name="Trazado 102536" d="M645.971,465.62l-.162.093c-.6.345-1.083-.021-1.083-.819v-7.366a2.594,2.594,0,0,1,1.083-2.07l.162-.093c.6-.345,1.083.021,1.083.819v7.366A2.594,2.594,0,0,1,645.971,465.62Z" transform="translate(-644.726 -433.795)" fill="#6969cc"/>
      </g>
      <path id="Trazado_102537" data-name="Trazado 102537" d="M557.424,215.848l6.157-4.088,2.3,1.325-6.158,4.089Z" transform="translate(-255.392 -106.85)" fill="#fff"/>
      <g id="Grupo_56685" data-name="Grupo 56685" transform="translate(279.77 148.772)">
        <g id="Grupo_56683" data-name="Grupo 56683">
          <path id="Trazado_102538" data-name="Trazado 102538" d="M455.456,446.058l.78-.448c.389-.2.294-.264-.092-1.859a.886.886,0,0,0-.557-.649c-.6-.12-.695-.068-1.011-.736a.568.568,0,0,1,0-.608l.268-.272c.144-.145.1-.49-.1-.77-1.378-1.951-1.049-1.62-2.012-1.132a1.08,1.08,0,0,1-.343-.264c-.374-.346-.314-.716-.314-1.194a.977.977,0,0,0-.442-.765c-1.258-.726-1.185-.757-1.479-.561l-.18.1s-.729.419-.769.441l-.265-.575c-.144-.311-.42-.521-.617-.469-.784.205-.874.206-1.029.321l-2.11,1.213c-.2.114-.173.387-.091.594-.009.006-1.108.638-1.108.638-.19.113-.113-.006-.5,1.136a.886.886,0,0,0,.284.807c.4.384.666.572.727.97l-.69.4c-.5.253-.4.226,0,1.91a.886.886,0,0,0,.557.649c.6.121.695.068,1.011.736a.568.568,0,0,1,0,.608l-.268.272c-.143.145-.1.49.1.77,1.38,1.955,1.046,1.618,2.012,1.132a1.077,1.077,0,0,1,.343.264c.374.346.314.716.314,1.194a.977.977,0,0,0,.442.766l1.044.6c.284.164.28.006,1.384-.586l.265.575c.143.311.42.521.617.469a3.1,3.1,0,0,0,1.141-.385l2.021-1.161c.143-.08.173-.319.069-.581.009-.006,1.108-.638,1.108-.638.189-.113.111.01.5-1.136a.886.886,0,0,0-.284-.807C455.783,446.648,455.517,446.458,455.456,446.058Zm-6.89-4.486a5.488,5.488,0,0,1,2.82,4.893A5.487,5.487,0,0,1,448.566,441.572Z" transform="translate(-443.465 -436.292)" fill="#8aa8ff"/>
          <path id="Trazado_102539" data-name="Trazado 102539" d="M453.915,453.7l-.43-.41a.983.983,0,0,1-.306-.672c0-.025,0-.05,0-.075s0-.051,0-.076c0-.227.12-.357.306-.319l.43.087c.232.047.359-.168.284-.479l-.323-1.333a.886.886,0,0,0-.557-.649l-.434-.088a.819.819,0,0,1-.5-.48q-.038-.085-.078-.169a.567.567,0,0,1,0-.608l.268-.272c.143-.145.1-.49-.1-.769l-.845-1.2c-.2-.28-.474-.389-.618-.244l-.266.269c-.113.115-.316.073-.5-.1l-.128-.121a.989.989,0,0,1-.314-.67V444.8a.977.977,0,0,0-.442-.766l-1.044-.6c-.244-.141-.442-.027-.442.255v.524c0,.225-.127.35-.314.307l-.128-.027a.809.809,0,0,1-.5-.472l-.266-.577c-.143-.311-.42-.521-.617-.469l-.845.221c-.2.052-.241.346-.1.657l.268.581a.557.557,0,0,1,0,.6q-.04.038-.078.079c-.112.119-.314.08-.5-.1l-.434-.414c-.232-.221-.482-.218-.557.006l-.323.96a.886.886,0,0,0,.284.807l.43.41a.985.985,0,0,1,.306.672c0,.025,0,.05,0,.075s0,.051,0,.076c0,.227-.12.357-.306.319l-.43-.087c-.232-.047-.359.168-.284.479l.323,1.333a.886.886,0,0,0,.557.649l.434.088a.819.819,0,0,1,.5.48q.038.085.078.169a.568.568,0,0,1,0,.608l-.268.272c-.143.145-.1.49.1.769l.845,1.2c.2.28.474.389.617.244l.266-.269c.113-.115.316-.073.5.1l.128.121a.989.989,0,0,1,.314.67v.524a.977.977,0,0,0,.442.766l1.044.6c.244.141.442.027.442-.255v-.524c0-.225.127-.35.314-.307l.128.027a.81.81,0,0,1,.5.472l.266.577c.143.311.42.521.617.469l.845-.221c.2-.052.241-.346.1-.657l-.268-.581a.557.557,0,0,1,0-.6q.04-.038.078-.079c.112-.119.314-.08.5.1l.434.414c.232.221.482.218.557-.006l.323-.96A.887.887,0,0,0,453.915,453.7Zm-5.072-.705a5.658,5.658,0,0,1-2.56-4.434c0-1.632,1.146-2.294,2.56-1.478a5.658,5.658,0,0,1,2.56,4.434C451.4,453.149,450.257,453.811,448.843,452.995Z" transform="translate(-443.465 -441.661)" fill="#deebff"/>
        </g>
        <g id="Grupo_56684" data-name="Grupo 56684" transform="translate(13.555 7.402)">
          <path id="Trazado_102540" data-name="Trazado 102540" d="M521.114,480.911l.537-.309c.268-.137.2-.181-.063-1.281a.61.61,0,0,0-.384-.447c-.41-.083-.479-.047-.7-.507a.39.39,0,0,1,0-.419l.185-.187c.1-.1.069-.337-.067-.53-.949-1.344-.723-1.116-1.386-.779a.745.745,0,0,1-.236-.182c-.257-.239-.216-.493-.216-.822a.673.673,0,0,0-.3-.527c-.867-.5-.816-.521-1.019-.387l-.124.071s-.5.289-.53.3l-.183-.4c-.1-.214-.289-.359-.425-.324-.54.141-.6.142-.709.221l-1.454.836c-.139.078-.119.266-.063.409l-.764.44c-.131.078-.078,0-.342.783a.61.61,0,0,0,.2.556c.278.264.459.394.5.668l-.476.274c-.342.174-.279.156,0,1.316a.61.61,0,0,0,.384.447c.411.083.479.047.7.507a.391.391,0,0,1,0,.419l-.185.187c-.1.1-.069.337.067.53.951,1.347.721,1.115,1.386.78a.744.744,0,0,1,.236.182c.257.239.216.493.216.822a.673.673,0,0,0,.3.527l.719.415c.2.113.192,0,.953-.4l.183.4c.1.214.289.359.425.323a2.135,2.135,0,0,0,.786-.265l1.392-.8c.1-.055.119-.22.047-.4l.764-.44c.13-.078.077.007.342-.783a.611.611,0,0,0-.2-.556C521.339,481.317,521.156,481.186,521.114,480.911Zm-4.746-3.09a3.781,3.781,0,0,1,1.943,3.371A3.78,3.78,0,0,1,516.368,477.821Z" transform="translate(-512.853 -474.184)" fill="#8aa8ff"/>
          <path id="Trazado_102541" data-name="Trazado 102541" d="M520.052,486.175l-.3-.282a.678.678,0,0,1-.21-.463c0-.017,0-.035,0-.052s0-.035,0-.052c0-.157.083-.246.21-.22l.3.06c.16.032.247-.115.2-.33l-.222-.918a.611.611,0,0,0-.384-.447l-.3-.06a.564.564,0,0,1-.343-.33l-.054-.117a.391.391,0,0,1,0-.419l.185-.187c.1-.1.069-.337-.067-.53l-.582-.824c-.136-.193-.326-.268-.425-.168l-.183.186c-.078.079-.217.05-.343-.072l-.088-.084a.681.681,0,0,1-.216-.461v-.361a.673.673,0,0,0-.3-.527l-.719-.415c-.168-.1-.3-.018-.3.176v.361c0,.155-.088.241-.216.212l-.088-.018a.557.557,0,0,1-.343-.325l-.183-.4c-.1-.214-.289-.359-.425-.324l-.582.152c-.136.036-.166.238-.067.452l.185.4a.384.384,0,0,1,0,.416l-.054.055c-.077.082-.216.055-.343-.066l-.3-.285c-.16-.152-.332-.15-.384,0l-.222.662a.61.61,0,0,0,.2.556l.3.282a.679.679,0,0,1,.21.463c0,.017,0,.035,0,.052s0,.035,0,.053c0,.156-.083.246-.21.22l-.3-.06c-.16-.032-.248.115-.2.33l.222.918a.61.61,0,0,0,.384.447l.3.061a.563.563,0,0,1,.343.33l.054.116a.391.391,0,0,1,0,.419l-.185.187c-.1.1-.069.337.067.53l.582.824c.136.193.326.268.425.168l.183-.186c.078-.079.217-.05.343.072l.088.083a.682.682,0,0,1,.216.461v.361a.673.673,0,0,0,.3.527l.719.415c.168.1.3.019.3-.176v-.361c0-.155.088-.241.216-.212l.088.018a.558.558,0,0,1,.343.325l.183.4c.1.214.289.359.425.323l.582-.152c.136-.036.166-.238.067-.452l-.185-.4a.384.384,0,0,1,0-.416l.054-.055c.077-.082.216-.055.343.066l.3.285c.16.152.332.15.384,0l.222-.662A.611.611,0,0,0,520.052,486.175Zm-3.494-.486a3.9,3.9,0,0,1-1.763-3.054c0-1.125.789-1.58,1.763-1.018a3.9,3.9,0,0,1,1.763,3.054C518.322,485.8,517.532,486.252,516.558,485.69Z" transform="translate(-512.853 -477.882)" fill="#deebff"/>
        </g>
      </g>
      <path id="Trazado_102542" data-name="Trazado 102542" d="M441.806,508.189c0-.015-.005-.03-.008-.046a2.82,2.82,0,0,0-.2-.643,3.281,3.281,0,0,0-.363-.628,3.006,3.006,0,0,0-.228-.275c-.04-.043-.081-.084-.123-.123a2.193,2.193,0,0,0-.4-.3l-20.356-11.753-20.357-11.753a1.089,1.089,0,0,0-.751-.169.65.65,0,0,0-.2.075.943.943,0,0,0-.393.869v4.692h0v22.247a2.967,2.967,0,0,0,1.343,2.325l40.713,23.506c.741.428,1.342.081,1.342-.775V508.5A2.064,2.064,0,0,0,441.806,508.189Z" transform="translate(-127.46 -324.689)" fill="#c1d7ff" style="mix-blend-mode: multiply;isolation: isolate"/>
      <path id="Trazado_102543" data-name="Trazado 102543" d="M441.239,251.1c-.475-.646.8.2-21.107-12.451L399.776,226.9a1.091,1.091,0,0,0-.751-.169.651.651,0,0,0-.2.075.943.943,0,0,0-.393.869v4.692h0V254.61a2.967,2.967,0,0,0,1.343,2.325l40.713,23.506c.741.428,1.342.081,1.342-.775V252.727A2.907,2.907,0,0,0,441.239,251.1Z" transform="translate(-127.46 -118.882)" fill="#c1d7ff" style="mix-blend-mode: multiply;isolation: isolate"/>
      <g id="Grupo_56688" data-name="Grupo 56688" transform="translate(271.26 108.728)">
        <path id="Trazado_102544" data-name="Trazado 102544" d="M442.525,254.532c0-.057-.013-.115-.023-.174a2.338,2.338,0,0,0-.065-.277,2.786,2.786,0,0,0-.181-.448c-.04-.079-.084-.155-.13-.23s-.081-.127-.126-.187a2.75,2.75,0,0,0-.2-.247,2.077,2.077,0,0,0-.469-.381l-12.192-7.039-24.383-14.078a.857.857,0,0,0-.835-.093h0l-.013.008-.007,0-1.917,1,1.567.676v3.314h0V256.37a2.665,2.665,0,0,0,1.206,2.089l35.528,20.512.009,1.78,1.89-1.091h0l.005,0h0a.851.851,0,0,0,.348-.777v-24.2Q442.532,254.606,442.525,254.532Z" transform="translate(-401.572 -231.309)" fill="#7292d3"/>
        <path id="Trazado_102545" data-name="Trazado 102545" d="M399.9,261.688a2.671,2.671,0,0,0,1.208,2.092l36.63,21.148c.667.385,1.208.073,1.208-.7V259.994a2.67,2.67,0,0,0-1.208-2.092l-36.63-21.148c-.667-.385-1.208-.073-1.208.7Z" transform="translate(-399.899 -235.557)" fill="#deebff"/>
        <g id="Grupo_56687" data-name="Grupo 56687" transform="translate(3.085 5.422)">
          <path id="Trazado_102546" data-name="Trazado 102546" d="M445.37,276.835l-16.6-9.586v-.639l16.6,9.586Z" transform="translate(-426.213 -265.137)" fill="#ff4d8c"/>
          <path id="Trazado_102547" data-name="Trazado 102547" d="M438.186,280.247l-9.419-5.438v-.639l9.419,5.438Z" transform="translate(-426.213 -271.219)" fill="#353fb0"/>
          <path id="Trazado_102548" data-name="Trazado 102548" d="M440.82,289.122l-12.053-6.959v-.639l12.053,6.959Z" transform="translate(-426.213 -277.137)" fill="#ff4d8c"/>
          <path id="Trazado_102549" data-name="Trazado 102549" d="M451.676,302.745l-22.909-13.226v-.639l22.909,13.226Z" transform="translate(-426.213 -283.055)" fill="#353fb0"/>
          <path id="Trazado_102550" data-name="Trazado 102550" d="M442.736,305.551l-13.969-8.065v-.639l13.969,8.065Z" transform="translate(-426.213 -289.466)" fill="#ed66ed"/>
          <path id="Trazado_102551" data-name="Trazado 102551" d="M453.113,319.305l-24.345-14.056v-.639l24.345,14.056Z" transform="translate(-426.213 -295.713)" fill="#ff4d8c"/>
          <path id="Trazado_102552" data-name="Trazado 102552" d="M447.166,331.4l-18.4-10.622v-.639l18.4,10.622Z" transform="translate(-426.213 -308.207)" fill="#ed66ed"/>
          <path id="Trazado_102553" data-name="Trazado 102553" d="M453.113,342.6,428.767,328.54V327.9l24.345,14.056Z" transform="translate(-426.213 -314.453)" fill="#ff4d8c"/>
          <path id="Trazado_102554" data-name="Trazado 102554" d="M446.128,346.326,428.767,336.3v-.639l17.361,10.023Z" transform="translate(-426.213 -320.7)" fill="#353fb0"/>
          <path id="Trazado_102555" data-name="Trazado 102555" d="M439.224,319.05l-10.457-6.037v-.639l10.457,6.037Z" transform="translate(-426.213 -301.96)" fill="#353fb0"/>
          <path id="Trazado_102556" data-name="Trazado 102556" d="M437.388,349.043l-8.621-4.977v-.639l8.621,4.977Z" transform="translate(-426.213 -326.947)" fill="#ed66ed"/>
          <path id="Trazado_102557" data-name="Trazado 102557" d="M481.255,374.37l-5.907-3.41v-.639l5.907,3.41Z" transform="translate(-463.694 -348.587)" fill="#353fb0"/>
          <path id="Trazado_102558" data-name="Trazado 102558" d="M491.061,348.978l-5.907-3.41v-.639l5.907,3.41Z" transform="translate(-471.585 -328.155)" fill="#ed66ed"/>
          <path id="Trazado_102559" data-name="Trazado 102559" d="M509.449,344.067l-5.907-3.41v-.639l5.907,3.41Z" transform="translate(-486.38 -324.204)" fill="#ff4d8c"/>
          <path id="Trazado_102560" data-name="Trazado 102560" d="M450.479,364.365,428.767,351.83v-.639l21.711,12.535Z" transform="translate(-426.213 -333.194)" fill="#353fb0"/>
          <path id="Trazado_102561" data-name="Trazado 102561" d="M442.616,367.589l-13.849-8v-.639l13.849,8Z" transform="translate(-426.213 -339.44)" fill="#ed66ed"/>
          <path id="Trazado_102562" data-name="Trazado 102562" d="M447.525,385.132,428.767,374.3v-.639l18.758,10.83Z" transform="translate(-426.213 -351.277)" fill="#ed66ed"/>
          <path id="Trazado_102563" data-name="Trazado 102563" d="M435.712,370.957l-6.944-4.009v-.639l6.944,4.009Z" transform="translate(-426.213 -345.358)" fill="#ff4d8c"/>
          <g id="Grupo_56686" data-name="Grupo 56686">
            <path id="Trazado_102564" data-name="Trazado 102564" d="M416.509,260.172l-.817-.471v-.639l.817.471Z" transform="translate(-415.692 -259.062)" fill="#ff4d8c"/>
            <path id="Trazado_102565" data-name="Trazado 102565" d="M416.155,267.527l-.463-.267v-.639l.463.267Z" transform="translate(-415.692 -265.145)" fill="#353fb0"/>
            <path id="Trazado_102566" data-name="Trazado 102566" d="M416.285,274.957l-.593-.342v-.639l.593.342Z" transform="translate(-415.692 -271.063)" fill="#ff4d8c"/>
            <path id="Trazado_102567" data-name="Trazado 102567" d="M416.819,282.62l-1.127-.65v-.639l1.127.65Z" transform="translate(-415.692 -276.981)" fill="#353fb0"/>
            <path id="Trazado_102568" data-name="Trazado 102568" d="M416.379,290.334l-.687-.4V289.3l.687.4Z" transform="translate(-415.692 -283.392)" fill="#ed66ed"/>
            <path id="Trazado_102569" data-name="Trazado 102569" d="M416.81,298.346l-1.117-.645v-.639l1.117.645Z" transform="translate(-415.692 -289.639)" fill="#ff4d8c"/>
            <path id="Trazado_102570" data-name="Trazado 102570" d="M416.6,313.75l-.9-.522v-.639l.9.522Z" transform="translate(-415.692 -302.132)" fill="#ed66ed"/>
            <path id="Trazado_102571" data-name="Trazado 102571" d="M416.89,321.682l-1.2-.691v-.639l1.2.691Z" transform="translate(-415.692 -308.379)" fill="#ff4d8c"/>
            <path id="Trazado_102572" data-name="Trazado 102572" d="M416.546,329.247l-.854-.493v-.639l.854.493Z" transform="translate(-415.692 -314.626)" fill="#353fb0"/>
            <path id="Trazado_102573" data-name="Trazado 102573" d="M416.206,305.761l-.514-.3v-.639l.514.3Z" transform="translate(-415.692 -295.885)" fill="#353fb0"/>
            <path id="Trazado_102574" data-name="Trazado 102574" d="M416.116,336.762l-.424-.245v-.639l.424.245Z" transform="translate(-415.692 -320.873)" fill="#ed66ed"/>
            <path id="Trazado_102575" data-name="Trazado 102575" d="M418.273,338.008l-.29-.168V337.2l.29.168Z" transform="translate(-417.535 -321.937)" fill="#353fb0"/>
            <path id="Trazado_102576" data-name="Trazado 102576" d="M420.186,308.058l-.29-.168v-.639l.29.168Z" transform="translate(-419.074 -297.838)" fill="#353fb0"/>
            <path id="Trazado_102577" data-name="Trazado 102577" d="M416.76,344.9l-1.068-.616v-.639l1.068.616Z" transform="translate(-415.692 -327.119)" fill="#353fb0"/>
            <path id="Trazado_102578" data-name="Trazado 102578" d="M416.373,352.437l-.681-.393v-.639l.681.393Z" transform="translate(-415.692 -333.366)" fill="#ed66ed"/>
            <path id="Trazado_102579" data-name="Trazado 102579" d="M416.615,367.286l-.923-.533v-.639l.923.533Z" transform="translate(-415.692 -345.202)" fill="#ed66ed"/>
            <path id="Trazado_102580" data-name="Trazado 102580" d="M416.034,359.6l-.342-.2v-.639l.342.2Z" transform="translate(-415.692 -339.284)" fill="#ff4d8c"/>
          </g>
        </g>
      </g>
      <g id="Grupo_56691" data-name="Grupo 56691" transform="translate(271.426 158.966)">
        <path id="Trazado_102581" data-name="Trazado 102581" d="M443.375,511.7c0-.057-.013-.115-.023-.174a2.34,2.34,0,0,0-.065-.277,2.769,2.769,0,0,0-.181-.448c-.04-.079-.084-.155-.13-.23s-.081-.127-.126-.187a2.66,2.66,0,0,0-.2-.247,2.077,2.077,0,0,0-.469-.381l-12.192-7.039L405.6,488.643a.857.857,0,0,0-.835-.093h0l-.013.007-.007,0-1.916,1,1.567.677v3.314h0V513.54a2.666,2.666,0,0,0,1.206,2.089l35.528,20.512.009,1.78,1.89-1.091h0l.005,0h0a.851.851,0,0,0,.348-.777v-24.2Q443.381,511.776,443.375,511.7Z" transform="translate(-402.422 -488.479)" fill="#7292d3"/>
        <path id="Trazado_102582" data-name="Trazado 102582" d="M400.749,518.858a2.67,2.67,0,0,0,1.208,2.092l36.63,21.148c.667.385,1.208.073,1.208-.7V517.164a2.67,2.67,0,0,0-1.208-2.092l-36.63-21.148c-.667-.385-1.208-.073-1.208.7Z" transform="translate(-400.749 -492.727)" fill="#deebff"/>
        <g id="Grupo_56690" data-name="Grupo 56690" transform="translate(3.085 5.422)">
          <path id="Trazado_102583" data-name="Trazado 102583" d="M446.219,534.005l-16.6-9.586v-.639l16.6,9.586Z" transform="translate(-427.062 -522.306)" fill="#ff4d8c"/>
          <path id="Trazado_102584" data-name="Trazado 102584" d="M439.036,537.417l-9.419-5.438v-.639l9.419,5.438Z" transform="translate(-427.062 -528.389)" fill="#353fb0"/>
          <path id="Trazado_102585" data-name="Trazado 102585" d="M441.67,546.292l-12.053-6.959V538.7l12.053,6.959Z" transform="translate(-427.062 -534.307)" fill="#ff4d8c"/>
          <path id="Trazado_102586" data-name="Trazado 102586" d="M452.525,559.915l-22.909-13.226v-.639l22.909,13.226Z" transform="translate(-427.062 -540.225)" fill="#353fb0"/>
          <path id="Trazado_102587" data-name="Trazado 102587" d="M443.585,562.721l-13.969-8.065v-.639l13.969,8.065Z" transform="translate(-427.062 -546.636)" fill="#ed66ed"/>
          <path id="Trazado_102588" data-name="Trazado 102588" d="M453.962,576.475l-24.345-14.056v-.639l24.345,14.056Z" transform="translate(-427.062 -552.883)" fill="#ff4d8c"/>
          <path id="Trazado_102589" data-name="Trazado 102589" d="M448.015,588.569l-18.4-10.622v-.639l18.4,10.622Z" transform="translate(-427.062 -565.377)" fill="#ed66ed"/>
          <path id="Trazado_102590" data-name="Trazado 102590" d="M453.962,599.765,429.617,585.71v-.639l24.345,14.056Z" transform="translate(-427.062 -571.623)" fill="#ff4d8c"/>
          <path id="Trazado_102591" data-name="Trazado 102591" d="M446.978,603.5l-17.361-10.023v-.639l17.361,10.023Z" transform="translate(-427.062 -577.87)" fill="#353fb0"/>
          <path id="Trazado_102592" data-name="Trazado 102592" d="M440.073,576.22l-10.457-6.037v-.639l10.457,6.037Z" transform="translate(-427.062 -559.13)" fill="#353fb0"/>
          <path id="Trazado_102593" data-name="Trazado 102593" d="M438.237,606.213l-8.621-4.977V600.6l8.621,4.977Z" transform="translate(-427.062 -584.117)" fill="#ed66ed"/>
          <path id="Trazado_102594" data-name="Trazado 102594" d="M482.1,631.54l-5.907-3.41v-.639l5.907,3.41Z" transform="translate(-464.544 -605.757)" fill="#353fb0"/>
          <path id="Trazado_102595" data-name="Trazado 102595" d="M491.911,606.148,486,602.738V602.1l5.907,3.41Z" transform="translate(-472.434 -585.325)" fill="#ed66ed"/>
          <path id="Trazado_102596" data-name="Trazado 102596" d="M510.3,601.237l-5.907-3.41v-.639l5.907,3.41Z" transform="translate(-487.23 -581.374)" fill="#ff4d8c"/>
          <path id="Trazado_102597" data-name="Trazado 102597" d="M451.328,621.535,429.617,609v-.639L451.328,620.9Z" transform="translate(-427.062 -590.364)" fill="#353fb0"/>
          <path id="Trazado_102598" data-name="Trazado 102598" d="M443.466,624.759l-13.849-8v-.639l13.849,8Z" transform="translate(-427.062 -596.61)" fill="#ed66ed"/>
          <path id="Trazado_102599" data-name="Trazado 102599" d="M448.375,642.3l-18.758-10.83v-.639l18.758,10.83Z" transform="translate(-427.062 -608.446)" fill="#ed66ed"/>
          <path id="Trazado_102600" data-name="Trazado 102600" d="M436.561,628.127l-6.944-4.009v-.639l6.944,4.009Z" transform="translate(-427.062 -602.528)" fill="#ff4d8c"/>
          <g id="Grupo_56689" data-name="Grupo 56689">
            <path id="Trazado_102601" data-name="Trazado 102601" d="M417.358,517.342l-.816-.471v-.639l.816.471Z" transform="translate(-416.542 -516.232)" fill="#ff4d8c"/>
            <path id="Trazado_102602" data-name="Trazado 102602" d="M417,524.7l-.463-.267v-.639l.463.267Z" transform="translate(-416.542 -522.315)" fill="#353fb0"/>
            <path id="Trazado_102603" data-name="Trazado 102603" d="M417.134,532.127l-.593-.342v-.639l.593.342Z" transform="translate(-416.542 -528.233)" fill="#ff4d8c"/>
            <path id="Trazado_102604" data-name="Trazado 102604" d="M417.668,539.79l-1.127-.65V538.5l1.127.65Z" transform="translate(-416.542 -534.151)" fill="#353fb0"/>
            <path id="Trazado_102605" data-name="Trazado 102605" d="M417.228,547.5l-.687-.4v-.639l.687.4Z" transform="translate(-416.542 -540.562)" fill="#ed66ed"/>
            <path id="Trazado_102606" data-name="Trazado 102606" d="M417.659,555.516l-1.117-.645v-.639l1.117.645Z" transform="translate(-416.542 -546.809)" fill="#ff4d8c"/>
            <path id="Trazado_102607" data-name="Trazado 102607" d="M417.446,570.919l-.9-.522v-.639l.9.522Z" transform="translate(-416.542 -559.302)" fill="#ed66ed"/>
            <path id="Trazado_102608" data-name="Trazado 102608" d="M417.739,578.852l-1.2-.691v-.639l1.2.691Z" transform="translate(-416.542 -565.549)" fill="#ff4d8c"/>
            <path id="Trazado_102609" data-name="Trazado 102609" d="M417.4,586.417l-.854-.493v-.639l.854.493Z" transform="translate(-416.542 -571.796)" fill="#353fb0"/>
            <path id="Trazado_102610" data-name="Trazado 102610" d="M417.056,562.931l-.514-.3V562l.514.3Z" transform="translate(-416.542 -553.055)" fill="#353fb0"/>
            <path id="Trazado_102611" data-name="Trazado 102611" d="M416.965,593.932l-.424-.245v-.639l.424.245Z" transform="translate(-416.542 -578.042)" fill="#ed66ed"/>
            <path id="Trazado_102612" data-name="Trazado 102612" d="M419.123,595.178l-.29-.168v-.639l.29.168Z" transform="translate(-418.385 -579.107)" fill="#353fb0"/>
            <path id="Trazado_102613" data-name="Trazado 102613" d="M421.035,565.228l-.29-.168v-.639l.29.168Z" transform="translate(-419.924 -555.008)" fill="#353fb0"/>
            <path id="Trazado_102614" data-name="Trazado 102614" d="M417.609,602.067l-1.068-.616v-.639l1.068.616Z" transform="translate(-416.542 -584.289)" fill="#353fb0"/>
            <path id="Trazado_102615" data-name="Trazado 102615" d="M417.223,609.607l-.681-.393v-.639l.681.393Z" transform="translate(-416.542 -590.536)" fill="#ed66ed"/>
            <path id="Trazado_102616" data-name="Trazado 102616" d="M417.464,624.456l-.922-.533v-.639l.922.533Z" transform="translate(-416.542 -602.372)" fill="#ed66ed"/>
            <path id="Trazado_102617" data-name="Trazado 102617" d="M416.883,616.766l-.341-.2v-.639l.341.2Z" transform="translate(-416.542 -596.454)" fill="#ff4d8c"/>
          </g>
        </g>
      </g>
      <g id="Grupo_56696" data-name="Grupo 56696" transform="translate(258.764 78.968)">
        <g id="Grupo_56693" data-name="Grupo 56693" transform="translate(0)">
          <g id="Grupo_56692" data-name="Grupo 56692">
            <path id="Trazado_102618" data-name="Trazado 102618" d="M349.928,93.079v16.148l-13.985-8.074V85Z" transform="translate(-335.941 -83.826)" fill="#ed66ed"/>
            <path id="Trazado_102619" data-name="Trazado 102619" d="M335.934,80.148l13.985,8.074,2.042-1.179-13.985-8.074Z" transform="translate(-335.934 -78.968)" fill="#fc92ff"/>
            <path id="Trazado_102620" data-name="Trazado 102620" d="M407.539,121.465v16.148l2.039-1.183V120.282Z" transform="translate(-393.551 -112.211)" fill="#d845d8"/>
          </g>
          <path id="Trazado_102621" data-name="Trazado 102621" d="M357.52,180.126l1.855,6.008,2.343-3.584Z" transform="translate(-353.303 -160.365)" fill="#ed66ed"/>
          <path id="Trazado_102622" data-name="Trazado 102622" d="M367.017,196.117l4.314-2.446-1.971-1.138Z" transform="translate(-360.945 -170.348)" fill="#d845d8"/>
        </g>
        <g id="Grupo_56695" data-name="Grupo 56695" transform="translate(1.093 7.191)">
          <path id="Trazado_102623" data-name="Trazado 102623" d="M350.894,122.372l-.22-.236,1-.627.635-1.08a7.721,7.721,0,0,0-2.138-1.987,1.644,1.644,0,0,0-1.709-.139c-.021.012-.041.023-.061.036s-.041.023-.061.036-.041.023-.061.036-.041.023-.061.036-.041.023-.061.036-.041.023-.061.036-.041.023-.061.036-.041.023-.061.036-.041.023-.061.036-.041.023-.061.036-.041.023-.061.036-.041.023-.061.036-.041.023-.061.036-.041.023-.061.036-.041.023-.061.036-.041.023-.061.036-.041.023-.061.036-.041.023-.061.036-.041.023-.061.036-.041.023-.061.036-.041.023-.061.036-.041.023-.061.036-.041.023-.061.036-.041.023-.061.036-.041.023-.061.036-.038.021-.056.032v-2.545l-1.451-.838h0l-.119-.069-.122.072h0l-.061.036h0l-.183.108h0l-.122.072h0l-.061.036h0l-.122.072h0l-.061.036h0l-.183.107h0l-.061.036h0l-.183.108h0l-.122.072h0l-.061.036h0l-.122.072h0l-.061.036h0l-.061.036.061.035h0l-.061-.035v4.078l-.041-.063-.06-.1-.061.036-.183.108-.183.107-.061.036-.183.107h0l-.122.072h0l-.061.036h0l-.122.072h0l-.061.036h0l-.061.036-.122.072-.061.036-.122.072-.061.036-.122.072-.5,1.225a5.051,5.051,0,0,0,1.612,1.693c.718.414,1.268.505,1.633.28.021-.011.041-.023.061-.036s.041-.023.061-.036.041-.023.061-.036.041-.023.061-.036.041-.023.061-.036.041-.023.061-.036.041-.023.061-.036.041-.023.061-.036.041-.023.061-.036.041-.023.061-.036.041-.023.061-.036.041-.023.061-.036.041-.023.061-.036.041-.023.061-.036.041-.023.061-.036.041-.023.061-.036.041-.023.061-.036.041-.023.061-.036.041-.023.061-.036.041-.023.061-.036.041-.023.061-.036.041-.023.061-.036.041-.023.061-.036.041-.023.061-.036.041-.023.061-.036c.376-.186.575-.674.575-1.468v-.156a6.683,6.683,0,0,0,.7.989h0l-1.061.624-.785,1.071a8.23,8.23,0,0,0,2.589,2.546c.807.466,1.58.672,2.07.353.021-.011.041-.023.061-.036s.041-.023.061-.036.041-.023.061-.036.041-.023.061-.036.041-.023.061-.036.041-.023.061-.036.041-.023.061-.036.041-.023.061-.036.041-.023.061-.036.041-.023.061-.036.041-.023.061-.036.041-.023.061-.036.041-.023.061-.036.041-.023.061-.036.041-.023.061-.036.041-.023.061-.036.041-.023.061-.036.041-.023.061-.036.041-.023.061-.036.041-.023.061-.036.041-.023.061-.036.041-.023.061-.036.041-.023.061-.036.041-.023.061-.036.041-.023.061-.036c.363-.2.589-.648.589-1.455A5.333,5.333,0,0,0,350.894,122.372Z" transform="translate(-341.53 -115.78)" fill="#d845d8" style="mix-blend-mode: multiply;isolation: isolate"/>
          <g id="Grupo_56694" data-name="Grupo 56694" transform="translate(0 0.932)">
            <path id="Trazado_102624" data-name="Trazado 102624" d="M345.289,127.168c0,1.562-.769,1.948-2.147,1.153a5.051,5.051,0,0,1-1.612-1.693l.5-1.225a3.884,3.884,0,0,0,.894,1.056c.451.26.794.14.794-.661v-5.247l1.57.907Z" transform="translate(-341.53 -120.551)" fill="#fff"/>
            <path id="Trazado_102625" data-name="Trazado 102625" d="M368.025,134.841l-.635,1.08a5.738,5.738,0,0,0-1.4-1.355c-.535-.309-.819-.193-.819.241s.651,1.138,1.437,1.977a5.333,5.333,0,0,1,1.612,3.1c0,1.9-1.253,1.842-2.6,1.066a8.23,8.23,0,0,1-2.589-2.546l.785-1.071a7.3,7.3,0,0,0,1.687,1.871c.342.2.994.535.994-.207,0-.579-.735-1.264-1.554-2.209a4.649,4.649,0,0,1-1.311-2.8c0-1.485,1.136-1.775,2.247-1.133A7.717,7.717,0,0,1,368.025,134.841Z" transform="translate(-358.836 -130.192)" fill="#fff"/>
          </g>
        </g>
      </g>
      <g id="Grupo_56701" data-name="Grupo 56701" transform="translate(304.579 166.65)">
        <g id="Grupo_56698" data-name="Grupo 56698" transform="translate(0)">
          <g id="Grupo_56697" data-name="Grupo 56697">
            <path id="Trazado_102626" data-name="Trazado 102626" d="M581.855,539.3v13.145l-11.384-6.573V532.725Z" transform="translate(-570.47 -531.765)" fill="#ed66ed"/>
            <path id="Trazado_102627" data-name="Trazado 102627" d="M570.464,528.771l11.384,6.573,1.663-.96-11.384-6.573Z" transform="translate(-570.464 -527.811)" fill="#fc92ff"/>
            <path id="Trazado_102628" data-name="Trazado 102628" d="M628.752,562.4V575.55l1.66-.963V561.442Z" transform="translate(-617.365 -554.872)" fill="#d845d8"/>
          </g>
          <path id="Trazado_102629" data-name="Trazado 102629" d="M588.035,610.157l1.51,4.891,1.907-2.918Z" transform="translate(-584.602 -594.07)" fill="#ed66ed"/>
          <path id="Trazado_102630" data-name="Trazado 102630" d="M595.766,623.174l3.512-1.991-1.6-.926Z" transform="translate(-590.823 -602.197)" fill="#d845d8"/>
        </g>
        <g id="Grupo_56700" data-name="Grupo 56700" transform="translate(1.613 6.415)">
          <path id="Trazado_102631" data-name="Trazado 102631" d="M586.505,564.64l-1.2-.695-.48.272v-.549l-.752-.434-.017.01h0l-.009,0h0l-.009.005h0l-.026.015h0l-.009,0h0l-.009.005h0l-.026.015h0l-.009.005h0l-.009,0h0l-.026.015h0l-.009.005h0l-.026.015h0l-.009.005h0l-.009,0h0l-.026.015h0l-.009,0h0l-.009,0h0l-.026.015h0l-.009,0h0l-.009,0h0l-.026.015h0l-.009,0h0l-.009,0h0l-.017.01h0l-.009,0h0l-.009,0h0l-.009.005h0l-.017.01h0l-.009,0h0l-.009,0h0l-.009.005h0l-.017.01h0l-.009,0h0l-.009.005h0l-.009,0h0l-.017.01h0l-.009.005h0l-.009,0h0l-.009,0h0l-.009,0h0l-.009,0h0l-.009.005h0l-.009,0h0l-.009,0h0l-.009,0h0l-.009.005h0l-.009,0h0l-.009,0h0l-.009,0h0l-.009,0h0l-.009.005h0l-.009,0h0l-.009,0h0l-.009,0h0l-.009.005h0l-.009,0h0l-.009,0h0l-.009,0h0l-.009.005h0l-.009,0h0l-.009,0h0l-.009,0h0l-.009.005h0l-.009,0h0l-.009,0h0l-.009,0h0l-.009,0h0l-.009.005h0l-.009,0h0l-.009,0h0l-.009,0h0l-.009.005h0l-.009,0h0l-.009,0h0l-.009,0h0l-.009.005h0l-.009,0h0l-.009,0h0l-.009,0h0l-.009,0h0l-.009.005h0l-.009,0,.009,0h0l-.009-.005v.516l-.189-.109v-1.519l-.751-.434-.009,0h0l-.009.005h0l-.009,0h0l-.009,0h0l-.009.005h0l-.009,0h0l-.009,0h0l-.009,0h0l-.009.005h0l-.009,0h0l-.009,0h0l-.009,0h0l-.009,0h0l-.008,0h0l-.009,0h0l-.009,0h0l-.008,0h0l-.009,0h0l-.009,0h0l-.008,0h0l-.008,0h0l-.009,0h0l-.008,0h0l-.008,0h0l-.009,0h0l-.008,0h0l-.008,0h0l-.008,0h0l-.008,0h0l-.008,0h0l-.008,0h0l-.008,0h0l-.008,0h0l-.008,0h0l-.008,0h0l-.008,0h0l-.008,0h0l-.008,0h0l-.008,0h0l-.008,0h0l-.008,0h0l-.008,0h0l-.008,0h0l-.008,0h0l-.008,0h0l-.008,0h0l-.008,0h0l-.008,0h0l-.008,0h0l-.008,0h0l-.008,0h0l-.008,0h0l-.008,0h0l-.008,0h0a2.288,2.288,0,0,0-.989-1.111l-1.144-.66h0l-.059-.034-.017.01h0l-.009,0h0l-.009,0h0l-.026.015h0l-.009,0h0l-.009,0h0l-.026.015h0l-.009,0h0l-.009,0h0l-.026.015h0l-.009,0h0l-.026.015h0l-.009,0h0l-.009,0h0l-.026.015h0l-.009,0h0l-.009.005h0l-.026.015h0l-.009.005h0l-.009,0h0l-.026.015h0l-.009.005h0l-.009,0h0l-.017.01h0l-.009.005h0l-.009,0h0l-.009,0h0l-.017.01h0l-.009,0h0l-.009,0h0l-.009,0h0l-.017.01h0l-.009,0h0l-.009,0h0l-.009,0h0l-.017.01h0l-.009,0h0l-.009,0h0l-.009.005h0l-.009,0h0l-.009,0h0l-.009,0h0l-.009.005h0l-.009,0h0l-.009,0h0l-.009,0h0l-.009,0h0l-.009,0h0l-.009,0h0l-.009,0h0l-.009,0h0l-.009.005h0l-.009,0h0l-.009,0h0l-.009,0h0l-.009,0h0l-.009.005h0l-.009,0h0l-.009,0h0l-.009,0h0l-.009,0h0l-.009,0h0l-.009,0h0l-.009,0h0l-.009.005h0l-.009,0h0l-.009,0h0l-.009,0h0l-.009.005h0l-.009,0h0l-.009,0h0l-.009,0h0l-.009,0h0l-.009.005h0l-.009,0h0l-.009,0h0l-.009,0h0l-.009.005h0l-.009,0h0l-.009,0h0l-.009,0h0l-.009.005v3.808l.752.434.407-.232h0l.043-.025h0l.043-.025h0l.043-.025h0l.035-.02h0l.009,0h0l.035-.02h0l.009,0h0l.035-.02h0l.009,0h0l.035-.02h0l.009,0h0l.026-.015h0l.009,0h0l.035-.02h0l.009,0h0l.035-.02h0l.009-.005h0l.035-.02h0l.009-.005v-.482a.6.6,0,0,0,.391-.029l.009,0,.009,0,.009,0,.009,0,.009-.005.009,0,.009,0,.009,0,.009-.005.009,0,.009,0,.009,0,.009-.005.009,0,.009,0,.009,0,.009-.005.009,0,.009,0,.009,0,.009,0,.009-.005.009,0,.009,0,.009,0,.009-.005.009,0,.009,0,.009,0,.009-.005.009,0,.009,0,.009,0,.009,0,.009-.005.009,0,.009,0,.009,0,.009-.005.009,0,.009,0,.009,0,.009,0,.009-.005.009,0,.009,0,.009-.005.009,0,.009,0,.009,0,.009,0,.009-.005.009,0,.009,0,.009,0,.009,0,.009-.005.009,0,.009,0,.009,0,.009-.005.009,0,.009,0,.009,0,.009-.005.009,0,.009,0,.009,0,.009-.005.009,0,.009,0,.009,0,.009,0,.009-.005,0,0v2.48l.752.434.407-.232h0l.043-.025h0l.043-.025h0l.043-.025h0l.035-.02h0l.009,0h0l.035-.02h0l.009,0h0l.035-.02h0l.009,0h0l.035-.02h0l.009,0h0l.026-.015h0l.009,0h0l.035-.02h0l.009,0h0l.035-.02h0l.009,0h0l.035-.02h0l.009-.005V565.9l.189.109v1.528l.751.434.043-.025h0l.078-.044h0l.043-.025h0l.043-.025h0l.043-.025h0l.035-.02h0l.009,0h0l.035-.02h0l.009,0h0l.035-.02h0l.009,0h0l.026-.015h0l.009,0h0l.009,0h0l.026-.015h0l.009,0h0l.009,0h0l.009-.005v-.01l0,0v.556l.751.434.407-.232h0l.043-.025h0l.043-.025h0l.043-.025h0l.035-.02h0l.009,0h0l.035-.02h0l.009,0h0l.035-.02h0l.009-.005h0l.035-.02h0l.009,0h0l.026-.015h0l.009-.005h0l.035-.02h0l.009,0h0l.035-.02h0l.009,0h0l.035-.02h0l.009,0v-.482a.6.6,0,0,0,.391-.029l.009,0,.009,0,.009-.005.009,0,.009,0,.009,0,.009-.005.009,0,.009,0,.009,0,.009-.005.009,0,.009,0,.009,0,.009-.005.009,0,.009,0,.009,0,.009,0,.009-.005.009,0,.009,0,.009,0,.009-.005.009,0,.009,0,.009,0,.009,0,.009-.005.009,0,.009,0,.009,0,.009-.005.009,0,.009,0,.009,0,.009-.005.009,0,.009,0,.009,0,.009-.005.009,0,.009,0,.009,0,.009-.005.009,0,.009,0,.009,0,.009,0,.009-.005.009,0,.009,0,.009,0,.009-.005.009,0,.009,0,.009,0,.009,0,.009-.005.009,0,.009,0,.009,0,.009-.005.009,0,.009,0,.009,0,.009-.005.009,0,.009,0,.009,0,.009,0,.009-.005.009,0,.009,0,.009,0,.009-.005.009,0,.009,0,.009,0,.009,0,.009-.005.009,0,.009,0,.009,0,.009-.005.009,0,.009,0,.009,0,.009-.005.009,0,.009,0,.009,0,.009-.005.009,0,.009,0,.009,0,.009,0,.009-.005.009,0,.009,0c.2-.091.322-.327.322-.72A2.14,2.14,0,0,0,586.505,564.64Z" transform="translate(-578.719 -560.65)" fill="#d845d8" style="mix-blend-mode: multiply;isolation: isolate"/>
          <g id="Grupo_56699" data-name="Grupo 56699" transform="translate(0 0.498)">
            <path id="Trazado_102632" data-name="Trazado 102632" d="M579.922,563.893a2.141,2.141,0,0,1,1.127,1.823c0,.785-.484.944-1.127.572l-.452-.261v1.412l-.752-.434V563.2Zm-.24,1.565c.3.171.576.217.576-.171a1.006,1.006,0,0,0-.576-.84l-.212-.122v1.011Z" transform="translate(-578.719 -563.199)" fill="#fff"/>
            <path id="Trazado_102633" data-name="Trazado 102633" d="M593.1,575.309l-.752-.434v-3.808l.752.434v1.518l1.063.614v-1.518l.751.434v3.808l-.751-.434v-1.528l-1.063-.614Z" transform="translate(-589.685 -569.53)" fill="#fff"/>
            <path id="Trazado_102634" data-name="Trazado 102634" d="M609.143,580.764a2.141,2.141,0,0,1,1.127,1.823c0,.784-.484.944-1.127.572l-.452-.261v1.412l-.751-.434v-3.808Zm-.24,1.565c.3.171.576.217.576-.171a1,1,0,0,0-.576-.84l-.212-.122v1.011Z" transform="translate(-602.232 -576.773)" fill="#fff"/>
          </g>
        </g>
      </g>
      <g id="Grupo_56703" data-name="Grupo 56703" transform="translate(305.565 130.871)">
        <path id="Trazado_102635" data-name="Trazado 102635" d="M622.143,450.264c0-2.112,0-3.747,0-3.75.178-2.051-4.661-1.885-4.506-.133v3.787a.9.9,0,0,0,0,.152v9.26a1.169,1.169,0,0,0,0,.2v3.746c-.183,2.017,4.678,1.979,4.506,0,0,0,0-1.644,0-3.761a1.1,1.1,0,0,0,0-.121v-9.23A1.228,1.228,0,0,0,622.143,450.264Z" transform="translate(-609.402 -425.416)" fill="#fdd835"/>
        <path id="Trazado_102636" data-name="Trazado 102636" d="M589.027,378.894a14.026,14.026,0,0,0,4.873,5.15c1.779,1.027,3.435,1.2,4.662.495s1.9-2.23,1.9-4.285a15.284,15.284,0,0,0-6.9-11.945c-1.78-1.027-3.435-1.2-4.663-.495s-1.9,2.23-1.9,4.285A14.025,14.025,0,0,0,589.027,378.894Z" transform="translate(-584.757 -362.946)" fill="#34b2cc" opacity="0.15"/>
        <path id="Trazado_102637" data-name="Trazado 102637" d="M618.443,475.778c-1.672-.965-5.207-.614-5.158,1.537,0,.007,0,1.661,0,1.67-.041,1.806,3.349,2.414,5.158,1.369a1.494,1.494,0,0,0,.884-1.244c0-.008,0-2.059,0-2.067A1.511,1.511,0,0,0,618.443,475.778Z" transform="translate(-605.905 -449.754)" fill="#7c9ae5"/>
        <g id="Grupo_56702" data-name="Grupo 56702" transform="translate(0 0)">
          <path id="Trazado_102638" data-name="Trazado 102638" d="M596.31,361.424c0-5.725-4.019-12.686-8.977-15.548-4.042-2.334-5.821-.926-9.155.995l-.028.016c-1.632.934-2.643,2.949-2.643,5.819,0,5.725,4.019,12.686,8.977,15.548,1.985,1.146,4.393,1.768,6.39.6C594.133,367,596.31,366.152,596.31,361.424Zm-11.826-11.051a14.388,14.388,0,0,1,6.509,11.275,2.116,2.116,0,1,1-3.66,2.111,14.389,14.389,0,0,1-6.509-11.275,2.116,2.116,0,1,1,3.66-2.11Z" transform="translate(-575.508 -344.658)" fill="#fbc02d"/>
          <path id="Trazado_102639" data-name="Trazado 102639" d="M584.485,354.274c-4.958-2.862-8.977-.542-8.977,5.183s4.019,12.686,8.977,15.548,8.977.542,8.977-5.183S589.442,357.136,584.485,354.274Zm0,17.882a14.388,14.388,0,0,1-6.509-11.275c0-4.151,2.914-5.834,6.509-3.758a14.388,14.388,0,0,1,6.509,11.275C590.994,372.549,588.08,374.232,584.485,372.156Z" transform="translate(-575.508 -351.409)" fill="#ffee58"/>
        </g>
        <path id="Trazado_102640" data-name="Trazado 102640" d="M618.363,474.141a3.507,3.507,0,0,0,3.173,0,.967.967,0,0,0,0-1.832,3.507,3.507,0,0,0-3.173,0A.967.967,0,0,0,618.363,474.141Z" transform="translate(-609.463 -447.068)" fill="#fdd835"/>
      </g>
      <g id="Grupo_56708" data-name="Grupo 56708" transform="translate(298.944 115.151)">
        <g id="Grupo_56705" data-name="Grupo 56705" transform="translate(0)">
          <g id="Grupo_56704" data-name="Grupo 56704">
            <path id="Trazado_102641" data-name="Trazado 102641" d="M551.883,274.543v11.85l-10.262-5.925v-11.85Z" transform="translate(-541.619 -267.753)" fill="#ed66ed"/>
            <path id="Trazado_102642" data-name="Trazado 102642" d="M541.614,265.054l10.262,5.925,1.5-.865-10.262-5.925Z" transform="translate(-541.614 -264.189)" fill="#fc92ff"/>
            <path id="Trazado_102643" data-name="Trazado 102643" d="M594.158,295.373v11.85l1.5-.868v-11.85Z" transform="translate(-583.894 -288.583)" fill="#d845d8"/>
          </g>
          <path id="Trazado_102644" data-name="Trazado 102644" d="M557.453,338.42l1.362,4.409,1.719-2.63Z" transform="translate(-554.359 -323.919)" fill="#ed66ed"/>
          <path id="Trazado_102645" data-name="Trazado 102645" d="M564.423,350.155l3.166-1.8-1.446-.835Z" transform="translate(-559.967 -331.245)" fill="#d845d8"/>
        </g>
        <g id="Grupo_56707" data-name="Grupo 56707" transform="translate(0.915 6.302)">
          <path id="Trazado_102646" data-name="Trazado 102646" d="M553.761,300.88l-.088-.094.41-.263.049-.083.214-.365a3.2,3.2,0,0,0-.886-.823.677.677,0,0,0-.712-.054.424.424,0,0,0-.043.025.412.412,0,0,0-.043.025.435.435,0,0,0-.043.025.429.429,0,0,0-.043.025.4.4,0,0,0-.043.025,45.767,45.767,0,0,0-.129.075,25168256594.326,25168256594.326,0,0,1-.086.05.365.365,0,0,0-.043.025.411.411,0,0,0-.043.025.466.466,0,0,0-.043.025.461.461,0,0,0-.043.025.429.429,0,0,0-.043.025.435.435,0,0,0-.043.025.41.41,0,0,0-.043.025.4.4,0,0,0-.043.025.429.429,0,0,0-.043.025.423.423,0,0,0-.043.025.429.429,0,0,0-.043.025.418.418,0,0,0-.043.025,13.425,13.425,0,0,1-.086.05l-.013.007c-.065-.083-.132-.161-.2-.231l-.093-.1.415-.258.263-.448a3.2,3.2,0,0,0-.886-.823.677.677,0,0,0-.712-.054.455.455,0,0,0-.043.025.468.468,0,0,0-.043.025.424.424,0,0,0-.043.025.429.429,0,0,0-.043.025.415.415,0,0,0-.043.025.36.36,0,0,0-.043.025.391.391,0,0,0-.043.025.423.423,0,0,0-.043.025.387.387,0,0,0-.043.025.392.392,0,0,0-.043.025.387.387,0,0,0-.043.025.4.4,0,0,0-.043.025.427.427,0,0,0-.043.025.476.476,0,0,0-.043.025.429.429,0,0,0-.043.025.4.4,0,0,0-.043.025,94.238,94.238,0,0,0-.086.05.4.4,0,0,0-.043.025.423.423,0,0,0-.043.025.4.4,0,0,0-.043.025.407.407,0,0,0-.043.025.4.4,0,0,0-.043.025.434.434,0,0,0-.043.025.474.474,0,0,0-.043.025.567.567,0,0,0-.262.549,1.2,1.2,0,0,0,.076.4,1.109,1.109,0,0,1-.166-.079,1.939,1.939,0,0,1-.875-1.108,2.1,2.1,0,0,1,.318.351l.215-.126.086-.05h0l.215-.126.258-.151.086-.05h0l.215-.126.043-.025.277-.48a2.992,2.992,0,0,0-.938-.845,1.094,1.094,0,0,0-1.139-.084l-.043.025-.043.025-.043.025-.043.025-.043.025-.043.025-.043.025-.043.025-.043.025-.043.025-.043.025-.043.025-.043.025-.043.025-.043.025-.043.025-.043.025-.043.025-.043.025-.043.025-.043.025-.043.025-.043.025-.043.025-.043.025a.991.991,0,0,0-.451.931,3.424,3.424,0,0,0,1.547,2.6,1.418,1.418,0,0,0,.879.251l.064-.009.128-.082-.012.016a3.411,3.411,0,0,0,1.073,1.055c.337.194.659.28.862.144a.328.328,0,0,0,.043-.025,26.913,26.913,0,0,0,.086-.05.379.379,0,0,0,.043-.025.386.386,0,0,0,.043-.025,94.238,94.238,0,0,1,.086-.05.354.354,0,0,0,.043-.025.337.337,0,0,0,.043-.025.333.333,0,0,0,.043-.025.354.354,0,0,0,.043-.025.363.363,0,0,0,.043-.025.384.384,0,0,0,.043-.025,25168256582.248,25168256582.248,0,0,1,.086-.05.373.373,0,0,0,.043-.025.411.411,0,0,0,.043-.025.38.38,0,0,0,.043-.025,94.238,94.238,0,0,1,.086-.05.337.337,0,0,0,.043-.025.345.345,0,0,0,.043-.025.389.389,0,0,0,.043-.025.38.38,0,0,0,.043-.025l.034-.019.032.038h0l-.013-.015-.438.261-.325.444a3.412,3.412,0,0,0,1.073,1.055c.337.194.659.28.862.144a94.238,94.238,0,0,1,.086-.05.35.35,0,0,0,.043-.025.355.355,0,0,0,.043-.025.363.363,0,0,0,.043-.025.389.389,0,0,0,.043-.025.365.365,0,0,0,.043-.025.36.36,0,0,0,.043-.025.337.337,0,0,0,.043-.025.325.325,0,0,0,.043-.025.348.348,0,0,0,.043-.025.394.394,0,0,0,.043-.025.415.415,0,0,0,.043-.025.38.38,0,0,0,.043-.025,94.238,94.238,0,0,1,.086-.05.35.35,0,0,0,.043-.025.363.363,0,0,0,.043-.025.4.4,0,0,0,.043-.025.35.35,0,0,0,.043-.025.339.339,0,0,0,.043-.025.346.346,0,0,0,.043-.025.355.355,0,0,0,.043-.025.383.383,0,0,0,.043-.025.421.421,0,0,0,.043-.025c.158-.077.258-.266.258-.611A2.212,2.212,0,0,0,553.761,300.88Z" transform="translate(-546.298 -296.448)" fill="#d845d8" style="mix-blend-mode: multiply;isolation: isolate"/>
          <g id="Grupo_56706" data-name="Grupo 56706" transform="translate(0 0.654)">
            <path id="Trazado_102647" data-name="Trazado 102647" d="M548.507,302.86l.277.8s-.318.12-.938-.238a3.424,3.424,0,0,1-1.547-2.6c0-.947.737-1.289,1.547-.821a2.991,2.991,0,0,1,.938.845l-.277.48a1.97,1.97,0,0,0-.561-.528c-.654-.378-.942-.016-.942.424a1.884,1.884,0,0,0,.942,1.515A.752.752,0,0,0,548.507,302.86Z" transform="translate(-546.298 -299.796)" fill="#fff"/>
            <path id="Trazado_102648" data-name="Trazado 102648" d="M561.708,307.755l-.263.448a2.379,2.379,0,0,0-.578-.562c-.221-.128-.339-.08-.339.1s.27.472.6.819a2.211,2.211,0,0,1,.668,1.285c0,.787-.519.763-1.077.442a3.411,3.411,0,0,1-1.073-1.055l.325-.444a3.029,3.029,0,0,0,.7.775c.142.082.412.222.412-.086,0-.24-.3-.524-.644-.915a1.927,1.927,0,0,1-.543-1.161c0-.616.471-.736.931-.47A3.2,3.2,0,0,1,561.708,307.755Z" transform="translate(-557.034 -305.43)" fill="#fff"/>
            <path id="Trazado_102649" data-name="Trazado 102649" d="M573.263,314.426l-.263.448a2.375,2.375,0,0,0-.578-.562c-.221-.128-.339-.08-.339.1s.27.472.6.819a2.209,2.209,0,0,1,.668,1.285c0,.787-.519.763-1.077.442A3.412,3.412,0,0,1,571.2,315.9l.325-.444a3.028,3.028,0,0,0,.7.776c.142.082.412.222.412-.086,0-.24-.3-.524-.644-.915a1.925,1.925,0,0,1-.543-1.161c0-.616.471-.736.931-.47A3.2,3.2,0,0,1,573.263,314.426Z" transform="translate(-566.332 -310.798)" fill="#fff"/>
          </g>
        </g>
      </g>
      <g id="Grupo_56713" data-name="Grupo 56713" transform="translate(308.254 82.424)">
        <g id="Grupo_56710" data-name="Grupo 56710">
          <g id="Grupo_56709" data-name="Grupo 56709">
            <path id="Trazado_102650" data-name="Trazado 102650" d="M599.958,107.428v12.326l-10.675-6.163V101.264Z" transform="translate(-589.282 -100.364)" fill="#ed66ed"/>
            <path id="Trazado_102651" data-name="Trazado 102651" d="M589.277,97.557l10.675,6.163,1.559-.9-10.675-6.163Z" transform="translate(-589.277 -96.657)" fill="#fc92ff"/>
            <path id="Trazado_102652" data-name="Trazado 102652" d="M643.934,129.095v12.327l1.557-.9V128.192Z" transform="translate(-633.257 -122.032)" fill="#d845d8"/>
          </g>
          <path id="Trazado_102653" data-name="Trazado 102653" d="M605.753,173.873l1.416,4.586,1.788-2.736Z" transform="translate(-602.534 -158.788)" fill="#ed66ed"/>
          <path id="Trazado_102654" data-name="Trazado 102654" d="M613,186.079l3.293-1.867-1.5-.869Z" transform="translate(-608.368 -166.409)" fill="#d845d8"/>
        </g>
        <g id="Grupo_56712" data-name="Grupo 56712" transform="translate(0.516 6.294)">
          <path id="Trazado_102655" data-name="Trazado 102655" d="M600.62,134.411v-.944l-.695-.4-.007,0h0l-.022.012h0l-.022.012h0l-.021.013h0l-.029.017h0l-.007,0h0l-.014.008h0l-.007,0h0l-.014.008h0l-.007,0h0l-.014.008h0l-.007,0h0l-.022.013h0l-.022.012h0l-.022.012h0l-.022.013h0l-.022.012h0l-.014.008h0l-.007,0h0l-.007,0h0l-.007,0h0l-.007,0h0l-.007,0h0l-.007,0h0l-.007,0h0l-.007,0h0l-.007,0h0l-.022.013h0l-.021.012h0l-.022.013h0l-.022.013h0l-.022.012h0l-.014.008h0l-.007,0h0l-.007,0h0l-.007,0h0l-.007,0h0l-.007,0h0l-.007,0h0l-.007,0h0l-.007,0h0l-.007,0h0l-.007,0h0l-.014.008h0l-.007,0h0l-.014.008h0l-.007,0h0l-.014.008h0l-.022.012h0l-.022.012h0l-.022.013h0l-.007,0h0l-.007,0h0l-.007,0h0l-.007,0h0l-.007,0h0l-.007,0h0l-.007,0v.1l-.088-.05-.545.315v-.629l-.817-.472v-.944l-.694-.4-.007,0h0l-.007,0h0l-.007,0h0l-.014.008h0l-.007,0h0l-.014.008h0l-.007,0h0l-.014.008h0l-.007,0h0l-.014.008h0l-.007,0h0l-.014.008h0l-.007,0h0l-.015.008h0l-.007,0h0l-.014.008h0l-.007,0h0l-.021.013h0l-.007,0h0l-.007,0h0l-.007,0h0l-.007,0h0l-.007,0h0l-.007,0h0l-.007,0h0l-.007,0h0l-.007,0h0l-.007,0h0l-.007,0h0l-.007,0h0l-.007,0h0l-.007,0h0l-.014.008h0l-.007,0h0l-.014.008h0l-.007,0h0l-.014.008h0l-.007,0h0l-.022.013h0l-.007,0h0l-.007,0h0l-.007,0h0l-.007,0h0l-.007,0h0l-.007,0h0l-.007,0h0l-.007,0h0l-.007,0h0l-.007,0h0l-.007,0h0l-.007,0h0l-.007,0h0l-.007,0h0l-.007,0h0l-.007,0h0l-.007,0h0l-.007,0h0l-.007,0h0l-.007,0h0l-.007,0h0l-.007,0h0l-.007,0h0l-.022.013h0l-.007,0h0l-.007,0h0l-.007,0h0l-.007,0h0l-.007,0h0l-.007,0h0l-.007,0h0l-.007,0h0l-.007,0h0l-.007,0h0l-.007,0h0l-.007,0h0l-.007,0h0l-.007,0h0l-.007,0h0l-.007,0h0l-.007,0h0l-.007,0h0l-.007,0h0l-.007,0h0l-.007,0h0l-.007,0h.007v0l-.007,0v.1l-.088-.051-.007,0h0l-.022.012h0l-.022.013h0l-.022.012h0l-.022.013h0l-.022.012h0l-.036.021h0l-.007,0h0l-.014.008h0l-.007,0h0l-.014.008h0l-.007,0h0l-.145.084h0l-.022.013h0l-.022.012h0l-.022.013h0l-.318.184h.007v0l-.007,0v.6a1.06,1.06,0,0,1-.7-.166,2.469,2.469,0,0,1-1.235-1.987,1.116,1.116,0,0,1,.045-.321,1.583,1.583,0,0,1,.46.188,2.587,2.587,0,0,1,.736.692l0-.008h0l0,.008.014-.008h0l.08-.046h0l.007,0h0l.014-.008h0l.007,0h0l.022-.013h0l.022-.012h0L595,131.2h0l.022-.013h0l.022-.012h0l.043-.025h0l.014-.008h0l.022-.013h0l.022-.012h0l.152-.088h0l.022-.012h0l.022-.013h0l.2-.117.04-.069.323-.56a3.921,3.921,0,0,0-1.23-1.109,1.443,1.443,0,0,0-1.483-.118l-.007,0-.007,0-.007,0-.007,0-.007,0-.007,0-.007,0-.007,0-.007,0-.007,0-.007,0-.007,0-.007,0-.007,0-.007,0-.007,0-.007,0-.007,0-.007,0-.007,0-.007,0-.007,0-.007,0-.007,0-.007,0-.007,0-.007,0-.007,0-.007,0-.007,0-.007,0-.007,0-.007,0-.007,0-.007,0-.007,0-.007,0-.007,0-.007,0-.007,0-.007,0-.007,0-.007,0-.007,0-.007,0-.007,0-.007,0-.007,0-.007,0-.007,0-.007,0-.007,0-.007,0-.007,0-.007,0-.007,0-.007,0-.007,0-.007,0-.007,0-.007,0-.007,0-.007,0-.007,0-.007,0-.007,0-.007,0-.007,0-.007,0-.007,0-.007,0-.007,0-.007,0-.007,0-.007,0-.007,0-.007,0-.007,0-.007,0-.007,0-.007,0-.007,0-.007,0-.007,0-.007,0-.007,0-.007,0-.007,0-.007,0-.007,0-.007,0-.007,0-.007,0-.007,0-.007,0-.007,0-.007,0-.007,0-.007,0-.007,0a1.318,1.318,0,0,0-.554,1.2,4.49,4.49,0,0,0,2.029,3.4c.813.469,1.23.312,1.23.312v0h0v0l.007,0h0l.007,0h0l.014-.008h0l.007,0h0l.014-.008h0l.007,0h0l.014-.008h0l.007,0h0l.014-.008h0l.007,0h0l.014-.008h0l.007,0h0l.021-.012h0l.021-.012h0l.007,0h0l.007,0h0l.014-.008h0l.007,0h0l.022-.013h0l.022-.013h0l.022-.012h0l.022-.013h0l.022-.012h0l.022-.013h0l.036-.021h0l.007,0h0l.014-.008h0l.007,0h0l.014-.008h0l.007,0h0l.144-.084h0l.022-.012h0l.022-.012h0l.022-.013h0l.1-.059-.046-.133h0l-.217-.627.678.391v.944l.694.4.1-.059h0l.007,0h0l.014-.008h0l.022-.012h0l.022-.013h0l.13-.075h0l.014-.008h0l.007,0h0l.014-.008h0l.007,0h0l.014-.008h0l.007,0h0l.022-.013h0l.1-.058h0l.014-.008h0l.007,0h0l.014-.008h0l.007,0h0l.014-.008h0l.007,0h0l.022-.012h0l.022-.012h0l.022-.013h0l.022-.013h0l.05-.029h0l.007,0h0l.014-.008h0l.007,0h0l.014-.008v-.1l.088.051.545-.313v-.007h0v.635l.817.472v.944l.694.4.145-.084h0l.022-.013h0l.188-.109h0l.173-.1h0l.014-.008h0l.007,0h0l.022-.013h0l.159-.092v-.1l.088.051.007,0h0l.007,0h0l.014-.008h0l.007,0h0l.014-.008h0l.007,0h0l.014-.008h0l.007,0h0l.014-.008h0l.007,0h0l.014-.008h0l.007,0h0l.022-.013h0l.007,0h0l.007,0h0l.014-.008h0l.007,0h0l.014-.008h0l.007,0h0l.022-.012h0l.022-.013h0l.022-.013h0l.022-.013h0l.022-.012h0l.022-.012h0l.014-.008h0l.007,0h0l.014-.008h0l.007,0h0l.014-.008h0l.007,0h0l.014-.008h0l.007,0h0l.123-.071h0l.022-.013h0l.022-.012h0l.022-.012h0l.022-.013h0l.1-.058v-.8Z" transform="translate(-591.918 -128.878)" fill="#ccc"/>
          <path id="Trazado_102656" data-name="Trazado 102656" d="M600.743,136.169h0l.022-.013h0l.022-.013h0l.3-.171h0l.376-.217v-.8l-.817-.472v-.944l-.695-.4-.3.176h0l-.022.013h0l-.022.012h0l-.144.084h0l-.022.013h0l-.022.013h0l-.022.012h0l-.022.013h0l-.022.012h0l-.08.046h0l-.022.013h0l-.021.012h0l-.007,0v.1l-.088-.05-.545.315v-.629l-.817-.472v-.944l-.694-.4-.007,0h0l-.014.008h0l-.022.012h0l-.152.088h0l-.014.008h0l-.007,0h0l-.014.008h0l-.007,0h0l-.022.013h0l-.022.013h0l-.116.067h0l-.007,0h0l-.014.008h0l-.007,0h0l-.022.012h0l-.022.013h0l-.022.013h0l-.022.012h0l-.021.013h0l-.051.029h0l-.007,0h0l-.022.012h0l-.022.013h0l-.022.012h0l-.022.012h0l-.022.013h0l-.022.013h0l-.007,0h.007v0l-.007,0v.1l-.088-.051-.73.422h.007v0l-.007,0v.6c-1.078.183-2.175-1.517-1.886-2.474a2.1,2.1,0,0,1,1.2.88l0-.008h0l0,.008.1-.058h0l.021-.013h0l.152-.088h0l.455-.264.363-.629c-.569-.829-1.754-1.751-2.767-1.2-.09.049-.178.1-.267.155s-.181.1-.271.157a1.739,1.739,0,0,0-.553,2.119,4.68,4.68,0,0,0,1.508,2.289,2.039,2.039,0,0,0,1.628.579h0l.007,0h0l.014-.008h0l.022-.012h0l.022-.012h0l.051-.029h0l.021-.012h0l.021-.012h0l.036-.021h0l.022-.013h0l.022-.013h0l.022-.012h0l.022-.013h0l.08-.046h0l.051-.029h0l.144-.084h0l.022-.012h0l.145-.084-.046-.133h0l-.217-.627.678.391v.944l.694.4.73-.422v-.1l.088.051.545-.313V134.2h0v.635l.817.472v.944l.694.4.73-.422v-.1l.088.051.014-.008Z" transform="translate(-591.939 -128.948)" fill="#d845d8" style="mix-blend-mode: multiply;isolation: isolate"/>
          <g id="Grupo_56711" data-name="Grupo 56711" transform="translate(0 0.422)">
            <path id="Trazado_102657" data-name="Trazado 102657" d="M594.814,135.058l.363,1.048s-.418.157-1.23-.312a4.49,4.49,0,0,1-2.029-3.4c0-1.242.967-1.69,2.029-1.077a3.922,3.922,0,0,1,1.23,1.109l-.363.629a2.584,2.584,0,0,0-.736-.692c-.858-.5-1.235-.021-1.235.556a2.47,2.47,0,0,0,1.235,1.987A.985.985,0,0,0,594.814,135.058Z" transform="translate(-591.918 -131.04)" fill="#fff"/>
            <path id="Trazado_102658" data-name="Trazado 102658" d="M611.1,146.677v-.944l-.817-.472v-.8l.817.472v-.944l.694.4v.944l.817.472v.8l-.817-.472v.944Z" transform="translate(-606.691 -141.459)" fill="#fff"/>
            <path id="Trazado_102659" data-name="Trazado 102659" d="M625.807,155.17v-.944l-.817-.472v-.8l.817.472v-.944l.694.4v.944l.817.472v.8l-.817-.472v.944Z" transform="translate(-618.529 -148.292)" fill="#fff"/>
          </g>
        </g>
      </g>
      <g id="Grupo_56727" data-name="Grupo 56727" transform="translate(247.97 154.535)">
        <ellipse id="Elipse_4087" data-name="Elipse 4087" cx="11.199" cy="6.466" rx="11.199" ry="6.466" transform="translate(2.481 79.872)" opacity="0.24" fill="url(#linear-gradient)" style="mix-blend-mode: multiply;isolation: isolate"/>
        <path id="Trazado_102660" data-name="Trazado 102660" d="M325.894,888.213a10.726,10.726,0,0,1-2.533,4.079l-1.732-.4v-1.424Z" transform="translate(-313.631 -805.694)" fill="#2f2f7f"/>
        <path id="Trazado_102661" data-name="Trazado 102661" d="M325.895,884.414a.685.685,0,0,0-.058-.681.52.52,0,0,0-.527-.235,26.426,26.426,0,0,0-3.366,1.523s-.819,2.3.192,2.6C323.125,887.917,324.244,887.946,325.895,884.414Z" transform="translate(-313.631 -801.894)" fill="#41409e"/>
        <path id="Trazado_102662" data-name="Trazado 102662" d="M355.319,902.6a.663.663,0,0,1-.162,1.06c-.7.537-4.969,1.33-4.969,1.33l-1.168-.779.06-3.215Z" transform="translate(-335.67 -815.983)" fill="#2f2f7f"/>
        <path id="Trazado_102663" data-name="Trazado 102663" d="M349.329,899.245c.719-.658,2.1-1.214,2.894-.524,1.388,1.209,3.246.92,3.425,2.048.11.695-3.086,1.289-4.9,1.289h-.069a1.313,1.313,0,0,1-1.3-1.265Z" transform="translate(-335.919 -813.893)" fill="#41409e"/>
        <g id="Grupo_56720" data-name="Grupo 56720" transform="translate(2.176 13.038)">
          <path id="Trazado_102664" data-name="Trazado 102664" d="M300.564,556.71l.234,27.551a1.118,1.118,0,0,1-2.23.124l-2.813-27.408a2.411,2.411,0,1,1,4.8-.492C300.559,556.559,300.564,556.637,300.564,556.71Z" transform="translate(-294.977 -550.065)" fill="#f89ab5"/>
          <path id="Trazado_102665" data-name="Trazado 102665" d="M297.788,583.9l.054.574s1.26,1.226,4.408-.28l-.013-1.07Z" transform="translate(-296.623 -573.238)" fill="#e6e6e6" style="mix-blend-mode: multiply;isolation: isolate"/>
          <path id="Trazado_102666" data-name="Trazado 102666" d="M298.02,542.46c-1.381,1.489-4.893,1.63-5.9.3l-.3-7.6a2.789,2.789,0,0,1,2.924-2.625,3.027,3.027,0,0,1,3.217,2.8Z" transform="translate(-291.823 -532.537)" fill="#a5c4e5"/>
          <g id="Grupo_56719" data-name="Grupo 56719" transform="translate(2.729 32.956)">
            <path id="Trazado_102667" data-name="Trazado 102667" d="M310.11,701.646l.1,2.956-1.163.723-.87.385-.848.32.464-4.4,1.051-.389Z" transform="translate(-307.034 -701.241)" fill="#f89ab5"/>
            <g id="Grupo_56714" data-name="Grupo 56714" transform="translate(2.245 2.364)">
              <path id="Trazado_102668" data-name="Trazado 102668" d="M317.7,716.85a.415.415,0,0,1-.366-.612,4.4,4.4,0,0,0-.011-2.379.415.415,0,0,1,.805-.2,5.064,5.064,0,0,1-.063,2.976A.415.415,0,0,1,317.7,716.85Z" transform="translate(-317.284 -713.342)" fill="#f89ab5"/>
            </g>
            <g id="Grupo_56715" data-name="Grupo 56715" transform="translate(2.297 1.25)">
              <path id="Trazado_102669" data-name="Trazado 102669" d="M318.852,710.454a.415.415,0,0,1-.365-.216,14.224,14.224,0,0,1-.914-2.052.415.415,0,0,1,.787-.265,13.682,13.682,0,0,0,.856,1.919.415.415,0,0,1-.364.614Z" transform="translate(-317.551 -707.638)" fill="#f89ab5"/>
            </g>
            <g id="Grupo_56716" data-name="Grupo 56716" transform="translate(1.353 2.693)">
              <path id="Trazado_102670" data-name="Trazado 102670" d="M313.136,718.5a.415.415,0,0,1-.337-.657,4.307,4.307,0,0,0,.285-2.355.415.415,0,0,1,.824-.1,5.037,5.037,0,0,1-.435,2.94A.414.414,0,0,1,313.136,718.5Z" transform="translate(-312.721 -715.027)" fill="#f89ab5"/>
            </g>
            <g id="Grupo_56717" data-name="Grupo 56717" transform="translate(0.675 2.27)">
              <path id="Trazado_102671" data-name="Trazado 102671" d="M309.662,716.34a.415.415,0,0,1-.337-.657,4.375,4.375,0,0,0,.285-2.354.415.415,0,1,1,.824-.1,5.036,5.036,0,0,1-.435,2.939A.414.414,0,0,1,309.662,716.34Z" transform="translate(-309.247 -712.863)" fill="#f89ab5"/>
            </g>
            <g id="Grupo_56718" data-name="Grupo 56718" transform="translate(0 2.082)">
              <path id="Trazado_102672" data-name="Trazado 102672" d="M306.208,715.016a.415.415,0,0,1-.289-.713,3.146,3.146,0,0,0,.519-1.969.416.416,0,0,1,.4-.433.411.411,0,0,1,.433.4,3.865,3.865,0,0,1-.77,2.6A.412.412,0,0,1,306.208,715.016Z" transform="translate(-305.793 -711.9)" fill="#f89ab5"/>
            </g>
          </g>
        </g>
        <path id="Trazado_102673" data-name="Trazado 102673" d="M308.554,654.422c-.069,1.81-.162,3.62-.25,5.43s-.169,3.62-.3,5.431l-.845,10.865-1.72,21.73a1.316,1.316,0,0,1-2.62.039l-2.359-21.669-1.164-10.835c-.188-1.806-.321-3.613-.464-5.419s-.288-3.613-.41-5.42a5.075,5.075,0,0,1,10.128-.686A5.184,5.184,0,0,1,308.554,654.422Z" transform="translate(-294.944 -613.334)" fill="#32b4c5"/>
        <path id="Trazado_102674" data-name="Trazado 102674" d="M338.276,665.1c.272,1.8.415,3.611.522,5.418.058.9.087,1.807.116,2.711a20.317,20.317,0,0,1-.166,2.716c-.313,3.622-.576,7.243-.866,10.865l-1.72,21.73a1.316,1.316,0,0,1-2.62.039l-2.359-21.669c-.4-3.612-.766-7.223-1.186-10.835a20.35,20.35,0,0,1-.246-2.71c0-.9,0-1.809.036-2.713.054-1.81.144-3.62.362-5.432a4.1,4.1,0,0,1,8.128-.12Z" transform="translate(-320.164 -623.357)" fill="#4dd0e1"/>
        <path id="Trazado_102675" data-name="Trazado 102675" d="M304.353,675.169l-5.7-2.445s-1.053-6.2.034-7.747l6.754,3.981Z" transform="translate(-294.776 -626.066)" fill="#4dd0e1"/>
        <path id="Trazado_102676" data-name="Trazado 102676" d="M312.149,537.229l-10.162-4.263a.938.938,0,0,0-1.284.69c-.567,3.005-1.751,11.369,1.221,17.28,0,0-.916,5.712-2.037,7.593,0,0,6.233,6.7,14.941,5.2l-2.551-14.293s4.024-4.727.555-8.066Z" transform="translate(-296.134 -519.786)" fill="#bad4f5"/>
        <path id="Trazado_102677" data-name="Trazado 102677" d="M356.277,573.465l5.554,7.8-2.536-.022,9.129-9.2a1.118,1.118,0,0,1,1.654,1.5l-8.267,9.98a1.618,1.618,0,0,1-2.279.214c-.023-.02-.046-.04-.069-.06l-.188-.176-7-6.534a2.67,2.67,0,0,1,3.645-3.9A2.837,2.837,0,0,1,356.277,573.465Z" transform="translate(-337.612 -551.019)" fill="#f89ab5"/>
        <path id="Trazado_102678" data-name="Trazado 102678" d="M370.143,598.641l.349.459s1.717.377,3.6-2.563l-.576-.9Z" transform="translate(-352.667 -570.27)" fill="#e6e6e6" style="mix-blend-mode: multiply;isolation: isolate"/>
        <path id="Trazado_102679" data-name="Trazado 102679" d="M351,564.379c-.388,1.993-3.3,3.966-4.851,3.368l-4.264-6.3a2.789,2.789,0,0,1,1.1-3.772,3.027,3.027,0,0,1,4.21.68Z" transform="translate(-329.641 -539.287)" fill="#c2ddf9"/>
        <g id="Grupo_56726" data-name="Grupo 56726" transform="translate(30.777 17.26)">
          <path id="Trazado_102680" data-name="Trazado 102680" d="M439.806,560.9l2.232-2.022-.314-1.333-.345-.886-.375-.825-2.775,3.447.471,1.017Z" transform="translate(-438.228 -555.505)" fill="#f89ab5"/>
          <g id="Grupo_56721" data-name="Grupo 56721" transform="translate(2.633 1.105)">
            <path id="Trazado_102681" data-name="Trazado 102681" d="M452.121,562.554a.415.415,0,0,1-.214-.771c.4-.242,1.488-1.015,1.685-1.679a.415.415,0,0,1,.8.237c-.325,1.09-1.878,2.048-2.054,2.154A.412.412,0,0,1,452.121,562.554Z" transform="translate(-451.705 -559.807)" fill="#f89ab5"/>
          </g>
          <g id="Grupo_56722" data-name="Grupo 56722" transform="translate(1.865 3.047)">
            <path id="Trazado_102682" data-name="Trazado 102682" d="M448.191,571.359a.415.415,0,0,1-.186-.787,14.2,14.2,0,0,1,2.095-.81.415.415,0,1,1,.236.8,13.611,13.611,0,0,0-1.96.757A.415.415,0,0,1,448.191,571.359Z" transform="translate(-447.775 -569.745)" fill="#f89ab5"/>
          </g>
          <g id="Grupo_56723" data-name="Grupo 56723" transform="translate(2.469 0.265)">
            <path id="Trazado_102683" data-name="Trazado 102683" d="M451.284,558.467a.415.415,0,0,1-.257-.742,4.309,4.309,0,0,0,1.458-1.87.415.415,0,0,1,.82.132,5.038,5.038,0,0,1-1.765,2.391A.413.413,0,0,1,451.284,558.467Z" transform="translate(-450.869 -555.507)" fill="#f89ab5"/>
          </g>
          <g id="Grupo_56724" data-name="Grupo 56724" transform="translate(1.69 0.087)">
            <path id="Trazado_102684" data-name="Trazado 102684" d="M447.3,557.553a.415.415,0,0,1-.257-.742,4.308,4.308,0,0,0,1.458-1.87.415.415,0,1,1,.82.132,5.034,5.034,0,0,1-1.765,2.391A.413.413,0,0,1,447.3,557.553Z" transform="translate(-446.88 -554.593)" fill="#f89ab5"/>
          </g>
          <g id="Grupo_56725" data-name="Grupo 56725" transform="translate(1.281)">
            <path id="Trazado_102685" data-name="Trazado 102685" d="M445.2,557.054a.416.416,0,0,1-.282-.72,3.1,3.1,0,0,0,1.021-1.763.416.416,0,0,1,.408-.422h.007a.415.415,0,0,1,.415.408,3.869,3.869,0,0,1-1.288,2.387A.414.414,0,0,1,445.2,557.054Z" transform="translate(-444.788 -554.149)" fill="#f89ab5"/>
          </g>
        </g>
        <path id="Trazado_102686" data-name="Trazado 102686" d="M327.479,523.18l.66,4.692a1.93,1.93,0,0,1-2.709.871c-2.016-.813-1.575-2.051-1.575-2.051l.2-2.81Z" transform="translate(-315.388 -511.97)" fill="#f89ab5"/>
        <path id="Trazado_102687" data-name="Trazado 102687" d="M328.208,527.179s-.531,1.084-3.784.68l.138-1.816Z" transform="translate(-315.878 -514.273)" fill="#db8faa"/>
        <path id="Trazado_102688" data-name="Trazado 102688" d="M320.625,478.237c.764,3.856.988,6.6,0,6.8-1.534.3-6.825.693-7.669-3.568-.6-3.013.14-6.87,2.267-7.291C318.842,473.462,320.028,475.223,320.625,478.237Z" transform="translate(-306.492 -472.412)" fill="#f89ab5"/>
        <path id="Trazado_102689" data-name="Trazado 102689" d="M294.562,471.02a1.739,1.739,0,0,0-1.3,2.006c.138,1.96.424,3.74,1.631,4.493a4.1,4.1,0,0,1,1.981,3.584c-.06,1.97-1.325,4.32-.9,5.243s2.16,3.312,1.765,5.549a4.3,4.3,0,0,1-3.978,4.006,2.424,2.424,0,0,1-1.058-.048c-1.542-.419-6.245-1.778-7.635-3.115-1.15-1.106-2.886-1.894-2.491-4.88,0,0-1.883-2.943-1.892-4.517s.056-4.131,2.443-5.152a5.535,5.535,0,0,1-.151-4.994,8.665,8.665,0,0,1,2.728-3.782c.308-.392.478-3.05,4.765-3.616a4,4,0,0,1,2.4.7.665.665,0,0,0,.873-.116s.282.675.057,1a4.911,4.911,0,0,0,.634-.31.912.912,0,0,1,.026.52S296.273,469.958,294.562,471.02Z" transform="translate(-280.681 -465.795)" fill="#0a1a4e"/>
        <path id="Trazado_102690" data-name="Trazado 102690" d="M292.506,517.623a4.871,4.871,0,0,1-.393-2l13.672,6.708a10.684,10.684,0,0,1-.625,1.94l-13.41-6.339A3.907,3.907,0,0,1,292.506,517.623Z" transform="translate(-289.588 -505.891)" fill="#0a1a4e" opacity="0.75" style="mix-blend-mode: screen;isolation: isolate"/>
        <path id="Trazado_102691" data-name="Trazado 102691" d="M303.539,483.65a.522.522,0,0,0,.058-.1c1.472.435,5.067,1.564,7.782,2.421a1.9,1.9,0,0,0-.286.966l-8.341-2.569C303.126,484,303.41,483.814,303.539,483.65Z" transform="translate(-298.44 -480.082)" fill="#0a1a4e" opacity="0.75" style="mix-blend-mode: screen;isolation: isolate"/>
      </g>
      <g id="Grupo_56728" data-name="Grupo 56728" transform="translate(248.25 122.968)">
        <path id="Trazado_102692" data-name="Trazado 102692" d="M324.178,451.887a.546.546,0,0,1,0,1.035,1.981,1.981,0,0,1-1.793,0,.546.546,0,0,1,0-1.035A1.982,1.982,0,0,1,324.178,451.887Z" transform="translate(-314.219 -422.865)" fill="#071335"/>
        <path id="Trazado_102693" data-name="Trazado 102693" d="M315.091,403.48c1.535.886,1.535,2.323,0,3.21a6.144,6.144,0,0,1-5.559,0c-1.535-.886-1.535-2.323,0-3.21A6.144,6.144,0,0,1,315.091,403.48Z" transform="translate(-303.249 -383.552)" fill="#3949ab"/>
        <path id="Trazado_102694" data-name="Trazado 102694" d="M315.091,425.282c1.535.886,1.535,2.323,0,3.21a6.144,6.144,0,0,1-5.559,0c-1.535-.886-1.535-2.323,0-3.21A6.144,6.144,0,0,1,315.091,425.282Z" transform="translate(-303.249 -401.095)" fill="#0a1a4e"/>
        <path id="Trazado_102695" data-name="Trazado 102695" d="M319.1,439.594a1.188,1.188,0,0,1,0,2.25,4.308,4.308,0,0,1-3.9,0,1.188,1.188,0,0,1,0-2.25A4.308,4.308,0,0,1,319.1,439.594Z" transform="translate(-308.089 -412.771)" fill="#0a1a4e"/>
        <rect id="Rectángulo_5582" data-name="Rectángulo 5582" width="7.857" height="4.031" transform="translate(5.131 21.648)" fill="#0a1a4e"/>
        <path id="Trazado_102696" data-name="Trazado 102696" d="M318.558,443.032l-.511,1.208h-5.33l-.535-1.208Z" transform="translate(-306.308 -415.912)" fill="#0a1a4e"/>
        <path id="Trazado_102697" data-name="Trazado 102697" d="M314.988,421.929a5.455,5.455,0,0,1-5.607,0,2.45,2.45,0,0,1-1.13-1.537,2.188,2.188,0,0,0,1.13,2.206,5.455,5.455,0,0,0,5.607,0,2.179,2.179,0,0,0,1.12-2.206A2.433,2.433,0,0,1,314.988,421.929Z" transform="translate(-303.12 -397.695)" fill="#071335"/>
        <path id="Trazado_102698" data-name="Trazado 102698" d="M314.988,428.446a5.455,5.455,0,0,1-5.607,0,2.451,2.451,0,0,1-1.13-1.537,2.188,2.188,0,0,0,1.13,2.206,5.454,5.454,0,0,0,5.607,0,2.179,2.179,0,0,0,1.12-2.206A2.433,2.433,0,0,1,314.988,428.446Z" transform="translate(-303.12 -402.939)" fill="#071335"/>
        <path id="Trazado_102699" data-name="Trazado 102699" d="M323.372,454.22l.289-.215h-3.105l.289.215Z" transform="translate(-313.046 -424.742)" fill="#071335"/>
        <path id="Trazado_102700" data-name="Trazado 102700" d="M291.176,304.2a9.062,9.062,0,0,0-5.656,16.143,6.327,6.327,0,0,0,.686,2.063l1.044,3.442h0a2.023,2.023,0,0,0,1.146,1.49,6.144,6.144,0,0,0,5.559,0,2.023,2.023,0,0,0,1.146-1.49h0l1.046-3.442h0a6.331,6.331,0,0,0,.686-2.063,9.063,9.063,0,0,0-5.657-16.143Z" transform="translate(-282.114 -304.205)" fill="#ffee58"/>
      </g>
    </g>
  </g>
</svg>
