<svg xmlns="http://www.w3.org/2000/svg" width="29.042" height="48.93" viewBox="0 0 29.042 48.93">
  <g id="solicitud" transform="translate(-0.501)">
    <path id="Trazado_100618" data-name="Trazado 100618" d="M26.664,0H3.379A2.882,2.882,0,0,0,.5,2.879V46.052A2.882,2.882,0,0,0,3.379,48.93H7.359a.717.717,0,1,0,0-1.434H3.379a1.447,1.447,0,0,1-1.445-1.445V43.309H28.109v2.743A1.446,1.446,0,0,1,26.664,47.5H10.48a.717.717,0,1,0,0,1.434H26.664a2.882,2.882,0,0,0,2.878-2.879v-15.2a.717.717,0,0,0-1.434,0V41.875H1.934V7.122H28.109V17.266a.717.717,0,0,0,1.434,0V2.879A2.881,2.881,0,0,0,26.664,0ZM1.934,5.688V2.879A1.447,1.447,0,0,1,3.379,1.434H26.664a1.447,1.447,0,0,1,1.445,1.445v2.81Zm0,0" fill="#ffa726"/>
    <path id="Trazado_100619" data-name="Trazado 100619" d="M290.108,205.828a.717.717,0,0,0-.717.717v7.343a.717.717,0,0,0,1.434,0v-7.343A.717.717,0,0,0,290.108,205.828Zm0,0" transform="translate(-261.282 -186.158)" fill="#ffa726"/>
    <path id="Trazado_100620" data-name="Trazado 100620" d="M111.79,29.762h-3.632a.717.717,0,1,0,0,1.434h3.632a.717.717,0,0,0,0-1.434Zm0,0" transform="translate(-96.72 -26.917)" fill="#ffa726"/>
    <path id="Trazado_100621" data-name="Trazado 100621" d="M178.64,29.762h-.478a.717.717,0,0,0,0,1.434h.478a.717.717,0,0,0,0-1.434Zm0,0" transform="translate(-160.034 -26.917)" fill="#ffa726"/>
    <path id="Trazado_100622" data-name="Trazado 100622" d="M60.71,96.795a1.567,1.567,0,0,0-1.565-1.565H53.429a1.567,1.567,0,0,0-1.565,1.565v5.716a1.567,1.567,0,0,0,1.565,1.565h5.716a1.567,1.567,0,0,0,1.565-1.565Zm-7.281-.131h5.716a.132.132,0,0,1,.131.131v.653H53.3v-.653A.132.132,0,0,1,53.429,96.664Zm5.716,5.979H53.429a.132.132,0,0,1-.131-.131v-3.63h5.979v3.63A.132.132,0,0,1,59.145,102.642Zm0,0" transform="translate(-46.454 -86.129)" fill="#ffa726"/>
    <path id="Trazado_100623" data-name="Trazado 100623" d="M169.307,96.795a1.567,1.567,0,0,0-1.565-1.565h-5.716a1.567,1.567,0,0,0-1.565,1.565v5.716a1.567,1.567,0,0,0,1.565,1.565h5.716a1.567,1.567,0,0,0,1.565-1.565Zm-7.281-.131h5.716a.132.132,0,0,1,.131.131v.653h-5.979v-.653A.132.132,0,0,1,162.026,96.664Zm5.716,5.979h-5.716a.132.132,0,0,1-.131-.131v-3.63h5.979v3.63A.132.132,0,0,1,167.742,102.642Zm0,0" transform="translate(-144.673 -86.129)" fill="#ffa726"/>
    <path id="Trazado_100624" data-name="Trazado 100624" d="M60.71,211.284a1.567,1.567,0,0,0-1.565-1.565H53.429a1.567,1.567,0,0,0-1.565,1.565V217a1.567,1.567,0,0,0,1.565,1.565h5.716A1.567,1.567,0,0,0,60.71,217Zm-7.281-.131h5.716a.132.132,0,0,1,.131.131v.653H53.3v-.653A.132.132,0,0,1,53.429,211.152Zm5.716,5.979H53.429A.132.132,0,0,1,53.3,217v-3.63h5.979V217A.132.132,0,0,1,59.145,217.131Zm0,0" transform="translate(-46.454 -189.677)" fill="#ffa726"/>
    <path id="Trazado_100625" data-name="Trazado 100625" d="M169.307,211.284a1.567,1.567,0,0,0-1.565-1.565h-5.716a1.567,1.567,0,0,0-1.565,1.565V217a1.567,1.567,0,0,0,1.565,1.565h5.716A1.567,1.567,0,0,0,169.307,217Zm-7.281-.131h5.716a.132.132,0,0,1,.131.131v.653h-5.979v-.653A.132.132,0,0,1,162.026,211.152Zm5.716,5.979h-5.716a.132.132,0,0,1-.131-.131v-3.63h5.979V217A.132.132,0,0,1,167.742,217.131Zm0,0" transform="translate(-144.673 -189.677)" fill="#ffa726"/>
    <path id="Trazado_100626" data-name="Trazado 100626" d="M59.145,324.207H53.428a1.567,1.567,0,0,0-1.565,1.565v5.716a1.567,1.567,0,0,0,1.565,1.565h5.716a1.567,1.567,0,0,0,1.565-1.565v-5.716A1.567,1.567,0,0,0,59.145,324.207Zm-5.716,1.434h5.716a.132.132,0,0,1,.131.131v.653H53.3v-.653A.132.132,0,0,1,53.428,325.641Zm5.716,5.979H53.428a.132.132,0,0,1-.131-.131v-3.63h5.979v3.63A.132.132,0,0,1,59.145,331.62Zm0,0" transform="translate(-46.454 -293.223)" fill="#ffa726"/>
    <path id="Trazado_100627" data-name="Trazado 100627" d="M167.742,324.207h-5.716a1.567,1.567,0,0,0-1.565,1.565v5.716a1.567,1.567,0,0,0,1.565,1.565h5.716a1.567,1.567,0,0,0,1.565-1.565v-5.716A1.567,1.567,0,0,0,167.742,324.207Zm-5.716,1.434h5.716a.132.132,0,0,1,.131.131v.653h-5.979v-.653A.132.132,0,0,1,162.026,325.641Zm5.716,5.979h-5.716a.132.132,0,0,1-.131-.131v-3.63h5.979v3.63A.132.132,0,0,1,167.742,331.62Zm0,0" transform="translate(-144.673 -293.223)" fill="#ffa726"/>
  </g>
</svg>
