<svg id="apple" xmlns="http://www.w3.org/2000/svg" width="81" height="81" viewBox="0 0 81 81">
  <circle id="Elipse_4067" data-name="Elipse 4067" cx="40.5" cy="40.5" r="40.5" fill="#333"/>
  <path id="Trazado_100611" data-name="Trazado 100611" d="M175.242,69.159l10.6,10.563L161.382,110.8l18.084,17.133a40.5,40.5,0,0,0,37.385-40.382c0-.523-.013-1.042-.033-1.56l-30.1-30.1Z" transform="translate(-135.851 -47.046)" fill="#1a1a1a"/>
  <path id="Trazado_100612" data-name="Trazado 100612" d="M115.11,187.63c-1.624-.063-4.051-1.835-5.1-3.026a36.225,36.225,0,0,1-6.43-10.195,33.948,33.948,0,0,1-2.763-13.4,19.181,19.181,0,0,1,2.374-9.506,14,14,0,0,1,9.245-6.968,9.5,9.5,0,0,1,4.924-.055c1.63.482,3.236,1.051,4.835,1.63a5.415,5.415,0,0,0,4.2.234c.956-.414,1.95-.741,2.929-1.1a15.741,15.741,0,0,1,4.95-1.189,14.246,14.246,0,0,1,9.135,2.718,11.8,11.8,0,0,1,2.844,3c-.107.081-.19.148-.277.208a14.738,14.738,0,0,0-3.1,2.856,12.22,12.22,0,0,0-2.644,9.966,12.013,12.013,0,0,0,3.321,6.693,17.3,17.3,0,0,0,4.408,3.047c-.25.593-.74,1.549-.978,2.147a32.939,32.939,0,0,1-3.992,7.133,20.4,20.4,0,0,1-3.859,4.362,6.859,6.859,0,0,1-4.838,1.539,11.137,11.137,0,0,1-3.921-1.107,11.292,11.292,0,0,0-8.383-.613c-.716.224-1.391.576-2.1.807A18.752,18.752,0,0,1,115.11,187.63Z" transform="translate(-84.864 -121.258)" fill="#fff"/>
  <g id="Grupo_53829" data-name="Grupo 53829" transform="translate(39.3 8.842)">
    <path id="Trazado_100613" data-name="Trazado 100613" d="M268.615,169.5a12.012,12.012,0,0,1-3.321-6.693,12.22,12.22,0,0,1,2.644-9.966,14.738,14.738,0,0,1,3.1-2.856c.087-.06.169-.127.277-.208a11.8,11.8,0,0,0-2.844-3,14.248,14.248,0,0,0-9.135-2.718,15.746,15.746,0,0,0-4.95,1.189c-.979.36-1.973.687-2.929,1.1a4.089,4.089,0,0,1-2.076.312v38.869a11.494,11.494,0,0,1,6.052,1.091,11.135,11.135,0,0,0,3.921,1.107,6.859,6.859,0,0,0,4.838-1.539,20.4,20.4,0,0,0,3.859-4.362,32.94,32.94,0,0,0,3.992-7.133c.238-.6.728-1.554.978-2.147A17.3,17.3,0,0,1,268.615,169.5Z" transform="translate(-249.23 -130.1)" fill="#ccc"/>
    <path id="Trazado_100614" data-name="Trazado 100614" d="M259.986,55.888a19.073,19.073,0,0,1-.041,2.743,12.681,12.681,0,0,1-4.693,8.193,9.549,9.549,0,0,1-6.744,2.334,8.144,8.144,0,0,1,.1-2.97,12.89,12.89,0,0,1,5.6-8.231,12.284,12.284,0,0,1,5.06-1.987C259.355,55.958,259.832,55.888,259.986,55.888Z" transform="translate(-248.417 -55.888)" fill="#ccc"/>
  </g>
</svg>
