<svg xmlns="http://www.w3.org/2000/svg" xmlns:xlink="http://www.w3.org/1999/xlink" width="98" height="98" viewBox="0 0 98 98">
  <defs>
    <clipPath id="clip-path">
      <rect id="Rectángulo_5230" data-name="Rectángulo 5230" width="98" height="98" transform="translate(822 1070)" fill="#12263f" stroke="#707070" stroke-width="1"/>
    </clipPath>
  </defs>
  <g id="Enmascarar_grupo_45" data-name="Enmascarar grupo 45" transform="translate(-822 -1070)" clip-path="url(#clip-path)">
    <g id="signo-de-interrogacion" transform="translate(822 1070)">
      <path id="Trazado_100718" data-name="Trazado 100718" d="M69.635,0H28.365A19.381,19.381,0,0,0,9.006,19.359V53.424a1.436,1.436,0,0,0,2.871,0V19.359A16.506,16.506,0,0,1,28.365,2.871H69.635A16.506,16.506,0,0,1,86.122,19.359V32.6a1.436,1.436,0,0,0,2.871,0V19.359A19.381,19.381,0,0,0,69.635,0Z" fill="#12263f"/>
      <path id="Trazado_100719" data-name="Trazado 100719" d="M87.558,36.908a1.435,1.435,0,0,0-1.436,1.436V63.189A16.507,16.507,0,0,1,69.635,79.677h-10.6a3.878,3.878,0,0,0-3.541,2.3L49.917,94.533a1,1,0,0,1-1.833,0L42.506,81.978a3.877,3.877,0,0,0-3.54-2.3h-10.6A16.506,16.506,0,0,1,11.878,63.189V59.167a1.436,1.436,0,1,0-2.871,0v4.022A19.381,19.381,0,0,0,28.365,82.548h10.6a1,1,0,0,1,.917.6L45.46,95.7a3.874,3.874,0,0,0,7.081,0l5.577-12.555a1,1,0,0,1,.917-.6h10.6A19.381,19.381,0,0,0,88.994,63.189V38.343a1.436,1.436,0,0,0-1.436-1.436Z" fill="#12263f"/>
      <path id="Trazado_100720" data-name="Trazado 100720" d="M51.649,53.874H46.3a2.442,2.442,0,0,1-2.439-2.439v-12.6a3.31,3.31,0,0,1,3.307-3.307h1.808a6.169,6.169,0,0,0,6.155-6.5A6.165,6.165,0,0,0,42.869,28.5a2.671,2.671,0,0,1-2.634,2.3H35.267a2.639,2.639,0,0,1-2.624-2.875c.024-.279.056-.562.095-.84A16.4,16.4,0,1,1,54.4,44.829a.445.445,0,0,0-.31.417v6.189a2.442,2.442,0,0,1-2.439,2.439ZM46.73,51h4.487V45.246a3.325,3.325,0,0,1,2.229-3.125,13.609,13.609,0,0,0,5.334-3.447,13.413,13.413,0,0,0,3.7-10.025,13.523,13.523,0,0,0-26.9-1.166c-.021.148-.039.3-.055.447h4.525a9.036,9.036,0,1,1,15.474,7.654A8.954,8.954,0,0,1,48.973,38.4H47.165a.436.436,0,0,0-.436.436V51Z" fill="#12263f"/>
      <path id="Trazado_100721" data-name="Trazado 100721" d="M49.013,69.03A5.635,5.635,0,1,1,54.647,63.4,5.641,5.641,0,0,1,49.013,69.03Zm0-8.4A2.764,2.764,0,1,0,51.776,63.4,2.767,2.767,0,0,0,49.013,60.632Z" fill="#12263f"/>
    </g>
  </g>
</svg>
