<svg xmlns="http://www.w3.org/2000/svg" xmlns:xlink="http://www.w3.org/1999/xlink" width="380.864" height="752.978" viewBox="0 0 380.864 752.978">
  <defs>
    <linearGradient id="linear-gradient" y1="0.5" x2="0.116" y2="0.5" gradientUnits="objectBoundingBox">
      <stop offset="0" stop-color="#666"/>
      <stop offset="1"/>
    </linearGradient>
    <linearGradient id="linear-gradient-2" x1="0.9" y1="0.5" x2="1.018" y2="0.5" gradientUnits="objectBoundingBox">
      <stop offset="0"/>
      <stop offset="1" stop-color="#666"/>
    </linearGradient>
    <linearGradient id="linear-gradient-3" x1="0.5" y1="1" x2="0.5" y2="0.199" gradientUnits="objectBoundingBox">
      <stop offset="0" stop-color="#959595"/>
      <stop offset="1"/>
    </linearGradient>
    <linearGradient id="linear-gradient-4" x1="0.5" y1="0.765" x2="0.5" y2="-0.235" gradientUnits="objectBoundingBox">
      <stop offset="0"/>
      <stop offset="1" stop-color="gray"/>
    </linearGradient>
    <linearGradient id="linear-gradient-5" y1="0.5" x2="1" y2="0.5" gradientUnits="objectBoundingBox">
      <stop offset="0" stop-color="#f1f1f1"/>
      <stop offset="0.001" stop-color="#f0f0f0"/>
      <stop offset="0.138" stop-color="#b7b7b7"/>
      <stop offset="0.271" stop-color="#888"/>
      <stop offset="0.397" stop-color="#636363"/>
      <stop offset="0.513" stop-color="#484848"/>
      <stop offset="0.617" stop-color="#383838"/>
      <stop offset="0.698" stop-color="#333"/>
    </linearGradient>
    <linearGradient id="linear-gradient-6" y1="0.5" x2="1" y2="0.5" gradientUnits="objectBoundingBox">
      <stop offset="0" stop-color="#1a1a1a"/>
      <stop offset="0.117" stop-color="#444"/>
      <stop offset="0.231" stop-color="#666"/>
      <stop offset="0.339" stop-color="#7e7e7e"/>
      <stop offset="0.439" stop-color="#8c8c8c"/>
      <stop offset="0.523" stop-color="#929292"/>
      <stop offset="0.593" stop-color="#8a8a8a"/>
      <stop offset="0.697" stop-color="#757575"/>
      <stop offset="0.825" stop-color="#545454"/>
      <stop offset="0.968" stop-color="#252525"/>
      <stop offset="1" stop-color="#1a1a1a"/>
    </linearGradient>
    <linearGradient id="linear-gradient-8" y1="0.5" x2="0.592" y2="0.5" gradientUnits="objectBoundingBox">
      <stop offset="0" stop-color="#c8c8c8"/>
      <stop offset="0.211" stop-color="#9f9f9f"/>
      <stop offset="0.587" stop-color="#5d5d5d"/>
      <stop offset="0.86" stop-color="#333"/>
      <stop offset="1" stop-color="#242424"/>
    </linearGradient>
    <linearGradient id="linear-gradient-9" y1="0.5" x2="1" y2="0.5" gradientUnits="objectBoundingBox">
      <stop offset="0" stop-color="#242424"/>
      <stop offset="0.14" stop-color="#333"/>
      <stop offset="0.413" stop-color="#5d5d5d"/>
      <stop offset="0.789" stop-color="#9f9f9f"/>
      <stop offset="1" stop-color="#c8c8c8"/>
    </linearGradient>
    <linearGradient id="linear-gradient-10" y1="0.5" x2="1" y2="0.5" gradientUnits="objectBoundingBox">
      <stop offset="0" stop-color="#333"/>
      <stop offset="0.09" stop-color="#2a2a2a"/>
      <stop offset="0.289" stop-color="#1e1e1e"/>
      <stop offset="0.479" stop-color="#1a1a1a"/>
      <stop offset="0.788" stop-color="#1b1b1b"/>
      <stop offset="0.9" stop-color="#222"/>
      <stop offset="0.979" stop-color="#2e2e2e"/>
      <stop offset="1" stop-color="#333"/>
    </linearGradient>
    <linearGradient id="linear-gradient-11" x1="-0.267" y1="0.146" x2="1.267" y2="0.854" gradientUnits="objectBoundingBox">
      <stop offset="0" stop-color="#f2f3f4"/>
      <stop offset="0.479" stop-color="#edeeee"/>
      <stop offset="1" stop-color="#e2e2e2"/>
    </linearGradient>
  </defs>
  <g id="Grupo_57126" data-name="Grupo 57126" transform="translate(-610 -858)">
    <g id="Grupo_53862" data-name="Grupo 53862">
      <g id="Grupo_53856" data-name="Grupo 53856" transform="translate(292.371 726.091)">
        <g id="shadow">
          <g id="Grupo_53844" data-name="Grupo 53844" opacity="0.4">
            <path id="Trazado_100641" data-name="Trazado 100641" d="M666.493,875.187a.432.432,0,0,0,.07-.04c.01,0,.03-.01.04-.01A.532.532,0,0,0,666.493,875.187Zm-17.62-726.34h-265.5a49.617,49.617,0,0,0-49.62,49.61V835.278a49.617,49.617,0,0,0,49.62,49.609h265.5a49.617,49.617,0,0,0,49.62-49.609V198.457A49.617,49.617,0,0,0,648.873,148.847Z" opacity="0"/>
            <path id="Trazado_100642" data-name="Trazado 100642" d="M666.229,874.91a.433.433,0,0,0,.07-.04c.01,0,.03-.01.04-.01A.539.539,0,0,0,666.229,874.91Zm-17.62-726.34h-265.5a49.617,49.617,0,0,0-49.62,49.61V835a49.617,49.617,0,0,0,49.62,49.61h265.5A49.617,49.617,0,0,0,698.229,835V198.18A49.617,49.617,0,0,0,648.609,148.57Z" opacity="0.016"/>
            <path id="Trazado_100643" data-name="Trazado 100643" d="M665.965,874.632a.434.434,0,0,0,.07-.04c.01,0,.03-.01.04-.01A.534.534,0,0,0,665.965,874.632Zm-17.62-726.34h-265.5a49.617,49.617,0,0,0-49.62,49.61v636.82a49.617,49.617,0,0,0,49.62,49.61h265.5a49.617,49.617,0,0,0,49.62-49.61V197.9A49.617,49.617,0,0,0,648.345,148.292Z" opacity="0.033"/>
            <path id="Trazado_100644" data-name="Trazado 100644" d="M665.7,874.354a.442.442,0,0,0,.07-.04c.01,0,.03-.01.04-.01A.535.535,0,0,0,665.7,874.354Zm-17.62-726.34H382.58a49.618,49.618,0,0,0-49.62,49.61v636.82a49.617,49.617,0,0,0,49.62,49.61h265.5a49.617,49.617,0,0,0,49.62-49.61V197.624A49.618,49.618,0,0,0,648.08,148.014Z" opacity="0.049"/>
            <path id="Trazado_100645" data-name="Trazado 100645" d="M665.436,874.077a.432.432,0,0,0,.07-.04c.01,0,.03-.01.04-.01A.536.536,0,0,0,665.436,874.077Zm-17.62-726.34h-265.5a49.617,49.617,0,0,0-49.62,49.61v636.82a49.617,49.617,0,0,0,49.62,49.61h265.5a49.617,49.617,0,0,0,49.62-49.61V197.347A49.617,49.617,0,0,0,647.816,147.737Z" opacity="0.066"/>
            <path id="Trazado_100646" data-name="Trazado 100646" d="M665.172,873.8a.434.434,0,0,0,.07-.04c.01,0,.03-.01.04-.01A.532.532,0,0,0,665.172,873.8Zm-17.62-726.34h-265.5a49.617,49.617,0,0,0-49.62,49.61v636.82a49.617,49.617,0,0,0,49.62,49.61h265.5a49.617,49.617,0,0,0,49.62-49.61V197.069A49.617,49.617,0,0,0,647.552,147.459Z" opacity="0.082"/>
            <path id="Trazado_100647" data-name="Trazado 100647" d="M664.907,873.521a.435.435,0,0,0,.07-.04c.01,0,.03-.01.04-.01A.56.56,0,0,0,664.907,873.521Zm-17.62-726.34h-265.5a49.617,49.617,0,0,0-49.62,49.61v636.82a49.617,49.617,0,0,0,49.62,49.61h265.5a49.617,49.617,0,0,0,49.62-49.61V196.791A49.617,49.617,0,0,0,647.287,147.181Z" opacity="0.098"/>
            <path id="Trazado_100648" data-name="Trazado 100648" d="M664.643,873.244a.437.437,0,0,0,.07-.04c.01,0,.03-.01.04-.01A.536.536,0,0,0,664.643,873.244ZM647.023,146.9h-265.5a49.617,49.617,0,0,0-49.62,49.61v636.82a49.617,49.617,0,0,0,49.62,49.61h265.5a49.617,49.617,0,0,0,49.62-49.61V196.514A49.617,49.617,0,0,0,647.023,146.9Z" opacity="0.115"/>
            <path id="Trazado_100649" data-name="Trazado 100649" d="M664.379,872.966a.438.438,0,0,0,.07-.04c.01,0,.03-.01.04-.01A.534.534,0,0,0,664.379,872.966Zm-17.62-726.34h-265.5a49.617,49.617,0,0,0-49.62,49.61v636.82a49.617,49.617,0,0,0,49.62,49.61h265.5a49.617,49.617,0,0,0,49.62-49.61V196.236A49.617,49.617,0,0,0,646.759,146.626Z" opacity="0.131"/>
            <path id="Trazado_100650" data-name="Trazado 100650" d="M664.114,872.688a.437.437,0,0,0,.07-.04c.01,0,.03-.01.04-.01A.565.565,0,0,0,664.114,872.688Zm-17.62-726.34h-265.5a49.618,49.618,0,0,0-49.62,49.61V832.779a49.618,49.618,0,0,0,49.62,49.609h265.5a49.617,49.617,0,0,0,49.62-49.609V195.958A49.617,49.617,0,0,0,646.494,146.348Z" opacity="0.148"/>
            <path id="Trazado_100651" data-name="Trazado 100651" d="M663.85,872.411a.432.432,0,0,0,.07-.04c.01,0,.03-.01.04-.01A.532.532,0,0,0,663.85,872.411Zm-17.62-726.34H380.73a49.617,49.617,0,0,0-49.62,49.61V832.5a49.617,49.617,0,0,0,49.62,49.61h265.5a49.617,49.617,0,0,0,49.62-49.61V195.681A49.617,49.617,0,0,0,646.23,146.071Z" opacity="0.164"/>
            <path id="Trazado_100652" data-name="Trazado 100652" d="M663.586,872.133a.435.435,0,0,0,.07-.04c.01,0,.03-.01.04-.01A.535.535,0,0,0,663.586,872.133Zm-17.62-726.34h-265.5a49.617,49.617,0,0,0-49.62,49.61v636.82a49.617,49.617,0,0,0,49.62,49.61h265.5a49.617,49.617,0,0,0,49.62-49.61V195.4A49.617,49.617,0,0,0,645.966,145.793Z" opacity="0.18"/>
            <path id="Trazado_100653" data-name="Trazado 100653" d="M663.322,871.855a.469.469,0,0,0,.069-.04c.01,0,.03-.01.04-.01A.53.53,0,0,0,663.322,871.855ZM645.7,145.515H380.2a49.618,49.618,0,0,0-49.62,49.61v636.82a49.617,49.617,0,0,0,49.62,49.61H645.7a49.618,49.618,0,0,0,49.621-49.61V195.125A49.619,49.619,0,0,0,645.7,145.515Z" opacity="0.197"/>
            <path id="Trazado_100654" data-name="Trazado 100654" d="M663.057,871.578a.442.442,0,0,0,.07-.04c.01,0,.03-.01.04-.01A.535.535,0,0,0,663.057,871.578Zm-17.62-726.34h-265.5a49.617,49.617,0,0,0-49.62,49.61v636.82a49.617,49.617,0,0,0,49.62,49.61h265.5a49.617,49.617,0,0,0,49.62-49.61V194.848A49.617,49.617,0,0,0,645.437,145.238Z" opacity="0.213"/>
            <path id="Trazado_100655" data-name="Trazado 100655" d="M662.793,871.3a.434.434,0,0,0,.07-.04c.01,0,.03-.01.04-.01A.537.537,0,0,0,662.793,871.3Zm-17.62-726.34h-265.5a49.617,49.617,0,0,0-49.62,49.61V831.39A49.617,49.617,0,0,0,379.673,881h265.5a49.617,49.617,0,0,0,49.62-49.61V194.57A49.617,49.617,0,0,0,645.173,144.96Z" opacity="0.23"/>
            <path id="Trazado_100656" data-name="Trazado 100656" d="M662.529,871.022a.465.465,0,0,0,.069-.04c.01,0,.03-.01.04-.01A.531.531,0,0,0,662.529,871.022Zm-17.621-726.34h-265.5a49.617,49.617,0,0,0-49.62,49.61v636.82a49.617,49.617,0,0,0,49.62,49.61h265.5a49.618,49.618,0,0,0,49.621-49.61V194.292A49.618,49.618,0,0,0,644.908,144.682Z" opacity="0.246"/>
            <path id="Trazado_100657" data-name="Trazado 100657" d="M662.264,870.745a.432.432,0,0,0,.07-.04c.01,0,.03-.01.04-.01A.536.536,0,0,0,662.264,870.745ZM644.644,144.4h-265.5a49.617,49.617,0,0,0-49.62,49.61v636.82a49.617,49.617,0,0,0,49.62,49.61h265.5a49.617,49.617,0,0,0,49.62-49.61V194.015A49.617,49.617,0,0,0,644.644,144.4Z" opacity="0.262"/>
            <path id="Trazado_100658" data-name="Trazado 100658" d="M662,870.467a.435.435,0,0,0,.07-.04c.01,0,.03-.01.04-.01A.539.539,0,0,0,662,870.467Zm-17.62-726.34H378.88a49.617,49.617,0,0,0-49.62,49.61v636.82a49.617,49.617,0,0,0,49.62,49.61h265.5A49.617,49.617,0,0,0,694,830.557V193.737A49.617,49.617,0,0,0,644.38,144.127Z" opacity="0.279"/>
            <path id="Trazado_100659" data-name="Trazado 100659" d="M661.736,870.189a.469.469,0,0,0,.069-.04c.01,0,.03-.01.04-.01A.528.528,0,0,0,661.736,870.189Zm-17.621-726.34h-265.5a49.618,49.618,0,0,0-49.62,49.61v636.82a49.618,49.618,0,0,0,49.62,49.61h265.5a49.618,49.618,0,0,0,49.621-49.61V193.459A49.618,49.618,0,0,0,644.115,143.849Z" opacity="0.295"/>
            <path id="Trazado_100660" data-name="Trazado 100660" d="M661.471,869.912a.437.437,0,0,0,.07-.04c.01,0,.03-.01.04-.01A.539.539,0,0,0,661.471,869.912Zm-17.62-726.34h-265.5a49.617,49.617,0,0,0-49.62,49.61V830a49.617,49.617,0,0,0,49.62,49.61h265.5A49.617,49.617,0,0,0,693.471,830V193.182A49.617,49.617,0,0,0,643.851,143.572Z" opacity="0.311"/>
            <path id="Trazado_100661" data-name="Trazado 100661" d="M661.207,869.634a.427.427,0,0,0,.07-.04c.01,0,.03-.01.04-.01A.539.539,0,0,0,661.207,869.634Zm-17.62-726.34h-265.5a49.617,49.617,0,0,0-49.62,49.61v636.82a49.617,49.617,0,0,0,49.62,49.61h265.5a49.617,49.617,0,0,0,49.62-49.61V192.9A49.617,49.617,0,0,0,643.587,143.294Z" opacity="0.328"/>
            <path id="Trazado_100662" data-name="Trazado 100662" d="M660.943,869.356a.47.47,0,0,0,.069-.04c.01,0,.03-.01.04-.01A.525.525,0,0,0,660.943,869.356Zm-17.62-726.34h-265.5a49.618,49.618,0,0,0-49.621,49.61v636.82a49.618,49.618,0,0,0,49.621,49.61h265.5a49.618,49.618,0,0,0,49.62-49.61V192.626A49.618,49.618,0,0,0,643.323,143.016Z" opacity="0.344"/>
            <path id="Trazado_100663" data-name="Trazado 100663" d="M660.678,869.079a.432.432,0,0,0,.07-.04c.01,0,.03-.01.04-.01A.539.539,0,0,0,660.678,869.079Zm-17.62-726.34h-265.5a49.617,49.617,0,0,0-49.62,49.61v636.82a49.617,49.617,0,0,0,49.62,49.61h265.5a49.617,49.617,0,0,0,49.62-49.61V192.349A49.617,49.617,0,0,0,643.058,142.739Z" opacity="0.361"/>
            <path id="Trazado_100664" data-name="Trazado 100664" d="M660.414,868.8a.437.437,0,0,0,.07-.04c.01,0,.03-.01.04-.01A.536.536,0,0,0,660.414,868.8Zm-17.62-726.34h-265.5a49.617,49.617,0,0,0-49.62,49.61v636.82a49.617,49.617,0,0,0,49.62,49.61h265.5a49.617,49.617,0,0,0,49.62-49.61V192.071A49.617,49.617,0,0,0,642.794,142.461Z" opacity="0.377"/>
            <path id="Trazado_100665" data-name="Trazado 100665" d="M660.15,868.523a.469.469,0,0,0,.069-.04c.01,0,.03-.01.041-.01A.509.509,0,0,0,660.15,868.523Zm-17.62-726.34h-265.5a49.618,49.618,0,0,0-49.62,49.61v636.82a49.618,49.618,0,0,0,49.62,49.61h265.5a49.618,49.618,0,0,0,49.62-49.61V191.793A49.618,49.618,0,0,0,642.53,142.183Z" opacity="0.393"/>
            <path id="Trazado_100666" data-name="Trazado 100666" d="M659.885,868.246a.433.433,0,0,0,.07-.04c.01,0,.03-.01.04-.01A.539.539,0,0,0,659.885,868.246Zm-17.62-726.34h-265.5a49.617,49.617,0,0,0-49.62,49.61v636.82a49.617,49.617,0,0,0,49.62,49.61h265.5a49.617,49.617,0,0,0,49.62-49.61V191.516A49.617,49.617,0,0,0,642.265,141.906Z" opacity="0.41"/>
            <path id="Trazado_100667" data-name="Trazado 100667" d="M659.621,867.968a.432.432,0,0,0,.07-.04c.01,0,.03-.01.04-.01A.532.532,0,0,0,659.621,867.968ZM642,141.628H376.5a49.617,49.617,0,0,0-49.62,49.61v636.82a49.617,49.617,0,0,0,49.62,49.61H642a49.617,49.617,0,0,0,49.62-49.61V191.238A49.617,49.617,0,0,0,642,141.628Z" opacity="0.426"/>
            <path id="Trazado_100668" data-name="Trazado 100668" d="M659.357,867.69a.425.425,0,0,0,.069-.04c.01,0,.031-.01.041-.01A.513.513,0,0,0,659.357,867.69Zm-17.62-726.34h-265.5a49.618,49.618,0,0,0-49.621,49.61V827.78a49.618,49.618,0,0,0,49.621,49.61h265.5a49.617,49.617,0,0,0,49.62-49.61V190.96A49.617,49.617,0,0,0,641.737,141.35Z" opacity="0.443"/>
            <path id="Trazado_100669" data-name="Trazado 100669" d="M659.092,867.413a.432.432,0,0,0,.07-.04c.01,0,.03-.01.04-.01A.536.536,0,0,0,659.092,867.413Zm-17.62-726.34h-265.5a49.617,49.617,0,0,0-49.62,49.61V827.5a49.617,49.617,0,0,0,49.62,49.61h265.5a49.617,49.617,0,0,0,49.62-49.61V190.683A49.617,49.617,0,0,0,641.472,141.073Z" opacity="0.459"/>
            <path id="Trazado_100670" data-name="Trazado 100670" d="M658.828,867.135a.437.437,0,0,0,.07-.04c.01,0,.03-.01.04-.01A.532.532,0,0,0,658.828,867.135Zm-17.62-726.34h-265.5a49.617,49.617,0,0,0-49.62,49.61v636.82a49.617,49.617,0,0,0,49.62,49.61h265.5a49.617,49.617,0,0,0,49.62-49.61V190.4A49.617,49.617,0,0,0,641.208,140.795Z" opacity="0.475"/>
            <path id="Trazado_100671" data-name="Trazado 100671" d="M658.564,866.857a.423.423,0,0,0,.069-.04c.011,0,.031-.01.041-.01A.511.511,0,0,0,658.564,866.857Zm-17.62-726.34h-265.5a49.617,49.617,0,0,0-49.62,49.61v636.82a49.617,49.617,0,0,0,49.62,49.61h265.5a49.617,49.617,0,0,0,49.62-49.61V190.127A49.617,49.617,0,0,0,640.944,140.517Z" opacity="0.492"/>
            <path id="Trazado_100672" data-name="Trazado 100672" d="M658.3,866.58a.437.437,0,0,0,.07-.04c.01,0,.03-.01.04-.01A.532.532,0,0,0,658.3,866.58Zm-17.62-726.341h-265.5a49.618,49.618,0,0,0-49.62,49.611V826.67a49.617,49.617,0,0,0,49.62,49.61h265.5a49.617,49.617,0,0,0,49.62-49.61V189.85A49.618,49.618,0,0,0,640.679,140.239Z" opacity="0.508"/>
            <path id="Trazado_100673" data-name="Trazado 100673" d="M658.035,866.3a.436.436,0,0,0,.07-.04c.01,0,.03-.01.04-.01A.536.536,0,0,0,658.035,866.3Zm-17.62-726.34h-265.5a49.617,49.617,0,0,0-49.62,49.61v636.82A49.617,49.617,0,0,0,374.915,876h265.5a49.617,49.617,0,0,0,49.62-49.61V189.572A49.617,49.617,0,0,0,640.415,139.962Z" opacity="0.525"/>
            <path id="Trazado_100674" data-name="Trazado 100674" d="M657.771,866.024a.545.545,0,0,0,.07-.04c.01,0,.03-.01.04-.01A.539.539,0,0,0,657.771,866.024Zm-17.62-726.34h-265.5a49.618,49.618,0,0,0-49.621,49.61v636.82a49.618,49.618,0,0,0,49.621,49.61h265.5a49.618,49.618,0,0,0,49.62-49.61V189.294A49.618,49.618,0,0,0,640.151,139.684Z" opacity="0.541"/>
            <path id="Trazado_100675" data-name="Trazado 100675" d="M657.506,865.747a.432.432,0,0,0,.07-.04c.01,0,.03-.01.04-.01A.532.532,0,0,0,657.506,865.747Zm-17.62-726.341h-265.5a49.618,49.618,0,0,0-49.62,49.611v636.82a49.617,49.617,0,0,0,49.62,49.61h265.5a49.617,49.617,0,0,0,49.62-49.61V189.017A49.618,49.618,0,0,0,639.886,139.406Z" opacity="0.557"/>
            <path id="Trazado_100676" data-name="Trazado 100676" d="M657.242,865.469a.437.437,0,0,0,.07-.04c.01,0,.03-.01.04-.01A.535.535,0,0,0,657.242,865.469Zm-17.62-726.34h-265.5a49.617,49.617,0,0,0-49.62,49.61v636.82a49.617,49.617,0,0,0,49.62,49.61h265.5a49.617,49.617,0,0,0,49.62-49.61V188.739A49.617,49.617,0,0,0,639.622,139.129Z" opacity="0.574"/>
            <path id="Trazado_100677" data-name="Trazado 100677" d="M656.978,865.191a.475.475,0,0,0,.07-.04c.01,0,.03-.01.04-.01A.537.537,0,0,0,656.978,865.191Zm-17.62-726.34h-265.5a49.617,49.617,0,0,0-49.62,49.61v636.82a49.617,49.617,0,0,0,49.62,49.61h265.5a49.618,49.618,0,0,0,49.62-49.61V188.461A49.618,49.618,0,0,0,639.358,138.851Z" opacity="0.59"/>
            <path id="Trazado_100678" data-name="Trazado 100678" d="M656.713,864.914a.442.442,0,0,0,.07-.04c.01,0,.03-.01.04-.01A.561.561,0,0,0,656.713,864.914Zm-17.62-726.34h-265.5a49.617,49.617,0,0,0-49.62,49.61V825a49.617,49.617,0,0,0,49.62,49.61h265.5A49.617,49.617,0,0,0,688.713,825V188.184A49.617,49.617,0,0,0,639.093,138.574Z" opacity="0.607"/>
            <path id="Trazado_100679" data-name="Trazado 100679" d="M656.449,864.636a.432.432,0,0,0,.07-.04c.01,0,.03-.01.04-.01A.539.539,0,0,0,656.449,864.636ZM638.829,138.3h-265.5a49.617,49.617,0,0,0-49.62,49.61v636.82a49.617,49.617,0,0,0,49.62,49.61h265.5a49.617,49.617,0,0,0,49.62-49.61V187.906A49.617,49.617,0,0,0,638.829,138.3Z" opacity="0.623"/>
            <path id="Trazado_100680" data-name="Trazado 100680" d="M656.185,864.358a.43.43,0,0,0,.07-.04c.01,0,.03-.01.04-.01A.539.539,0,0,0,656.185,864.358Zm-17.62-726.34h-265.5a49.617,49.617,0,0,0-49.62,49.61v636.82a49.617,49.617,0,0,0,49.62,49.61h265.5a49.617,49.617,0,0,0,49.62-49.61V187.628A49.617,49.617,0,0,0,638.565,138.018Z" opacity="0.639"/>
            <path id="Trazado_100681" data-name="Trazado 100681" d="M655.921,864.081a.469.469,0,0,0,.069-.04c.01,0,.03-.01.04-.01A.5.5,0,0,0,655.921,864.081ZM638.3,137.74H372.8a49.618,49.618,0,0,0-49.62,49.611v636.82a49.617,49.617,0,0,0,49.62,49.61H638.3a49.618,49.618,0,0,0,49.621-49.61V187.351A49.619,49.619,0,0,0,638.3,137.74Z" opacity="0.656"/>
            <path id="Trazado_100682" data-name="Trazado 100682" d="M655.656,863.8a.433.433,0,0,0,.07-.04c.01,0,.03-.01.04-.01A.539.539,0,0,0,655.656,863.8Zm-17.62-726.34h-265.5a49.617,49.617,0,0,0-49.62,49.61v636.82a49.617,49.617,0,0,0,49.62,49.61h265.5a49.617,49.617,0,0,0,49.62-49.61V187.073A49.617,49.617,0,0,0,638.036,137.463Z" opacity="0.672"/>
            <path id="Trazado_100683" data-name="Trazado 100683" d="M655.392,863.525a.434.434,0,0,0,.07-.04c.01,0,.03-.01.04-.01A.534.534,0,0,0,655.392,863.525Zm-17.62-726.34h-265.5a49.617,49.617,0,0,0-49.62,49.61v636.82a49.617,49.617,0,0,0,49.62,49.61h265.5a49.617,49.617,0,0,0,49.62-49.61V186.795A49.617,49.617,0,0,0,637.772,137.185Z" opacity="0.689"/>
            <path id="Trazado_100684" data-name="Trazado 100684" d="M655.128,863.248a.47.47,0,0,0,.069-.04c.01,0,.03-.01.04-.01A.509.509,0,0,0,655.128,863.248ZM637.507,136.907h-265.5a49.619,49.619,0,0,0-49.62,49.611v636.82a49.618,49.618,0,0,0,49.62,49.61h265.5a49.618,49.618,0,0,0,49.621-49.61V186.518A49.619,49.619,0,0,0,637.507,136.907Z" opacity="0.705"/>
            <path id="Trazado_100685" data-name="Trazado 100685" d="M654.863,862.97a.427.427,0,0,0,.07-.04c.01,0,.03-.01.04-.01A.539.539,0,0,0,654.863,862.97Zm-17.62-726.34h-265.5a49.617,49.617,0,0,0-49.62,49.61V823.06a49.617,49.617,0,0,0,49.62,49.61h265.5a49.617,49.617,0,0,0,49.62-49.61V186.24A49.617,49.617,0,0,0,637.243,136.63Z" opacity="0.721"/>
            <path id="Trazado_100686" data-name="Trazado 100686" d="M654.6,862.692a.434.434,0,0,0,.07-.04c.01,0,.03-.01.04-.01A.532.532,0,0,0,654.6,862.692Zm-17.62-726.34h-265.5a49.617,49.617,0,0,0-49.62,49.61v636.82a49.617,49.617,0,0,0,49.62,49.61h265.5a49.617,49.617,0,0,0,49.62-49.61V185.962A49.617,49.617,0,0,0,636.979,136.352Z" opacity="0.738"/>
            <path id="Trazado_100687" data-name="Trazado 100687" d="M654.335,862.415a.391.391,0,0,0,.069-.041c.01,0,.03-.01.04-.01A.536.536,0,0,0,654.335,862.415ZM636.714,136.074h-265.5a49.619,49.619,0,0,0-49.62,49.611v636.82a49.617,49.617,0,0,0,49.62,49.609h265.5a49.617,49.617,0,0,0,49.621-49.609V185.685A49.619,49.619,0,0,0,636.714,136.074Z" opacity="0.754"/>
            <path id="Trazado_100688" data-name="Trazado 100688" d="M654.07,862.137a.437.437,0,0,0,.07-.04c.01,0,.03-.01.04-.01A.536.536,0,0,0,654.07,862.137ZM636.45,135.8H370.95a49.617,49.617,0,0,0-49.62,49.61v636.82a49.617,49.617,0,0,0,49.62,49.61h265.5a49.617,49.617,0,0,0,49.62-49.61V185.407A49.617,49.617,0,0,0,636.45,135.8Z" opacity="0.77"/>
            <path id="Trazado_100689" data-name="Trazado 100689" d="M653.806,861.859a.434.434,0,0,0,.07-.04c.01,0,.03-.01.04-.01A.531.531,0,0,0,653.806,861.859Zm-17.62-726.34h-265.5a49.617,49.617,0,0,0-49.62,49.61v636.82a49.617,49.617,0,0,0,49.62,49.61h265.5a49.617,49.617,0,0,0,49.62-49.61V185.129A49.617,49.617,0,0,0,636.186,135.519Z" opacity="0.787"/>
            <path id="Trazado_100690" data-name="Trazado 100690" d="M653.542,861.582a.462.462,0,0,0,.069-.041c.01,0,.03-.009.04-.009A.442.442,0,0,0,653.542,861.582Zm-17.621-726.34h-265.5a49.617,49.617,0,0,0-49.62,49.61v636.82a49.617,49.617,0,0,0,49.62,49.61h265.5a49.618,49.618,0,0,0,49.621-49.61V184.852A49.618,49.618,0,0,0,635.921,135.242Z" opacity="0.803"/>
            <path id="Trazado_100691" data-name="Trazado 100691" d="M653.277,861.3a.432.432,0,0,0,.07-.04c.01,0,.03-.01.04-.01A.532.532,0,0,0,653.277,861.3Zm-17.62-726.34h-265.5a49.617,49.617,0,0,0-49.62,49.61v636.82A49.617,49.617,0,0,0,370.157,871h265.5a49.617,49.617,0,0,0,49.62-49.61V184.574A49.617,49.617,0,0,0,635.657,134.964Z" opacity="0.82"/>
            <path id="Trazado_100692" data-name="Trazado 100692" d="M653.013,861.026a.439.439,0,0,0,.07-.04c.01,0,.03-.01.04-.01A.535.535,0,0,0,653.013,861.026Zm-17.62-726.34h-265.5a49.617,49.617,0,0,0-49.62,49.61v636.82a49.617,49.617,0,0,0,49.62,49.61h265.5a49.617,49.617,0,0,0,49.62-49.61V184.3A49.617,49.617,0,0,0,635.393,134.686Z" opacity="0.836"/>
            <path id="Trazado_100693" data-name="Trazado 100693" d="M652.749,860.748a.584.584,0,0,0,.069-.039c.01,0,.03-.01.04-.01A.526.526,0,0,0,652.749,860.748Zm-17.62-726.34h-265.5a49.619,49.619,0,0,0-49.62,49.611v636.82a49.618,49.618,0,0,0,49.62,49.61h265.5a49.618,49.618,0,0,0,49.62-49.61V184.019A49.619,49.619,0,0,0,635.129,134.408Z" opacity="0.852"/>
            <path id="Trazado_100694" data-name="Trazado 100694" d="M652.484,860.471a.442.442,0,0,0,.07-.04c.01,0,.03-.01.04-.01A.535.535,0,0,0,652.484,860.471Zm-17.62-726.34h-265.5a49.617,49.617,0,0,0-49.62,49.61v636.82a49.617,49.617,0,0,0,49.62,49.61h265.5a49.617,49.617,0,0,0,49.62-49.61V183.741A49.617,49.617,0,0,0,634.864,134.131Z" opacity="0.869"/>
            <path id="Trazado_100695" data-name="Trazado 100695" d="M652.22,860.193a.432.432,0,0,0,.07-.04c.01,0,.03-.01.04-.01A.536.536,0,0,0,652.22,860.193ZM634.6,133.853H369.1a49.617,49.617,0,0,0-49.62,49.61v636.82a49.617,49.617,0,0,0,49.62,49.61H634.6a49.617,49.617,0,0,0,49.62-49.61V183.463A49.617,49.617,0,0,0,634.6,133.853Z" opacity="0.885"/>
            <path id="Trazado_100696" data-name="Trazado 100696" d="M651.956,859.915a.393.393,0,0,0,.069-.039c.01,0,.031-.011.041-.011A.635.635,0,0,0,651.956,859.915Zm-17.621-726.34h-265.5a49.619,49.619,0,0,0-49.621,49.611v636.82a49.617,49.617,0,0,0,49.621,49.609h265.5a49.617,49.617,0,0,0,49.621-49.609V183.186A49.619,49.619,0,0,0,634.335,133.575Z" opacity="0.902"/>
            <path id="Trazado_100697" data-name="Trazado 100697" d="M651.691,859.638a.436.436,0,0,0,.07-.04c.01,0,.03-.01.04-.01A.536.536,0,0,0,651.691,859.638ZM634.071,133.3h-265.5a49.617,49.617,0,0,0-49.62,49.61v636.82a49.617,49.617,0,0,0,49.62,49.61h265.5a49.617,49.617,0,0,0,49.62-49.61V182.908A49.617,49.617,0,0,0,634.071,133.3Z" opacity="0.918"/>
            <path id="Trazado_100698" data-name="Trazado 100698" d="M651.427,859.36a.437.437,0,0,0,.07-.04c.01,0,.03-.01.04-.01A.539.539,0,0,0,651.427,859.36Zm-17.62-726.34h-265.5a49.617,49.617,0,0,0-49.62,49.61V819.45a49.617,49.617,0,0,0,49.62,49.61h265.5a49.617,49.617,0,0,0,49.62-49.61V182.63A49.617,49.617,0,0,0,633.807,133.02Z" opacity="0.934"/>
            <path id="Trazado_100699" data-name="Trazado 100699" d="M651.163,859.083a.54.54,0,0,0,.07-.041c.01,0,.03-.01.039-.01A.559.559,0,0,0,651.163,859.083ZM633.542,132.742h-265.5a49.618,49.618,0,0,0-49.62,49.61V819.173a49.617,49.617,0,0,0,49.62,49.609h265.5a49.617,49.617,0,0,0,49.621-49.609V182.352A49.619,49.619,0,0,0,633.542,132.742Z" opacity="0.951"/>
            <path id="Trazado_100700" data-name="Trazado 100700" d="M650.9,858.8a.437.437,0,0,0,.07-.04c.01,0,.03-.01.04-.01A.535.535,0,0,0,650.9,858.8Zm-17.62-726.34h-265.5a49.617,49.617,0,0,0-49.62,49.61V818.9a49.617,49.617,0,0,0,49.62,49.61h265.5A49.617,49.617,0,0,0,682.9,818.9V182.075A49.617,49.617,0,0,0,633.278,132.465Z" opacity="0.967"/>
            <path id="Trazado_100701" data-name="Trazado 100701" d="M650.634,858.527a.427.427,0,0,0,.07-.04c.01,0,.03-.01.04-.01A.539.539,0,0,0,650.634,858.527Zm-17.62-726.34h-265.5a49.617,49.617,0,0,0-49.62,49.61v636.82a49.617,49.617,0,0,0,49.62,49.61h265.5a49.617,49.617,0,0,0,49.62-49.61V181.8A49.617,49.617,0,0,0,633.014,132.187Z" opacity="0.984"/>
            <path id="Trazado_100702" data-name="Trazado 100702" d="M650.37,858.249a.616.616,0,0,0,.07-.039c.01,0,.029-.011.039-.011A.62.62,0,0,0,650.37,858.249Zm-17.62-726.34H367.25a49.619,49.619,0,0,0-49.621,49.611V818.34a49.618,49.618,0,0,0,49.621,49.609h265.5a49.617,49.617,0,0,0,49.62-49.609V181.52A49.619,49.619,0,0,0,632.75,131.909Z"/>
          </g>
        </g>
        <g id="object">
          <g id="Grupo_53855" data-name="Grupo 53855">
            <g id="Grupo_53854" data-name="Grupo 53854">
              <g id="Grupo_53852" data-name="Grupo 53852">
                <g id="Grupo_53850" data-name="Grupo 53850">
                  <g id="Grupo_53846" data-name="Grupo 53846">
                    <path id="Trazado_100703" data-name="Trazado 100703" d="M632.753,132.007H367.247a49.62,49.62,0,0,0-49.617,49.618V818.437a49.619,49.619,0,0,0,49.617,49.618H632.753a49.619,49.619,0,0,0,49.617-49.618V181.625A49.62,49.62,0,0,0,632.753,132.007Zm48.235,681.825a48.075,48.075,0,0,1-2.33,14.82c-.11.359-.23.718-.359,1.068s-.249.71-.387,1.06c-.092.267-.193.534-.3.792q-.469,1.174-.995,2.321c-.156.341-.313.681-.478,1.013-.231.47-.461.93-.71,1.391-.156.313-.322.617-.5.921q-.262.483-.553.967c-.515.884-1.068,1.759-1.648,2.616-.185.267-.369.543-.562.81-.212.3-.424.6-.654.894q-.318.441-.663.884c-.221.3-.452.58-.691.866s-.47.571-.719.856c-.469.562-.967,1.115-1.473,1.649-.774.829-1.575,1.63-2.414,2.413-.248.231-.5.461-.755.682-.58.516-1.169,1.013-1.768,1.51-.258.2-.525.415-.792.617-.875.682-1.778,1.327-2.7,1.944-.3.212-.617.414-.93.608-.627.405-1.262.783-1.907,1.151-.322.193-.635.369-.958.534-1.041.571-2.1,1.106-3.187,1.585-.285.138-.571.257-.856.377-.341.157-.682.295-1.032.433s-.7.276-1.05.4c-.783.3-1.575.571-2.376.82-.276.092-.562.175-.848.258-1.05.313-2.127.589-3.214.829-.378.083-.755.166-1.142.239s-.8.157-1.216.222q-1.119.192-2.266.331h-.027c-.148.018-.3.037-.443.046a1.83,1.83,0,0,1-.313.028.62.62,0,0,1-.129.009c.682-.074,1.354-.166,2.027-.276.331-.056.663-.111,1-.175s.663-.129.985-.194c.995-.2,1.971-.451,2.938-.718.323-.083.645-.185.958-.286.636-.193,1.262-.4,1.888-.626q1.41-.512,2.764-1.1c.3-.12.608-.258.9-.406s.59-.285.885-.423c.589-.295,1.169-.6,1.75-.912s1.132-.645,1.694-.986c.507-.313,1-.635,1.5-.958a.8.8,0,0,0,.147-.1c.81-.553,1.6-1.124,2.376-1.722.258-.194.516-.4.765-.608.718-.58,1.418-1.188,2.1-1.815a43.631,43.631,0,0,0,4.651-5.029c.2-.248.4-.516.6-.773a43.754,43.754,0,0,0,5.158-8.787c.221-.5.433-1.013.626-1.52a42.883,42.883,0,0,0,2.248-7.746c.1-.525.193-1.059.276-1.594a44.62,44.62,0,0,0,.5-6.6V181.625a43.712,43.712,0,0,0-39.016-43.4c-.387-.037-.783-.074-1.17-.1s-.8-.055-1.2-.073h-.009c-.746-.037-1.483-.056-2.238-.056h-265.5q-1.134,0-2.238.056h-.028a43.7,43.7,0,0,0-41.374,43.575V818.437A43.7,43.7,0,0,0,362.349,861.8c-.3-.03-.592-.049-.886-.084h-.027q-1.148-.138-2.266-.331a48.06,48.06,0,0,1-12.914-4.136c-.285-.138-.561-.276-.847-.415-.718-.377-1.428-.755-2.127-1.16-.323-.184-.636-.369-.949-.562a47.2,47.2,0,0,1-4.569-3.141c-.267-.2-.525-.405-.783-.617-.773-.626-1.529-1.271-2.256-1.934-.24-.221-.479-.442-.709-.673-.277-.257-.544-.515-.811-.782s-.525-.535-.783-.8c-.175-.175-.341-.35-.506-.534-.212-.23-.424-.46-.627-.691a48.831,48.831,0,0,1-3.454-4.338c-.193-.267-.377-.543-.561-.811-.581-.847-1.124-1.713-1.64-2.6-.194-.313-.378-.635-.553-.958a47.937,47.937,0,0,1-3.38-7.516c-.129-.359-.249-.709-.359-1.068a48.77,48.77,0,0,1-1.428-5.526c-.073-.378-.147-.756-.212-1.133a48.663,48.663,0,0,1-.691-8.161V181.625c0-.479.01-.949.028-1.418,0-.36.018-.71.037-1.06.037-.773.092-1.538.175-2.3.037-.4.083-.792.129-1.179l.083-.627c.027-.248.064-.5.11-.755q.084-.594.194-1.188.18-1.036.414-2.045c.074-.341.157-.672.24-1,.239-1,.515-1.98.829-2.956.1-.3.2-.617.3-.921.129-.378.258-.756.4-1.124.11-.313.23-.617.35-.921.1-.258.193-.507.3-.755.119-.3.248-.608.377-.9.1-.23.194-.451.3-.672.148-.332.295-.654.461-.986.267-.571.552-1.142.856-1.7q.222-.427.47-.856c.175-.332.368-.664.562-.986a48.505,48.505,0,0,1,4.541-6.457c.239-.285.479-.571.728-.856.276-.313.552-.636.847-.949.479-.516.958-1.022,1.455-1.51.534-.535,1.078-1.051,1.63-1.557s1.124-1,1.7-1.474c.286-.239.581-.469.875-.709.59-.461,1.188-.912,1.806-1.354s1.225-.857,1.86-1.271,1.271-.8,1.925-1.179c.323-.193.654-.378.986-.562s.663-.359.994-.534.673-.35,1.013-.516.682-.331,1.032-.5c.682-.313,1.382-.617,2.091-.9.332-.138.672-.276,1.013-.4a.369.369,0,0,1,.092-.037c.341-.129.691-.249,1.032-.378.341-.11.682-.23,1.022-.35.387-.119.774-.248,1.17-.359.369-.11.737-.212,1.1-.313s.746-.2,1.124-.295.755-.184,1.133-.267c.764-.175,1.529-.322,2.3-.451.377-.065.764-.129,1.151-.184.829-.12,1.667-.221,2.505-.295.663-.064,1.336-.111,2.008-.147.4-.019.82-.037,1.234-.047s.829-.018,1.244-.018h265.5c.414,0,.829.009,1.243.018.341.01.691.019,1.032.037.782.037,1.556.093,2.33.166h.028c.4.037.782.083,1.169.129s.783.1,1.17.157.774.119,1.161.184.764.138,1.142.212c.009-.01.018-.01.018,0,.378.073.755.156,1.133.239.35.074.691.157,1.031.23.083.019.157.037.222.056.322.083.644.166.967.258.451.119.9.248,1.344.386.3.093.608.185.9.286.672.221,1.336.451,2,.7.451.157.893.332,1.326.516.322.129.636.267.958.4.35.147.691.3,1.041.47s.681.322,1.022.488a46.7,46.7,0,0,1,6.908,4.154c.267.184.534.378.792.58.958.719,1.879,1.465,2.773,2.248q.594.51,1.16,1.05a46.824,46.824,0,0,1,4.348,4.623c.248.295.478.581.709.875.488.618.948,1.235,1.391,1.861.23.313.451.635.663.958.377.543.737,1.1,1.087,1.667.175.285.34.571.515.857.314.543.627,1.086.922,1.648.147.267.294.534.423.811.488.93.93,1.87,1.354,2.837.1.248.212.5.313.755.4.958.765,1.934,1.1,2.92.129.368.249.727.36,1.1a48.149,48.149,0,0,1,1.547,6.512q.055.345.11.718c.056.387.111.774.157,1.161s.092.783.129,1.179.074.792.111,1.188c.046.727.082,1.455.1,2.192q.027.705.027,1.409Z" fill="#00000c"/>
                    <g id="Grupo_53845" data-name="Grupo 53845">
                      <path id="Trazado_100704" data-name="Trazado 100704" d="M362.624,861.838c-.387-.037-.774-.074-1.161-.12h-.027q-1.148-.138-2.266-.331a48.06,48.06,0,0,1-12.914-4.136c-.285-.138-.561-.276-.847-.415-.718-.377-1.428-.755-2.127-1.16-.323-.184-.636-.369-.949-.562a47.2,47.2,0,0,1-4.569-3.141c-.267-.2-.525-.405-.783-.617-.773-.626-1.529-1.271-2.256-1.934-.24-.221-.479-.442-.709-.673-.277-.257-.544-.515-.811-.782s-.525-.535-.783-.8c-.175-.175-.341-.35-.506-.534-.212-.23-.424-.46-.627-.691a48.831,48.831,0,0,1-3.454-4.338c-.193-.267-.377-.543-.561-.811-.581-.847-1.124-1.713-1.64-2.6-.194-.313-.378-.635-.553-.958a47.937,47.937,0,0,1-3.38-7.516c-.129-.359-.249-.709-.359-1.068a48.77,48.77,0,0,1-1.428-5.526c-.073-.378-.147-.756-.212-1.133a48.663,48.663,0,0,1-.691-8.161V186.23a48.3,48.3,0,0,1,45.98-48.18,43.7,43.7,0,0,0-41.374,43.575V818.437A43.7,43.7,0,0,0,362.624,861.838Z" fill="url(#linear-gradient)"/>
                      <path id="Trazado_100705" data-name="Trazado 100705" d="M680.988,186.23v627.6a48.075,48.075,0,0,1-2.33,14.82c-.11.359-.23.718-.359,1.068s-.249.71-.387,1.06c-.092.267-.193.534-.3.792q-.469,1.174-.995,2.321c-.156.341-.313.681-.478,1.013-.231.47-.461.93-.71,1.391-.156.313-.322.617-.5.921q-.262.483-.553.967c-.515.884-1.068,1.759-1.648,2.616-.185.267-.369.543-.562.81-.212.3-.433.6-.654.894s-.442.6-.663.884-.461.58-.691.866-.47.571-.719.856c-.479.562-.967,1.115-1.473,1.649-.774.829-1.575,1.63-2.414,2.413-.248.221-.5.451-.755.682-.58.516-1.169,1.013-1.768,1.51-.258.2-.525.406-.792.617-.875.682-1.778,1.327-2.7,1.944-.3.2-.617.4-.93.608-.627.405-1.262.783-1.907,1.151-.313.184-.635.369-.958.534-1.041.571-2.1,1.106-3.187,1.585-.285.138-.571.257-.856.377-.341.157-.682.295-1.032.433s-.7.276-1.05.4c-.783.3-1.575.571-2.376.82-.286.092-.562.175-.848.258-1.05.313-2.127.589-3.214.829-.378.083-.755.166-1.142.239s-.8.157-1.216.222q-1.133.192-2.266.331h-.027c-.387.046-.774.083-1.161.12a43.713,43.713,0,0,0,39.016-43.4V181.625a43.7,43.7,0,0,0-40.186-43.5A48.289,48.289,0,0,1,680.988,186.23Z" fill="url(#linear-gradient-2)"/>
                      <path id="Trazado_100706" data-name="Trazado 100706" d="M680.988,813.832v4.605a48.286,48.286,0,0,1-48.235,48.236h-265.5a48.3,48.3,0,0,1-48.246-48.236v-4.605a48.663,48.663,0,0,0,.691,8.161c.065.377.139.755.212,1.133a48.77,48.77,0,0,0,1.428,5.526c.11.359.23.709.359,1.068a47.937,47.937,0,0,0,3.38,7.516c.175.323.359.645.553.958.516.884,1.059,1.75,1.64,2.6.184.268.368.544.561.811a48.831,48.831,0,0,0,3.454,4.338c.2.231.415.461.627.691.165.184.331.359.506.534.258.267.525.534.783.8s.534.525.811.782c.23.231.469.452.709.673.727.663,1.483,1.308,2.256,1.934.258.212.516.415.783.617a47.2,47.2,0,0,0,4.569,3.141c.313.193.626.378.949.562.7.4,1.409.783,2.127,1.16.286.139.562.277.847.415a48.06,48.06,0,0,0,12.914,4.136q1.119.192,2.266.331h.027c.774.092,1.548.166,2.33.221.4.028.8.055,1.2.074q1.119.055,2.266.055h265.5c.755,0,1.5-.018,2.247-.055.4-.019.8-.046,1.2-.074.636-.046,1.262-.1,1.888-.175.148-.009.295-.028.443-.046h.027q1.148-.138,2.266-.331.623-.1,1.216-.222c.387-.073.764-.156,1.142-.239,1.087-.24,2.164-.516,3.214-.829.286-.083.572-.166.848-.258.8-.249,1.593-.525,2.376-.82.35-.129.7-.267,1.05-.4s.691-.276,1.032-.433c.285-.12.571-.239.856-.377,1.087-.479,2.146-1.014,3.187-1.585.323-.165.636-.341.958-.534.645-.368,1.28-.746,1.907-1.151.313-.194.626-.4.93-.608.921-.617,1.824-1.262,2.7-1.944.267-.2.534-.414.792-.617.6-.5,1.188-.994,1.768-1.51.258-.221.507-.451.755-.682.839-.783,1.64-1.584,2.414-2.413.506-.534,1-1.087,1.473-1.649q.374-.428.719-.856c.239-.286.47-.571.691-.866s.451-.59.663-.884c.23-.295.442-.59.654-.894.193-.267.377-.543.562-.81.58-.857,1.133-1.732,1.648-2.616q.291-.483.553-.967c.175-.3.341-.608.5-.921.249-.461.479-.921.71-1.391.165-.332.331-.672.478-1.013q.525-1.148.995-2.321c.111-.258.212-.525.3-.792.138-.35.267-.7.387-1.06s.249-.709.359-1.068A48.075,48.075,0,0,0,680.988,813.832Z" fill="url(#linear-gradient-3)"/>
                    </g>
                    <path id="Trazado_100707" data-name="Trazado 100707" d="M680.988,181.625v4.6a48.28,48.28,0,0,0-43.621-48c-.387-.037-.783-.074-1.17-.1s-.8-.055-1.2-.073h-.009c-.746-.037-1.483-.056-2.238-.056h-265.5q-1.134,0-2.238.056h-.028a48.3,48.3,0,0,0-45.98,48.18v-4.6c0-.479.01-.949.028-1.418,0-.36.018-.71.037-1.06.037-.773.092-1.538.175-2.3.037-.4.083-.792.129-1.179l.083-.627c.027-.248.064-.5.11-.755q.084-.594.194-1.188.18-1.036.414-2.045c.074-.341.157-.672.24-1,.239-1,.515-1.98.829-2.956.1-.3.2-.617.3-.921.129-.378.258-.756.4-1.124.11-.313.23-.617.35-.921.1-.258.193-.507.3-.755.119-.3.248-.608.377-.9.1-.23.194-.451.3-.672.148-.332.295-.654.461-.986.267-.571.552-1.142.856-1.7q.222-.427.47-.856c.175-.332.368-.664.562-.986a48.505,48.505,0,0,1,4.541-6.457c.239-.285.479-.571.728-.856.276-.313.552-.636.847-.949.479-.516.958-1.022,1.455-1.51.534-.535,1.078-1.051,1.63-1.557s1.124-1,1.7-1.474c.286-.239.581-.469.875-.709.59-.461,1.188-.912,1.806-1.354s1.225-.857,1.86-1.271,1.271-.8,1.925-1.179c.323-.193.654-.378.986-.562s.663-.359.994-.534.673-.35,1.013-.516.682-.331,1.032-.5c.682-.313,1.382-.617,2.091-.9.332-.138.672-.276,1.013-.4a.369.369,0,0,1,.092-.037c.341-.129.691-.249,1.032-.378.341-.11.682-.23,1.022-.35.387-.119.774-.248,1.17-.359.369-.11.737-.212,1.1-.313s.746-.2,1.124-.295.755-.184,1.133-.267c.764-.175,1.529-.322,2.3-.451.377-.065.764-.129,1.151-.184.829-.12,1.667-.221,2.505-.295.663-.064,1.336-.111,2.008-.147.4-.019.82-.037,1.234-.047s.829-.018,1.244-.018h265.5c.414,0,.829.009,1.243.018.341.01.691.019,1.032.037.782.037,1.556.093,2.33.166h.028c.4.037.782.083,1.169.129s.783.1,1.17.157.774.119,1.161.184.764.138,1.142.212c.009-.01.018-.01.018,0,.378.073.755.156,1.133.239.35.074.691.157,1.031.23.083.019.157.037.222.056.322.083.644.166.967.258.451.119.9.248,1.344.386.3.093.608.185.9.286.672.221,1.336.451,2,.7.451.157.893.332,1.326.516.322.129.636.267.958.4.35.147.691.3,1.041.47s.681.322,1.022.488a46.7,46.7,0,0,1,6.908,4.154c.267.184.534.378.792.58.958.719,1.879,1.465,2.773,2.248q.594.51,1.16,1.05a46.824,46.824,0,0,1,4.348,4.623c.248.295.478.581.709.875.488.618.948,1.235,1.391,1.861.23.313.451.635.663.958.377.543.737,1.1,1.087,1.667.175.285.34.571.515.857.314.543.627,1.086.922,1.648.147.267.294.534.423.811.488.93.93,1.87,1.354,2.837.1.248.212.5.313.755.4.958.765,1.934,1.1,2.92.129.368.249.727.36,1.1a48.149,48.149,0,0,1,1.547,6.512q.055.345.11.718c.056.387.111.774.157,1.161s.092.783.129,1.179.074.792.111,1.188c.046.727.082,1.455.1,2.192Q680.988,180.921,680.988,181.625Z" fill="url(#linear-gradient-4)"/>
                  </g>
                  <g id="Grupo_53847" data-name="Grupo 53847">
                    <path id="Trazado_100708" data-name="Trazado 100708" d="M635,138.05h-.009q-1.105-.056-2.238-.056h-265.5q-1.134,0-2.238.056h-.028a43.7,43.7,0,0,0-41.374,43.575V818.437a43.691,43.691,0,0,0,40.176,43.5c.4.028.8.055,1.2.074q1.119.055,2.266.055h265.5c.755,0,1.5-.018,2.247-.055.4-.019.8-.046,1.2-.074a43.7,43.7,0,0,0,40.186-43.5V181.625A43.692,43.692,0,0,0,635,138.05Zm37.7,680.387a40.137,40.137,0,0,1-36.76,39.827c-.368.028-.746.055-1.123.065-.682.036-1.373.055-2.063.055h-265.5c-.7,0-1.4-.019-2.091-.055-.369-.01-.746-.037-1.087-.065A40.132,40.132,0,0,1,327.3,818.437V181.625a39.929,39.929,0,0,1,37.791-39.891h.019l.092-.009c.672-.028,1.363-.046,2.054-.046h265.5c.69,0,1.381.018,2.054.046l.064.009A39.917,39.917,0,0,1,672.7,181.625Z"/>
                  </g>
                  <path id="Trazado_100709" data-name="Trazado 100709" d="M672.69,181.883V818.7a39.5,39.5,0,0,1-5.223,19.637c-.3.535-.626,1.059-.948,1.575q-.747,1.161-1.548,2.266a41.269,41.269,0,0,1-5.139,5.766,41.5,41.5,0,0,0,5.489-20.65v-7.341c.019-.433.028-.875.028-1.317V181.818c0-.451-.009-.9-.028-1.344v-7.185a41.7,41.7,0,0,0-5.5-20.788A39.87,39.87,0,0,1,672.69,181.883Z" fill="url(#linear-gradient-5)"/>
                  <g id="Grupo_53848" data-name="Grupo 53848">
                    <path id="Trazado_100710" data-name="Trazado 100710" d="M634.678,145.413l-.17-.013c-.577-.022-1.166-.037-1.756-.037h-265.5c-.6,0-1.207.015-1.8.039l-.181.016h-.086a36.261,36.261,0,0,0-34.209,36.207V818.438a36.427,36.427,0,0,0,33.4,36.154c.275.022.579.046.876.053l.106.005c.626.033,1.26.05,1.894.05h265.5c.625,0,1.249-.017,1.865-.05l.111-.005c.313-.007.627-.031.922-.054a36.418,36.418,0,0,0,33.365-36.153V181.625A36.243,36.243,0,0,0,634.678,145.413Zm24.665,673.025a26.7,26.7,0,0,1-24.45,26.512c-.127.009-.26.022-.389.027h-.083l-.084,0-.111,0-.065,0-.066,0c-.445.024-.9.036-1.343.036h-265.5c-.458,0-.923-.013-1.38-.037l-.053,0-.052,0-.106,0-.078,0-.086,0c-.114,0-.228-.015-.363-.026a26.712,26.712,0,0,1-24.482-26.513V181.625a26.6,26.6,0,0,1,24.832-26.536h.238l.36-.033c.427-.015.812-.022,1.17-.022h265.5c.36,0,.752.008,1.2.023l.094.007.129.007a26.572,26.572,0,0,1,25.172,26.554Z"/>
                    <path id="Trazado_100711" data-name="Trazado 100711" d="M590.264,155.034v3.472A21.167,21.167,0,0,1,569.1,179.672H430.9a21.167,21.167,0,0,1-21.166-21.166v-3.472Z"/>
                  </g>
                  <path id="Trazado_100712" data-name="Trazado 100712" d="M590.264,155.039v3.472A21.168,21.168,0,0,1,569.1,179.677H430.9a21.168,21.168,0,0,1-21.166-21.166v-3.472Z"/>
                  <g id="Grupo_53849" data-name="Grupo 53849">
                    <path id="Trazado_100713" data-name="Trazado 100713" d="M665.321,819.948v7.341a41.5,41.5,0,0,1-5.489,20.65,39.719,39.719,0,0,1-23.874,10.519c-.369.027-.746.055-1.124.064-.681.037-1.372.055-2.063.055h-265.5c-.7,0-1.4-.018-2.091-.055-.368-.009-.746-.037-1.087-.064-.506-.037-1.013-.093-1.519-.157a39.649,39.649,0,0,1-22.354-10.353,41.5,41.5,0,0,1-5.536-20.724v-8.593a32.619,32.619,0,0,0,11.467,24.749,32.278,32.278,0,0,0,18.523,7.727c.23.019.46.047.69.047l.1.009h.1c.562.027,1.133.046,1.7.046h265.5c.553,0,1.114-.019,1.667-.046h.111l.1-.009c.258,0,.506-.028.755-.047A32.708,32.708,0,0,0,665.321,819.948Z" fill="url(#linear-gradient-6)"/>
                    <path id="Trazado_100714" data-name="Trazado 100714" d="M672.69,181.883l.027-.065a39.917,39.917,0,0,0-37.828-39.891l-.064-.009c-.672-.028-1.363-.046-2.054-.046h-265.5c-.691,0-1.381.018-2.054.046l-.092.009h-.018c-.866.046-1.713.12-2.561.221a39.8,39.8,0,0,0-22.363,10.289,41.7,41.7,0,0,0-5.5,20.788v8.593A32.57,32.57,0,0,1,365.323,149.3h.174l.24-.028c.562-.018,1.068-.027,1.538-.027h265.5c.424,0,.884.009,1.391.027h.009l.332.019a32.555,32.555,0,0,1,30.818,31.187v-7.185a41.7,41.7,0,0,0-5.5-20.788A39.87,39.87,0,0,1,672.69,181.883Z" fill="url(#linear-gradient-6)"/>
                    <path id="Trazado_100715" data-name="Trazado 100715" d="M340.2,847.755a39.973,39.973,0,0,1-12.9-29.318V181.625a39.87,39.87,0,0,1,12.867-29.382,41.7,41.7,0,0,0-5.5,20.789v654A41.51,41.51,0,0,0,340.2,847.755Z" fill="url(#linear-gradient-8)"/>
                    <path id="Trazado_100716" data-name="Trazado 100716" d="M672.69,181.883V818.7a39.5,39.5,0,0,1-5.223,19.637c-.3.535-.626,1.059-.948,1.575q-.719,1.161-1.548,2.266a39.619,39.619,0,0,1-5.185,5.84c.018-.028.027-.046.046-.074a41.5,41.5,0,0,0,5.489-20.65v-654a41.7,41.7,0,0,0-5.5-20.788A39.87,39.87,0,0,1,672.69,181.883Z" fill="url(#linear-gradient-9)"/>
                  </g>
                </g>
                <g id="Grupo_53851" data-name="Grupo 53851">
                  <rect id="Rect치ngulo_5219" data-name="Rect치ngulo 5219" width="42.369" height="4.452" rx="1.771" transform="translate(477.701 157.894)" fill="url(#linear-gradient-10)"/>
                </g>
              </g>
              <g id="Grupo_53853" data-name="Grupo 53853">
                <path id="Trazado_100717" data-name="Trazado 100717" d="M634.509,155.044h-.24l-.359-.037c-.424-.018-.811-.018-1.17-.018H594.431a4.426,4.426,0,0,0-4.182,3.97c-.009.147-.018.295-.018.451v.056a21.165,21.165,0,0,1-21.14,20.163h-138.2a21.165,21.165,0,0,1-21.139-20.163v-.056c0-.156-.01-.3-.019-.451a4.426,4.426,0,0,0-4.182-3.97H367.239c-.359,0-.746,0-1.169.018l-.36.037h-.239a26.594,26.594,0,0,0-24.833,26.537V818.428a26.716,26.716,0,0,0,24.483,26.509l.359.028h.092l.074.009h.157l.055.009c.46.019.921.037,1.381.037h265.5c.461,0,.921-.018,1.382-.037l.055-.009h.157l.073-.009h.092l.36-.028a26.717,26.717,0,0,0,24.483-26.509V181.581A26.6,26.6,0,0,0,634.509,155.044Z" fill="url(#linear-gradient-11)"/>
              </g>
            </g>
          </g>
        </g>
      </g>
      <path id="Trazado_103369" data-name="Trazado 103369" d="M6.691-17.062,10.5-5.191l3.8-11.871h5.414V0H15.586V-3.984l.4-8.156L11.859,0H9.141L5-12.152l.4,8.168V0H1.289V-17.062ZM26.309,0H22.348V-12.68h3.961Zm-4.2-15.961a1.778,1.778,0,0,1,.609-1.391,2.29,2.29,0,0,1,1.582-.542,2.29,2.29,0,0,1,1.582.542,1.778,1.778,0,0,1,.609,1.391,1.778,1.778,0,0,1-.609,1.391,2.29,2.29,0,0,1-1.582.542,2.29,2.29,0,0,1-1.582-.542A1.778,1.778,0,0,1,22.113-15.961ZM42.27-1.371A4.072,4.072,0,0,1,38.883.234,3.993,3.993,0,0,1,35.725-.979a5.1,5.1,0,0,1-1.072-3.486V-12.68H38.6v8.238a1.419,1.419,0,0,0,1.582,1.629,2.064,2.064,0,0,0,1.934-.973V-12.68H46.09V0h-3.7ZM51.879-12.68l.129,1.488a4.3,4.3,0,0,1,3.621-1.723,3.618,3.618,0,0,1,2.959,1.184A5.635,5.635,0,0,1,59.6-8.168V0H55.641V-8a2.14,2.14,0,0,0-.387-1.412,1.789,1.789,0,0,0-1.406-.451,1.883,1.883,0,0,0-1.723.914V0H48.176V-12.68ZM65.953,0H61.992V-12.68h3.961Zm-4.2-15.961a1.778,1.778,0,0,1,.609-1.391,2.29,2.29,0,0,1,1.582-.542,2.29,2.29,0,0,1,1.582.542,1.778,1.778,0,0,1,.609,1.391,1.778,1.778,0,0,1-.609,1.391,2.29,2.29,0,0,1-1.582.542,2.29,2.29,0,0,1-1.582-.542A1.778,1.778,0,0,1,61.758-15.961Zm6.129,9.527a7.746,7.746,0,0,1,1.3-4.746,4.282,4.282,0,0,1,3.633-1.734,3.641,3.641,0,0,1,2.859,1.336V-18h3.961V0H76.09l-.2-1.359A3.739,3.739,0,0,1,72.8.234,4.274,4.274,0,0,1,69.211-1.5,7.991,7.991,0,0,1,67.887-6.434Zm3.949.246q0,3.375,1.969,3.375a1.944,1.944,0,0,0,1.875-1.1V-8.742a1.892,1.892,0,0,0-1.852-1.125q-1.828,0-1.98,2.953ZM89.027,0a4.459,4.459,0,0,1-.375-1.137A3.672,3.672,0,0,1,85.605.234,4.5,4.5,0,0,1,82.559-.85,3.45,3.45,0,0,1,81.3-3.574a3.546,3.546,0,0,1,1.523-3.117,7.761,7.761,0,0,1,4.43-1.055h1.219v-.671q0-1.755-1.512-1.755a1.236,1.236,0,0,0-1.406,1.39H81.609a3.54,3.54,0,0,1,1.564-2.985,6.575,6.575,0,0,1,3.99-1.147A5.764,5.764,0,0,1,91-11.73a4.115,4.115,0,0,1,1.441,3.246v5.613A5.748,5.748,0,0,0,92.977-.2V0ZM86.555-2.578a2.2,2.2,0,0,0,1.225-.316,1.983,1.983,0,0,0,.7-.715V-5.637H87.328q-2.062,0-2.062,1.852a1.131,1.131,0,0,0,.363.873A1.315,1.315,0,0,0,86.555-2.578Zm7.57-3.855a7.746,7.746,0,0,1,1.3-4.746,4.282,4.282,0,0,1,3.633-1.734,3.641,3.641,0,0,1,2.859,1.336V-18h3.961V0h-3.551l-.2-1.359A3.739,3.739,0,0,1,99.035.234,4.274,4.274,0,0,1,95.449-1.5,7.991,7.991,0,0,1,94.125-6.434Zm3.949.246q0,3.375,1.969,3.375a1.944,1.944,0,0,0,1.875-1.1V-8.742a1.892,1.892,0,0,0-1.852-1.125q-1.828,0-1.98,2.953Z" transform="translate(683 947)" fill="#12263f"/>
      <path id="Icon_ionic-md-menu" data-name="Icon ionic-md-menu" d="M4.5,27h27V24H4.5Zm0-7.5h27v-3H4.5ZM4.5,9v3h27V9Z" transform="translate(643.5 920)" fill="#12263f"/>
      <path id="Icon_ionic-md-menu-2" data-name="Icon ionic-md-menu" d="M4.5,27H8.167V24H4.5Zm0-7.5H8.167v-3H4.5ZM4.5,9v3H8.167V9Z" transform="translate(933.833 920)" fill="#12263f"/>
      <path id="Icon_open-magnifying-glass" data-name="Icon open-magnifying-glass" d="M7.8-.023a7.8,7.8,0,1,0,0,15.609,7.714,7.714,0,0,0,3.7-.914,2.23,2.23,0,0,0,.29.29l2.23,2.23a2.274,2.274,0,1,0,3.211-3.211l-2.23-2.23a2.23,2.23,0,0,0-.357-.29,7.7,7.7,0,0,0,.981-3.7,7.813,7.813,0,0,0-7.8-7.8Zm0,2.23a5.548,5.548,0,0,1,5.575,5.575,5.591,5.591,0,0,1-1.472,3.835l-.067.067a2.23,2.23,0,0,0-.29.29,5.58,5.58,0,0,1-3.768,1.4,5.575,5.575,0,1,1,0-11.149Z" transform="translate(891.837 929.045)" fill="#12263f"/>
      <path id="Rect치ngulo_5224" data-name="Rect치ngulo 5224" d="M0,0H319a0,0,0,0,1,0,0V32a28,28,0,0,1-28,28H28A28,28,0,0,1,0,32V0A0,0,0,0,1,0,0Z" transform="translate(633 1511)" fill="#4dd0e1" opacity="0.33"/>
      <path id="Icon_ionic-ios-arrow-forward" data-name="Icon ionic-ios-arrow-forward" d="M20.679,18,11.742,9.07a1.681,1.681,0,0,1,0-2.384,1.7,1.7,0,0,1,2.391,0L24.258,16.8a1.685,1.685,0,0,1,.049,2.327L14.14,29.32a1.688,1.688,0,0,1-2.391-2.384Z" transform="translate(899.002 1522.996)" fill="#12263f"/>
      <g id="Grupo_53858" data-name="Grupo 53858" transform="translate(785 1529)">
        <g id="Icon_feather-menu" data-name="Icon feather-menu" transform="translate(1.464)">
          <path id="Trazado_8" data-name="Trazado 8" d="M4.5,18h27" transform="translate(-4.5 -9)" fill="none" stroke="#00104e" stroke-linecap="round" stroke-linejoin="round" stroke-width="3"/>
          <path id="Trazado_9" data-name="Trazado 9" d="M4.5,9h27" transform="translate(-4.5 -9)" fill="none" stroke="#00104e" stroke-linecap="round" stroke-linejoin="round" stroke-width="3"/>
          <path id="Trazado_10" data-name="Trazado 10" d="M4.5,27h27" transform="translate(-4.5 -9)" fill="none" stroke="#00104e" stroke-linecap="round" stroke-linejoin="round" stroke-width="3"/>
        </g>
        <path id="Trazado_103371" data-name="Trazado 103371" d="M1.08-7.872h1.2l1.512,4.2q.144.408.282.822t.282.822H4.4q.144-.408.27-.822t.27-.822l1.488-4.2H7.644V0H6.708V-4.332q0-.528.048-1.164T6.84-6.66H6.792L6.168-4.872,4.68-.792H4.02L2.532-4.872,1.908-6.66H1.86q.036.528.078,1.164T1.98-4.332V0h-.9Zm8.724,0H14.34v.84H10.8V-4.56h2.988v.852H10.8V-.852h3.66V0H9.8Zm6.324,0H17.16L20-2.928,20.856-1.3H20.9q-.036-.6-.078-1.242T20.784-3.8V-7.872h.948V0H20.7L17.844-4.956l-.852-1.62h-.048q.048.6.09,1.218t.042,1.242V0h-.948ZM26.688.144A3.526,3.526,0,0,1,25.566-.03a2.151,2.151,0,0,1-.9-.576,2.8,2.8,0,0,1-.594-1.05,5.1,5.1,0,0,1-.216-1.6v-4.62h1v4.644A4.192,4.192,0,0,0,25-2.04a2.1,2.1,0,0,0,.39.768,1.408,1.408,0,0,0,.582.414,2.034,2.034,0,0,0,.72.126,2.069,2.069,0,0,0,.732-.126,1.452,1.452,0,0,0,.588-.414,2.042,2.042,0,0,0,.4-.768,4.192,4.192,0,0,0,.144-1.188V-7.872h.96v4.62a5.1,5.1,0,0,1-.216,1.6A2.8,2.8,0,0,1,28.7-.606,2.156,2.156,0,0,1,27.8-.03,3.471,3.471,0,0,1,26.688.144Zm-.66-9.012,1.7-1.536.564.66-1.824,1.38Z" transform="translate(0 34)" fill="#00104e"/>
      </g>
    </g>
    <path id="Trazado_103370" data-name="Trazado 103370" d="M24.6,0H18.128L8.554-16.811V0H2.041V-27.016H8.554l9.556,16.811V-27.016H24.6ZM44.4-5.047H35.477L33.918,0H26.96l9.908-27.016h6.123L52.974,0h-7Zm-7.366-5.028h5.808l-2.913-9.37ZM64-7.348l5.381-19.668h7.273L67.558,0H60.433L51.415-27.016h7.218Zm31.376-4.119H85.129V-5.01h12.1V0H78.616V-27.016H97.264v5.028H85.129v5.7H95.371ZM122-3.34a10.471,10.471,0,0,1-4.4,2.69A18.967,18.967,0,0,1,111.254.371a11.315,11.315,0,0,1-8.479-3.247q-3.173-3.247-3.4-9.036L99.36-14.25a16.122,16.122,0,0,1,1.41-6.967,10.471,10.471,0,0,1,4.036-4.583,11.415,11.415,0,0,1,6.077-1.6q5.047,0,7.839,2.31a9.788,9.788,0,0,1,3.256,6.893h-6.271a5.122,5.122,0,0,0-1.447-3.229,4.67,4.67,0,0,0-3.154-.965,4.249,4.249,0,0,0-3.785,2.078,11.1,11.1,0,0,0-1.354,5.938v1.633a10.862,10.862,0,0,0,1.382,6.077A4.889,4.889,0,0,0,111.7-4.639a5.472,5.472,0,0,0,3.785-1.132V-9.964h-4.527v-4.472H122Zm19.13-1.707H132.2L130.644,0h-6.958l9.908-27.016h6.123L149.7,0h-7Zm-7.366-5.028h5.808l-2.913-9.37Zm39.373.928a9.866,9.866,0,0,1-1.521,4.982,9.183,9.183,0,0,1-3.906,3.349A13.294,13.294,0,0,1,161.964.371a10.609,10.609,0,0,1-8.387-3.47q-3.062-3.47-3.062-9.8v-1.336A16.353,16.353,0,0,1,151.9-21.18a10.474,10.474,0,0,1,3.98-4.6,11.1,11.1,0,0,1,6.012-1.624,11.644,11.644,0,0,1,7.9,2.588,10.227,10.227,0,0,1,3.4,7.134H166.7a4.839,4.839,0,0,0-1.243-3.544A5.113,5.113,0,0,0,161.89-22.3a3.89,3.89,0,0,0-3.562,1.818q-1.132,1.818-1.187,5.808v1.911q0,4.323,1.085,6.179a3.972,3.972,0,0,0,3.739,1.855A5,5,0,0,0,165.4-5.789a4.489,4.489,0,0,0,1.262-3.358ZM183.153,0h-6.494V-27.016h6.494Zm27.405-12.951a15.931,15.931,0,0,1-1.466,7,10.833,10.833,0,0,1-4.166,4.685A11.6,11.6,0,0,1,198.776.371a11.763,11.763,0,0,1-6.123-1.586,10.815,10.815,0,0,1-4.166-4.537,15.473,15.473,0,0,1-1.568-6.772v-1.521a16,16,0,0,1,1.457-7,10.807,10.807,0,0,1,4.175-4.685,11.68,11.68,0,0,1,6.188-1.651,11.566,11.566,0,0,1,6.123,1.633,11,11,0,0,1,4.184,4.648,15.542,15.542,0,0,1,1.512,6.912Zm-6.624-1.132a11.36,11.36,0,0,0-1.345-6.114,4.315,4.315,0,0,0-3.85-2.087q-4.9,0-5.177,7.348l-.019,1.985a11.684,11.684,0,0,0,1.317,6.1,4.308,4.308,0,0,0,3.915,2.134,4.257,4.257,0,0,0,3.8-2.1,11.365,11.365,0,0,0,1.354-6.03ZM199.5-34.252h6.605l-5.158,5.826-5.1-.009ZM236.479,0H230L220.43-16.811V0h-6.513V-27.016h6.513l9.556,16.811V-27.016h6.494Z" transform="translate(684 1414)" fill="#12263f"/>
  </g>
</svg>
