<svg xmlns="http://www.w3.org/2000/svg" xmlns:xlink="http://www.w3.org/1999/xlink" width="55" height="55" viewBox="0 0 55 55">
  <defs>
    <clipPath id="clip-path">
      <rect id="Rectángulo_5328" data-name="Rectángulo 5328" width="55" height="55" transform="translate(963.75 2657.5)" fill="#ffa726" stroke="#707070" stroke-width="1"/>
    </clipPath>
  </defs>
  <g id="Enmascarar_grupo_69" data-name="Enmascarar grupo 69" transform="translate(-963.75 -2657.5)" clip-path="url(#clip-path)">
    <g id="telefono-inteligente_1_" data-name="telefono-inteligente (1)" transform="translate(962.863 2656.613)">
      <path id="Trazado_101050" data-name="Trazado 101050" d="M15.081,55.887H41.694a5.328,5.328,0,0,0,5.323-5.323V6.21A5.328,5.328,0,0,0,41.694.887H15.081A5.328,5.328,0,0,0,9.758,6.21V50.565a5.328,5.328,0,0,0,5.323,5.323ZM11.532,6.21a3.548,3.548,0,0,1,3.548-3.548H41.694A3.548,3.548,0,0,1,45.242,6.21V50.565a3.548,3.548,0,0,1-3.548,3.548H15.081a3.548,3.548,0,0,1-3.548-3.548Z" fill="#ffa726"/>
      <path id="Trazado_101051" data-name="Trazado 101051" d="M14.194,45.242H42.581a.887.887,0,0,0,.887-.887V8.871a.887.887,0,0,0-.887-.887H14.194a.887.887,0,0,0-.887.887V44.355A.887.887,0,0,0,14.194,45.242Zm.887-35.484H41.694v33.71H15.081Z" fill="#ffa726"/>
      <path id="Trazado_101052" data-name="Trazado 101052" d="M23.065,4.435h7.1V6.21h-7.1Z" fill="#ffa726"/>
      <path id="Trazado_101053" data-name="Trazado 101053" d="M31.935,4.435H33.71V6.21H31.935Z" fill="#ffa726"/>
      <path id="Trazado_101054" data-name="Trazado 101054" d="M28.387,47.016a2.661,2.661,0,1,0,2.661,2.661,2.661,2.661,0,0,0-2.661-2.661Zm0,3.548a.887.887,0,1,1,.887-.887A.887.887,0,0,1,28.387,50.565Z" fill="#ffa726"/>
      <path id="Trazado_101055" data-name="Trazado 101055" d="M40.135,23.091,38.589,22.7a10.567,10.567,0,0,0-.852-2.051l.822-1.371a.887.887,0,0,0-.134-1.083L35.917,15.69a.887.887,0,0,0-1.083-.134l-1.371.821a10.645,10.645,0,0,0-2.051-.851l-.388-1.549a.887.887,0,0,0-.863-.672H26.613a.887.887,0,0,0-.86.672l-.388,1.546a10.645,10.645,0,0,0-2.051.851l-1.371-.821a.887.887,0,0,0-1.083.134L18.351,18.2a.887.887,0,0,0-.134,1.083l.822,1.371a10.567,10.567,0,0,0-.852,2.051l-1.549.388a.887.887,0,0,0-.672.863V27.5a.887.887,0,0,0,.672.86l1.549.388A10.567,10.567,0,0,0,19.04,30.8l-.822,1.371a.887.887,0,0,0,.134,1.083l2.509,2.509a.887.887,0,0,0,1.083.134l1.371-.822a10.532,10.532,0,0,0,2.051.851l.388,1.55a.887.887,0,0,0,.86.672h3.548a.887.887,0,0,0,.86-.672l.388-1.55a10.532,10.532,0,0,0,2.051-.851l1.371.822a.887.887,0,0,0,1.083-.134l2.509-2.509a.887.887,0,0,0,.134-1.083L37.734,30.8a10.567,10.567,0,0,0,.852-2.051l1.549-.388a.887.887,0,0,0,.672-.86V23.952a.887.887,0,0,0-.672-.86Zm-1.1,3.716-1.383.346a.887.887,0,0,0-.648.653,8.8,8.8,0,0,1-1.053,2.539.887.887,0,0,0,0,.92l.734,1.223-1.529,1.529-1.223-.734a.887.887,0,0,0-.92,0,8.782,8.782,0,0,1-2.539,1.053.887.887,0,0,0-.653.647l-.35,1.387H27.306l-.346-1.384a.887.887,0,0,0-.653-.647,8.782,8.782,0,0,1-2.539-1.053.887.887,0,0,0-.92,0l-1.223.734L20.1,32.492l.734-1.223a.887.887,0,0,0,0-.92,8.8,8.8,0,0,1-1.053-2.539.887.887,0,0,0-.648-.653l-1.387-.35V24.644l1.383-.346a.887.887,0,0,0,.648-.653,8.8,8.8,0,0,1,1.053-2.539.887.887,0,0,0,0-.92l-.734-1.223,1.529-1.529,1.224.734a.887.887,0,0,0,.919,0A8.782,8.782,0,0,1,26.3,17.115a.887.887,0,0,0,.653-.648l.35-1.387h2.163l.346,1.383a.887.887,0,0,0,.653.648,8.782,8.782,0,0,1,2.539,1.053.887.887,0,0,0,.919,0l1.224-.734,1.529,1.529-.734,1.223a.887.887,0,0,0,0,.92A8.8,8.8,0,0,1,37,23.642a.887.887,0,0,0,.648.653l1.383.346Z" fill="#ffa726"/>
      <path id="Trazado_101056" data-name="Trazado 101056" d="M28.387,18.629a7.1,7.1,0,1,0,7.1,7.1,7.1,7.1,0,0,0-7.1-7.1Zm-2.661,11.7v-.167a2.661,2.661,0,0,1,5.323,0v.167a5.276,5.276,0,0,1-5.323,0ZM27.5,24.839a.887.887,0,1,1,.887.887A.887.887,0,0,1,27.5,24.839Zm5.127,4.091a4.428,4.428,0,0,0-2.04-2.6,2.661,2.661,0,1,0-4.4,0,4.428,4.428,0,0,0-2.04,2.6,5.323,5.323,0,1,1,8.481,0Z" fill="#ffa726"/>
      <path id="Trazado_101057" data-name="Trazado 101057" d="M38.145,39.919h1.774v1.774H38.145Z" fill="#ffa726"/>
      <path id="Trazado_101058" data-name="Trazado 101058" d="M34.6,39.919h1.774v1.774H34.6Z" fill="#ffa726"/>
      <path id="Trazado_101059" data-name="Trazado 101059" d="M31.048,39.919h1.774v1.774H31.048Z" fill="#ffa726"/>
    </g>
  </g>
</svg>
