<svg xmlns="http://www.w3.org/2000/svg" xmlns:xlink="http://www.w3.org/1999/xlink" width="55" height="55" viewBox="0 0 55 55">
  <defs>
    <clipPath id="clip-path">
      <rect id="Rectángulo_5244" data-name="Rectángulo 5244" width="55" height="55" transform="translate(256 1815)" fill="#ffa726" stroke="#707070" stroke-width="1"/>
    </clipPath>
  </defs>
  <g id="Enmascarar_grupo_50" data-name="Enmascarar grupo 50" transform="translate(-256 -1815)" clip-path="url(#clip-path)">
    <g id="album" transform="translate(267 1815)">
      <path id="Trazado_100758" data-name="Trazado 100758" d="M24.75,31.167H8.25a.917.917,0,0,1-.917-.917V15.583a.917.917,0,0,1,.917-.917h16.5a.917.917,0,0,1,.917.917V30.25A.917.917,0,0,1,24.75,31.167ZM9.167,29.333H23.833V16.5H9.167Z" fill="#ffa726"/>
      <path id="Trazado_100759" data-name="Trazado 100759" d="M4.583,31.167H.917A.917.917,0,0,1,0,30.25V15.583a.917.917,0,0,1,.917-.917H4.583a.917.917,0,0,1,.917.917V30.25A.917.917,0,0,1,4.583,31.167Zm-2.75-1.833H3.667V16.5H1.833Z" fill="#ffa726"/>
      <path id="Trazado_100760" data-name="Trazado 100760" d="M32.083,31.167H28.417a.917.917,0,0,1-.917-.917V15.583a.917.917,0,0,1,.917-.917h3.667a.917.917,0,0,1,.917.917V30.25A.917.917,0,0,1,32.083,31.167Zm-2.75-1.833h1.833V16.5H29.333Z" fill="#ffa726"/>
      <path id="Trazado_100761" data-name="Trazado 100761" d="M22.917,37.583H10.083a.917.917,0,0,1,0-1.833H22.917a.917.917,0,0,1,0,1.833Z" fill="#ffa726"/>
      <path id="Trazado_100762" data-name="Trazado 100762" d="M13.75,26.583a.917.917,0,0,1-.917-.917V21.083a.917.917,0,0,1,1.833,0v4.583A.917.917,0,0,1,13.75,26.583Z" fill="#ffa726"/>
      <path id="Trazado_100763" data-name="Trazado 100763" d="M19.25,24.75a.917.917,0,0,1-.917-.917V20.167a.917.917,0,1,1,1.833,0v3.667A.917.917,0,0,1,19.25,24.75Z" fill="#ffa726"/>
      <path id="Trazado_100764" data-name="Trazado 100764" d="M13.749,22a.916.916,0,0,1-.149-1.82l5.5-.917a.917.917,0,1,1,.3,1.809l-5.5.917a.962.962,0,0,1-.152.012Z" fill="#ffa726"/>
      <path id="Trazado_100765" data-name="Trazado 100765" d="M12.833,27.5a.917.917,0,0,1-.648-1.565l.917-.917a.917.917,0,0,1,1.3,1.3l-.917.917a.914.914,0,0,1-.648.269Z" fill="#ffa726"/>
      <path id="Trazado_100766" data-name="Trazado 100766" d="M18.333,25.667a.917.917,0,0,1-.648-1.565l.917-.917a.917.917,0,0,1,1.3,1.3l-.917.917a.914.914,0,0,1-.648.269Z" fill="#ffa726"/>
      <path id="Trazado_100767" data-name="Trazado 100767" d="M4.583,37.583a.917.917,0,0,1-.648-1.565l1.833-1.833a.917.917,0,0,1,1.3,1.3L5.231,37.315A.914.914,0,0,1,4.583,37.583Z" fill="#ffa726"/>
      <path id="Trazado_100768" data-name="Trazado 100768" d="M6.417,39.417a.914.914,0,0,1-.648-.269L3.935,37.315a.917.917,0,0,1,1.3-1.3l1.833,1.833a.917.917,0,0,1-.648,1.565Z" fill="#ffa726"/>
      <path id="Trazado_100769" data-name="Trazado 100769" d="M28.417,37.583a.914.914,0,0,1-.648-.269l-1.833-1.833a.917.917,0,1,1,1.3-1.3l1.833,1.833a.917.917,0,0,1-.648,1.565Z" fill="#ffa726"/>
      <path id="Trazado_100770" data-name="Trazado 100770" d="M26.583,39.417a.917.917,0,0,1-.648-1.565l1.833-1.833a.917.917,0,0,1,1.3,1.3l-1.833,1.833a.914.914,0,0,1-.648.269Z" fill="#ffa726"/>
      <path id="Trazado_100771" data-name="Trazado 100771" d="M19.25,5.5h-5.5a.917.917,0,0,1,0-1.833h5.5a.917.917,0,1,1,0,1.833Z" fill="#ffa726"/>
      <path id="Trazado_100772" data-name="Trazado 100772" d="M30.252,55H2.748A2.751,2.751,0,0,1,0,52.252V43.083a.917.917,0,0,1,.917-.917H32.083a.917.917,0,0,1,.917.917v9.168A2.751,2.751,0,0,1,30.252,55ZM1.833,44v8.252a.915.915,0,0,0,.915.915h27.5a.915.915,0,0,0,.914-.915V44Z" fill="#ffa726"/>
      <path id="Trazado_100773" data-name="Trazado 100773" d="M16.5,52.25a3.667,3.667,0,1,1,3.667-3.667A3.67,3.67,0,0,1,16.5,52.25Zm0-5.5a1.833,1.833,0,1,0,1.833,1.833A1.835,1.835,0,0,0,16.5,46.75Z" fill="#ffa726"/>
      <path id="Trazado_100774" data-name="Trazado 100774" d="M30.252,55H2.748A2.751,2.751,0,0,1,0,52.252V2.751A2.755,2.755,0,0,1,2.751,0h27.5A2.755,2.755,0,0,1,33,2.751v49.5A2.751,2.751,0,0,1,30.252,55ZM2.751,1.833a.919.919,0,0,0-.918.918v49.5a.915.915,0,0,0,.915.915h27.5a.915.915,0,0,0,.914-.915V2.751a.919.919,0,0,0-.918-.918Z" fill="#ffa726"/>
    </g>
  </g>
</svg>
