<svg xmlns="http://www.w3.org/2000/svg" xmlns:xlink="http://www.w3.org/1999/xlink" width="55" height="55" viewBox="0 0 55 55">
  <defs>
    <clipPath id="clip-path">
      <rect id="Rectángulo_5249" data-name="Rectángulo 5249" width="55" height="55" transform="translate(464 1815)" fill="#ffa726" stroke="#707070" stroke-width="1"/>
    </clipPath>
  </defs>
  <g id="Enmascarar_grupo_51" data-name="Enmascarar grupo 51" transform="translate(-464 -1815)" clip-path="url(#clip-path)">
    <g id="tabla" transform="translate(475 1815)">
      <path id="Trazado_100778" data-name="Trazado 100778" d="M27.5,12.833H12.833a.917.917,0,0,1,0-1.833H27.5a.917.917,0,1,1,0,1.833Z" fill="#ffa726"/>
      <path id="Trazado_100779" data-name="Trazado 100779" d="M32.083,16.5H.917A.917.917,0,0,1,0,15.583V8.25a.917.917,0,0,1,.917-.917H32.083A.917.917,0,0,1,33,8.25v7.333A.917.917,0,0,1,32.083,16.5ZM1.833,14.667H31.167v-5.5H1.833Z" fill="#ffa726"/>
      <path id="Trazado_100780" data-name="Trazado 100780" d="M8.25,16.5H.917A.917.917,0,0,1,0,15.583V8.25a.917.917,0,0,1,.917-.917H8.25a.917.917,0,0,1,.917.917v7.333A.917.917,0,0,1,8.25,16.5ZM1.833,14.667h5.5v-5.5h-5.5Z" fill="#ffa726"/>
      <path id="Trazado_100781" data-name="Trazado 100781" d="M27.5,20.167H12.833a.917.917,0,1,1,0-1.833H27.5a.917.917,0,1,1,0,1.833Z" fill="#ffa726"/>
      <path id="Trazado_100782" data-name="Trazado 100782" d="M32.083,23.833H.917A.917.917,0,0,1,0,22.917V15.583a.917.917,0,0,1,.917-.917H32.083a.917.917,0,0,1,.917.917v7.333A.917.917,0,0,1,32.083,23.833ZM1.833,22H31.167V16.5H1.833Z" fill="#ffa726"/>
      <path id="Trazado_100783" data-name="Trazado 100783" d="M8.25,23.833H.917A.917.917,0,0,1,0,22.917V15.583a.917.917,0,0,1,.917-.917H8.25a.917.917,0,0,1,.917.917v7.333A.917.917,0,0,1,8.25,23.833ZM1.833,22h5.5V16.5h-5.5Z" fill="#ffa726"/>
      <path id="Trazado_100784" data-name="Trazado 100784" d="M27.5,27.5H12.833a.917.917,0,1,1,0-1.833H27.5a.917.917,0,1,1,0,1.833Z" fill="#ffa726"/>
      <path id="Trazado_100785" data-name="Trazado 100785" d="M32.083,31.167H.917A.917.917,0,0,1,0,30.25V22.917A.917.917,0,0,1,.917,22H32.083a.917.917,0,0,1,.917.917V30.25A.917.917,0,0,1,32.083,31.167ZM1.833,29.333H31.167v-5.5H1.833Z" fill="#ffa726"/>
      <path id="Trazado_100786" data-name="Trazado 100786" d="M8.25,31.167H.917A.917.917,0,0,1,0,30.25V22.917A.917.917,0,0,1,.917,22H8.25a.917.917,0,0,1,.917.917V30.25A.917.917,0,0,1,8.25,31.167ZM1.833,29.333h5.5v-5.5h-5.5Z" fill="#ffa726"/>
      <path id="Trazado_100787" data-name="Trazado 100787" d="M27.5,34.833H12.833a.917.917,0,0,1,0-1.833H27.5a.917.917,0,1,1,0,1.833Z" fill="#ffa726"/>
      <path id="Trazado_100788" data-name="Trazado 100788" d="M32.083,38.5H.917A.917.917,0,0,1,0,37.583V30.25a.917.917,0,0,1,.917-.917H32.083A.917.917,0,0,1,33,30.25v7.333A.917.917,0,0,1,32.083,38.5ZM1.833,36.667H31.167v-5.5H1.833Z" fill="#ffa726"/>
      <path id="Trazado_100789" data-name="Trazado 100789" d="M8.25,38.5H.917A.917.917,0,0,1,0,37.583V30.25a.917.917,0,0,1,.917-.917H8.25a.917.917,0,0,1,.917.917v7.333A.917.917,0,0,1,8.25,38.5ZM1.833,36.667h5.5v-5.5h-5.5Z" fill="#ffa726"/>
      <path id="Trazado_100790" data-name="Trazado 100790" d="M19.25,5.5h-5.5a.917.917,0,0,1,0-1.833h5.5a.917.917,0,1,1,0,1.833Z" fill="#ffa726"/>
      <path id="Trazado_100791" data-name="Trazado 100791" d="M30.252,55H2.748A2.751,2.751,0,0,1,0,52.252V43.083a.917.917,0,0,1,.917-.917H32.083a.917.917,0,0,1,.917.917v9.168A2.751,2.751,0,0,1,30.252,55ZM1.833,44v8.252a.915.915,0,0,0,.915.915h27.5a.915.915,0,0,0,.914-.915V44Z" fill="#ffa726"/>
      <path id="Trazado_100792" data-name="Trazado 100792" d="M16.5,52.25a3.667,3.667,0,1,1,3.667-3.667A3.67,3.67,0,0,1,16.5,52.25Zm0-5.5a1.833,1.833,0,1,0,1.833,1.833A1.835,1.835,0,0,0,16.5,46.75Z" fill="#ffa726"/>
      <path id="Trazado_100793" data-name="Trazado 100793" d="M30.252,55H2.748A2.751,2.751,0,0,1,0,52.252V2.751A2.755,2.755,0,0,1,2.751,0h27.5A2.755,2.755,0,0,1,33,2.751v49.5A2.751,2.751,0,0,1,30.252,55ZM2.751,1.833a.919.919,0,0,0-.918.918v49.5a.915.915,0,0,0,.915.915h27.5a.915.915,0,0,0,.914-.915V2.751a.919.919,0,0,0-.918-.918Z" fill="#ffa726"/>
    </g>
  </g>
</svg>
