<svg xmlns="http://www.w3.org/2000/svg" xmlns:xlink="http://www.w3.org/1999/xlink" width="55" height="55" viewBox="0 0 55 55">
  <defs>
    <clipPath id="clip-path">
      <rect id="Rectángulo_5282" data-name="Rectángulo 5282" width="55" height="55" transform="translate(535.75 999.5)" fill="#ffa726" stroke="#707070" stroke-width="1"/>
    </clipPath>
  </defs>
  <g id="Enmascarar_grupo_55" data-name="Enmascarar grupo 55" transform="translate(-535.75 -999.5)" clip-path="url(#clip-path)">
    <g id="ajustes" transform="translate(546.75 999.5)">
      <path id="Trazado_100855" data-name="Trazado 100855" d="M28.417,18.333H4.583a.917.917,0,0,1-.917-.917V10.083a.917.917,0,0,1,.917-.917H28.417a.917.917,0,0,1,.917.917v7.333A.917.917,0,0,1,28.417,18.333ZM5.5,16.5h22V11H5.5Z" fill="#ffa726"/>
      <path id="Trazado_100856" data-name="Trazado 100856" d="M11.917,18.333A.917.917,0,0,1,11,17.417V10.083a.917.917,0,0,1,1.833,0v7.333A.917.917,0,0,1,11.917,18.333Z" fill="#ffa726"/>
      <path id="Trazado_100857" data-name="Trazado 100857" d="M18.333,14.667h-2.75a.917.917,0,1,1,0-1.833h2.75a.917.917,0,0,1,0,1.833Z" fill="#ffa726"/>
      <path id="Trazado_100858" data-name="Trazado 100858" d="M24.75,14.667H22a.917.917,0,0,1,0-1.833h2.75a.917.917,0,1,1,0,1.833Z" fill="#ffa726"/>
      <path id="Trazado_100859" data-name="Trazado 100859" d="M28.417,29.333H4.583a.917.917,0,0,1-.917-.917V21.083a.917.917,0,0,1,.917-.917H28.417a.917.917,0,0,1,.917.917v7.333A.917.917,0,0,1,28.417,29.333ZM5.5,27.5h22V22H5.5Z" fill="#ffa726"/>
      <path id="Trazado_100860" data-name="Trazado 100860" d="M11.917,29.333A.917.917,0,0,1,11,28.417V21.083a.917.917,0,0,1,1.833,0v7.333A.917.917,0,0,1,11.917,29.333Z" fill="#ffa726"/>
      <path id="Trazado_100861" data-name="Trazado 100861" d="M18.333,25.667h-2.75a.917.917,0,1,1,0-1.833h2.75a.917.917,0,0,1,0,1.833Z" fill="#ffa726"/>
      <path id="Trazado_100862" data-name="Trazado 100862" d="M24.75,25.667H22a.917.917,0,0,1,0-1.833h2.75a.917.917,0,1,1,0,1.833Z" fill="#ffa726"/>
      <path id="Trazado_100863" data-name="Trazado 100863" d="M28.417,40.333H4.583a.917.917,0,0,1-.917-.917V32.083a.917.917,0,0,1,.917-.917H28.417a.917.917,0,0,1,.917.917v7.333A.917.917,0,0,1,28.417,40.333ZM5.5,38.5h22V33H5.5Z" fill="#ffa726"/>
      <path id="Trazado_100864" data-name="Trazado 100864" d="M11.917,40.333A.917.917,0,0,1,11,39.417V32.083a.917.917,0,1,1,1.833,0v7.333A.917.917,0,0,1,11.917,40.333Z" fill="#ffa726"/>
      <path id="Trazado_100865" data-name="Trazado 100865" d="M18.333,36.667h-2.75a.917.917,0,1,1,0-1.833h2.75a.917.917,0,1,1,0,1.833Z" fill="#ffa726"/>
      <path id="Trazado_100866" data-name="Trazado 100866" d="M24.75,36.667H22a.917.917,0,1,1,0-1.833h2.75a.917.917,0,1,1,0,1.833Z" fill="#ffa726"/>
      <path id="Trazado_100867" data-name="Trazado 100867" d="M19.25,5.5h-5.5a.917.917,0,0,1,0-1.833h5.5a.917.917,0,1,1,0,1.833Z" fill="#ffa726"/>
      <path id="Trazado_100868" data-name="Trazado 100868" d="M30.254,55H2.746A2.749,2.749,0,0,1,0,52.254v-9.17a.917.917,0,0,1,.917-.917H32.083a.917.917,0,0,1,.917.917v9.17A2.749,2.749,0,0,1,30.254,55ZM1.833,44v8.254a.914.914,0,0,0,.913.913H30.254a.914.914,0,0,0,.913-.913V44Z" fill="#ffa726"/>
      <path id="Trazado_100869" data-name="Trazado 100869" d="M16.5,52.25a3.667,3.667,0,1,1,3.667-3.667A3.67,3.67,0,0,1,16.5,52.25Zm0-5.5a1.833,1.833,0,1,0,1.833,1.833A1.835,1.835,0,0,0,16.5,46.75Z" fill="#ffa726"/>
      <path id="Trazado_100870" data-name="Trazado 100870" d="M30.254,55H2.746A2.749,2.749,0,0,1,0,52.254V2.751A2.754,2.754,0,0,1,2.751,0h27.5A2.755,2.755,0,0,1,33,2.751v49.5A2.75,2.75,0,0,1,30.254,55ZM2.751,1.833a.919.919,0,0,0-.918.918v49.5a.914.914,0,0,0,.913.914H30.254a.914.914,0,0,0,.913-.913V2.751a.919.919,0,0,0-.918-.918Z" fill="#ffa726"/>
    </g>
  </g>
</svg>
