<svg xmlns="http://www.w3.org/2000/svg" xmlns:xlink="http://www.w3.org/1999/xlink" width="55" height="55" viewBox="0 0 55 55">
  <defs>
    <clipPath id="clip-path">
      <rect id="Rectángulo_5338" data-name="Rectángulo 5338" width="55" height="55" transform="translate(1170 3597)" fill="#ffa726" stroke="#707070" stroke-width="1"/>
    </clipPath>
  </defs>
  <g id="Enmascarar_grupo_90" data-name="Enmascarar grupo 90" transform="translate(-1170 -3597)" clip-path="url(#clip-path)">
    <g id="aplicaciones_2_" data-name="aplicaciones (2)" transform="translate(1182.065 3597)">
      <path id="Trazado_102462" data-name="Trazado 102462" d="M9.511,7.731a1.066,1.066,0,0,1-.209-.02,1.141,1.141,0,0,1-.2-.061,1.1,1.1,0,0,1-.185-.1,1.086,1.086,0,0,1-.163-.133,1.143,1.143,0,0,1-.133-.163,1.163,1.163,0,0,1-.1-.186,1.02,1.02,0,0,1-.061-.2,1.041,1.041,0,0,1,0-.42,1.02,1.02,0,0,1,.061-.2,1.142,1.142,0,0,1,.1-.185,1.032,1.032,0,0,1,.3-.3A1.061,1.061,0,0,1,9.3,5.6a1.083,1.083,0,0,1,.969.293,1.06,1.06,0,0,1,.133.164,1.11,1.11,0,0,1,.1.185,1.07,1.07,0,0,1,0,.822,1.131,1.131,0,0,1-.1.186,1.142,1.142,0,0,1-.133.163A1.082,1.082,0,0,1,9.511,7.731Zm0,0" fill="#ffa726"/>
      <path id="Trazado_102463" data-name="Trazado 102463" d="M26,0H4.871A4.877,4.877,0,0,0,0,4.871V50.129A4.877,4.877,0,0,0,4.871,55H26a4.877,4.877,0,0,0,4.871-4.871V4.871A4.877,4.877,0,0,0,26,0ZM4.871,2.148H26a2.726,2.726,0,0,1,2.722,2.722v.713H14.648a1.074,1.074,0,0,0,0,2.148H28.722V46.193H2.148V7.732H4.98a1.074,1.074,0,0,0,0-2.148H2.148V4.871A2.726,2.726,0,0,1,4.871,2.148ZM28.722,50.129A2.726,2.726,0,0,1,26,52.851H4.871a2.726,2.726,0,0,1-2.722-2.722V48.341H28.722Zm0,0" fill="#ffa726"/>
      <path id="Trazado_102464" data-name="Trazado 102464" d="M13.194,24.236H5.613a1.074,1.074,0,0,1-1.074-1.074v-7.58a1.074,1.074,0,0,1,1.074-1.074h7.581a1.074,1.074,0,0,1,1.074,1.074v7.58a1.074,1.074,0,0,1-1.074,1.074ZM6.687,22.088h5.432V16.656H6.687Zm0,0" fill="#ffa726"/>
      <path id="Trazado_102465" data-name="Trazado 102465" d="M25.258,24.236H17.677A1.074,1.074,0,0,1,16.6,23.162v-7.58a1.074,1.074,0,0,1,1.074-1.074h7.581a1.074,1.074,0,0,1,1.074,1.074v7.58A1.074,1.074,0,0,1,25.258,24.236Zm-6.507-2.148h5.432V16.656H18.751Zm0,0" fill="#ffa726"/>
      <path id="Trazado_102466" data-name="Trazado 102466" d="M13.194,36.193H5.613a1.074,1.074,0,0,1-1.074-1.074V27.538a1.074,1.074,0,0,1,1.074-1.074h7.581a1.074,1.074,0,0,1,1.074,1.074v7.581a1.074,1.074,0,0,1-1.074,1.074ZM6.687,34.045h5.432V28.612H6.687Zm0,0" fill="#ffa726"/>
      <path id="Trazado_102467" data-name="Trazado 102467" d="M25.258,36.193H17.677A1.074,1.074,0,0,1,16.6,35.119V27.538a1.074,1.074,0,0,1,1.074-1.074h7.581a1.074,1.074,0,0,1,1.074,1.074v7.581a1.074,1.074,0,0,1-1.074,1.074Zm-6.507-2.148h5.432V28.612H18.751Zm0,0" fill="#ffa726"/>
      <path id="Trazado_102468" data-name="Trazado 102468" d="M16.76,51.67H14.11a1.074,1.074,0,0,1,0-2.148h2.65a1.074,1.074,0,0,1,0,2.148Zm0,0" fill="#ffa726"/>
      <path id="Trazado_102469" data-name="Trazado 102469" d="M18.98,40.928h-7.09a1.074,1.074,0,1,1,0-2.148h7.09a1.074,1.074,0,1,1,0,2.148Zm0,0" fill="#ffa726"/>
    </g>
  </g>
</svg>
