<svg id="android" xmlns="http://www.w3.org/2000/svg" width="85" height="85" viewBox="0 0 85 85">
  <circle id="Elipse_4066" data-name="Elipse 4066" cx="42.5" cy="42.5" r="42.5" fill="#a3c939"/>
  <path id="Trazado_100604" data-name="Trazado 100604" d="M130.759,141.134a42.5,42.5,0,0,0,40.789-42.356L141.6,68.834,136.3,74.71l-8.719,1.082-8.439-8.439,1.22,6.914-8.838,13.565,6.269,6.269-1.925,1.822L109,89.058,103.778,111.4,121.5,129.127l-1.809.526Z" transform="translate(-86.549 -56.171)" fill="#8daa22"/>
  <path id="Trazado_100605" data-name="Trazado 100605" d="M98.419,190.708h0a3.919,3.919,0,0,0-3.919,3.919v16.536a3.919,3.919,0,0,0,3.919,3.919h0a3.919,3.919,0,0,0,3.919-3.919V194.627A3.919,3.919,0,0,0,98.419,190.708Z" transform="translate(-78.812 -159.048)" fill="#fff"/>
  <path id="Trazado_100606" data-name="Trazado 100606" d="M374.207,190.708h0a3.919,3.919,0,0,0-3.919,3.919v16.536a3.919,3.919,0,0,0,3.919,3.919h0a3.919,3.919,0,0,0,3.919-3.919V194.627A3.919,3.919,0,0,0,374.207,190.708Z" transform="translate(-308.814 -159.048)" fill="#e6e6e6"/>
  <path id="Trazado_100607" data-name="Trazado 100607" d="M177.6,73.669l2.917-4.835-2.456-1.481-2.993,4.962a17.574,17.574,0,0,0-7.01-1.45h0a17.571,17.571,0,0,0-7.011,1.45l-2.993-4.962-2.456,1.481,2.917,4.835a17.623,17.623,0,0,0-8.079,14.162h35.243A17.623,17.623,0,0,0,177.6,73.669Zm-17.524,7.472a1.792,1.792,0,1,1,1.792-1.792A1.792,1.792,0,0,1,160.072,81.141Zm15.771,0a1.792,1.792,0,1,1,1.792-1.792A1.792,1.792,0,0,1,175.844,81.141Z" transform="translate(-125.458 -56.171)" fill="#fff"/>
  <path id="Trazado_100608" data-name="Trazado 100608" d="M265.916,73.67l2.917-4.835-2.456-1.481-2.993,4.962a17.574,17.574,0,0,0-7.01-1.45h-.04V87.833h17.662A17.623,17.623,0,0,0,265.916,73.67Zm-1.752,7.472a1.792,1.792,0,1,1,1.792-1.792A1.792,1.792,0,0,1,264.163,81.142Z" transform="translate(-213.778 -56.172)" fill="#e6e6e6"/>
  <path id="Trazado_100609" data-name="Trazado 100609" d="M149.773,234.069h6.978v8.746a3.919,3.919,0,0,0,3.919,3.919h0a3.919,3.919,0,0,0,3.919-3.919v-8.746h5.448v8.746a3.919,3.919,0,0,0,3.919,3.919h0a3.919,3.919,0,0,0,3.919-3.919v-8.746h7.169V206.541H149.773Z" transform="translate(-124.908 -172.252)" fill="#fff"/>
  <path id="Trazado_100610" data-name="Trazado 100610" d="M256.333,206.541v27.528h2.573v8.746a3.919,3.919,0,0,0,3.919,3.919h0a3.919,3.919,0,0,0,3.919-3.919v-8.746h7.169V206.541Z" transform="translate(-213.778 -172.252)" fill="#e6e6e6"/>
</svg>
