<svg xmlns="http://www.w3.org/2000/svg" xmlns:xlink="http://www.w3.org/1999/xlink" width="154" height="155" viewBox="0 0 154 155">
  <defs>
    <clipPath id="clip-path">
      <rect id="Rectángulo_5426" data-name="Rectángulo 5426" width="154" height="155" transform="translate(531 1094)" fill="#fff" stroke="#707070" stroke-width="1"/>
    </clipPath>
  </defs>
  <g id="Enmascarar_grupo_85" data-name="Enmascarar grupo 85" transform="translate(-531 -1094)" clip-path="url(#clip-path)">
    <g id="solicitud_1_" data-name="solicitud (1)" transform="translate(561.85 1094)">
      <path id="Trazado_101533" data-name="Trazado 101533" d="M89.879,9.118V145.884a6.849,6.849,0,0,1-6.848,6.848H9.27a6.849,6.849,0,0,1-6.848-6.848V9.118A6.848,6.848,0,0,1,9.27,2.269H83.031a6.849,6.849,0,0,1,6.848,6.848Zm0,0" fill="#43a3f9"/>
      <path id="Trazado_101534" data-name="Trazado 101534" d="M89.878,9.118V145.884a6.847,6.847,0,0,1-6.848,6.847H71.659a6.847,6.847,0,0,0,6.848-6.847V9.118c0-3.782-5.486-6.848-9.27-6.848H83.03a6.847,6.847,0,0,1,6.848,6.848Zm0,0" fill="#1685fb"/>
      <path id="Trazado_101535" data-name="Trazado 101535" d="M89.878,9.118V20.291H2.422V9.118A6.847,6.847,0,0,1,9.27,2.269H83.03a6.847,6.847,0,0,1,6.848,6.848Zm0,0" fill="#e3f4ff"/>
      <path id="Trazado_101536" data-name="Trazado 101536" d="M89.878,9.118V20.291H78.508V9.118c0-3.782-5.486-6.848-9.27-6.848H83.03A6.847,6.847,0,0,1,89.878,9.118Zm0,0" fill="#bddff4"/>
      <path id="Trazado_101537" data-name="Trazado 101537" d="M89.878,134.921v10.962a6.847,6.847,0,0,1-6.848,6.847H9.27a6.847,6.847,0,0,1-6.848-6.847V134.921Zm0,0" fill="#e3f4ff"/>
      <path id="Trazado_101538" data-name="Trazado 101538" d="M78.507,134.921h11.37v10.962a6.847,6.847,0,0,1-6.848,6.847H71.659a6.847,6.847,0,0,0,6.848-6.847Zm0,0" fill="#bddff4"/>
      <path id="Trazado_101539" data-name="Trazado 101539" d="M38.765,54.581H20.658a2.686,2.686,0,0,1-2.687-2.687V33.787A2.686,2.686,0,0,1,20.658,31.1H38.767a2.687,2.687,0,0,1,2.687,2.687V51.894A2.687,2.687,0,0,1,38.765,54.581Zm0,0" fill="#4e7693"/>
      <path id="Trazado_101540" data-name="Trazado 101540" d="M41.453,38.126H17.971V33.787A2.686,2.686,0,0,1,20.658,31.1H38.767a2.687,2.687,0,0,1,2.687,2.687Zm0,0" fill="#e3f4ff"/>
      <path id="Trazado_101541" data-name="Trazado 101541" d="M71.643,54.581H53.534a2.686,2.686,0,0,1-2.687-2.687V33.787A2.687,2.687,0,0,1,53.534,31.1H71.643a2.686,2.686,0,0,1,2.687,2.687V51.894a2.686,2.686,0,0,1-2.687,2.687Zm0,0" fill="#27e6fc"/>
      <path id="Trazado_101542" data-name="Trazado 101542" d="M74.329,38.126H50.847V33.787A2.687,2.687,0,0,1,53.534,31.1H71.643a2.686,2.686,0,0,1,2.687,2.687Zm0,0" fill="#e3f4ff"/>
      <path id="Trazado_101543" data-name="Trazado 101543" d="M38.765,89.242H20.658a2.687,2.687,0,0,1-2.687-2.688V68.446a2.686,2.686,0,0,1,2.687-2.687H38.767a2.687,2.687,0,0,1,2.687,2.687V86.554A2.688,2.688,0,0,1,38.765,89.242Zm0,0" fill="#32dfb7"/>
      <path id="Trazado_101544" data-name="Trazado 101544" d="M41.453,72.785H17.971V68.446a2.686,2.686,0,0,1,2.687-2.687H38.767a2.687,2.687,0,0,1,2.687,2.687Zm0,0" fill="#e3f4ff"/>
      <path id="Trazado_101545" data-name="Trazado 101545" d="M71.643,89.242H53.534a2.687,2.687,0,0,1-2.687-2.688V68.446a2.687,2.687,0,0,1,2.687-2.687H71.643a2.686,2.686,0,0,1,2.687,2.687V86.554a2.687,2.687,0,0,1-2.687,2.688Zm0,0" fill="#fd6096"/>
      <path id="Trazado_101546" data-name="Trazado 101546" d="M74.329,72.785H50.847V68.446a2.687,2.687,0,0,1,2.687-2.687H71.643a2.686,2.686,0,0,1,2.687,2.687Zm0,0" fill="#e3f4ff"/>
      <path id="Trazado_101547" data-name="Trazado 101547" d="M38.765,123.9H20.658a2.687,2.687,0,0,1-2.687-2.687V103.106a2.686,2.686,0,0,1,2.687-2.687H38.767a2.688,2.688,0,0,1,2.687,2.687v18.108A2.688,2.688,0,0,1,38.765,123.9Zm0,0" fill="#f01054"/>
      <path id="Trazado_101548" data-name="Trazado 101548" d="M41.453,107.445H17.971v-4.339a2.686,2.686,0,0,1,2.687-2.687H38.767a2.687,2.687,0,0,1,2.687,2.687Zm0,0" fill="#e3f4ff"/>
      <path id="Trazado_101549" data-name="Trazado 101549" d="M71.643,123.9H53.534a2.687,2.687,0,0,1-2.687-2.687V103.106a2.687,2.687,0,0,1,2.687-2.687H71.643a2.687,2.687,0,0,1,2.687,2.687v18.108a2.687,2.687,0,0,1-2.687,2.687Zm0,0" fill="#fdb659"/>
      <path id="Trazado_101550" data-name="Trazado 101550" d="M74.329,107.445H50.847v-4.339a2.687,2.687,0,0,1,2.687-2.687H71.643a2.686,2.686,0,0,1,2.687,2.687Zm0,0" fill="#e3f4ff"/>
      <path id="Trazado_101551" data-name="Trazado 101551" d="M83.031,0H9.27A9.129,9.129,0,0,0,.152,9.119V145.881A9.129,9.129,0,0,0,9.27,155h12.6a2.271,2.271,0,0,0,0-4.541H9.27a4.583,4.583,0,0,1-4.578-4.578v-8.689H87.608v8.689a4.582,4.582,0,0,1-4.576,4.578H31.764a2.271,2.271,0,1,0,0,4.541H83.031a9.129,9.129,0,0,0,9.118-9.119V97.731a2.271,2.271,0,0,0-4.541,0v34.92H4.693V22.562H87.608V54.695a2.271,2.271,0,0,0,4.541,0V9.119A9.127,9.127,0,0,0,83.031,0ZM4.692,18.02v-8.9A4.584,4.584,0,0,1,9.27,4.541H83.031a4.584,4.584,0,0,1,4.578,4.578v8.9Zm0,0" fill="#12263f"/>
      <path id="Trazado_101552" data-name="Trazado 101552" d="M89.879,62.311a2.27,2.27,0,0,0-2.271,2.271V87.843a2.271,2.271,0,0,0,4.541,0V64.582A2.271,2.271,0,0,0,89.879,62.311Zm0,0" fill="#12263f"/>
      <path id="Trazado_101553" data-name="Trazado 101553" d="M46.3,9.01H34.8a2.271,2.271,0,1,0,0,4.541H46.3a2.271,2.271,0,1,0,0-4.541Zm0,0" fill="#12263f"/>
      <path id="Trazado_101554" data-name="Trazado 101554" d="M57.5,9.01H55.989a2.271,2.271,0,1,0,0,4.541H57.5a2.271,2.271,0,1,0,0-4.541Zm0,0" fill="#12263f"/>
      <path id="Trazado_101555" data-name="Trazado 101555" d="M43.724,33.787a4.963,4.963,0,0,0-4.957-4.957H20.658A4.963,4.963,0,0,0,15.7,33.787V51.894a4.963,4.963,0,0,0,4.957,4.957H38.767a4.963,4.963,0,0,0,4.957-4.957ZM20.658,33.37H38.767a.417.417,0,0,1,.416.416v2.068H20.242V33.787A.417.417,0,0,1,20.658,33.37ZM38.765,52.31H20.658a.417.417,0,0,1-.416-.416V40.4H39.183v11.5A.417.417,0,0,1,38.765,52.31Zm0,0" fill="#12263f"/>
      <path id="Trazado_101556" data-name="Trazado 101556" d="M76.6,33.787a4.963,4.963,0,0,0-4.957-4.957H53.534a4.963,4.963,0,0,0-4.957,4.957V51.894a4.963,4.963,0,0,0,4.957,4.957H71.643A4.963,4.963,0,0,0,76.6,51.894ZM53.534,33.37H71.643a.417.417,0,0,1,.416.416v2.068H53.118V33.787A.417.417,0,0,1,53.534,33.37ZM71.643,52.31H53.534a.417.417,0,0,1-.416-.416V40.4H72.059v11.5A.417.417,0,0,1,71.643,52.31Zm0,0" fill="#12263f"/>
      <path id="Trazado_101557" data-name="Trazado 101557" d="M43.724,68.446a4.964,4.964,0,0,0-4.957-4.957H20.658A4.964,4.964,0,0,0,15.7,68.446V86.554a4.964,4.964,0,0,0,4.957,4.958H38.767a4.964,4.964,0,0,0,4.957-4.958ZM20.658,68.03H38.767a.417.417,0,0,1,.416.416v2.068H20.242V68.446A.417.417,0,0,1,20.658,68.03ZM38.765,86.97H20.658a.417.417,0,0,1-.416-.416v-11.5H39.183v11.5A.417.417,0,0,1,38.765,86.97Zm0,0" fill="#12263f"/>
      <path id="Trazado_101558" data-name="Trazado 101558" d="M76.6,68.446a4.964,4.964,0,0,0-4.957-4.957H53.534a4.964,4.964,0,0,0-4.957,4.957V86.554a4.964,4.964,0,0,0,4.957,4.958H71.643A4.964,4.964,0,0,0,76.6,86.554ZM53.534,68.03H71.643a.417.417,0,0,1,.416.416v2.068H53.118V68.446A.417.417,0,0,1,53.534,68.03ZM71.643,86.97H53.534a.417.417,0,0,1-.416-.416v-11.5H72.059v11.5A.417.417,0,0,1,71.643,86.97Zm0,0" fill="#12263f"/>
      <path id="Trazado_101559" data-name="Trazado 101559" d="M38.765,98.149H20.658a4.964,4.964,0,0,0-4.957,4.957v18.108a4.964,4.964,0,0,0,4.957,4.957H38.767a4.964,4.964,0,0,0,4.957-4.957V103.106A4.964,4.964,0,0,0,38.765,98.149ZM20.658,102.69H38.767a.417.417,0,0,1,.416.416v2.068H20.242v-2.068a.417.417,0,0,1,.416-.416Zm18.107,18.941H20.658a.417.417,0,0,1-.416-.416v-11.5H39.183v11.5A.417.417,0,0,1,38.765,121.631Zm0,0" fill="#12263f"/>
      <path id="Trazado_101560" data-name="Trazado 101560" d="M71.643,98.149H53.534a4.964,4.964,0,0,0-4.957,4.957v18.108a4.964,4.964,0,0,0,4.957,4.957H71.643a4.964,4.964,0,0,0,4.957-4.957V103.106a4.964,4.964,0,0,0-4.957-4.957ZM53.534,102.69H71.643a.417.417,0,0,1,.416.416v2.068H53.118v-2.068A.417.417,0,0,1,53.534,102.69Zm18.108,18.941H53.534a.417.417,0,0,1-.416-.416v-11.5H72.059v11.5A.417.417,0,0,1,71.643,121.631Zm0,0" fill="#12263f"/>
    </g>
  </g>
</svg>
