<svg xmlns="http://www.w3.org/2000/svg" width="295" height="190" viewBox="0 0 295 190">
  <g id="Grupo_54222" data-name="Grupo 54222" transform="translate(-285 -1521)">
    <rect id="Rectángulo_5200" data-name="Rectángulo 5200" width="295" height="190" transform="translate(285 1521)" fill="#4dd0e1" opacity="0.5"/>
    <g id="Grupo_54221" data-name="Grupo 54221" transform="translate(323.9 1521)">
      <g id="Grupo_54220" data-name="Grupo 54220" transform="translate(16.872 23.436)">
        <path id="Trazado_101619" data-name="Trazado 101619" d="M691.393,441.234s-9.1,18.2-18.335,30.757c-3.676,5-7.375,9.105-10.533,10.817a25.17,25.17,0,0,0-7.872,7.164,57.48,57.48,0,0,0-8.194,16.822l-23.626-35.743s.806-34.94,3.643-40.784c4.134-8.517,6.132-25.725,7.72-29.151,1.178-2.542,4.543-15.67,4.866-16.634a3.207,3.207,0,0,1,2.714-1.052,4.231,4.231,0,0,1,3.648,3.445,39.265,39.265,0,0,1-.48,19.785c.891,9-1.788,15.686.091,17.455.07.065.2.034.384-.083,3.257-2.091,23.472-31.563,25.962-32.2C674.009,391.161,691.393,441.234,691.393,441.234Z" transform="translate(-580.49 -370.439)" fill="#ffb27d"/>
        <path id="Trazado_101620" data-name="Trazado 101620" d="M366.789,1453.008s-.322,15.884-1.243,37.277H305.951c13.622-29.049,25.465-53.5,25.465-53.5S365.349,1437.822,366.789,1453.008Z" transform="translate(-293.712 -1323.727)" fill="#f99746"/>
        <path id="Trazado_101621" data-name="Trazado 101621" d="M1337.691,261.782l-7.316,10.726-7.18,10.526a1.643,1.643,0,0,1-1.493.659c-1.723-.163-3.854-2.648-5.516-4.024l-.169-.138a5.183,5.183,0,0,1-.688-7.276l10.974-13.265h0l3.255-3.934a5.182,5.182,0,0,1,7.276-.688l.168.138A5.184,5.184,0,0,1,1337.691,261.782Z" transform="translate(-1206.131 -252.569)" fill="#ffb27d"/>
        <path id="Trazado_101622" data-name="Trazado 101622" d="M1402.32,327.79l-7.179,10.526a1.643,1.643,0,0,1-1.493.659l4.6-24.7C1398.259,314.409,1399.042,325.493,1402.32,327.79Z" transform="translate(-1278.077 -307.851)" fill="#efa26f"/>
        <path id="Trazado_101623" data-name="Trazado 101623" d="M874.144,1294.719c-3.676,5-7.375,9.1-10.533,10.817a25.171,25.171,0,0,0-7.872,7.164c-2.49-1.161-5.329-2.522-8.1-3.871a4.621,4.621,0,0,1-.2-8.217l.1-.053c3.1-1.774,6.278-8.039,6.278-8.039Z" transform="translate(-781.576 -1193.167)" fill="#efa26f"/>
        <path id="Trazado_101624" data-name="Trazado 101624" d="M773.694,400.224l-1.914,7.728a4.06,4.06,0,0,0,2.748.153C775.6,407.574,776.48,400.64,773.694,400.224Z" transform="translate(-715.287 -385.639)" fill="#ffc197"/>
        <g id="Grupo_54196" data-name="Grupo 54196" transform="translate(64.933)">
          <rect id="Rectángulo_5470" data-name="Rectángulo 5470" width="55.887" height="105.204" rx="4" fill="#2b478b"/>
          <g id="Grupo_54195" data-name="Grupo 54195" transform="translate(2.77 2.608)">
            <path id="Trazado_101625" data-name="Trazado 101625" d="M940.136,279.6v88.383a5.447,5.447,0,0,1-5.411,5.451H895.2a5.447,5.447,0,0,1-5.41-5.451V279.6a5.447,5.447,0,0,1,5.41-5.451h39.525A5.447,5.447,0,0,1,940.136,279.6Z" transform="translate(-889.789 -274.144)" fill="#c0d8fb"/>
            <path id="Trazado_101626" data-name="Trazado 101626" d="M934.725,274.144l-39.036,99.285H895.2a5.447,5.447,0,0,1-5.41-5.451V279.6a5.447,5.447,0,0,1,5.41-5.451Z" transform="translate(-889.789 -274.144)" fill="#cbe1fd"/>
          </g>
          <path id="Rectángulo_5471" data-name="Rectángulo 5471" d="M2.639,0H18.774a2.639,2.639,0,0,1,2.639,2.639v0a2.639,2.639,0,0,1-2.639,2.639H2.639A2.639,2.639,0,0,1,0,2.639v0A2.639,2.639,0,0,1,2.639,0Z" transform="translate(17.238 0.617)" fill="#2b478b"/>
        </g>
        <g id="Grupo_54197" data-name="Grupo 54197" transform="translate(112.612 39.768)">
          <path id="Trazado_101627" data-name="Trazado 101627" d="M1377.811,675.256l-1.091.415-7.337,2.788a4.657,4.657,0,0,1-.52.165,5.011,5.011,0,0,1-5.925-3.061l-.108-.282a5.012,5.012,0,0,1,2.9-6.446l6.84-2.6.5-.189,1.091-.415a5.011,5.011,0,0,1,6.445,2.9l.108.282A5.012,5.012,0,0,1,1377.811,675.256Z" transform="translate(-1362.506 -665.307)" fill="#ffb27d"/>
          <path id="Trazado_101628" data-name="Trazado 101628" d="M1390.808,714.352a29.277,29.277,0,0,1-4.627,1.458,1.954,1.954,0,0,1-1.53-.766,4.522,4.522,0,0,1-.923-1.664,5.29,5.29,0,0,1-.251-1.062,4.49,4.49,0,0,1,.04-1.263,1.261,1.261,0,0,1,.7-.9l.005,0a28.915,28.915,0,0,1,4.45-1.745,1.933,1.933,0,0,1,2.4,1.072l.154.421.787,2.156A1.848,1.848,0,0,1,1390.808,714.352Z" transform="translate(-1381.461 -704.235)" fill="#ffd3b6"/>
          <path id="Trazado_101629" data-name="Trazado 101629" d="M1397.962,725.847a29.255,29.255,0,0,1-4.627,1.458,1.954,1.954,0,0,1-1.53-.766c-.062-.143-.118-.295-.172-.457a5.3,5.3,0,0,1-.251-1.062,4.48,4.48,0,0,1,.04-1.263,1.261,1.261,0,0,1,.7-.9l.005,0a28.947,28.947,0,0,1,4.45-1.745,2.109,2.109,0,0,1,1.8.286l.787,2.156A1.847,1.847,0,0,1,1397.962,725.847Z" transform="translate(-1388.615 -715.73)" fill="#ffc197"/>
        </g>
        <g id="Grupo_54198" data-name="Grupo 54198" transform="translate(114.665 53.026)">
          <path id="Trazado_101630" data-name="Trazado 101630" d="M1394.043,811.871l-5.658,1.54a3.249,3.249,0,0,1-3.977-2.275l-.174-.641a3.249,3.249,0,0,1,2.275-3.977l5.658-1.54a3.249,3.249,0,0,1,3.977,2.275l.175.641A3.249,3.249,0,0,1,1394.043,811.871Z" transform="translate(-1384.12 -804.866)" fill="#ffb27d"/>
          <path id="Trazado_101631" data-name="Trazado 101631" d="M1400.514,830.573a25.514,25.514,0,0,1-3.9.821,1.907,1.907,0,0,1-1.544-1.224,3.809,3.809,0,0,1-.29-.8,3.77,3.77,0,0,1-.126-.831,3.236,3.236,0,0,1,.126-.968,1,1,0,0,1,.64-.646l.005,0a25.276,25.276,0,0,1,3.779-1.054,1.6,1.6,0,0,1,1.888.978l.146.51.436,1.53A1.435,1.435,0,0,1,1400.514,830.573Z" transform="translate(-1393.651 -823.846)" fill="#ffd3b6"/>
          <path id="Trazado_101632" data-name="Trazado 101632" d="M1403.389,838.671a25.534,25.534,0,0,1-3.9.821,1.907,1.907,0,0,1-1.544-1.224,3.612,3.612,0,0,1-.114-.78,3.25,3.25,0,0,1,.126-.968,1,1,0,0,1,.64-.646l.005,0a25.114,25.114,0,0,1,3.779-1.053,1.708,1.708,0,0,1,1.733.637l.436,1.53A1.435,1.435,0,0,1,1403.389,838.671Z" transform="translate(-1396.526 -831.943)" fill="#ffc197"/>
        </g>
        <path id="Trazado_101633" data-name="Trazado 101633" d="M512.935,1411.636s11.646,11.154,19.5,15.46l5.944-4.216v6.219s11.69,2.067,15.377,0v-16.96l-32.834-16.46Z" transform="translate(-481.032 -1286.526)" fill="#ed7d2b"/>
        <path id="Trazado_101634" data-name="Trazado 101634" d="M515.221,1334.386c-4.523.927-14.271-2.625-14.271-2.625l1.572-15.187-11.016,12.616c-5.606-2.086-14.374-7.53-19.583-10.918-2.593-1.687-4.305-2.864-4.305-2.864,7.351-11.829,14.746-22.893,14.746-22.893,2.17,4.342,7.307,8.112,12.876,11.128a109.509,109.509,0,0,0,19.7,7.94C514.935,1320.608,515.221,1334.386,515.221,1334.386Z" transform="translate(-440.02 -1193.162)" fill="#dceaff"/>
        <g id="Grupo_54199" data-name="Grupo 54199" transform="translate(112.059 26.394)">
          <path id="Trazado_101635" data-name="Trazado 101635" d="M1372.369,537.005c-.04.015-.08.028-.122.042l-7.417,1.9a6.132,6.132,0,0,1-7.5-3.921l-.441-1.534a5.686,5.686,0,0,1,3.982-6.857l2.449-.629,4.969-1.275a6.132,6.132,0,0,1,7.5,3.921l.441,1.534A5.675,5.675,0,0,1,1372.369,537.005Z" transform="translate(-1356.69 -524.526)" fill="#ffb27d"/>
          <path id="Trazado_101636" data-name="Trazado 101636" d="M1419.66,562.458l-3.6,1.624-.023.005a3.877,3.877,0,0,1-.436.09c-.06.009-.122.016-.182.023a.492.492,0,0,1-.076,0,.573.573,0,0,1-.5-.81,3.585,3.585,0,0,0,.2-2.443l-.086-.314a.023.023,0,0,0,0-.009l-.279-1.023a3.837,3.837,0,0,0-1.306-1.991c-.074-.06-.15-.117-.228-.17a1.035,1.035,0,0,1,.3-1.843l.023-.007,3.955-.6a1.883,1.883,0,0,1,2.186,1.464l.318,1.165.676,2.485C1420.87,561.086,1420.638,562.192,1419.66,562.458Z" transform="translate(-1407.38 -552.049)" fill="#ffd3b6"/>
          <path id="Trazado_101637" data-name="Trazado 101637" d="M1426.046,577.788l-3.6,1.624-.023.005c-.084.016-.349.06-.695.114a.573.573,0,0,1-.5-.81,3.584,3.584,0,0,0,.2-2.444l-.086-.314a.027.027,0,0,0,0-.009l-.279-1.023a3.837,3.837,0,0,0-1.306-1.992,1,1,0,0,1,.567-.4l.023-.007,3.955-.6a1.8,1.8,0,0,1,2.011,1.021l.676,2.485C1427.256,576.416,1427.024,577.522,1426.046,577.788Z" transform="translate(-1413.767 -567.379)" fill="#ffc197"/>
        </g>
        <path id="Trazado_101638" data-name="Trazado 101638" d="M814.6,669.19s-1.618-14.126-3.111-16.88-2.756-8.271-.459-12.37,3.09-11.986,3.09-11.986c.891,9-1.788,15.686.091,17.455.07.065.2.034.384-.083Z" transform="translate(-749.667 -591.734)" fill="#efa26f"/>
        <rect id="Rectángulo_5472" data-name="Rectángulo 5472" width="63.263" height="29.572" rx="4" transform="translate(41.346 24.876)" fill="#699dee"/>
        <g id="Grupo_54200" data-name="Grupo 54200" transform="translate(76.519 11.05)">
          <rect id="Rectángulo_5473" data-name="Rectángulo 5473" width="27.906" height="10.082" rx="1" fill="#9abff6"/>
        </g>
        <g id="Grupo_54201" data-name="Grupo 54201" transform="translate(71.608 82.61)">
          <rect id="Rectángulo_5474" data-name="Rectángulo 5474" width="32.437" height="12.438" rx="2" fill="#9abff6"/>
        </g>
        <g id="Grupo_54202" data-name="Grupo 54202" transform="translate(82.165 59.603)">
          <rect id="Rectángulo_5475" data-name="Rectángulo 5475" width="32.437" height="17.853" rx="3" fill="#f99746"/>
        </g>
        <path id="Trazado_101639" data-name="Trazado 101639" d="M1367.943,1012.679h-43.706c-2.1-1.405-12.98-8.829-17.484-14.364-.954-1.173-4.445-11.281-7.128-19.488-1.675-5.126-3.035-9.513-3.265-10.519a13.109,13.109,0,0,1-.166-1.985v-.01c-.114-3.356.042-9.829.2-14.97v-.024l0-.068c.008-.226.014-.448.022-.669v-.008c0-.022,0-.045,0-.067.03-.893.058-1.735.085-2.5.068-1.913.125-3.353.148-3.916l.009-.262h0c.069-.039,2.172-1.161,4.982.864a7.315,7.315,0,0,1,1.877,3.213c.366.984.709,2.115,1.028,3.306,1.227,4.582,2.108,10.06,2.578,11.526.758,2.37,9.694,12.794,10.252,13.442l.026.032V959.751l-6.746-18.05-2.769-7.41-1.392-3.724a67.158,67.158,0,0,1-3.925-7.721,36.459,36.459,0,0,1-1.947-5.709c-.106-.448-.2-.892-.269-1.326v0a9.628,9.628,0,0,1,.084-4.269,3.089,3.089,0,0,1,3.253-2.5c.117,0,.23.014.339.027a2.3,2.3,0,0,1,.325.063,2.262,2.262,0,0,1,.561.234s0,0,0,0a2.278,2.278,0,0,1,.733.686s.954,1.245,2.233,2.919c.842,1.1,1.825,2.389,2.769,3.63,1.682,2.211,3.243,4.273,3.673,4.877,2.321,3.267,8.57,13.914,8.57,13.914l7.315.307a4.851,4.851,0,0,1,3.109,1.3c2.6,2.429,8.209,7.685,8.9,8.467,0,.256,4.358,2.352,7.725,4.218,2.408,1.018,6.982,4.624,6.982,4.624a8.067,8.067,0,0,1,2.036,2.466c1.568,3.413,5.823,33.1,7.856,47.776C1367.485,1009.269,1367.91,1012.435,1367.943,1012.679Z" transform="translate(-1189.848 -846.115)" fill="#ffb27d"/>
        <path id="Trazado_101640" data-name="Trazado 101640" d="M1577.781,1186.445s6.777,11.062,7.674,11.56,4.385,1.2,4.783,0S1577.781,1186.445,1577.781,1186.445Z" transform="translate(-1444.718 -1097.169)" fill="#efa26f"/>
        <path id="Trazado_101641" data-name="Trazado 101641" d="M1796.712,1302.326l-.034-.03s-4.574-3.606-6.983-4.624c-3.091-1.713-7.017-3.62-7.639-4.119.718.82,5.764,6.532,7.706,6.96C1791.468,1300.889,1795.341,1301.948,1796.712,1302.326Z" transform="translate(-1629.587 -1194.101)" fill="#efa26f"/>
        <path id="Trazado_101642" data-name="Trazado 101642" d="M1519.918,1459.316v-16.461s3.91,6.542,4.209,10.129S1522.5,1462.379,1519.918,1459.316Z" transform="translate(-1392.352 -1329.22)" fill="#efa26f"/>
        <path id="Trazado_101643" data-name="Trazado 101643" d="M1351.5,915.33a29.591,29.591,0,0,1-1.948-3.753,1.877,1.877,0,0,1,.259-1.443,3.258,3.258,0,0,1,1.026-1.065,3.406,3.406,0,0,1,.72-.388,2.8,2.8,0,0,1,.922-.17.978.978,0,0,1,.787.458l0,0a28.675,28.675,0,0,1,2.121,3.553,1.823,1.823,0,0,1-.312,2.241l-.275.2L1353.392,916A1.338,1.338,0,0,1,1351.5,915.33Z" transform="translate(-1238.12 -845.638)" fill="#ffd3b6"/>
        <path id="Trazado_101644" data-name="Trazado 101644" d="M1351.5,923.361a29.582,29.582,0,0,1-1.948-3.753,1.876,1.876,0,0,1,.259-1.443c.092-.076.191-.15.3-.222a3.4,3.4,0,0,1,.72-.388,2.8,2.8,0,0,1,.922-.17.977.977,0,0,1,.787.457l0,0a28.68,28.68,0,0,1,2.121,3.553,2.164,2.164,0,0,1,.141,1.6l-1.408,1.028A1.338,1.338,0,0,1,1351.5,923.361Z" transform="translate(-1238.12 -853.669)" fill="#ffc197"/>
        <g id="Grupo_54204" data-name="Grupo 54204" transform="translate(138.001 11.189)">
          <path id="Rectángulo_5476" data-name="Rectángulo 5476" d="M8.156,0H9.77a8.156,8.156,0,0,1,8.156,8.156v0a8.156,8.156,0,0,1-8.156,8.156H8.156A8.156,8.156,0,0,1,0,8.156v0A8.156,8.156,0,0,1,8.156,0Z" fill="#dfebfd"/>
          <g id="Grupo_54203" data-name="Grupo 54203" transform="translate(4.023 4.501)">
            <path id="Trazado_101645" data-name="Trazado 101645" d="M1672.283,415.376c.5,1.312,4.766,4.759,4.766,4.759s1.391-1.13,2.68-2.348a9.513,9.513,0,0,0,2.079-2.411,2.531,2.531,0,0,0-1.9-3.486c-1.858-.316-2.862,1.628-2.862,1.628s-1-1.945-2.869-1.628a2.539,2.539,0,0,0-.854.3A2.605,2.605,0,0,0,1672.283,415.376Z" transform="translate(-1672.106 -411.856)" fill="#f99746"/>
          </g>
        </g>
        <g id="Grupo_54205" data-name="Grupo 54205" transform="translate(0 69.981)">
          <path id="Trazado_101646" data-name="Trazado 101646" d="M181.329,983.336h27.447a3.99,3.99,0,0,1,3.978,3.978v12.042a3.665,3.665,0,0,1-3.654,3.654h-.705l1.322,5.585-8.3-5.585H181.092a3.986,3.986,0,0,1-3.975-3.975V987.547A4.224,4.224,0,0,1,181.329,983.336Z" transform="translate(-177.117 -983.336)" fill="#dfebfd"/>
          <path id="Trazado_101647" data-name="Trazado 101647" d="M206.945,1061.838h28.619a.711.711,0,0,0,.709-.709h0a.711.711,0,0,0-.709-.709H206.945a.711.711,0,0,0-.709.709h0A.711.711,0,0,0,206.945,1061.838Z" transform="translate(-203.47 -1053.097)" fill="#cbe1fd"/>
          <path id="Trazado_101648" data-name="Trazado 101648" d="M206.945,1095.231h28.619a.711.711,0,0,0,.709-.709h0a.711.711,0,0,0-.709-.709H206.945a.711.711,0,0,0-.709.709h0A.711.711,0,0,0,206.945,1095.231Z" transform="translate(-203.47 -1083.319)" fill="#cbe1fd"/>
          <path id="Trazado_101649" data-name="Trazado 101649" d="M206.945,1128.624h28.619a.711.711,0,0,0,.709-.709h0a.711.711,0,0,0-.709-.709H206.945a.711.711,0,0,0-.709.709h0A.711.711,0,0,0,206.945,1128.624Z" transform="translate(-203.47 -1113.539)" fill="#cbe1fd"/>
          <path id="Trazado_101650" data-name="Trazado 101650" d="M369.783,1007.4h12.149a.846.846,0,0,0,.844-.844h0a.846.846,0,0,0-.844-.844H369.783a.846.846,0,0,0-.844.844h0A.846.846,0,0,0,369.783,1007.4Z" transform="translate(-350.716 -1003.587)" fill="#cbe1fd"/>
          <path id="Rectángulo_5477" data-name="Rectángulo 5477" d="M.844,0H7.8a.844.844,0,0,1,.844.844v0a.844.844,0,0,1-.844.844H.844A.844.844,0,0,1,0,.844v0A.844.844,0,0,1,.844,0Z" transform="translate(16.603 3.813) rotate(180)" fill="#cbe1fd"/>
        </g>
        <g id="Grupo_54206" data-name="Grupo 54206" transform="translate(131.673 67.612)">
          <path id="Trazado_101651" data-name="Trazado 101651" d="M1673.144,1005.376l17.263,5.644-10.341-10.079-1.05,2.463-4.444.021Z" transform="translate(-1662.694 -996.9)" fill="#9ec3f6"/>
          <path id="Trazado_101652" data-name="Trazado 101652" d="M1590.86,978.791l-13.4-10.192-14.315-3.27Z" transform="translate(-1563.147 -964.672)" fill="#fff"/>
          <path id="Trazado_101653" data-name="Trazado 101653" d="M1746.01,962.446l10.341,10.079-6.893-14.12Z" transform="translate(-1728.638 -958.405)" fill="#fff"/>
        </g>
        <g id="Grupo_54207" data-name="Grupo 54207" transform="translate(24.19 2.671)">
          <path id="Trazado_101654" data-name="Trazado 101654" d="M447.883,323.053l-16.136,2.3,10.708-7.3L443,320.4l3.924.711Z" transform="translate(-431.747 -313.948)" fill="#9ec3f6"/>
          <path id="Trazado_101655" data-name="Trazado 101655" d="M431.747,322.626l13.428-6.923,13.161-.662Z" transform="translate(-431.747 -311.219)" fill="#fff"/>
          <path id="Trazado_101656" data-name="Trazado 101656" d="M442.455,278.921l-10.708,7.3,8.289-11.407Z" transform="translate(-431.747 -274.813)" fill="#fff"/>
        </g>
        <path id="Trazado_101657" data-name="Trazado 101657" d="M693.623,565.129a9.167,9.167,0,1,1-9.167-9.167A9.12,9.12,0,0,1,693.623,565.129Z" transform="translate(-627.964 -526.582)" fill="#fff"/>
        <path id="Trazado_101658" data-name="Trazado 101658" d="M731.551,606.757l-.071-.077a1.278,1.278,0,0,0-.635-.2c-.216-.036-.515-.079-.94-.134,0,0-.091-.01-.14-.014l-.106-.01c-.122-.064-.153-.568-.152-1.1,0-.04,0-.08,0-.12,0-.2.009-.4.016-.579,0-.011,0-.022,0-.033.262.022.436.02.436.02.488-.039.793-1.348.9-2.406a3.569,3.569,0,0,0,.241-1.208,1.561,1.561,0,0,0-.313-1.01,1.347,1.347,0,0,0-.343-.308c-.03-.03-.062-.058-.092-.085-.454-.5-2.3-2.395-3.513-1.3-.031-.109-.425-1.337-2.337-.935.119-.012.966-.092,1.211.251a1.567,1.567,0,0,0-1.24-.056,1.128,1.128,0,0,0-.426.691s0,0,0,.006,0,0,0,0h0a.027.027,0,0,0,0,.009c-.009.039-.018.078-.027.117,0,.006,0,.011,0,.018s0,0,0,0v0a1.99,1.99,0,0,0-.023.724c.071.3.6,1.19.948,1.19a1.046,1.046,0,0,0,.4-.1,4.426,4.426,0,0,0-.143.519c-.371,1.747.789,3.074,1.391,2.745.386-.21.677.465.677.465l0,0a3.7,3.7,0,0,1-.668,2.32c-.093.01-.294.035-.546.075h0a6.34,6.34,0,0,0-1.561.39l-.016.007a1.61,1.61,0,0,0-.383.213l0,0h0a.558.558,0,0,0-.124.128.315.315,0,0,0-.04.058,10.481,10.481,0,0,0-.67,1.831,7.774,7.774,0,0,0,9.668-.3A4.861,4.861,0,0,0,731.551,606.757Z" transform="translate(-671.375 -563.877)" fill="#2b478b"/>
        <rect id="Rectángulo_5478" data-name="Rectángulo 5478" width="11.726" height="1.626" rx="0.813" transform="translate(71.28 32.303)" fill="#fff"/>
        <g id="Grupo_54208" data-name="Grupo 54208" transform="translate(71.28 38.714)">
          <path id="Trazado_101659" data-name="Trazado 101659" d="M938.63,655.268H927.965a.532.532,0,0,1-.53-.53h0a.531.531,0,0,1,.53-.53H938.63a.531.531,0,0,1,.53.53h0A.532.532,0,0,1,938.63,655.268Z" transform="translate(-927.435 -654.208)" fill="#fff"/>
          <path id="Rectángulo_5479" data-name="Rectángulo 5479" d="M.53,0H6.35a.53.53,0,0,1,.53.53v0a.53.53,0,0,1-.53.53H.53A.53.53,0,0,1,0,.53v0A.53.53,0,0,1,.53,0Z" transform="translate(0 2.509)" fill="#fff"/>
          <rect id="Rectángulo_5480" data-name="Rectángulo 5480" width="10.824" height="1.06" rx="0.53" transform="translate(8.527 2.509)" fill="#fff"/>
          <path id="Trazado_101660" data-name="Trazado 101660" d="M1083.925,655.268H1069.94a.531.531,0,0,1-.53-.53h0a.531.531,0,0,1,.53-.53h13.985a.532.532,0,0,1,.53.53h0A.532.532,0,0,1,1083.925,655.268Z" transform="translate(-1055.922 -654.208)" fill="#fff"/>
          <path id="Trazado_101661" data-name="Trazado 101661" d="M938.63,708.082H927.965a.532.532,0,0,1-.53-.53h0a.531.531,0,0,1,.53-.53H938.63a.531.531,0,0,1,.53.53h0A.532.532,0,0,1,938.63,708.082Z" transform="translate(-927.435 -702.005)" fill="#fff"/>
          <path id="Trazado_101662" data-name="Trazado 101662" d="M1083.925,708.082H1069.94a.531.531,0,0,1-.53-.53h0a.531.531,0,0,1,.53-.53h13.985a.532.532,0,0,1,.53.53h0A.532.532,0,0,1,1083.925,708.082Z" transform="translate(-1055.922 -702.005)" fill="#fff"/>
        </g>
        <path id="Rectángulo_5481" data-name="Rectángulo 5481" d="M.813,0H7.79A.813.813,0,0,1,8.6.813v0a.813.813,0,0,1-.813.813H.813A.813.813,0,0,1,0,.813v0A.813.813,0,0,1,.813,0Z" transform="translate(84.458 32.303)" fill="#fff"/>
        <g id="Grupo_54210" data-name="Grupo 54210" transform="translate(75.2 84.988)">
          <path id="Rectángulo_5482" data-name="Rectángulo 5482" d="M.578,0H7.759a.578.578,0,0,1,.578.578v0a.578.578,0,0,1-.578.578H.578A.578.578,0,0,1,0,.578v0A.578.578,0,0,1,.578,0Z" transform="translate(0)" fill="#699dee"/>
          <g id="Grupo_54209" data-name="Grupo 54209" transform="translate(0 3.362)">
            <path id="Trazado_101663" data-name="Trazado 101663" d="M976.657,1177.446h-7.583a.378.378,0,0,1-.377-.377h0a.378.378,0,0,1,.377-.377h7.583a.378.378,0,0,1,.377.377h0A.378.378,0,0,1,976.657,1177.446Z" transform="translate(-968.697 -1176.692)" fill="#699dee"/>
            <path id="Rectángulo_5483" data-name="Rectángulo 5483" d="M.377,0H4.515a.377.377,0,0,1,.377.377v0a.377.377,0,0,1-.377.377H.377A.377.377,0,0,1,0,.377v0A.377.377,0,0,1,.377,0Z" transform="translate(0 1.784)" fill="#699dee"/>
            <path id="Rectángulo_5484" data-name="Rectángulo 5484" d="M.377,0H7.319A.377.377,0,0,1,7.7.377v0a.377.377,0,0,1-.377.377H.377A.377.377,0,0,1,0,.377v0A.377.377,0,0,1,.377,0Z" transform="translate(6.062 1.784)" fill="#699dee"/>
            <path id="Trazado_101664" data-name="Trazado 101664" d="M1079.955,1177.446h-9.943a.378.378,0,0,1-.377-.377h0a.378.378,0,0,1,.377-.377h9.943a.378.378,0,0,1,.377.377h0A.378.378,0,0,1,1079.955,1177.446Z" transform="translate(-1060.047 -1176.692)" fill="#699dee"/>
            <path id="Trazado_101665" data-name="Trazado 101665" d="M976.657,1214.994h-7.583a.378.378,0,0,1-.377-.377h0a.378.378,0,0,1,.377-.377h7.583a.378.378,0,0,1,.377.377h0A.378.378,0,0,1,976.657,1214.994Z" transform="translate(-968.697 -1210.673)" fill="#699dee"/>
            <path id="Trazado_101666" data-name="Trazado 101666" d="M1079.955,1214.994h-9.943a.378.378,0,0,1-.377-.377h0a.378.378,0,0,1,.377-.377h9.943a.378.378,0,0,1,.377.377h0A.378.378,0,0,1,1079.955,1214.994Z" transform="translate(-1060.047 -1210.673)" fill="#699dee"/>
          </g>
          <path id="Rectángulo_5485" data-name="Rectángulo 5485" d="M.578,0H5.539a.578.578,0,0,1,.578.578v0a.578.578,0,0,1-.578.578H.578A.578.578,0,0,1,0,.578v0A.578.578,0,0,1,.578,0Z" transform="translate(9.369)" fill="#699dee"/>
        </g>
        <g id="Grupo_54212" data-name="Grupo 54212" transform="translate(80.111 12.994)">
          <path id="Rectángulo_5486" data-name="Rectángulo 5486" d="M.578,0h7.18a.578.578,0,0,1,.578.578v0a.578.578,0,0,1-.578.578H.578A.578.578,0,0,1,0,.578v0A.578.578,0,0,1,.578,0Z" transform="translate(0)" fill="#699dee"/>
          <g id="Grupo_54211" data-name="Grupo 54211" transform="translate(0 3.362)">
            <path id="Trazado_101667" data-name="Trazado 101667" d="M1028.353,419.619h-7.583a.378.378,0,0,1-.377-.377h0a.378.378,0,0,1,.377-.377h7.583a.378.378,0,0,1,.377.377h0A.378.378,0,0,1,1028.353,419.619Z" transform="translate(-1020.393 -418.865)" fill="#699dee"/>
            <rect id="Rectángulo_5487" data-name="Rectángulo 5487" width="4.891" height="0.754" rx="0.377" transform="translate(0 1.784)" fill="#699dee"/>
            <rect id="Rectángulo_5488" data-name="Rectángulo 5488" width="7.695" height="0.754" rx="0.377" transform="translate(6.062 1.784)" fill="#699dee"/>
            <path id="Trazado_101668" data-name="Trazado 101668" d="M1131.651,419.619h-9.943a.378.378,0,0,1-.377-.377h0a.378.378,0,0,1,.377-.377h9.943a.378.378,0,0,1,.377.377h0A.378.378,0,0,1,1131.651,419.619Z" transform="translate(-1111.742 -418.865)" fill="#699dee"/>
          </g>
          <path id="Rectángulo_5489" data-name="Rectángulo 5489" d="M.578,0H5.539a.578.578,0,0,1,.578.578v0a.578.578,0,0,1-.578.578H.578A.578.578,0,0,1,0,.578v0A.578.578,0,0,1,.578,0Z" transform="translate(9.369)" fill="#699dee"/>
        </g>
        <g id="Grupo_54215" data-name="Grupo 54215" transform="translate(85.909 62.875)">
          <rect id="Rectángulo_5490" data-name="Rectángulo 5490" width="9.127" height="1.266" rx="0.633" transform="translate(0)" fill="#ed7d2b"/>
          <g id="Grupo_54213" data-name="Grupo 54213" transform="translate(0 3.681)">
            <path id="Trazado_101669" data-name="Trazado 101669" d="M1090.134,948.106h-8.3a.414.414,0,0,1-.412-.413h0a.414.414,0,0,1,.412-.412h8.3a.414.414,0,0,1,.413.412h0A.414.414,0,0,1,1090.134,948.106Z" transform="translate(-1081.42 -947.281)" fill="#ed7d2b"/>
            <path id="Rectángulo_5491" data-name="Rectángulo 5491" d="M.413,0h4.53a.413.413,0,0,1,.413.413v0a.413.413,0,0,1-.413.413H.413A.413.413,0,0,1,0,.413v0A.413.413,0,0,1,.413,0Z" transform="translate(0 1.953)" fill="#ed7d2b"/>
            <path id="Rectángulo_5492" data-name="Rectángulo 5492" d="M.412,0h7.6a.413.413,0,0,1,.413.413v0a.413.413,0,0,1-.413.413H.412A.412.412,0,0,1,0,.413v0A.412.412,0,0,1,.412,0Z" transform="translate(6.637 1.953)" fill="#ed7d2b"/>
            <path id="Trazado_101670" data-name="Trazado 101670" d="M1203.226,948.106h-10.885a.414.414,0,0,1-.413-.413h0a.414.414,0,0,1,.413-.412h10.885a.414.414,0,0,1,.413.412h0A.414.414,0,0,1,1203.226,948.106Z" transform="translate(-1181.43 -947.281)" fill="#ed7d2b"/>
            <path id="Trazado_101671" data-name="Trazado 101671" d="M1090.134,989.214h-8.3a.414.414,0,0,1-.412-.412h0a.414.414,0,0,1,.412-.413h8.3a.414.414,0,0,1,.413.413h0A.414.414,0,0,1,1090.134,989.214Z" transform="translate(-1081.42 -984.484)" fill="#ed7d2b"/>
            <path id="Trazado_101672" data-name="Trazado 101672" d="M1203.226,989.214h-10.885a.414.414,0,0,1-.413-.412h0a.414.414,0,0,1,.413-.413h10.885a.414.414,0,0,1,.413.413h0A.414.414,0,0,1,1203.226,989.214Z" transform="translate(-1181.43 -984.484)" fill="#ed7d2b"/>
          </g>
          <g id="Grupo_54214" data-name="Grupo 54214" transform="translate(0 9.618)">
            <path id="Trazado_101673" data-name="Trazado 101673" d="M1090.134,1010.61h-8.3a.414.414,0,0,1-.412-.412h0a.414.414,0,0,1,.412-.413h8.3a.414.414,0,0,1,.413.413h0A.414.414,0,0,1,1090.134,1010.61Z" transform="translate(-1081.42 -1009.785)" fill="#ed7d2b"/>
            <path id="Trazado_101674" data-name="Trazado 101674" d="M1203.226,1010.61h-10.885a.414.414,0,0,1-.413-.412h0a.414.414,0,0,1,.413-.413h10.885a.414.414,0,0,1,.413.413h0A.414.414,0,0,1,1203.226,1010.61Z" transform="translate(-1181.43 -1009.785)" fill="#ed7d2b"/>
          </g>
          <path id="Rectángulo_5493" data-name="Rectángulo 5493" d="M.633,0H6.064A.633.633,0,0,1,6.7.633v0a.633.633,0,0,1-.633.633H.633A.633.633,0,0,1,0,.633v0A.633.633,0,0,1,.633,0Z" transform="translate(10.257)" fill="#ed7d2b"/>
        </g>
        <g id="Grupo_54219" data-name="Grupo 54219" transform="translate(71.863 4.99)">
          <path id="Trazado_101675" data-name="Trazado 101675" d="M959.26,329.589l-.563.4-.566-.4a.693.693,0,0,1,1.129,0Z" transform="translate(-955.797 -326.442)" fill="#fff"/>
          <g id="Grupo_54216" data-name="Grupo 54216" transform="translate(1.53 1.872)">
            <path id="Trazado_101676" data-name="Trazado 101676" d="M951.038,318.93a1.673,1.673,0,0,0-1.37.713l.357.251a1.238,1.238,0,0,1,2.02-.008l.356-.256A1.675,1.675,0,0,0,951.038,318.93Z" transform="translate(-949.668 -318.93)" fill="#fff"/>
          </g>
          <g id="Grupo_54217" data-name="Grupo 54217">
            <path id="Trazado_101677" data-name="Trazado 101677" d="M936.467,299.22a3.541,3.541,0,0,0-2.9,1.507l.358.251a3.108,3.108,0,0,1,5.07-.019l.354-.256A3.54,3.54,0,0,0,936.467,299.22Z" transform="translate(-933.568 -299.22)" fill="#fff"/>
          </g>
          <g id="Grupo_54218" data-name="Grupo 54218" transform="translate(0.832 1.025)">
            <path id="Trazado_101678" data-name="Trazado 101678" d="M944.4,310.01a2.534,2.534,0,0,0-2.067,1.068l.357.251a2.1,2.1,0,0,1,3.411-.013l.354-.254A2.532,2.532,0,0,0,944.4,310.01Z" transform="translate(-942.328 -310.01)" fill="#fff"/>
          </g>
        </g>
        <path id="Trazado_101679" data-name="Trazado 101679" d="M930.8,926.089a3.6,3.6,0,0,0,5.664,2.95c.03-.02.059-.042.087-.063a3.6,3.6,0,1,0-5.751-2.888Z" transform="translate(-859.201 -858.289)" fill="#fff"/>
        <path id="Trazado_101680" data-name="Trazado 101680" d="M949.926,939.052l-.332-.294-.083.015a2.232,2.232,0,0,0-.194-.121c.022-.134.04-.258.055-.369a5.945,5.945,0,0,0,.056-.655c.176-.009.295-.028.295-.028.333-.077.349-1.212.272-1.8a.428.428,0,0,0,.185-.035c.252-.111.266-.492.266-.492a.445.445,0,0,1-.181.18s.421-.577-.067-.971-.983-.137-1.266-.12c-.621.038-1.023.075-1.225.484a2.267,2.267,0,0,0,.262,1.918c.007.038.013.075.018.113a.761.761,0,0,0,.152.362,2.541,2.541,0,0,1-.46,1.07,1.663,1.663,0,0,0-.331.356l-.007,0h0a3.605,3.605,0,0,0-.464,1.019l0,.006a3.413,3.413,0,0,0,.656.361l.046.019.01,0,.075.029c.061.024.122.046.183.065s.13.04.2.057l.091.022c.027.007.053.012.081.017l.011,0,.054.01.127.022.03,0,.07.009.1.011.113.009.107.006.113,0,.122,0h.04l.06,0h.008l.113-.009a3.576,3.576,0,0,0,1.357-.41A3.778,3.778,0,0,0,949.926,939.052Z" transform="translate(-873.751 -868.942)" fill="#699dee"/>
        <path id="Trazado_101681" data-name="Trazado 101681" d="M1302.885,1146.129a3.606,3.606,0,0,0,.752,2.211,3.625,3.625,0,0,0,2.872,1.414,3.625,3.625,0,1,0-3.625-3.625Z" transform="translate(-1195.937 -1057.402)" fill="#fff"/>
        <path id="Trazado_101682" data-name="Trazado 101682" d="M1320.573,1158.473a.117.117,0,0,0-.018-.027.28.28,0,0,0-.058-.06h0a.727.727,0,0,0-.178-.1l-.008,0a2.923,2.923,0,0,0-.728-.182c-.118-.018-.211-.03-.255-.034a1.73,1.73,0,0,1-.312-1.082v0s.136-.315.315-.217c.28.153.822-.466.649-1.281a2.265,2.265,0,0,0-.067-.241.5.5,0,0,0,.186.046c.162,0,.408-.416.442-.556s0-.6-.226-.734a.734.734,0,0,0-.578.026c.111-.156.491-.124.561-.117-.887-.184-1.071.385-1.086.436-.564-.51-1.426.371-1.638.607l-.043.04a.611.611,0,0,0-.16.142.728.728,0,0,0-.146.471,1.67,1.67,0,0,0,.112.563c.051.493.194,1.1.422,1.122,0,0,.081,0,.2-.009,0,.006,0,.01,0,.016,0,.083.007.176.008.269v.056c0,.248-.014.484-.07.513l-.049,0c-.023,0-.066.007-.066.007-.2.026-.338.046-.438.063a.58.58,0,0,0-.3.095.426.426,0,0,0-.034.036,2.261,2.261,0,0,0-.641.842,3.625,3.625,0,0,0,4.508.141A4.833,4.833,0,0,0,1320.573,1158.473Z" transform="translate(-1208.148 -1067.693)" fill="#f99746"/>
        <path id="Trazado_101683" data-name="Trazado 101683" d="M1302.885,379.263a3.625,3.625,0,1,0,3.625-3.625A3.606,3.606,0,0,0,1302.885,379.263Z" transform="translate(-1195.937 -363.388)" fill="#fff"/>
        <path id="Trazado_101684" data-name="Trazado 101684" d="M1320.573,391.6a.142.142,0,0,0-.018-.028.282.282,0,0,0-.058-.06h0a.8.8,0,0,0-.178-.1l-.008,0a2.97,2.97,0,0,0-.728-.182h0c-.118-.019-.211-.03-.255-.035a.407.407,0,0,1-.092-.119h0a2.263,2.263,0,0,1-.219-.962v0s.136-.314.315-.217c.28.153.822-.465.649-1.28a2.227,2.227,0,0,0-.067-.242.5.5,0,0,0,.186.046c.162,0,.408-.416.442-.555s0-.6-.226-.735a.732.732,0,0,0-.578.027c.111-.156.492-.124.561-.118-.887-.184-1.071.386-1.086.436-.564-.509-1.426.372-1.638.607l-.043.04a.62.62,0,0,0-.16.143.724.724,0,0,0-.146.47,1.663,1.663,0,0,0,.112.563c.051.494.194,1.1.422,1.122,0,0,.081,0,.2-.009,0,0,0,.009,0,.015,0,.083.007.176.008.27v.056c0,.248-.014.483-.07.513l-.049,0-.066.007c-.2.026-.338.046-.438.063a.588.588,0,0,0-.3.1l-.034.036a2.267,2.267,0,0,0-.641.843q.051.044.105.086l.018.014c.027.021.053.041.081.06s.038.029.058.043.04.028.06.04.058.04.088.058l.061.038.076.045.085.047.008,0,0,0h0l.012.007.068.035,0,0,.021.01.039.019.038.018.088.039.089.036.041.016.041.015.084.029.087.029.074.023.008,0,.047.013c.087.024.175.045.264.062.039.008.078.015.117.021l.03,0h.01l.076.009.016,0,.011,0c.024,0,.048.006.07.008h.012l.022,0,.127.009h.007l.04,0h.025l.125,0a3.6,3.6,0,0,0,2.165-.718A4.86,4.86,0,0,0,1320.573,391.6Z" transform="translate(-1208.148 -373.676)" fill="#f99746"/>
        <path id="Trazado_101685" data-name="Trazado 101685" d="M1379.038,1670.717l-13.056,6.759h-8.692c-2.1-1.405-12.98-8.829-17.484-14.364-.954-1.173-4.445-11.281-7.128-19.488v0c.356,1.09,7.843,17.035,9.975,18.848s13.325,12.365,16.416,12.258c2.994-.1,18.936-3.771,19.923-4Z" transform="translate(-1222.901 -1510.912)" fill="#efa26f"/>
        <path id="Trazado_101686" data-name="Trazado 101686" d="M1648.8,1913.463h-47.069a189.1,189.1,0,0,1,20.755-6.749l.045-.01c8.041-2.034,16.318-3.267,20.813-1.417l.032.048Z" transform="translate(-1466.391 -1746.899)" fill="#d2e3fc"/>
        <path id="Trazado_101687" data-name="Trazado 101687" d="M1296.8,1343.254h0c.793-.291,1.907-.483,2.449.422.843,1.408-2.29,13.83-2.681,15.393Z" transform="translate(-1190.222 -1238.861)" fill="#efa26f"/>
        <path id="Trazado_101688" data-name="Trazado 101688" d="M1298.975,1275.253l-.269,7.513a3.849,3.849,0,0,0,2.478-.413C1302.083,1281.683,1301.607,1275.165,1298.975,1275.253Z" transform="translate(-1192.155 -1177.54)" fill="#ffc197"/>
        <path id="Trazado_101689" data-name="Trazado 101689" d="M556.236,1440.391c-4.523.927-14.271-2.625-14.271-2.625l1.572-15.187-11.016,12.616c-5.606-2.086-14.374-7.53-19.583-10.918,13.349-1.455,23.316-14.629,23.316-14.629a109.5,109.5,0,0,0,19.7,7.94C555.951,1426.613,556.236,1440.391,556.236,1440.391Z" transform="translate(-481.036 -1299.167)" fill="#cbe1fd"/>
        <path id="Trazado_101690" data-name="Trazado 101690" d="M641.985,1570.756a1.834,1.834,0,1,1,1.817,1.85A1.834,1.834,0,0,1,641.985,1570.756Z" transform="translate(-597.823 -1443.326)" fill="#f99746"/>
      </g>
    </g>
  </g>
</svg>
