<svg xmlns="http://www.w3.org/2000/svg" xmlns:xlink="http://www.w3.org/1999/xlink" width="154" height="155" viewBox="0 0 154 155">
  <defs>
    <clipPath id="clip-path">
      <rect id="Rectángulo_5428" data-name="Rectángulo 5428" width="154" height="155" transform="translate(398 102)" fill="#fff" stroke="#707070" stroke-width="1"/>
    </clipPath>
  </defs>
  <g id="Enmascarar_grupo_86" data-name="Enmascarar grupo 86" transform="translate(-398 -102)" clip-path="url(#clip-path)">
    <g id="desarrollo-de-aplicaciones" transform="translate(397.5 102)">
      <path id="Trazado_101561" data-name="Trazado 101561" d="M123.372,133.158V9.61a7.339,7.339,0,0,0-7.339-7.339H38.968A7.339,7.339,0,0,0,31.628,9.61V133.158Z" fill="#8ac9fe"/>
      <path id="Trazado_101562" data-name="Trazado 101562" d="M116.032,2.271h-9.786a7.339,7.339,0,0,1,7.339,7.339V133.158h9.786V9.61a7.339,7.339,0,0,0-7.339-7.339Z" fill="#75cff9"/>
      <path id="Trazado_101563" data-name="Trazado 101563" d="M123.372,145.39V133.158H31.628V145.39a7.339,7.339,0,0,0,7.339,7.339h77.064a7.34,7.34,0,0,0,7.339-7.34Z" fill="#6c7fd8"/>
      <path id="Trazado_101564" data-name="Trazado 101564" d="M113.586,133.158V145.39a7.339,7.339,0,0,1-7.339,7.339h9.786a7.339,7.339,0,0,0,7.339-7.339V133.158Z" fill="#4f66d0"/>
      <g id="Grupo_54188" data-name="Grupo 54188">
        <path id="Trazado_101565" data-name="Trazado 101565" d="M97.225,97.072a19.663,19.663,0,0,0-.112-2.093,2.463,2.463,0,0,1,.629-1.936l3.576-3.883a2.446,2.446,0,0,0,.319-2.881l-2.722-4.714A2.447,2.447,0,0,0,96.261,80.4l-5.15,1.156a2.463,2.463,0,0,1-1.991-.424,19.687,19.687,0,0,0-3.629-2.1,2.461,2.461,0,0,1-1.36-1.512l-1.574-5.036a2.446,2.446,0,0,0-2.335-1.717H74.779a2.446,2.446,0,0,0-2.335,1.717L70.87,77.525a2.462,2.462,0,0,1-1.36,1.512,19.7,19.7,0,0,0-3.629,2.1,2.463,2.463,0,0,1-1.991.424L58.74,80.4a2.447,2.447,0,0,0-2.654,1.164l-2.722,4.714a2.447,2.447,0,0,0,.319,2.881l3.577,3.883a2.463,2.463,0,0,1,.629,1.936,19.56,19.56,0,0,0,0,4.186,2.463,2.463,0,0,1-.629,1.936l-3.577,3.883a2.446,2.446,0,0,0-.319,2.881l2.722,4.714a2.447,2.447,0,0,0,2.654,1.164l5.15-1.156a2.463,2.463,0,0,1,1.991.424,19.687,19.687,0,0,0,3.629,2.1,2.461,2.461,0,0,1,1.36,1.512l1.574,5.036a2.446,2.446,0,0,0,2.335,1.717h5.443a2.446,2.446,0,0,0,2.335-1.717l1.574-5.036a2.462,2.462,0,0,1,1.36-1.512,19.7,19.7,0,0,0,3.629-2.1,2.463,2.463,0,0,1,1.991-.424l5.15,1.156a2.447,2.447,0,0,0,2.654-1.164l2.722-4.714a2.447,2.447,0,0,0-.319-2.881L97.741,101.1a2.463,2.463,0,0,1-.629-1.936A19.673,19.673,0,0,0,97.225,97.072Zm-13.15,0A6.575,6.575,0,1,1,77.5,90.5,6.575,6.575,0,0,1,84.075,97.072Z" fill="#ffe177"/>
        <path id="Trazado_101566" data-name="Trazado 101566" d="M97.741,101.1a2.463,2.463,0,0,1-.629-1.936,19.56,19.56,0,0,0,0-4.186,2.463,2.463,0,0,1,.629-1.936l3.576-3.883a2.446,2.446,0,0,0,.319-2.881l-2.722-4.714A2.447,2.447,0,0,0,96.261,80.4L94,80.909a28,28,0,0,1-26.568,33.118,19.683,19.683,0,0,0,2.08,1.08,2.461,2.461,0,0,1,1.36,1.512l1.574,5.036a2.446,2.446,0,0,0,2.335,1.717h5.443a2.446,2.446,0,0,0,2.335-1.717l1.574-5.036a2.462,2.462,0,0,1,1.36-1.512,19.7,19.7,0,0,0,3.629-2.1,2.463,2.463,0,0,1,1.991-.424l5.15,1.156a2.447,2.447,0,0,0,2.654-1.164l2.722-4.714a2.447,2.447,0,0,0-.319-2.881Z" fill="#ffd15b"/>
      </g>
      <g id="Grupo_54189" data-name="Grupo 54189">
        <path id="Trazado_101567" data-name="Trazado 101567" d="M31.63,87.469A2.27,2.27,0,0,0,33.9,85.2V9.609a5.074,5.074,0,0,1,5.068-5.068h77.064A5.074,5.074,0,0,1,121.1,9.609V26.332a2.271,2.271,0,0,0,4.541,0V9.609A9.62,9.62,0,0,0,116.032,0H38.968a9.62,9.62,0,0,0-9.609,9.609V85.2A2.271,2.271,0,0,0,31.63,87.469Z" fill="#12263f"/>
        <path id="Trazado_101568" data-name="Trazado 101568" d="M125.641,36.928a2.271,2.271,0,1,0-4.541,0v93.96H33.9V95.794a2.271,2.271,0,0,0-4.541,0v49.6A9.62,9.62,0,0,0,38.968,155H98.891a2.271,2.271,0,1,0,0-4.541H38.968a5.074,5.074,0,0,1-5.068-5.068v-9.963h87.2v9.963a5.074,5.074,0,0,1-5.068,5.068h-6.545a2.271,2.271,0,0,0,0,4.541h6.545a9.62,9.62,0,0,0,9.609-9.609Z" fill="#12263f"/>
        <path id="Trazado_101569" data-name="Trazado 101569" d="M77.5,88.226a8.846,8.846,0,1,0,8.845,8.846A8.855,8.855,0,0,0,77.5,88.226Zm0,13.15a4.3,4.3,0,1,1,4.3-4.3,4.309,4.309,0,0,1-4.3,4.3Z" fill="#12263f"/>
        <path id="Trazado_101570" data-name="Trazado 101570" d="M102.988,90.7a4.7,4.7,0,0,0,.615-5.554l-2.722-4.714a4.7,4.7,0,0,0-5.118-2.244l-5.15,1.156a.2.2,0,0,1-.157-.042,22.023,22.023,0,0,0-4.048-2.338.2.2,0,0,1-.112-.113l-1.574-5.036a4.7,4.7,0,0,0-4.5-3.31H74.778a4.7,4.7,0,0,0-4.5,3.31L68.7,76.848a.2.2,0,0,1-.113.113A22.051,22.051,0,0,0,64.542,79.3a.2.2,0,0,1-.156.042l-5.15-1.156a4.7,4.7,0,0,0-5.117,2.244L51.4,85.144a4.7,4.7,0,0,0,.615,5.554l3.576,3.883a.2.2,0,0,1,.042.157,21.814,21.814,0,0,0,0,4.67.2.2,0,0,1-.042.156l-3.576,3.883A4.7,4.7,0,0,0,51.4,109l2.722,4.714a4.7,4.7,0,0,0,5.118,2.244l5.15-1.156a.2.2,0,0,1,.157.042,22.013,22.013,0,0,0,4.047,2.338.2.2,0,0,1,.113.114l1.574,5.036a4.7,4.7,0,0,0,4.5,3.31h5.443a4.7,4.7,0,0,0,4.5-3.31L86.3,117.3a.2.2,0,0,1,.112-.113,22,22,0,0,0,4.048-2.339.2.2,0,0,1,.155-.042l5.15,1.156a4.7,4.7,0,0,0,5.117-2.244L103.6,109a4.7,4.7,0,0,0-.615-5.554l-3.576-3.883a.2.2,0,0,1-.042-.157,21.814,21.814,0,0,0,0-4.67.2.2,0,0,1,.042-.156ZM94.855,95.22a17.28,17.28,0,0,1,0,3.7,4.735,4.735,0,0,0,1.217,3.716l3.576,3.883a.175.175,0,0,1,.023.207l-2.722,4.714a.176.176,0,0,1-.191.083l-5.151-1.156a4.735,4.735,0,0,0-3.826.8,17.465,17.465,0,0,1-3.212,1.855,4.735,4.735,0,0,0-2.606,2.91l-1.574,5.037a.175.175,0,0,1-.168.123H74.779a.175.175,0,0,1-.168-.124l-1.574-5.036a4.735,4.735,0,0,0-2.607-2.91,17.476,17.476,0,0,1-3.21-1.854,4.756,4.756,0,0,0-2.8-.919,4.7,4.7,0,0,0-1.024.113l-5.15,1.156a.173.173,0,0,1-.191-.084l-2.722-4.714a.175.175,0,0,1,.023-.207l3.577-3.883a4.737,4.737,0,0,0,1.217-3.716,17.28,17.28,0,0,1,0-3.7A4.735,4.735,0,0,0,58.929,91.5l-3.576-3.883a.175.175,0,0,1-.023-.207L58.051,82.7a.173.173,0,0,1,.191-.083l5.151,1.156a4.737,4.737,0,0,0,3.826-.8,17.485,17.485,0,0,1,3.21-1.855,4.734,4.734,0,0,0,2.607-2.91l1.574-5.037a.175.175,0,0,1,.168-.123h5.443a.175.175,0,0,1,.168.124L81.964,78.2a4.735,4.735,0,0,0,2.607,2.91,17.47,17.47,0,0,1,3.211,1.855,4.743,4.743,0,0,0,3.827.8l5.15-1.156a.176.176,0,0,1,.191.084l2.722,4.714a.175.175,0,0,1-.023.207L96.072,91.5a4.736,4.736,0,0,0-1.217,3.716Z" fill="#12263f"/>
        <path id="Trazado_101571" data-name="Trazado 101571" d="M87.659,17.125H75.971a2.271,2.271,0,0,0,0,4.541H87.659a2.271,2.271,0,0,0,0-4.541Z" fill="#12263f"/>
        <path id="Trazado_101572" data-name="Trazado 101572" d="M54.564,21.666H66.185a2.271,2.271,0,0,0,0-4.541H54.564a2.271,2.271,0,0,0,0,4.541Z" fill="#12263f"/>
        <path id="Trazado_101573" data-name="Trazado 101573" d="M54.564,31.453H80.9a2.271,2.271,0,0,0,0-4.541H54.564a2.271,2.271,0,0,0,0,4.541Z" fill="#12263f"/>
        <path id="Trazado_101574" data-name="Trazado 101574" d="M88.416,29.182a2.27,2.27,0,0,0,2.271,2.271h9.749a2.271,2.271,0,0,0,0-4.541H90.687A2.27,2.27,0,0,0,88.416,29.182Z" fill="#12263f"/>
        <path id="Trazado_101575" data-name="Trazado 101575" d="M54.564,41.238H65.573a2.271,2.271,0,0,0,0-4.541H54.564a2.271,2.271,0,0,0,0,4.541Z" fill="#12263f"/>
        <path id="Trazado_101576" data-name="Trazado 101576" d="M80.9,36.7H75.359a2.271,2.271,0,0,0,0,4.541H80.9a2.271,2.271,0,0,0,0-4.541Z" fill="#12263f"/>
        <path id="Trazado_101577" data-name="Trazado 101577" d="M100.436,36.7H90.65a2.271,2.271,0,0,0,0,4.541h9.786a2.271,2.271,0,0,0,0-4.541Z" fill="#12263f"/>
        <path id="Trazado_101578" data-name="Trazado 101578" d="M54.564,51.024H80.9a2.271,2.271,0,0,0,0-4.541H54.564a2.271,2.271,0,0,0,0,4.541Z" fill="#12263f"/>
        <path id="Trazado_101579" data-name="Trazado 101579" d="M100.4,46.483H90.687a2.271,2.271,0,0,0,0,4.541H100.4a2.271,2.271,0,0,0,0-4.541Z" fill="#12263f"/>
        <path id="Trazado_101580" data-name="Trazado 101580" d="M54.564,60.81h4.587a2.271,2.271,0,1,0,0-4.541H54.564a2.271,2.271,0,0,0,0,4.541Z" fill="#12263f"/>
        <path id="Trazado_101581" data-name="Trazado 101581" d="M100.4,56.269H68.937a2.271,2.271,0,0,0,0,4.541H100.4a2.271,2.271,0,0,0,0-4.541Z" fill="#12263f"/>
        <path id="Trazado_101582" data-name="Trazado 101582" d="M100.4,21.666a2.271,2.271,0,0,0,0-4.541H97.378a2.271,2.271,0,0,0,0,4.541Z" fill="#12263f"/>
        <path id="Trazado_101583" data-name="Trazado 101583" d="M45.794,10.026a2.27,2.27,0,0,0-3.046,1.015l-1.835,3.67a2.27,2.27,0,0,0,0,2.031l1.835,3.67a2.271,2.271,0,0,0,4.061-2.031l-1.327-2.654,1.327-2.654a2.271,2.271,0,0,0-1.015-3.046Z" fill="#12263f"/>
        <path id="Trazado_101584" data-name="Trazado 101584" d="M109.206,60.57a2.269,2.269,0,0,0,3.046-1.015l1.835-3.67a2.27,2.27,0,0,0,0-2.031l-1.835-3.67a2.27,2.27,0,0,0-4.061,2.031l1.327,2.654-1.327,2.654a2.27,2.27,0,0,0,1.015,3.046Z" fill="#12263f"/>
      </g>
    </g>
  </g>
</svg>
