<svg xmlns="http://www.w3.org/2000/svg" xmlns:xlink="http://www.w3.org/1999/xlink" width="154" height="155" viewBox="0 0 154 155">
  <defs>
    <clipPath id="clip-path">
      <rect id="Rectángulo_5453" data-name="Rectángulo 5453" width="154" height="155" transform="translate(398 1208)" fill="#fff" stroke="#707070" stroke-width="1"/>
    </clipPath>
  </defs>
  <g id="Enmascarar_grupo_87" data-name="Enmascarar grupo 87" transform="translate(-398 -1208)" clip-path="url(#clip-path)">
    <g id="Page-1" transform="translate(428.5 1208)">
      <g id="_033---Apps" data-name="033---Apps">
        <path id="Shape" d="M90.417,131.75v12.917a7.75,7.75,0,0,1-7.75,7.75H10.333a7.75,7.75,0,0,1-7.75-7.75V131.75a7.75,7.75,0,0,0,7.75,7.75H82.667A7.75,7.75,0,0,0,90.417,131.75Z" fill="#3f51b5"/>
        <path id="Shape-2" data-name="Shape" d="M82.667,139.5v5.167a7.75,7.75,0,0,1-7.75,7.75h7.75a7.75,7.75,0,0,0,7.75-7.75V131.75A7.75,7.75,0,0,1,82.667,139.5Z" fill="#283593"/>
        <rect id="Rectangle-path" width="87.833" height="136.917" rx="7.75" transform="translate(2.583 2.583)" fill="#f5f5f5"/>
        <path id="Shape-3" data-name="Shape" d="M82.667,2.583h-7.75a7.75,7.75,0,0,1,7.75,7.75V131.75a7.75,7.75,0,0,1-7.75,7.75h7.75a7.75,7.75,0,0,0,7.75-7.75V10.333A7.75,7.75,0,0,0,82.667,2.583Z" fill="#cfd8dc"/>
        <path id="Shape-4" data-name="Shape" d="M72.333,2.583l-7.388,7.879a7.75,7.75,0,0,1-5.528,2.454H33.842a7.75,7.75,0,0,1-5.658-2.583l-7.517-7.75Z" fill="#3f51b5"/>
        <rect id="Rectangle-path-2" data-name="Rectangle-path" width="20.667" height="20.667" rx="2.583" transform="translate(20.667 49.083)" fill="#ff9801"/>
        <path id="Shape-5" data-name="Shape" d="M38.75,49.083H31a2.583,2.583,0,0,1,2.583,2.583v15.5A2.583,2.583,0,0,1,31,69.75h7.75a2.583,2.583,0,0,0,2.583-2.583v-15.5A2.583,2.583,0,0,0,38.75,49.083Z" fill="#f57c00"/>
        <rect id="Rectangle-path-3" data-name="Rectangle-path" width="20.667" height="20.667" rx="2.583" transform="translate(51.667 49.083)" fill="#ffdc00"/>
        <path id="Shape-6" data-name="Shape" d="M69.75,49.083H62a2.583,2.583,0,0,1,2.583,2.583v15.5A2.583,2.583,0,0,1,62,69.75h7.75a2.583,2.583,0,0,0,2.583-2.583v-15.5A2.583,2.583,0,0,0,69.75,49.083Z" fill="#fec108"/>
        <rect id="Rectangle-path-4" data-name="Rectangle-path" width="20.667" height="20.667" rx="2.583" transform="translate(20.667 80.083)" fill="#ffdc00"/>
        <path id="Shape-7" data-name="Shape" d="M38.75,80.083H31a2.583,2.583,0,0,1,2.583,2.583v15.5A2.583,2.583,0,0,1,31,100.75h7.75a2.583,2.583,0,0,0,2.583-2.583v-15.5A2.583,2.583,0,0,0,38.75,80.083Z" fill="#fec108"/>
        <path id="Shape-8" data-name="Shape" d="M72.333,87.833h-7.75v-7.75a2.583,2.583,0,0,0-5.167,0v7.75h-7.75a2.583,2.583,0,0,0,0,5.167h7.75v7.75a2.583,2.583,0,0,0,5.167,0V93h7.75a2.583,2.583,0,0,0,0-5.167Z" fill="#f44335"/>
        <g id="Grupo_54190" data-name="Grupo 54190">
          <path id="Shape-9" data-name="Shape" d="M82.667,0H10.333A10.333,10.333,0,0,0,0,10.333V144.667A10.333,10.333,0,0,0,10.333,155H82.667A10.333,10.333,0,0,0,93,144.667V10.333A10.333,10.333,0,0,0,82.667,0Zm-16.3,5.167L63.059,8.706a5.167,5.167,0,0,1-3.643,1.628H33.842A5.167,5.167,0,0,1,30.07,8.706L26.634,5.167Zm-61.2,5.167a5.167,5.167,0,0,1,5.167-5.167h9.222l6.613,7.078A10.333,10.333,0,0,0,33.712,15.5h25.7a10.333,10.333,0,0,0,7.543-3.255l6.484-7.078h9.222a5.167,5.167,0,0,1,5.167,5.167V131.75a5.167,5.167,0,0,1-5.167,5.167H10.333a5.167,5.167,0,0,1-5.167-5.167Zm77.5,139.5H10.333a5.167,5.167,0,0,1-5.167-5.167v-4.03a10.1,10.1,0,0,0,5.167,1.447H82.667a10.1,10.1,0,0,0,5.167-1.447v4.03A5.167,5.167,0,0,1,82.667,149.833Z" fill="#12263f"/>
          <path id="Shape-10" data-name="Shape" d="M23.25,72.333h15.5a5.167,5.167,0,0,0,5.167-5.167v-15.5A5.167,5.167,0,0,0,38.75,46.5H23.25a5.167,5.167,0,0,0-5.167,5.167v15.5A5.167,5.167,0,0,0,23.25,72.333Zm0-20.667h15.5v15.5H23.25Z" fill="#12263f"/>
          <path id="Shape-11" data-name="Shape" d="M54.25,72.333h15.5a5.167,5.167,0,0,0,5.167-5.167v-15.5A5.167,5.167,0,0,0,69.75,46.5H54.25a5.167,5.167,0,0,0-5.167,5.167v15.5A5.167,5.167,0,0,0,54.25,72.333Zm0-20.667h15.5v15.5H54.25Z" fill="#12263f"/>
          <path id="Shape-12" data-name="Shape" d="M23.25,103.333h15.5a5.167,5.167,0,0,0,5.167-5.167v-15.5A5.167,5.167,0,0,0,38.75,77.5H23.25a5.167,5.167,0,0,0-5.167,5.167v15.5A5.167,5.167,0,0,0,23.25,103.333Zm0-20.667h15.5v15.5H23.25Z" fill="#12263f"/>
        </g>
      </g>
    </g>
  </g>
</svg>
