<svg xmlns="http://www.w3.org/2000/svg" xmlns:xlink="http://www.w3.org/1999/xlink" width="154" height="155" viewBox="0 0 154 155">
  <defs>
    <clipPath id="clip-path">
      <rect id="Rectángulo_5440" data-name="Rectángulo 5440" width="154" height="155" transform="translate(398 470)" fill="#fff" stroke="#707070" stroke-width="1"/>
    </clipPath>
  </defs>
  <g id="Enmascarar_grupo_88" data-name="Enmascarar grupo 88" transform="translate(-398 -470)" clip-path="url(#clip-path)">
    <g id="aplicaciones_1_" data-name="aplicaciones (1)" transform="translate(395.516 468.017)">
      <g id="Grupo_54191" data-name="Grupo 54191">
        <path id="Trazado_101585" data-name="Trazado 101585" d="M154,89.419v54.645A9.933,9.933,0,0,1,144.065,154h-9.935V79.484h9.935A9.933,9.933,0,0,1,154,89.419Z" fill="#969faa"/>
        <path id="Trazado_101586" data-name="Trazado 101586" d="M24.839,79.484V154H14.9a9.933,9.933,0,0,1-9.935-9.935V89.419A9.933,9.933,0,0,1,14.9,79.484Z" fill="#969faa"/>
        <path id="Trazado_101587" data-name="Trazado 101587" d="M134.129,79.484V154H24.839V79.484H44.71v9.935H34.774v54.645h89.419V89.419h-9.935V79.484Z" fill="#69d6f4"/>
        <path id="Trazado_101588" data-name="Trazado 101588" d="M124.194,89.419v54.645H34.774V89.419H44.71v24.839h69.548V89.419Z" fill="#ffeaa7"/>
        <rect id="Rectángulo_5455" data-name="Rectángulo 5455" width="9.935" height="9.935" transform="translate(104.323 124.194)" fill="#b4dd7f"/>
        <rect id="Rectángulo_5456" data-name="Rectángulo 5456" width="9.935" height="9.935" transform="translate(84.452 124.194)" fill="#b4dd7f"/>
        <rect id="Rectángulo_5457" data-name="Rectángulo 5457" width="9.935" height="9.935" transform="translate(64.581 124.194)" fill="#b4dd7f"/>
        <rect id="Rectángulo_5458" data-name="Rectángulo 5458" width="9.935" height="9.935" transform="translate(44.71 124.194)" fill="#b4dd7f"/>
        <path id="Trazado_101589" data-name="Trazado 101589" d="M100.15,48.883a8.562,8.562,0,0,0,.5.795H84.452V4.968H154V69.548H114.258V59.066a23.1,23.1,0,0,0,8.594.248A22.349,22.349,0,0,0,139.37,46.97a22.089,22.089,0,0,0,1.888-5.936,23.222,23.222,0,0,0-.447-9.662,22.368,22.368,0,0,0-22.678-16.443L117.115,15A22.43,22.43,0,0,0,97.02,34.625,22.2,22.2,0,0,0,100.15,48.883Z" fill="#e6e9ed"/>
        <path id="Trazado_101590" data-name="Trazado 101590" d="M119.971,39.742a5.714,5.714,0,0,0-5.713,5.713v4.223H100.646a8.562,8.562,0,0,1-.5-.795l6.508-6.508a8.986,8.986,0,0,0,2.633-6.359V35.37a8.909,8.909,0,0,1,1.937-5.564h3.527a14.853,14.853,0,0,1,8.2,2.484,14.853,14.853,0,0,0,8.2,2.484,15.286,15.286,0,0,0,9.613-3.378l.05-.025a23.222,23.222,0,0,1,.447,9.662,22.09,22.09,0,0,1-1.888,5.936,11.164,11.164,0,0,0-6.756-2.26A11.558,11.558,0,0,1,126.28,42.8l-3.13-2.086A5.576,5.576,0,0,0,119.971,39.742Z" fill="#69d6f4"/>
        <path id="Trazado_101591" data-name="Trazado 101591" d="M139.37,46.97a22.349,22.349,0,0,1-16.518,12.345,23.1,23.1,0,0,1-8.594-.248V45.455a5.714,5.714,0,0,1,5.713-5.713,5.576,5.576,0,0,1,3.179.969l3.13,2.086a11.558,11.558,0,0,0,6.334,1.913A11.164,11.164,0,0,1,139.37,46.97Z" fill="#b4dd7f"/>
        <path id="Trazado_101592" data-name="Trazado 101592" d="M118.133,14.928a22.368,22.368,0,0,1,22.678,16.443l-.05.025a15.286,15.286,0,0,1-9.613,3.378,14.853,14.853,0,0,1-8.2-2.484,14.853,14.853,0,0,0-8.2-2.484h-3.527a8.722,8.722,0,0,1,3.03-2.484,8.975,8.975,0,0,0,4.968-8.048,9.268,9.268,0,0,0-1.093-4.3v-.05Z" fill="#b4dd7f"/>
        <path id="Trazado_101593" data-name="Trazado 101593" d="M118.133,14.978a9.268,9.268,0,0,1,1.093,4.3,8.975,8.975,0,0,1-4.968,8.048,8.722,8.722,0,0,0-3.03,2.484,8.909,8.909,0,0,0-1.937,5.564v.646a8.986,8.986,0,0,1-2.633,6.359l-6.508,6.508a22.2,22.2,0,0,1-3.13-14.257A22.43,22.43,0,0,1,117.115,15l1.018-.075Z" fill="#b4dd7f"/>
        <path id="Trazado_101594" data-name="Trazado 101594" d="M44.71,49.677V69.548H4.968V4.968H74.516v44.71Z" fill="#e6e9ed"/>
        <path id="Trazado_101595" data-name="Trazado 101595" d="M52.161,39.742v9.935H44.71v9.935H32.29a4.982,4.982,0,0,1-4.968-4.968v-14.9a4.982,4.982,0,0,1,4.968-4.968h14.9A4.982,4.982,0,0,1,52.161,39.742Z" fill="#fcd770"/>
        <path id="Trazado_101596" data-name="Trazado 101596" d="M84.452,49.677h29.806v64.581H44.71V49.677H84.452Z" fill="#e6e9ed"/>
        <path id="Trazado_101597" data-name="Trazado 101597" d="M79.484,59.613A22.355,22.355,0,1,1,57.129,81.968,22.357,22.357,0,0,1,79.484,59.613Z" fill="#ffeaa7"/>
        <path id="Trazado_101598" data-name="Trazado 101598" d="M89.419,81.968,69.548,91.9V72.032Z" fill="#ff826e"/>
      </g>
      <g id="Grupo_54192" data-name="Grupo 54192">
        <rect id="Rectángulo_5459" data-name="Rectángulo 5459" width="4.968" height="19.871" transform="translate(141.581 106.806)" fill="#12263f"/>
        <rect id="Rectángulo_5460" data-name="Rectángulo 5460" width="4.968" height="4.968" transform="translate(141.581 131.645)" fill="#12263f"/>
        <rect id="Rectángulo_5461" data-name="Rectángulo 5461" width="4.968" height="4.968" transform="translate(141.581 96.871)" fill="#12263f"/>
        <rect id="Rectángulo_5462" data-name="Rectángulo 5462" width="4.968" height="14.903" transform="translate(12.419 109.29)" fill="#12263f"/>
        <path id="Trazado_101599" data-name="Trazado 101599" d="M156.484,72.032V2.484H81.968v44.71H77V2.484H2.484V72.032H42.226V77H14.9A12.433,12.433,0,0,0,2.484,89.419v54.645A12.433,12.433,0,0,0,14.9,156.484H144.065a12.433,12.433,0,0,0,12.419-12.419V89.419A12.433,12.433,0,0,0,144.065,77h-32.29v34.774H47.194v-14.9H42.226v19.871h74.516V91.9h4.968v49.677H37.258V91.9h9.935V52.161h64.581V72.032ZM7.452,144.065V89.419A7.461,7.461,0,0,1,14.9,81.968h7.452v69.548H14.9A7.461,7.461,0,0,1,7.452,144.065ZM151.516,89.419v54.645a7.461,7.461,0,0,1-7.452,7.452h-7.452V81.968h7.452A7.461,7.461,0,0,1,151.516,89.419ZM32.29,86.935v59.613h94.387V86.935h-9.935V81.968h14.9v69.548H27.323V81.968h14.9v4.968Zm9.935-39.742v9.935H32.29a2.488,2.488,0,0,1-2.484-2.484v-14.9a2.488,2.488,0,0,1,2.484-2.484h14.9a2.488,2.488,0,0,1,2.484,2.484v7.452Zm2.484-14.9H34.774V22.355a4.968,4.968,0,0,1,9.935,0Zm9.935,14.9V39.742a7.441,7.441,0,0,0-4.968-6.995V22.355a9.935,9.935,0,0,0-19.871,0V32.747a7.441,7.441,0,0,0-4.968,6.995v14.9A7.461,7.461,0,0,0,32.29,62.1h9.935v4.968H7.452V7.452H72.032V47.194Zm62.1,0V45.462a3.236,3.236,0,0,1,5.032-2.693l3.13,2.086a13.878,13.878,0,0,0,7.722,2.337,8.7,8.7,0,0,1,3.343.7,19.814,19.814,0,0,1-13.49,8.982,20.389,20.389,0,0,1-5.735.1V47.194ZM100.81,44.71a19.856,19.856,0,0,1-1.321-9.791A20.114,20.114,0,0,1,116.5,17.591a6.4,6.4,0,0,1,.243,1.694,6.47,6.47,0,0,1-3.594,5.817,11.405,11.405,0,0,0-6.341,10.258v.661a6.539,6.539,0,0,1-1.905,4.6Zm20.9-25.425a11.43,11.43,0,0,0-.152-1.746A19.707,19.707,0,0,1,137.84,30.385a12.75,12.75,0,0,1-13.51-.161,17.215,17.215,0,0,0-6.272-2.543A11.4,11.4,0,0,0,121.71,19.285ZM86.935,7.452h64.581V67.065H116.742v-5.1c.822.082,1.649.137,2.481.137a26,26,0,0,0,4.029-.318A24.863,24.863,0,1,0,96.464,47.191H86.935Zm18.415,39.742,3.063-3.063a11.389,11.389,0,0,0,3.361-8.112v-.661a6.466,6.466,0,0,1,.81-3.07h2.163a12.277,12.277,0,0,1,6.826,2.067,17.215,17.215,0,0,0,9.583,2.9,17.869,17.869,0,0,0,7.824-1.87,20.54,20.54,0,0,1-.161,5.256,19.057,19.057,0,0,1-.693,2.782,13.617,13.617,0,0,0-5.5-1.2,8.929,8.929,0,0,1-4.968-1.5l-3.13-2.086a8.2,8.2,0,0,0-12.755,6.826v1.731Z" fill="#12263f"/>
        <path id="Trazado_101600" data-name="Trazado 101600" d="M54.645,81.968A24.839,24.839,0,1,0,79.484,57.129,24.867,24.867,0,0,0,54.645,81.968Zm44.71,0A19.871,19.871,0,1,1,79.484,62.1,19.894,19.894,0,0,1,99.355,81.968Z" fill="#12263f"/>
        <path id="Trazado_101601" data-name="Trazado 101601" d="M67.065,95.922,94.973,81.968,67.065,68.013Zm4.968-19.871,11.833,5.917L72.032,87.884Z" fill="#12263f"/>
        <path id="Trazado_101602" data-name="Trazado 101602" d="M57.129,121.71h-14.9v14.9h14.9Zm-4.968,9.935H47.194v-4.968h4.968Z" fill="#12263f"/>
        <path id="Trazado_101603" data-name="Trazado 101603" d="M62.1,121.71v14.9H77v-14.9Zm9.935,9.935H67.065v-4.968h4.968Z" fill="#12263f"/>
        <path id="Trazado_101604" data-name="Trazado 101604" d="M81.968,121.71v14.9h14.9v-14.9Zm9.935,9.935H86.935v-4.968H91.9Z" fill="#12263f"/>
        <path id="Trazado_101605" data-name="Trazado 101605" d="M101.839,121.71v14.9h14.9v-14.9Zm9.935,9.935h-4.968v-4.968h4.968Z" fill="#12263f"/>
      </g>
    </g>
  </g>
</svg>
