<svg xmlns="http://www.w3.org/2000/svg" width="820" height="601.482" viewBox="0 0 820 601.482">
  <g id="Grupo_56936" data-name="Grupo 56936" transform="translate(-469 -94)">
    <rect id="dylan-shaw-UxyWwU6n_ts-unsplash" width="820" height="601.482" transform="translate(469 94)" fill="#4dd0e1"/>
    <g id="Grupo_56935" data-name="Grupo 56935" transform="translate(520.174 51.752)">
      <circle id="Elipse_4089" data-name="Elipse 4089" cx="131.733" cy="131.733" r="131.733" transform="translate(402.534 84.249)" fill="#e5f1ff"/>
      <circle id="Elipse_4090" data-name="Elipse 4090" cx="76.995" cy="76.995" r="76.995" transform="translate(85.959 493.688) rotate(-45)" fill="#e5f1ff"/>
      <g id="Grupo_56934" data-name="Grupo 56934" transform="translate(51.827 124.562)">
        <path id="Trazado_102927" data-name="Trazado 102927" d="M168.863,112.859a70.389,70.389,0,1,0,70.389,70.39A70.39,70.39,0,0,0,168.863,112.859Zm0,115.393a45,45,0,1,1,45-45A45,45,0,0,1,168.863,228.252Z" transform="translate(-26.871 -109.256)" fill="#a9ccea"/>
        <path id="Trazado_102928" data-name="Trazado 102928" d="M394.394,415.29a8.076,8.076,0,0,1-8.077,8.077H182.072a8.077,8.077,0,1,1,0-16.154h72.5l10-18.463h39.233l10,18.463h72.505A8.077,8.077,0,0,1,394.394,415.29Z" transform="translate(13.531 38.344)" fill="#0f3157"/>
        <rect id="Rectángulo_11840" data-name="Rectángulo 11840" width="33.464" height="9.808" transform="translate(279.308 410.362)" fill="#ffa726"/>
        <rect id="Rectángulo_11841" data-name="Rectángulo 11841" width="33.464" height="9.808" transform="translate(279.308 394.207)" fill="#ffa726"/>
        <path id="Trazado_102929" data-name="Trazado 102929" d="M443.037,380.973a52.293,52.293,0,1,1,28.881-27.163" transform="translate(119.442 -19.959)" fill="none" stroke="#ffa726" stroke-linecap="round" stroke-linejoin="round" stroke-width="1.128" stroke-dasharray="0 5.638"/>
        <path id="Trazado_102930" data-name="Trazado 102930" d="M377.074,176.976h-8.355a68.714,68.714,0,0,0-8.564-20.679l5.907-5.907a6.519,6.519,0,0,0,0-9.221l-13.123-13.124a6.521,6.521,0,0,0-9.222,0l-5.907,5.905a68.8,68.8,0,0,0-20.678-8.562v-8.355a6.521,6.521,0,0,0-6.521-6.521h-18.56a6.52,6.52,0,0,0-6.521,6.521v8.355a68.79,68.79,0,0,0-20.679,8.562l-5.907-5.905a6.519,6.519,0,0,0-9.221,0L236.6,141.169a6.519,6.519,0,0,0,0,9.221l5.907,5.907a68.754,68.754,0,0,0-8.564,20.679h-8.355a6.52,6.52,0,0,0-6.521,6.521v18.56a6.521,6.521,0,0,0,6.521,6.521h8.355a68.8,68.8,0,0,0,8.562,20.678l-5.905,5.907a6.521,6.521,0,0,0,0,9.222l13.124,13.123a6.519,6.519,0,0,0,9.221,0l5.907-5.905a68.751,68.751,0,0,0,20.679,8.562v8.355a6.52,6.52,0,0,0,6.521,6.521h18.56a6.521,6.521,0,0,0,6.521-6.521v-8.355a68.758,68.758,0,0,0,20.678-8.562l5.907,5.905a6.521,6.521,0,0,0,9.222,0l13.123-13.123a6.521,6.521,0,0,0,0-9.222l-5.905-5.907a68.759,68.759,0,0,0,8.562-20.678h8.355a6.521,6.521,0,0,0,6.521-6.521V183.5A6.52,6.52,0,0,0,377.074,176.976Zm-75.743,48.906a33.106,33.106,0,1,1,33.107-33.107A33.106,33.106,0,0,1,301.331,225.882Z" transform="translate(37.646 -110.512)" fill="#289df2"/>
        <path id="Rectángulo_11842" data-name="Rectángulo 11842" d="M11.467,0H299.212A11.468,11.468,0,0,1,310.68,11.468V483.543a11.468,11.468,0,0,1-11.468,11.468H11.467A11.467,11.467,0,0,1,0,483.543V11.467A11.467,11.467,0,0,1,11.467,0Z" transform="translate(545.23 79.117) rotate(90)" fill="#0f3775"/>
        <rect id="Rectángulo_11843" data-name="Rectángulo 11843" width="51.061" height="11.251" transform="translate(86.314 117.553)" fill="#284d89"/>
        <rect id="Rectángulo_11844" data-name="Rectángulo 11844" width="51.061" height="11.251" transform="translate(147.761 117.553)" fill="#284d89"/>
        <rect id="Rectángulo_11845" data-name="Rectángulo 11845" width="51.061" height="11.251" transform="translate(303.541 117.553)" fill="#284d89"/>
        <rect id="Rectángulo_11846" data-name="Rectángulo 11846" width="51.061" height="11.251" transform="translate(459.321 117.553)" fill="#284d89"/>
        <rect id="Rectángulo_11847" data-name="Rectángulo 11847" width="91.304" height="11.251" transform="translate(205.745 117.553)" fill="#ffa726"/>
        <rect id="Rectángulo_11848" data-name="Rectángulo 11848" width="91.304" height="11.251" transform="translate(360.66 117.553)" fill="#2889db"/>
        <rect id="Rectángulo_11849" data-name="Rectángulo 11849" width="8.943" height="5.481" transform="translate(86.603 108.611)" fill="#2889db"/>
        <g id="Grupo_56899" data-name="Grupo 56899" transform="translate(86.603 138.036)">
          <rect id="Rectángulo_11850" data-name="Rectángulo 11850" width="93.324" height="5.481" fill="#fff"/>
          <rect id="Rectángulo_11851" data-name="Rectángulo 11851" width="27.694" height="5.481" transform="translate(0 9.664)" fill="#fff"/>
        </g>
        <rect id="Rectángulo_11852" data-name="Rectángulo 11852" width="109.911" height="180.012" rx="7.611" transform="translate(87.18 170.346)" fill="#284d89"/>
        <g id="Grupo_56900" data-name="Grupo 56900" transform="translate(101.027 196.742)">
          <rect id="Rectángulo_11853" data-name="Rectángulo 11853" width="36.781" height="5.625" fill="#fff"/>
          <rect id="Rectángulo_11854" data-name="Rectángulo 11854" width="36.781" height="5.625" transform="translate(0 12.549)" fill="#fff"/>
          <rect id="Rectángulo_11855" data-name="Rectángulo 11855" width="36.781" height="5.625" transform="translate(0 25.098)" fill="#fff"/>
        </g>
        <rect id="Rectángulo_11856" data-name="Rectángulo 11856" width="22.501" height="5.625" transform="translate(101.027 274.199)" fill="#fff"/>
        <rect id="Rectángulo_11857" data-name="Rectángulo 11857" width="22.501" height="5.625" transform="translate(101.027 286.748)" fill="#fff"/>
        <rect id="Rectángulo_11858" data-name="Rectángulo 11858" width="22.501" height="5.625" transform="translate(139.683 286.748)" fill="#fff"/>
        <rect id="Rectángulo_11859" data-name="Rectángulo 11859" width="14.136" height="5.625" transform="translate(101.027 259.919)" fill="#fff"/>
        <rect id="Rectángulo_11860" data-name="Rectángulo 11860" width="7.5" height="5.625" transform="translate(161.608 259.919)" fill="#fff"/>
        <rect id="Rectángulo_11861" data-name="Rectángulo 11861" width="38.657" height="5.625" transform="translate(120.067 259.919)" fill="#ffa726"/>
        <rect id="Rectángulo_11862" data-name="Rectángulo 11862" width="5.409" height="5.625" transform="translate(101.027 238.716)" fill="#2889db"/>
        <rect id="Rectángulo_11863" data-name="Rectángulo 11863" width="5.409" height="5.625" transform="translate(101.027 248.668)" fill="#ffa726"/>
        <path id="Trazado_102931" data-name="Trazado 102931" d="M137.892,304.249h-2.019l4.832-7.212h2.019Z" transform="translate(-6.863 -10.722)" fill="#fff"/>
        <rect id="Rectángulo_11864" data-name="Rectángulo 11864" width="83.515" height="4.76" transform="translate(101.027 303.191)" fill="#282e5c"/>
        <rect id="Rectángulo_11865" data-name="Rectángulo 11865" width="83.515" height="4.76" transform="translate(101.027 314.009)" fill="#282e5c"/>
        <rect id="Rectángulo_11866" data-name="Rectángulo 11866" width="250.402" height="83.083" rx="6.766" transform="translate(346.236 161.691)" fill="#289df2"/>
        <path id="Trazado_102932" data-name="Trazado 102932" d="M325.876,259.456S338.569,228.3,374.918,235.8s54.812,48.464,101.546,15" transform="translate(94.788 -44.107)" fill="none" stroke="#fff" stroke-miterlimit="10" stroke-width="1.128"/>
        <rect id="Rectángulo_11867" data-name="Rectángulo 11867" width="5.193" height="5.193" transform="translate(533.172 217.08)" fill="#289df2" stroke="#fff" stroke-miterlimit="10" stroke-width="1.128"/>
        <line id="Línea_192" data-name="Línea 192" x2="65.774" transform="translate(427.011 190.251)" fill="#289df2" stroke="#fff" stroke-miterlimit="10" stroke-width="0.564"/>
        <line id="Línea_193" data-name="Línea 193" x2="65.774" transform="translate(502.881 221.118)" fill="#289df2" stroke="#fff" stroke-miterlimit="10" stroke-width="0.564"/>
        <rect id="Rectángulo_11868" data-name="Rectángulo 11868" width="5.193" height="5.193" transform="translate(454.705 187.654)" fill="#289df2" stroke="#fff" stroke-miterlimit="10" stroke-width="1.128"/>
        <g id="Grupo_56904" data-name="Grupo 56904" transform="translate(332.966 176.692)">
          <rect id="Rectángulo_11869" data-name="Rectángulo 11869" width="64.62" height="89.429" rx="4.886" fill="#284d89"/>
          <g id="Grupo_56903" data-name="Grupo 56903" transform="translate(10.097 12.693)">
            <g id="Grupo_56901" data-name="Grupo 56901">
              <rect id="Rectángulo_11870" data-name="Rectángulo 11870" width="36.781" height="5.071" fill="#fff"/>
              <rect id="Rectángulo_11871" data-name="Rectángulo 11871" width="36.781" height="5.071" transform="translate(0 11.312)" fill="#fff"/>
              <rect id="Rectángulo_11872" data-name="Rectángulo 11872" width="13.847" height="5.071" transform="translate(0 22.625)" fill="#fff"/>
            </g>
            <g id="Grupo_56902" data-name="Grupo 56902" transform="translate(0 34.328)">
              <rect id="Rectángulo_11873" data-name="Rectángulo 11873" width="23.944" height="5.071" fill="#289df2"/>
              <rect id="Rectángulo_11874" data-name="Rectángulo 11874" width="16.155" height="5.071" transform="translate(0 11.312)" fill="#289df2"/>
              <rect id="Rectángulo_11875" data-name="Rectángulo 11875" width="16.155" height="5.071" transform="translate(0 22.625)" fill="#fff"/>
            </g>
          </g>
        </g>
        <line id="Línea_194" data-name="Línea 194" x2="25.963" transform="translate(556.251 150.44)" fill="none" stroke="#284d89" stroke-linecap="round" stroke-linejoin="round" stroke-width="2.255"/>
        <g id="Grupo_56909" data-name="Grupo 56909" transform="translate(216.623 277.258)">
          <path id="Trazado_102933" data-name="Trazado 102933" d="M473.381,305.316l-8.961,7.013-12.857,2.338s-12.077-.78-13.245-.78-9.351-6.624-9.351-6.624l-15.195-5.454-10.518,3.9-12.467-2.728-18.7-1.168-17.923,7.012-14.805,2.338-13.246,4.286-14.8,1.17-15.973-12.467-14.8-2.728-15.195,8.571-12.077,3.9-13.712-.39-17.281,10.519h-10.3l-17.4,6.1" transform="translate(-192.09 -285.636)" fill="none" stroke="#ffa726" stroke-miterlimit="10" stroke-width="1.015"/>
          <g id="Grupo_56906" data-name="Grupo 56906" transform="translate(0 41.238)">
            <g id="Grupo_56905" data-name="Grupo 56905">
              <line id="Línea_195" data-name="Línea 195" x2="278.953" transform="translate(2.727 3.506)" fill="none" stroke="#f7f7f7" stroke-miterlimit="10" stroke-width="0.254"/>
              <rect id="Rectángulo_11876" data-name="Rectángulo 11876" width="2.857" height="7.013" fill="#f7f7f7"/>
              <rect id="Rectángulo_11877" data-name="Rectángulo 11877" width="2.857" height="7.013" transform="translate(279.992)" fill="#f7f7f7"/>
            </g>
            <path id="Trazado_102934" data-name="Trazado 102934" d="M194.726,320.287" transform="translate(-191.999 -316.78)" fill="none" stroke="#f7f7f7" stroke-miterlimit="10" stroke-width="0.508"/>
          </g>
          <line id="Línea_196" data-name="Línea 196" y1="23.506" transform="translate(281.421 21.239)" fill="none" stroke="#f7f7f7" stroke-miterlimit="10" stroke-width="0.254"/>
          <path id="Trazado_102935" data-name="Trazado 102935" d="M378.84,304.981a2.207,2.207,0,1,1-2.207-2.207A2.208,2.208,0,0,1,378.84,304.981Z" transform="translate(-95.861 -284.911)" fill="#f7f7f7"/>
          <text id="beta_test" data-name="beta test" transform="translate(3.116 59.916)" fill="#f7f7f7" font-size="12" font-family="BebasNeue-Regular, Bebas Neue" letter-spacing="0.06em"><tspan x="0" y="0">beta test</tspan></text>
          <rect id="Rectángulo_11878" data-name="Rectángulo 11878" width="173.502" height="3.117" transform="translate(67.141 54.874)" fill="#28385e"/>
          <rect id="Rectángulo_11879" data-name="Rectángulo 11879" width="106.49" height="3.117" transform="translate(67.141 54.874)" fill="#ffa726"/>
          <rect id="Rectángulo_11880" data-name="Rectángulo 11880" width="85.322" height="3.117" transform="translate(67.141 60.848)" fill="#28385e"/>
          <g id="Grupo_56907" data-name="Grupo 56907" transform="translate(3.701 67.179)">
            <path id="Trazado_102936" data-name="Trazado 102936" d="M204.711,337.845H215.23l1.364-2.922H195.361v4.87h7.4Z" transform="translate(-195.361 -334.891)" fill="#ffa726"/>
            <rect id="Rectángulo_11881" data-name="Rectángulo 11881" width="1.169" height="1.169" transform="translate(29.983)" fill="#f7f7f7"/>
            <rect id="Rectángulo_11882" data-name="Rectángulo 11882" width="1.169" height="1.169" transform="translate(37.239)" fill="#f7f7f7"/>
            <rect id="Rectángulo_11883" data-name="Rectángulo 11883" width="1.169" height="1.169" transform="translate(44.495)" fill="#f7f7f7"/>
          </g>
          <text id="_500" data-name="500" transform="translate(267.781 11)" fill="#f7f7f7" font-size="12" font-family="BebasNeue-Regular, Bebas Neue" letter-spacing="0.06em"><tspan x="0" y="0">500</tspan></text>
          <g id="Grupo_56908" data-name="Grupo 56908" transform="translate(246.357 54.874)">
            <path id="Trazado_102937" data-name="Trazado 102937" d="M360.2,336.236h-2.6l-4.156-9.35h2.6Z" transform="translate(-353.443 -326.886)" fill="#28385e"/>
            <path id="Trazado_102938" data-name="Trazado 102938" d="M364.6,336.236H362l-4.156-9.35h2.6Z" transform="translate(-351.09 -326.886)" fill="#28385e"/>
            <path id="Trazado_102939" data-name="Trazado 102939" d="M369,336.236h-2.6l-4.156-9.35h2.6Z" transform="translate(-348.736 -326.886)" fill="#28385e"/>
            <path id="Trazado_102940" data-name="Trazado 102940" d="M373.394,336.236h-2.6l-4.156-9.35h2.6Z" transform="translate(-346.382 -326.886)" fill="#28385e"/>
            <path id="Trazado_102941" data-name="Trazado 102941" d="M377.709,336.236h-2.6l-4.156-9.35h2.6Z" transform="translate(-344.074 -326.886)" fill="#28385e"/>
          </g>
        </g>
        <g id="Grupo_56911" data-name="Grupo 56911" transform="translate(443.108 19.556)">
          <g id="Grupo_56910" data-name="Grupo 56910">
            <rect id="Rectángulo_11884" data-name="Rectángulo 11884" width="42.232" height="7.564" fill="#a9ccea"/>
            <rect id="Rectángulo_11885" data-name="Rectángulo 11885" width="63.678" height="7.563" transform="translate(0 13.536)" fill="#a9ccea"/>
            <rect id="Rectángulo_11886" data-name="Rectángulo 11886" width="78.525" height="7.564" transform="translate(0 27.071)" fill="#a9ccea"/>
            <rect id="Rectángulo_11887" data-name="Rectángulo 11887" width="30.025" height="7.564" transform="translate(0 40.607)" fill="#a9ccea"/>
          </g>
        </g>
        <g id="Grupo_56913" data-name="Grupo 56913" transform="translate(0 110.716)">
          <g id="Grupo_56912" data-name="Grupo 56912">
            <rect id="Rectángulo_11888" data-name="Rectángulo 11888" width="42.232" height="7.564" fill="#2889db"/>
            <rect id="Rectángulo_11889" data-name="Rectángulo 11889" width="63.678" height="7.564" transform="translate(0 13.536)" fill="#a9ccea"/>
            <rect id="Rectángulo_11890" data-name="Rectángulo 11890" width="78.525" height="7.564" transform="translate(0 27.071)" fill="#a9ccea"/>
            <rect id="Rectángulo_11891" data-name="Rectángulo 11891" width="30.025" height="7.564" transform="translate(0 40.607)" fill="#a9ccea"/>
          </g>
        </g>
        <rect id="Rectángulo_11892" data-name="Rectángulo 11892" width="180.013" height="23.367" transform="translate(105.354 376.321)" fill="none" stroke="#289df2" stroke-miterlimit="10" stroke-width="1.128"/>
        <rect id="Rectángulo_11893" data-name="Rectángulo 11893" width="8.654" height="53.081" transform="translate(192.187 192.27)" fill="none" stroke="#289df2" stroke-miterlimit="10" stroke-width="1.128"/>
        <g id="Grupo_56917" data-name="Grupo 56917" transform="translate(509.533 277.945)">
          <circle id="Elipse_4091" data-name="Elipse 4091" cx="29.829" cy="29.829" r="29.829" transform="translate(0 9.499) rotate(-9.162)" fill="#ffa726"/>
          <g id="Grupo_56916" data-name="Grupo 56916" transform="translate(15.1 26.988)">
            <g id="Grupo_56914" data-name="Grupo 56914">
              <path id="Trazado_102942" data-name="Trazado 102942" d="M410.545,313.578,398.7,317.917l11.847,4.306v4.448l-16.936-6.441v-4.625l16.936-6.439Z" transform="translate(-393.609 -309.166)" fill="#f9fbfc"/>
            </g>
            <g id="Grupo_56915" data-name="Grupo 56915" transform="translate(20.805)">
              <path id="Trazado_102943" data-name="Trazado 102943" d="M407.163,309.166l16.936,6.439v4.625l-16.936,6.441v-4.448l11.847-4.306-11.847-4.339Z" transform="translate(-407.163 -309.166)" fill="#f9fbfc"/>
            </g>
          </g>
        </g>
        <path id="Trazado_102944" data-name="Trazado 102944" d="M441.165,331.1a3.894,3.894,0,1,1-3.894-3.894A3.895,3.895,0,0,1,441.165,331.1Z" transform="translate(152.3 5.415)" fill="none" stroke="#ffa726" stroke-miterlimit="10" stroke-width="1.128"/>
        <rect id="Rectángulo_11894" data-name="Rectángulo 11894" width="141.068" height="14.713" transform="translate(95.834 54.376)" fill="none" stroke="#289df2" stroke-miterlimit="10" stroke-width="1.128"/>
        <rect id="Rectángulo_11895" data-name="Rectángulo 11895" width="87.41" height="4.327" transform="translate(101.892 59.136)" fill="#289df2"/>
        <g id="Grupo_56918" data-name="Grupo 56918" transform="translate(215.842 169.192)">
          <rect id="Rectángulo_11896" data-name="Rectángulo 11896" width="103.276" height="5.193" fill="#284d89"/>
          <rect id="Rectángulo_11897" data-name="Rectángulo 11897" width="46.806" height="5.193" fill="#2889db"/>
        </g>
        <g id="Grupo_56919" data-name="Grupo 56919" transform="translate(215.842 182.606)">
          <rect id="Rectángulo_11898" data-name="Rectángulo 11898" width="103.276" height="5.193" fill="#284d89"/>
          <rect id="Rectángulo_11899" data-name="Rectángulo 11899" width="71.904" height="5.193" fill="#ffa726"/>
        </g>
        <g id="Grupo_56920" data-name="Grupo 56920" transform="translate(215.842 196.02)">
          <rect id="Rectángulo_11900" data-name="Rectángulo 11900" width="103.276" height="5.193" fill="#284d89"/>
          <rect id="Rectángulo_11901" data-name="Rectángulo 11901" width="21.059" height="5.193" fill="#1ae5ff"/>
        </g>
        <g id="Grupo_56921" data-name="Grupo 56921" transform="translate(216.275 160.104)">
          <rect id="Rectángulo_11902" data-name="Rectángulo 11902" width="2.019" height="2.019" fill="#284d89"/>
          <rect id="Rectángulo_11903" data-name="Rectángulo 11903" width="2.019" height="2.019" transform="translate(6.924)" fill="#284d89"/>
          <rect id="Rectángulo_11904" data-name="Rectángulo 11904" width="2.019" height="2.019" transform="translate(13.847)" fill="#284d89"/>
        </g>
        <g id="Grupo_56922" data-name="Grupo 56922" transform="translate(408.452 230.83)">
          <rect id="Rectángulo_11905" data-name="Rectángulo 11905" width="3.365" height="3.366" fill="#fff"/>
          <rect id="Rectángulo_11906" data-name="Rectángulo 11906" width="3.366" height="3.366" transform="translate(11.539)" fill="#fff"/>
          <rect id="Rectángulo_11907" data-name="Rectángulo 11907" width="3.366" height="3.366" transform="translate(23.079)" fill="#fff"/>
        </g>
        <g id="Grupo_56923" data-name="Grupo 56923" transform="translate(457.031 97.089)">
          <rect id="Rectángulo_11908" data-name="Rectángulo 11908" width="6.311" height="6.311" fill="#fff"/>
          <rect id="Rectángulo_11909" data-name="Rectángulo 11909" width="6.311" height="6.311" transform="translate(21.636)" fill="#fff"/>
          <rect id="Rectángulo_11910" data-name="Rectángulo 11910" width="6.311" height="6.311" transform="translate(43.272)" fill="#fff"/>
        </g>
        <g id="Grupo_56924" data-name="Grupo 56924" transform="translate(367.602 357.877)">
          <rect id="Rectángulo_11911" data-name="Rectángulo 11911" width="6.311" height="6.311" fill="#fff"/>
          <rect id="Rectángulo_11912" data-name="Rectángulo 11912" width="6.311" height="6.311" transform="translate(21.636)" fill="#fff"/>
          <rect id="Rectángulo_11913" data-name="Rectángulo 11913" width="6.311" height="6.311" transform="translate(43.272)" fill="#fff"/>
        </g>
        <g id="Grupo_56925" data-name="Grupo 56925" transform="translate(102.854 183.135)">
          <rect id="Rectángulo_11914" data-name="Rectángulo 11914" width="3.365" height="3.366" fill="#fff"/>
          <rect id="Rectángulo_11915" data-name="Rectángulo 11915" width="3.366" height="3.366" transform="translate(11.539)" fill="#fff"/>
          <rect id="Rectángulo_11916" data-name="Rectángulo 11916" width="3.366" height="3.366" transform="translate(23.078)" fill="#fff"/>
        </g>
        <g id="Grupo_56926" data-name="Grupo 56926" transform="translate(518.748 179)">
          <rect id="Rectángulo_11917" data-name="Rectángulo 11917" width="55.965" height="5.481" fill="#fff"/>
          <rect id="Rectángulo_11918" data-name="Rectángulo 11918" width="16.608" height="5.481" transform="translate(0 9.664)" fill="#287dd1"/>
        </g>
        <path id="Trazado_102945" data-name="Trazado 102945" d="M108.021,238.677H95.9V226.561H84.654v12.116H72.538v11.251H84.654v12.116H95.9V249.928h12.116Z" transform="translate(-40.747 -48.426)" fill="#1ae5ff"/>
        <path id="Trazado_102946" data-name="Trazado 102946" d="M82.073,259.018H74.685V251.63h-6.86v7.388H60.437v6.86h7.388v7.388h6.86v-7.388h7.388Z" transform="translate(-47.221 -35.015)" fill="#2889db"/>
        <g id="Grupo_56927" data-name="Grupo 56927" transform="translate(218.115 217.552)">
          <path id="Trazado_102947" data-name="Trazado 102947" d="M212.872,252.24a18.948,18.948,0,1,0,18.948,18.948A18.949,18.949,0,0,0,212.872,252.24Zm0,28.823a9.875,9.875,0,1,1,9.873-9.875A9.874,9.874,0,0,1,212.872,281.063Z" transform="translate(-193.922 -252.24)" fill="#284d89"/>
          <path id="Trazado_102948" data-name="Trazado 102948" d="M199.459,269.32a4.639,4.639,0,0,0,4.1-2.614,9.868,9.868,0,0,1,17.59,0,4.639,4.639,0,0,0,4.1,2.614h0a4.53,4.53,0,0,0,4.126-6.452,18.951,18.951,0,0,0-34.051,0,4.53,4.53,0,0,0,4.128,6.452Z" transform="translate(-193.408 -252.24)" fill="#289df2"/>
        </g>
        <g id="Grupo_56928" data-name="Grupo 56928" transform="translate(268.888 217.552)">
          <path id="Trazado_102949" data-name="Trazado 102949" d="M227,271.188a18.948,18.948,0,1,0,18.948-18.948A18.948,18.948,0,0,0,227,271.188Zm28.823,0a9.874,9.874,0,1,1-9.875-9.875A9.874,9.874,0,0,1,255.822,271.188Z" transform="translate(-226.999 -252.24)" fill="#284d89"/>
          <path id="Trazado_102950" data-name="Trazado 102950" d="M244.08,283.573a4.64,4.64,0,0,0-2.616-4.1,9.869,9.869,0,0,1,0-17.589,4.642,4.642,0,0,0,2.616-4.1h0a4.531,4.531,0,0,0-6.453-4.126,18.949,18.949,0,0,0,0,34.049,4.53,4.53,0,0,0,6.453-4.126Z" transform="translate(-226.999 -251.727)" fill="#ffa726"/>
        </g>
        <rect id="Rectángulo_11919" data-name="Rectángulo 11919" width="34.618" height="83.083" transform="translate(148.338 161.691)" fill="none" stroke="#289df2" stroke-miterlimit="10" stroke-width="1.128"/>
        <g id="Grupo_56929" data-name="Grupo 56929" transform="translate(153.242 177.702)">
          <rect id="Rectángulo_11920" data-name="Rectángulo 11920" width="10.097" height="2.984" fill="#1ae5ff"/>
          <rect id="Rectángulo_11921" data-name="Rectángulo 11921" width="10.097" height="2.984" transform="translate(0 6.657)" fill="#1ae5ff"/>
          <rect id="Rectángulo_11922" data-name="Rectángulo 11922" width="10.097" height="2.984" transform="translate(0 13.315)" fill="#1ae5ff"/>
          <rect id="Rectángulo_11923" data-name="Rectángulo 11923" width="10.097" height="2.984" transform="translate(0 47.933)" fill="#1ae5ff"/>
        </g>
        <g id="Grupo_56930" data-name="Grupo 56930" transform="translate(153.242 200.78)">
          <rect id="Rectángulo_11924" data-name="Rectángulo 11924" width="14.713" height="2.984" fill="#1ae5ff"/>
          <rect id="Rectángulo_11925" data-name="Rectángulo 11925" width="14.713" height="2.984" transform="translate(0 6.657)" fill="#fff"/>
          <rect id="Rectángulo_11926" data-name="Rectángulo 11926" width="14.713" height="2.984" transform="translate(0 13.315)" fill="#fff"/>
        </g>
        <rect id="Rectángulo_11927" data-name="Rectángulo 11927" width="43.849" height="43.849" transform="translate(24.291 265.544)" fill="#289df2"/>
        <rect id="Rectángulo_11928" data-name="Rectángulo 11928" width="43.849" height="43.849" transform="translate(1.212 275.93)" fill="none" stroke="#289df2" stroke-miterlimit="10" stroke-width="1.128"/>
        <rect id="Rectángulo_11929" data-name="Rectángulo 11929" width="18.463" height="18.463" transform="translate(545.865 392.476)" fill="none" stroke="#289df2" stroke-miterlimit="10" stroke-width="1.128"/>
        <g id="Grupo_56931" data-name="Grupo 56931" transform="translate(315.224 353.387)">
          <path id="Trazado_102951" data-name="Trazado 102951" d="M263.105,349.026h15.578l8.654,8.654h90.006l13.847-13.847h48.465" transform="translate(-254.018 -339.073)" fill="none" stroke="#fff" stroke-miterlimit="10" stroke-width="1.128"/>
          <circle id="Elipse_4092" data-name="Elipse 4092" cx="4.544" cy="4.544" r="4.544" transform="translate(0 5.625)" fill="none" stroke="#fff" stroke-miterlimit="10" stroke-width="1.128"/>
          <circle id="Elipse_4093" data-name="Elipse 4093" cx="4.544" cy="4.544" r="4.544" transform="translate(185.782)" fill="none" stroke="#fff" stroke-miterlimit="10" stroke-width="1.128"/>
        </g>
        <path id="Trazado_102952" data-name="Trazado 102952" d="M424.993,190.045a5.769,5.769,0,1,1-5.77-5.77A5.77,5.77,0,0,1,424.993,190.045Z" transform="translate(141.642 -71.049)" fill="#289df2"/>
        <path id="Trazado_102953" data-name="Trazado 102953" d="M77.687,336.634a5.769,5.769,0,1,1-5.769-5.768A5.769,5.769,0,0,1,77.687,336.634Z" transform="translate(-44.165 7.376)" fill="#ffa726"/>
        <path id="Trazado_102954" data-name="Trazado 102954" d="M97.994,352.051a10.1,10.1,0,1,1-10.1-10.1A10.1,10.1,0,0,1,97.994,352.051Z" transform="translate(-37.931 13.308)" fill="#ffa726"/>
        <g id="Grupo_56932" data-name="Grupo 56932" transform="translate(363.545 399.4)">
          <rect id="Rectángulo_11930" data-name="Rectángulo 11930" width="40.387" height="9.231" fill="none" stroke="#289df2" stroke-miterlimit="10" stroke-width="1.128"/>
          <rect id="Rectángulo_11931" data-name="Rectángulo 11931" width="88.564" height="9.231" transform="translate(0 17.309)" fill="none" stroke="#289df2" stroke-miterlimit="10" stroke-width="1.128"/>
        </g>
        <g id="Grupo_56933" data-name="Grupo 56933" transform="translate(106.34 408.241)">
          <line id="Línea_197" data-name="Línea 197" x1="9.789" y2="9.789" fill="none" stroke="#289df2" stroke-linecap="round" stroke-linejoin="round" stroke-width="1.128"/>
          <line id="Línea_198" data-name="Línea 198" x1="9.789" y2="9.789" transform="translate(9.412)" fill="none" stroke="#289df2" stroke-linecap="round" stroke-linejoin="round" stroke-width="1.128"/>
          <line id="Línea_199" data-name="Línea 199" x1="9.789" y2="9.789" transform="translate(18.824)" fill="none" stroke="#289df2" stroke-linecap="round" stroke-linejoin="round" stroke-width="1.128"/>
          <line id="Línea_200" data-name="Línea 200" x1="9.789" y2="9.789" transform="translate(28.236)" fill="none" stroke="#289df2" stroke-linecap="round" stroke-linejoin="round" stroke-width="1.128"/>
          <line id="Línea_201" data-name="Línea 201" x1="9.789" y2="9.789" transform="translate(37.648)" fill="none" stroke="#289df2" stroke-linecap="round" stroke-linejoin="round" stroke-width="1.128"/>
        </g>
      </g>
    </g>
  </g>
</svg>
