<svg xmlns="http://www.w3.org/2000/svg" xmlns:xlink="http://www.w3.org/1999/xlink" width="820" height="601.482" viewBox="0 0 820 601.482">
  <defs>
    <clipPath id="clip-path">
      <path id="Trazado_102996" data-name="Trazado 102996" d="M386.759,200.261s8.547,1.58,13.047,4.015,38.964,38.817,39.885,42.868a37.116,37.116,0,0,0,5.373,11.807c1.84,2.411,7.734,9.592,8.133,12.575s-.794,5.42-2.212,3.333-4.725-6.959-7.26-8.9-10.343-3.553-10.343-3.553a37.936,37.936,0,0,1-.545,7.284c-.67,3.506-3.3,6.514-3.553,4.65a49.941,49.941,0,0,1-.551-9.794c.3-3.455.247-9.52.247-9.52L430,248.44s-22.8-14.412-31.378-18.958-16.46-9.565-16.46-9.565l-5.369-.421s.245-9.52,3.526-13.375A32.114,32.114,0,0,1,386.759,200.261Z" transform="translate(-376.792 -200.261)" fill="#fff" stroke="#263238" stroke-linecap="round" stroke-linejoin="round" stroke-width="1"/>
    </clipPath>
    <clipPath id="clip-path-2">
      <path id="Trazado_103007" data-name="Trazado 103007" d="M330.088,212.1c-20.315,6.473-19.308,6.339-19.308,6.339l-29.491,4.282,13.031,25.929,34.348,3.95s33.62,31.719,39.929,32.926,10.027,8.566,10.027,8.566-2.483,4.431.852,6.377,8.169,2.325,18.394-.408,24.811-11.174,31.612-16.523,16.532-11.776,13.443-14.438-9.153-4.583-9.153-4.583l-31.358-32.7,25.888,2.006s-.295-14.991.084-19.825,6.574-12.152,6.574-12.152-33.117-2.406-42.538-3.881-18.571-.934-22.42.946-21.322,6.609-22.328,6.743S330.088,212.1,330.088,212.1Z" transform="translate(-281.289 -197.12)" fill="#fff" stroke="#263238" stroke-miterlimit="10" stroke-width="1"/>
    </clipPath>
    <clipPath id="clip-path-3">
      <path id="Trazado_103016" data-name="Trazado 103016" d="M314.747,215.188s3.628,11.813,4.3,16.848-1.764,9.8,1.211,9.061,2.862-9.264,2.862-9.264l10.9,2.3,4.83-9.869s8.93,8.031,8.729,3.957-9.383-21.635-9.921-25.661-5.462-5.078-8.84-2.236S314.747,215.188,314.747,215.188Z" transform="translate(-314.747 -198.722)" fill="#fff" stroke="#263238" stroke-miterlimit="10" stroke-width="1"/>
    </clipPath>
    <clipPath id="clip-path-4">
      <path id="Trazado_103021" data-name="Trazado 103021" d="M305.511,214.792a94.831,94.831,0,0,0,10.5,4.4c3.917,1.186,23.346,23.869,22.673,18.834s-1.932-24.68-3.231-29.289a123.539,123.539,0,0,0-5.151-12.977s3.131-2.126-1.926-4.183-8.971,1.882-8.7,3.9.853,6.377-.445,6.892S305.511,214.792,305.511,214.792Z" transform="translate(-305.511 -191.004)" fill="#fff" stroke="#263238" stroke-miterlimit="10" stroke-width="1"/>
    </clipPath>
    <clipPath id="clip-path-5">
      <path id="Trazado_103032" data-name="Trazado 103032" d="M297.954,178.42s-3.071,10.707-2.457,12.284a35.428,35.428,0,0,1,1.389,5.282l-4.182,7.05s.694,2.639,2.081,2.8,4.723,2.1,4.723,2.1,4.031,14.833,5.464,15.325,4.722,2.1,5.975,1.252,16.532-11.776,18.366-13.387,1.092-9.711,1.092-9.711,4.7-5.751,2.817-9.6-6.154-2.594-7.474.316-1.81,4.341-1.81,4.341-3.267,1.12-3.872-.849l-.6-1.97s-5.707-4.361-5.841-5.367,1.876-11.525,1.876-11.525Z" transform="translate(-292.704 -176.759)" fill="#fff" stroke="#263238" stroke-miterlimit="10" stroke-width="1"/>
    </clipPath>
  </defs>
  <g id="Grupo_57070" data-name="Grupo 57070" transform="translate(-469 -751)">
    <rect id="dylan-shaw-UxyWwU6n_ts-unsplash" width="820" height="601.482" transform="translate(469 751)" fill="#4dd0e1"/>
    <g id="Grupo_56973" data-name="Grupo 56973" transform="translate(533.116 716.155)">
      <g id="Background_Simple" data-name="Background Simple" transform="translate(53.884 58.845)">
        <g id="Grupo_56937" data-name="Grupo 56937">
          <path id="Trazado_102955" data-name="Trazado 102955" d="M578.786,218.251c-9.091-7.385-18.719-14.152-27.777-21.584-42.776-35.1-67.133-87.064-116.091-115.026C382.849,51.9,315.345,51.269,262.035,79.688c-59.3,31.612-79.379,100.672-127.393,145.341-74.393,69.212-100,147.076-65.857,215.051C93.56,489.4,158.691,519.633,207,538.272c60,23.15,120.289,67.909,185.365,73.509,55.45,4.771,111.351-21.955,137.416-72.826,14.8-28.886,41.763-47.582,64.067-69.964,58.733-58.941,56.708-171.206,3.623-233.005A143.754,143.754,0,0,0,578.786,218.251Z" transform="translate(-53.884 -58.845)" fill="#4dd0e1"/>
          <path id="Trazado_102956" data-name="Trazado 102956" d="M578.786,218.251c-9.091-7.385-18.719-14.152-27.777-21.584-42.776-35.1-67.133-87.064-116.091-115.026C382.849,51.9,315.345,51.269,262.035,79.688c-59.3,31.612-79.379,100.672-127.393,145.341-74.393,69.212-100,147.076-65.857,215.051C93.56,489.4,158.691,519.633,207,538.272c60,23.15,120.289,67.909,185.365,73.509,55.45,4.771,111.351-21.955,137.416-72.826,14.8-28.886,41.763-47.582,64.067-69.964,58.733-58.941,56.708-171.206,3.623-233.005A143.754,143.754,0,0,0,578.786,218.251Z" transform="translate(-53.884 -58.845)" fill="#fff" opacity="0.7"/>
        </g>
      </g>
      <g id="Device" transform="translate(53.884 136.202)">
        <g id="Grupo_56948" data-name="Grupo 56948">
          <path id="Trazado_102957" data-name="Trazado 102957" d="M276.445,536.055,183.527,128.139c-14.687,21.9-29.512,43.9-48.885,61.917-74.393,69.212-100,147.076-65.857,215.051C93.56,454.427,158.691,484.66,207,503.3,230.022,512.181,253.086,524.243,276.445,536.055Z" transform="translate(-53.884 -101.229)" opacity="0.1"/>
          <g id="Grupo_56947" data-name="Grupo 56947" transform="translate(63.805)">
            <g id="Grupo_56938" data-name="Grupo 56938">
              <path id="Trazado_102958" data-name="Trazado 102958" d="M370.118,521.84,186.741,537.025c-5.277.438-10.521-3.956-11.713-9.814l-78-383.783c-1.19-5.858-3.589-16.866,17.709-17.889L300.2,111.2c5.277-.438,10.521,3.957,11.711,9.814L391.1,505.444C392.246,510.6,386.476,521.427,370.118,521.84Z" transform="translate(-96.287 -109.792)" fill="#263238" stroke="#263238" stroke-linecap="round" stroke-linejoin="round" stroke-width="1"/>
              <path id="Trazado_102959" data-name="Trazado 102959" d="M379.285,515.28,195.909,530.467c-5.279.436-10.522-3.957-11.713-9.815l-78-383.783c-1.19-5.858,2.123-10.96,7.4-11.4L296.97,110.285c5.279-.436,10.522,3.957,11.713,9.814l78,383.785C387.876,509.74,384.563,514.844,379.285,515.28Z" transform="translate(-91.411 -110.255)" fill="#fff" stroke="#263238" stroke-linecap="round" stroke-linejoin="round" stroke-width="1"/>
              <path id="Trazado_102960" data-name="Trazado 102960" d="M194.075,132.556l-25.207,2.087a3.2,3.2,0,0,1-3.169-2.654h0a2.409,2.409,0,0,1,2-3.083l25.208-2.089a3.2,3.2,0,0,1,3.169,2.656h0A2.409,2.409,0,0,1,194.075,132.556Z" transform="translate(-61.288 -101.9)" fill="#263238"/>
              <path id="Trazado_102961" data-name="Trazado 102961" d="M363.365,471.022l-176.9,14.65L116.495,141.4l41.93-3.471,5.6,3.953a9.7,9.7,0,0,0,6.342,1.863l73.979-6.127a7.669,7.669,0,0,0,5.546-3.037l3.419-4.51,40.082-3.319Z" transform="translate(-86.088 -101.93)" fill="#4dd0e1" stroke="#263238" stroke-linecap="round" stroke-linejoin="round" stroke-width="1"/>
              <path id="Trazado_102962" data-name="Trazado 102962" d="M229.7,368.544a4.974,4.974,0,0,0-4.926-4.129c-2.219.184-3.614,2.331-3.113,4.794a4.976,4.976,0,0,0,4.926,4.129C228.806,373.155,230.2,371.007,229.7,368.544Z" transform="translate(-33.063 18.015)" fill="#263238"/>
            </g>
            <g id="Grupo_56945" data-name="Grupo 56945" transform="translate(52.54 70.282)">
              <g id="Grupo_56939" data-name="Grupo 56939">
                <path id="Trazado_102963" data-name="Trazado 102963" d="M160.872,196.464l-18.9,1.565c-2.869.238-5.722-2.152-6.369-5.339l-4.264-20.976c-.647-3.185,1.156-5.962,4.027-6.2l18.9-1.565c2.871-.238,5.722,2.152,6.371,5.337l4.263,20.977C165.544,193.45,163.743,196.226,160.872,196.464Z" transform="translate(-131.205 -153.445)" fill="#fff" stroke="#fff" stroke-miterlimit="10" stroke-width="1"/>
                <path id="Trazado_102964" data-name="Trazado 102964" d="M188.932,194.14l-18.9,1.565c-2.871.238-5.724-2.152-6.371-5.337L159.4,169.391c-.649-3.185,1.154-5.962,4.025-6.2l18.9-1.565c2.871-.238,5.724,2.152,6.371,5.339l4.263,20.976C193.605,191.126,191.8,193.9,188.932,194.14Z" transform="translate(-117.042 -154.618)" fill="#fff" stroke="#fff" stroke-miterlimit="10" stroke-width="1"/>
                <path id="Trazado_102965" data-name="Trazado 102965" d="M216.992,191.816l-18.9,1.565c-2.871.239-5.722-2.152-6.371-5.337l-4.263-20.977c-.649-3.185,1.154-5.96,4.025-6.2l18.9-1.566c2.87-.238,5.722,2.153,6.369,5.339l4.264,20.976C221.665,188.8,219.863,191.578,216.992,191.816Z" transform="translate(-102.88 -155.791)" fill="#fff" stroke="#fff" stroke-miterlimit="10" stroke-width="1"/>
                <path id="Trazado_102966" data-name="Trazado 102966" d="M245.053,189.492l-18.9,1.566c-2.871.238-5.722-2.153-6.371-5.339l-4.263-20.977c-.647-3.185,1.154-5.96,4.025-6.2l18.9-1.565c2.871-.239,5.722,2.152,6.369,5.337l4.264,20.977C249.725,186.479,247.923,189.254,245.053,189.492Z" transform="translate(-88.718 -156.963)" fill="#fff" stroke="#fff" stroke-miterlimit="10" stroke-width="1"/>
              </g>
              <g id="Grupo_56940" data-name="Grupo 56940" transform="translate(9.806 48.246)">
                <path id="Trazado_102967" data-name="Trazado 102967" d="M167.389,228.527l-18.9,1.565c-2.871.238-5.722-2.152-6.369-5.337l-4.264-20.977c-.647-3.185,1.156-5.96,4.025-6.2l18.9-1.565c2.871-.238,5.722,2.153,6.371,5.339l4.263,20.976C172.061,225.515,170.258,228.289,167.389,228.527Z" transform="translate(-137.722 -185.508)" fill="#fff" stroke="#fff" stroke-miterlimit="10" stroke-width="1"/>
                <path id="Trazado_102968" data-name="Trazado 102968" d="M195.449,226.2l-18.9,1.566c-2.869.238-5.722-2.153-6.369-5.339l-4.264-20.977c-.647-3.185,1.156-5.96,4.027-6.2l18.9-1.566c2.871-.238,5.722,2.153,6.371,5.339l4.263,20.977C200.121,223.191,198.32,225.965,195.449,226.2Z" transform="translate(-123.559 -186.681)" fill="#fff" stroke="#fff" stroke-miterlimit="10" stroke-width="1"/>
                <path id="Trazado_102969" data-name="Trazado 102969" d="M251.569,221.556l-18.9,1.565c-2.871.238-5.722-2.152-6.371-5.339l-4.263-20.976c-.647-3.185,1.154-5.962,4.025-6.2l18.9-1.565c2.869-.238,5.722,2.152,6.369,5.337l4.264,20.977C256.242,218.542,254.44,221.318,251.569,221.556Z" transform="translate(-95.235 -189.026)" fill="#fff" stroke="#fff" stroke-miterlimit="10" stroke-width="1"/>
              </g>
              <g id="Grupo_56941" data-name="Grupo 56941" transform="translate(19.612 96.491)">
                <path id="Trazado_102970" data-name="Trazado 102970" d="M173.9,260.591,155,262.156c-2.871.238-5.722-2.153-6.371-5.339l-4.263-20.976c-.647-3.187,1.154-5.962,4.025-6.2l18.9-1.565c2.871-.238,5.722,2.152,6.369,5.337l4.264,20.977C178.578,257.577,176.776,260.352,173.9,260.591Z" transform="translate(-144.239 -217.57)" fill="#fff" stroke="#fff" stroke-miterlimit="10" stroke-width="1"/>
                <path id="Trazado_102971" data-name="Trazado 102971" d="M201.966,258.267l-18.9,1.565c-2.871.238-5.722-2.152-6.369-5.339l-4.264-20.976c-.647-3.185,1.156-5.962,4.025-6.2l18.9-1.565c2.871-.238,5.722,2.152,6.371,5.337l4.263,20.977C206.638,255.253,204.837,258.029,201.966,258.267Z" transform="translate(-130.076 -218.743)" fill="#fff" stroke="#fff" stroke-miterlimit="10" stroke-width="1"/>
                <path id="Trazado_102972" data-name="Trazado 102972" d="M230.026,255.943l-18.9,1.565c-2.869.238-5.722-2.152-6.369-5.337l-4.264-20.977c-.647-3.185,1.156-5.962,4.027-6.2l18.9-1.565c2.871-.238,5.722,2.152,6.371,5.339l4.263,20.976C234.7,252.929,232.9,255.705,230.026,255.943Z" transform="translate(-115.914 -219.916)" fill="#fff" stroke="#fff" stroke-miterlimit="10" stroke-width="1"/>
                <path id="Trazado_102973" data-name="Trazado 102973" d="M258.086,253.619l-18.9,1.565c-2.871.238-5.724-2.152-6.371-5.337l-4.263-20.977c-.649-3.185,1.154-5.962,4.025-6.2l18.9-1.566c2.871-.238,5.724,2.152,6.371,5.339l4.263,20.976C262.759,250.607,260.957,253.381,258.086,253.619Z" transform="translate(-101.752 -221.089)" fill="#fff" stroke="#fff" stroke-miterlimit="10" stroke-width="1"/>
              </g>
              <g id="Grupo_56942" data-name="Grupo 56942" transform="translate(29.418 144.738)">
                <path id="Trazado_102974" data-name="Trazado 102974" d="M180.422,292.654l-18.9,1.565c-2.871.238-5.724-2.152-6.371-5.337L150.887,267.9c-.649-3.185,1.154-5.962,4.025-6.2l18.9-1.565c2.869-.238,5.722,2.152,6.369,5.339l4.263,20.976C185.1,289.64,183.293,292.416,180.422,292.654Z" transform="translate(-150.755 -249.635)" fill="#fff" stroke="#fff" stroke-miterlimit="10" stroke-width="1"/>
                <path id="Trazado_102975" data-name="Trazado 102975" d="M208.482,290.33l-18.9,1.565c-2.871.238-5.722-2.152-6.371-5.337l-4.263-20.977c-.647-3.185,1.154-5.962,4.025-6.2l18.9-1.565c2.871-.238,5.722,2.152,6.369,5.339l4.264,20.976C213.155,287.318,211.353,290.092,208.482,290.33Z" transform="translate(-136.593 -250.808)" fill="#fff" stroke="#fff" stroke-miterlimit="10" stroke-width="1"/>
                <path id="Trazado_102976" data-name="Trazado 102976" d="M236.543,288.006l-18.9,1.566c-2.871.236-5.722-2.153-6.369-5.339l-4.264-20.977c-.647-3.185,1.156-5.96,4.025-6.2l18.9-1.566c2.871-.238,5.722,2.153,6.371,5.339l4.263,20.977C241.215,284.994,239.414,287.768,236.543,288.006Z" transform="translate(-122.431 -251.981)" fill="#fff" stroke="#fff" stroke-miterlimit="10" stroke-width="1"/>
                <path id="Trazado_102977" data-name="Trazado 102977" d="M264.6,285.682l-18.9,1.566c-2.869.238-5.722-2.153-6.369-5.339l-4.264-20.976c-.647-3.187,1.156-5.962,4.027-6.2l18.9-1.565c2.871-.239,5.722,2.152,6.371,5.337l4.263,20.977C269.277,282.669,267.474,285.444,264.6,285.682Z" transform="translate(-108.269 -253.153)" fill="#fff" stroke="#fff" stroke-miterlimit="10" stroke-width="1"/>
              </g>
              <g id="Grupo_56943" data-name="Grupo 56943" transform="translate(39.224 192.983)">
                <path id="Trazado_102978" data-name="Trazado 102978" d="M186.939,324.717l-18.9,1.565c-2.871.238-5.724-2.152-6.371-5.337L157.4,299.968c-.649-3.185,1.154-5.96,4.025-6.2l18.9-1.565c2.871-.238,5.724,2.153,6.371,5.339l4.263,20.976C191.612,321.7,189.81,324.479,186.939,324.717Z" transform="translate(-157.272 -281.698)" fill="#fff" stroke="#fff" stroke-miterlimit="10" stroke-width="1"/>
                <path id="Trazado_102979" data-name="Trazado 102979" d="M215,322.393l-18.9,1.566c-2.871.238-5.724-2.153-6.371-5.339l-4.263-20.977c-.649-3.185,1.154-5.96,4.025-6.2l18.9-1.566c2.869-.236,5.722,2.153,6.369,5.339l4.264,20.977C219.672,319.381,217.87,322.155,215,322.393Z" transform="translate(-143.11 -282.871)" fill="#fff" stroke="#fff" stroke-miterlimit="10" stroke-width="1"/>
                <path id="Trazado_102980" data-name="Trazado 102980" d="M243.06,320.07l-18.9,1.565c-2.871.238-5.722-2.152-6.371-5.339l-4.263-20.976c-.647-3.187,1.154-5.962,4.025-6.2l18.9-1.565c2.871-.238,5.722,2.152,6.369,5.337l4.264,20.977C247.732,317.056,245.93,319.832,243.06,320.07Z" transform="translate(-128.948 -284.043)" fill="#fff" stroke="#fff" stroke-miterlimit="10" stroke-width="1"/>
                <path id="Trazado_102981" data-name="Trazado 102981" d="M271.12,317.746l-18.9,1.565c-2.871.238-5.722-2.152-6.369-5.339L241.584,293c-.647-3.185,1.156-5.962,4.025-6.2l18.9-1.565c2.871-.238,5.722,2.152,6.371,5.337l4.263,20.977C275.792,314.732,273.991,317.508,271.12,317.746Z" transform="translate(-114.786 -285.216)" fill="#fff" stroke="#fff" stroke-miterlimit="10" stroke-width="1"/>
              </g>
              <g id="Grupo_56944" data-name="Grupo 56944" transform="translate(49.029 241.229)">
                <path id="Trazado_102982" data-name="Trazado 102982" d="M193.456,356.781l-18.9,1.565c-2.869.238-5.722-2.153-6.369-5.339l-4.264-20.976c-.647-3.187,1.156-5.962,4.027-6.2l18.9-1.565c2.871-.238,5.722,2.152,6.371,5.337l4.263,20.977C198.128,353.767,196.327,356.542,193.456,356.781Z" transform="translate(-163.789 -313.76)" fill="#263238"/>
                <path id="Trazado_102983" data-name="Trazado 102983" d="M221.516,354.457l-18.9,1.565c-2.871.238-5.724-2.152-6.371-5.339l-4.263-20.976c-.649-3.187,1.154-5.962,4.025-6.2l18.9-1.565c2.871-.238,5.724,2.152,6.371,5.337l4.263,20.977C226.189,351.443,224.387,354.219,221.516,354.457Z" transform="translate(-149.626 -314.933)" fill="#263238"/>
                <path id="Trazado_102984" data-name="Trazado 102984" d="M249.576,352.133l-18.9,1.565c-2.871.238-5.722-2.152-6.371-5.337l-4.263-20.977c-.649-3.185,1.154-5.962,4.025-6.2l18.9-1.565c2.87-.238,5.722,2.152,6.369,5.339l4.264,20.976C254.249,349.119,252.447,351.9,249.576,352.133Z" transform="translate(-135.464 -316.106)" fill="#263238"/>
                <path id="Trazado_102985" data-name="Trazado 102985" d="M277.637,349.809l-18.9,1.565c-2.871.238-5.722-2.152-6.371-5.337L248.1,325.06c-.647-3.185,1.154-5.962,4.025-6.2l18.9-1.566c2.871-.238,5.722,2.153,6.369,5.339l4.264,20.976C282.309,346.8,280.507,349.571,277.637,349.809Z" transform="translate(-121.302 -317.279)" fill="#263238"/>
              </g>
            </g>
            <g id="Grupo_56946" data-name="Grupo 56946" transform="translate(129.344 104.428)">
              <path id="Trazado_102986" data-name="Trazado 102986" d="M242.519,245.746l-38.4,3.179c-5.832.483-11.625-4.373-12.942-10.844l-8.661-42.616c-1.315-6.473,2.346-12.111,8.178-12.594l38.4-3.181c5.832-.483,11.625,4.373,12.942,10.846l8.661,42.616C252.013,239.625,248.352,245.263,242.519,245.746Z" transform="translate(-182.247 -179.656)" fill="none" stroke="#263238" stroke-miterlimit="10" stroke-width="0.25"/>
              <path id="Trazado_102987" data-name="Trazado 102987" d="M237.022,239.423l-32.762,2.713c-4.976.412-9.919-3.73-11.042-9.252l-7.39-36.36c-1.122-5.522,2-10.333,6.977-10.745l32.762-2.713c4.976-.411,9.919,3.73,11.042,9.254L244,228.678C245.122,234.2,242,239.01,237.022,239.423Z" transform="translate(-180.555 -177.949)" fill="none" stroke="#263238" stroke-miterlimit="10" stroke-width="0.5"/>
              <path id="Trazado_102988" data-name="Trazado 102988" d="M229.765,231.076l-25.318,2.1c-3.846.319-7.667-2.883-8.533-7.15l-5.71-28.1c-.868-4.267,1.547-7.985,5.391-8.3l25.318-2.1c3.846-.318,7.666,2.883,8.533,7.15l5.71,28.1C236.025,227.04,233.61,230.757,229.765,231.076Z" transform="translate(-178.321 -175.696)" fill="none" stroke="#263238" stroke-miterlimit="10" stroke-width="0.75"/>
              <path id="Trazado_102989" data-name="Trazado 102989" d="M223.509,223.879l-18.9,1.566c-2.871.238-5.724-2.153-6.371-5.339l-4.263-20.976c-.649-3.187,1.154-5.962,4.025-6.2l18.9-1.565c2.871-.238,5.724,2.152,6.371,5.337l4.263,20.977C228.182,220.866,226.38,223.641,223.509,223.879Z" transform="translate(-176.395 -173.754)" fill="#263238"/>
            </g>
          </g>
        </g>
      </g>
      <g id="Character" transform="translate(281.751 204.111)">
        <g id="Grupo_56965" data-name="Grupo 56965">
          <path id="Trazado_102990" data-name="Trazado 102990" d="M452.587,169.526c-5.978-4.857-12.181-9.454-18.308-14.14l-130.35,19.662,10.366,48.372,84.074,80.619-28.793,89.833,58.766,63.387c12.561-12.828,26.678-24.321,39.307-36.993,58.733-58.941,56.708-171.206,3.623-233.005A143.754,143.754,0,0,0,452.587,169.526Z" transform="translate(-155.551 -155.386)" opacity="0.1"/>
          <g id="Grupo_56964" data-name="Grupo 56964" transform="translate(0 13.791)">
            <path id="Trazado_102991" data-name="Trazado 102991" d="M323.258,222.651s-69.1-16.045-72.974-16.893-19.871-5.543-23.607-5.385-17.163,1.952-19.713,3.318-1.7,2.618-.357,2.439,14.1-1.885,14.1-1.885l7.385,4.138s-4.556,4.457-4.808,7.475c-.63,7.546-.468,9.286,1.21,9.061s1.9-8.794,1.9-8.794l1.252-.852,1.189,6.332s1.63,2.189,2.543-.292c.636-1.726-.621-5.772-.621-5.772l2.462-2.037s.627,5.254,1.813,5.907c.981.539,1.843,0,1.709-1.005s-.728-4.908-.728-4.908l4.365-2.659S310.6,240.4,317.914,241.47a42.174,42.174,0,0,0,14.9-.966Z" transform="translate(-205.32 -146.474)" fill="#fff" stroke="#263238" stroke-linecap="round" stroke-linejoin="round" stroke-width="1"/>
            <path id="Trazado_102992" data-name="Trazado 102992" d="M419.2,242.444s-4.7,7.459-3.477,8.056,6.114-5.372,6.114-5.372l-2.409,7.533s-.174,1.541,2.609-.349,2.137-6.737,2.137-6.737l.3,7.93s-1.888,2.909.722,2.56,2.931-6.464,2.683-8.329-1.717-4.325-3.085-6.04S419.7,240.48,419.2,242.444Z" transform="translate(-99.228 -126.143)" fill="#fff" stroke="#263238" stroke-linecap="round" stroke-linejoin="round" stroke-width="1"/>
            <g id="Grupo_56950" data-name="Grupo 56950" transform="translate(258.015 53.733)">
              <path id="Trazado_102993" data-name="Trazado 102993" d="M386.759,200.261s8.547,1.58,13.047,4.015,38.964,38.817,39.885,42.868a37.116,37.116,0,0,0,5.373,11.807c1.84,2.411,7.734,9.592,8.133,12.575s-.794,5.42-2.212,3.333-4.725-6.959-7.26-8.9-10.343-3.553-10.343-3.553a37.936,37.936,0,0,1-.545,7.284c-.67,3.506-3.3,6.514-3.553,4.65a49.941,49.941,0,0,1-.551-9.794c.3-3.455.247-9.52.247-9.52L430,248.44s-22.8-14.412-31.378-18.958-16.46-9.565-16.46-9.565l-5.369-.421s.245-9.52,3.526-13.375A32.114,32.114,0,0,1,386.759,200.261Z" transform="translate(-376.792 -200.261)" fill="#fff"/>
              <g id="Grupo_56949" data-name="Grupo 56949" clip-path="url(#clip-path)">
                <path id="Trazado_102994" data-name="Trazado 102994" d="M439.692,247.143c-.921-4.051-35.385-40.433-39.885-42.868s-13.047-4.015-13.047-4.015a32.114,32.114,0,0,0-6.442,5.859c-3.28,3.855-3.526,13.375-3.526,13.375l5.369.421s1.023.65,2.715,1.685l3.947-11.4s38.328,28.746,42.16,32.1,7.957,9.219,11.021,12.936a24.7,24.7,0,0,0,1.943,2.027A38.341,38.341,0,0,1,439.692,247.143Z" transform="translate(-376.792 -200.261)" fill="#4dd0e1"/>
                <path id="Trazado_102995" data-name="Trazado 102995" d="M439.692,247.143c-.921-4.051-35.385-40.433-39.885-42.868s-13.047-4.015-13.047-4.015a32.114,32.114,0,0,0-6.442,5.859c-3.28,3.855-3.526,13.375-3.526,13.375l5.369.421s1.023.65,2.715,1.685l3.947-11.4s38.328,28.746,42.16,32.1,7.957,9.219,11.021,12.936a24.7,24.7,0,0,0,1.943,2.027A38.341,38.341,0,0,1,439.692,247.143Z" transform="translate(-376.792 -200.261)" fill="#fff" opacity="0.5"/>
              </g>
              <path id="Trazado_102997" data-name="Trazado 102997" d="M386.759,200.261s8.547,1.58,13.047,4.015,38.964,38.817,39.885,42.868a37.116,37.116,0,0,0,5.373,11.807c1.84,2.411,7.734,9.592,8.133,12.575s-.794,5.42-2.212,3.333-4.725-6.959-7.26-8.9-10.343-3.553-10.343-3.553a37.936,37.936,0,0,1-.545,7.284c-.67,3.506-3.3,6.514-3.553,4.65a49.941,49.941,0,0,1-.551-9.794c.3-3.455.247-9.52.247-9.52L430,248.44s-22.8-14.412-31.378-18.958-16.46-9.565-16.46-9.565l-5.369-.421s.245-9.52,3.526-13.375A32.114,32.114,0,0,1,386.759,200.261Z" transform="translate(-376.792 -200.261)" fill="none" stroke="#263238" stroke-linecap="round" stroke-linejoin="round" stroke-width="1"/>
            </g>
            <path id="Trazado_102998" data-name="Trazado 102998" d="M347.275,271.433,348.7,290.6s-7.114,63.193,7.086,81.409,60.053,65.981,60.053,65.981l7.206-8.553s-25.619-49.71-30.344-56.669-12.537-25.649-12.537-25.649,15.864-65.881,16.981-71.723.516-21.7.317-23.192-18,7.338-28.51,11.02S347.275,271.433,347.275,271.433Z" transform="translate(-133.856 -120.397)" fill="#263238" stroke="#263238" stroke-linecap="round" stroke-linejoin="round" stroke-width="1"/>
            <g id="Grupo_56951" data-name="Grupo 56951" transform="translate(196.192 126.355)">
              <path id="Trazado_102999" data-name="Trazado 102999" d="M380.128,277.921s-4.944,5.594-3.628,6.937l1.318,1.342s-27.78,36.351-31.432,45.948-10.828,32.568-10.679,33.686,4.85,5.045,7.882,5.02,96.876,6.409,96.876,6.409l2.159-9.4-68.168-21.632s40.973-59.747,42.886-65.316-.53-23.839-.879-26.448-3.879-6.314-6.863-5.915-28.632,18.628-28.632,18.628" transform="translate(-335.705 -248.524)" fill="#263238" stroke="#263238" stroke-linecap="round" stroke-linejoin="round" stroke-width="1"/>
              <path id="Trazado_103000" data-name="Trazado 103000" d="M347.335,311.785,371.317,276.1s4.337-11.073,18.9-13.953" transform="translate(-329.836 -241.65)" fill="none" stroke="#fff" stroke-linecap="round" stroke-linejoin="round" stroke-width="1"/>
              <path id="Trazado_103001" data-name="Trazado 103001" d="M365.127,268.512s18.722-13.714,29.309-11.391" transform="translate(-320.856 -244.319)" fill="none" stroke="#fff" stroke-linecap="round" stroke-linejoin="round" stroke-width="1"/>
              <line id="Línea_202" data-name="Línea 202" y1="35.869" x2="30.708" transform="translate(22.773 73.736)" fill="none" stroke="#fff" stroke-linecap="round" stroke-linejoin="round" stroke-width="1"/>
              <line id="Línea_203" data-name="Línea 203" x2="10.008" y2="2.4" transform="translate(34.338 97.188)" fill="none" stroke="#fff" stroke-linecap="round" stroke-linejoin="round" stroke-width="1"/>
            </g>
            <g id="Grupo_56954" data-name="Grupo 56954" transform="translate(114.311 49.007)">
              <g id="Grupo_56953" data-name="Grupo 56953">
                <path id="Trazado_103002" data-name="Trazado 103002" d="M330.088,212.1c-20.315,6.473-19.308,6.339-19.308,6.339l-29.491,4.282,13.031,25.929,34.348,3.95s33.62,31.719,39.929,32.926,10.027,8.566,10.027,8.566-2.483,4.431.852,6.377,8.169,2.325,18.394-.408,24.811-11.174,31.612-16.523,16.532-11.776,13.443-14.438-9.153-4.583-9.153-4.583l-31.358-32.7,25.888,2.006s-.295-14.991.084-19.825,6.574-12.152,6.574-12.152-33.117-2.406-42.538-3.881-18.571-.934-22.42.946-21.322,6.609-22.328,6.743S330.088,212.1,330.088,212.1Z" transform="translate(-281.289 -197.12)" fill="#fff"/>
                <g id="Grupo_56952" data-name="Grupo 56952" clip-path="url(#clip-path-2)">
                  <path id="Trazado_103003" data-name="Trazado 103003" d="M370.811,197.966c-9.419-1.473-18.571-.934-22.42.946s-21.322,6.609-22.328,6.743a20.025,20.025,0,0,0-1.955.63l3.407,9.7,9.325-2.767s19.164-4.311,27.789-4.311,41.68,2.874,41.68,2.874l1.049-.233c1.616-4.523,5.992-9.7,5.992-9.7S380.232,199.44,370.811,197.966Z" transform="translate(-259.678 -197.12)" fill="#4dd0e1"/>
                  <path id="Trazado_103004" data-name="Trazado 103004" d="M370.811,197.966c-9.419-1.473-18.571-.934-22.42.946s-21.322,6.609-22.328,6.743a20.025,20.025,0,0,0-1.955.63l3.407,9.7,9.325-2.767s19.164-4.311,27.789-4.311,41.68,2.874,41.68,2.874l1.049-.233c1.616-4.523,5.992-9.7,5.992-9.7S380.232,199.44,370.811,197.966Z" transform="translate(-259.678 -197.12)" fill="#fff" opacity="0.5"/>
                  <path id="Trazado_103005" data-name="Trazado 103005" d="M417.068,257.726c-3.089-2.662-9.153-4.583-9.153-4.583l-29.6-30.868-7.823-2.608-27.586,4.514L391.3,242.639c-.879.173-2.79.611-6.764,1.6-10.03,2.508-41.128,0-41.128,0s23.574,9.529,35.612,14.043,16.552,3.512,9.529,7.022-15.548,5.518-39.122,3.51c-6.144-.522-11.837-.977-16.908-1.363,4.636,3.687,8.475,6.36,10.22,6.694,6.311,1.205,10.027,8.566,10.027,8.566s-2.483,4.431.852,6.377,8.169,2.325,18.394-.409,24.811-11.172,31.612-16.522S420.157,260.387,417.068,257.726Z" transform="translate(-255.432 -185.741)" fill="#4dd0e1"/>
                  <path id="Trazado_103006" data-name="Trazado 103006" d="M417.068,257.726c-3.089-2.662-9.153-4.583-9.153-4.583l-29.6-30.868-7.823-2.608-27.586,4.514L391.3,242.639c-.879.173-2.79.611-6.764,1.6-10.03,2.508-41.128,0-41.128,0s23.574,9.529,35.612,14.043,16.552,3.512,9.529,7.022-15.548,5.518-39.122,3.51c-6.144-.522-11.837-.977-16.908-1.363,4.636,3.687,8.475,6.36,10.22,6.694,6.311,1.205,10.027,8.566,10.027,8.566s-2.483,4.431.852,6.377,8.169,2.325,18.394-.409,24.811-11.172,31.612-16.522S420.157,260.387,417.068,257.726Z" transform="translate(-255.432 -185.741)" fill="#fff" opacity="0.5"/>
                </g>
                <path id="Trazado_103008" data-name="Trazado 103008" d="M330.088,212.1c-20.315,6.473-19.308,6.339-19.308,6.339l-29.491,4.282,13.031,25.929,34.348,3.95s33.62,31.719,39.929,32.926,10.027,8.566,10.027,8.566-2.483,4.431.852,6.377,8.169,2.325,18.394-.408,24.811-11.174,31.612-16.523,16.532-11.776,13.443-14.438-9.153-4.583-9.153-4.583l-31.358-32.7,25.888,2.006s-.295-14.991.084-19.825,6.574-12.152,6.574-12.152-33.117-2.406-42.538-3.881-18.571-.934-22.42.946-21.322,6.609-22.328,6.743S330.088,212.1,330.088,212.1Z" transform="translate(-281.289 -197.12)" fill="none" stroke="#263238" stroke-miterlimit="10" stroke-width="1"/>
              </g>
              <path id="Trazado_103009" data-name="Trazado 103009" d="M327.54,222.912l12.532,17.563,3.279-2.984-9.139-11.226" transform="translate(-257.946 -184.103)" fill="#fff" stroke="#263238" stroke-linecap="round" stroke-linejoin="round" stroke-width="1"/>
              <path id="Trazado_103010" data-name="Trazado 103010" d="M304.036,222.723l18,16.96-27.595-16.808" transform="translate(-274.653 -184.198)" fill="none" stroke="#263238" stroke-linecap="round" stroke-linejoin="round" stroke-width="1"/>
              <line id="Línea_204" data-name="Línea 204" x1="22.348" y1="4.032" transform="translate(98.776 30.666)" fill="none" stroke="#263238" stroke-linecap="round" stroke-linejoin="round" stroke-width="1"/>
              <line id="Línea_205" data-name="Línea 205" x1="22.495" y2="1.026" transform="translate(96.313 34.495)" fill="none" stroke="#263238" stroke-linecap="round" stroke-linejoin="round" stroke-width="1"/>
              <path id="Trazado_103011" data-name="Trazado 103011" d="M375,241.824q1.677-.138,3.327-.357" transform="translate(-233.993 -174.738)" fill="#fff" stroke="#263238" stroke-linecap="round" stroke-linejoin="round" stroke-width="1"/>
              <path id="Trazado_103012" data-name="Trazado 103012" d="M347.482,238.484s19.661,5.792,38.354,5.03" transform="translate(-247.881 -176.244)" fill="none" stroke="#263238" stroke-linecap="round" stroke-linejoin="round" stroke-width="1"/>
            </g>
            <g id="Grupo_56956" data-name="Grupo 56956" transform="translate(164.656 51.417)">
              <path id="Trazado_103013" data-name="Trazado 103013" d="M314.747,215.188s3.628,11.813,4.3,16.848-1.764,9.8,1.211,9.061,2.862-9.264,2.862-9.264l10.9,2.3,4.83-9.869s8.93,8.031,8.729,3.957-9.383-21.635-9.921-25.661-5.462-5.078-8.84-2.236S314.747,215.188,314.747,215.188Z" transform="translate(-314.747 -198.722)" fill="#fff"/>
              <g id="Grupo_56955" data-name="Grupo 56955" clip-path="url(#clip-path-3)">
                <path id="Trazado_103014" data-name="Trazado 103014" d="M333.392,202.562c-.539-4.028-5.462-5.078-8.84-2.236-.369.311-.837.746-1.356,1.247l4.779,13.606,9.209-2.733C335.28,208.123,333.612,204.208,333.392,202.562Z" transform="translate(-310.483 -198.722)" fill="#4dd0e1"/>
                <path id="Trazado_103015" data-name="Trazado 103015" d="M333.392,202.562c-.539-4.028-5.462-5.078-8.84-2.236-.369.311-.837.746-1.356,1.247l4.779,13.606,9.209-2.733C335.28,208.123,333.612,204.208,333.392,202.562Z" transform="translate(-310.483 -198.722)" fill="#fff" opacity="0.5"/>
              </g>
              <path id="Trazado_103017" data-name="Trazado 103017" d="M314.747,215.188s3.628,11.813,4.3,16.848-1.764,9.8,1.211,9.061,2.862-9.264,2.862-9.264l10.9,2.3,4.83-9.869s8.93,8.031,8.729,3.957-9.383-21.635-9.921-25.661-5.462-5.078-8.84-2.236S314.747,215.188,314.747,215.188Z" transform="translate(-314.747 -198.722)" fill="none" stroke="#263238" stroke-miterlimit="10" stroke-width="1"/>
            </g>
            <g id="Grupo_56958" data-name="Grupo 56958" transform="translate(150.758 39.803)">
              <path id="Trazado_103018" data-name="Trazado 103018" d="M305.511,214.792a94.831,94.831,0,0,0,10.5,4.4c3.917,1.186,23.346,23.869,22.673,18.834s-1.932-24.68-3.231-29.289a123.539,123.539,0,0,0-5.151-12.977s3.131-2.126-1.926-4.183-8.971,1.882-8.7,3.9.853,6.377-.445,6.892S305.511,214.792,305.511,214.792Z" transform="translate(-305.511 -191.004)" fill="#fff"/>
              <g id="Grupo_56957" data-name="Grupo 56957" clip-path="url(#clip-path-4)">
                <path id="Trazado_103019" data-name="Trazado 103019" d="M334.487,208.742a123.539,123.539,0,0,0-5.151-12.977s3.131-2.126-1.926-4.183-8.971,1.882-8.7,3.9.853,6.377-.445,6.892c-.861.342-6.615,5.7-10.39,9.264l-.456,2.758,28.523,4.683A81.487,81.487,0,0,0,334.487,208.742Z" transform="translate(-304.549 -191.004)" fill="#4dd0e1"/>
                <path id="Trazado_103020" data-name="Trazado 103020" d="M334.487,208.742a123.539,123.539,0,0,0-5.151-12.977s3.131-2.126-1.926-4.183-8.971,1.882-8.7,3.9.853,6.377-.445,6.892c-.861.342-6.615,5.7-10.39,9.264l-.456,2.758,28.523,4.683A81.487,81.487,0,0,0,334.487,208.742Z" transform="translate(-304.549 -189.004)" fill="#fff" opacity="0.5"/>
              </g>
              <path id="Trazado_103022" data-name="Trazado 103022" d="M305.511,214.792a94.831,94.831,0,0,0,10.5,4.4c3.917,1.186,23.346,23.869,22.673,18.834s-1.932-24.68-3.231-29.289a123.539,123.539,0,0,0-5.151-12.977s3.131-2.126-1.926-4.183-8.971,1.882-8.7,3.9.853,6.377-.445,6.892S305.511,214.792,305.511,214.792Z" transform="translate(-305.511 -191.004)" fill="none" stroke="#263238" stroke-miterlimit="10" stroke-width="1"/>
            </g>
            <g id="Grupo_56959" data-name="Grupo 56959" transform="translate(126.211)">
              <path id="Trazado_103023" data-name="Trazado 103023" d="M302.387,186.617s-6.645-1.162-10.786-4.025-2.554-8.882,1.876-11.525,9.731-6.424,15.527-6.515,7.654,6.151,11.771,6.284,15.08-4.747,21.212.239,5.4,22.509,3.163,26.224-6.619,11.816-6.619,11.816-3.536-.894-6.356-1.542-.984-2.26-3.96-1.52-5.951,1.478-8.614-.557-3.313-4.34-4.925-6.174-4.544-5.883-4.052-7.316a28.858,28.858,0,0,0,.67-5.214Z" transform="translate(-289.197 -164.551)" fill="#263238" stroke="#263238" stroke-miterlimit="10" stroke-width="1"/>
              <path id="Trazado_103024" data-name="Trazado 103024" d="M309.552,177.238s15.357,1.4,21.683,7.447" transform="translate(-278.924 -158.148)" fill="none" stroke="#fff" stroke-linecap="round" stroke-linejoin="round" stroke-width="1"/>
              <path id="Trazado_103025" data-name="Trazado 103025" d="M321.665,184.342a22.744,22.744,0,0,1,3.164,2.313" transform="translate(-272.81 -154.563)" fill="none" stroke="#fff" stroke-linecap="round" stroke-linejoin="round" stroke-width="1"/>
              <path id="Trazado_103026" data-name="Trazado 103026" d="M309.553,180.675a50.241,50.241,0,0,1,13.488,3.169" transform="translate(-278.923 -156.414)" fill="none" stroke="#fff" stroke-linecap="round" stroke-linejoin="round" stroke-width="1"/>
              <path id="Trazado_103027" data-name="Trazado 103027" d="M319.964,176.276a14.81,14.81,0,0,1,4.275,3.61" transform="translate(-273.669 -158.634)" fill="none" stroke="#fff" stroke-linecap="round" stroke-linejoin="round" stroke-width="1"/>
              <path id="Trazado_103028" data-name="Trazado 103028" d="M298.26,170.443s-6.863,5.4-2.346,8.244,8.581-2.871,22.357-2.988a29.482,29.482,0,0,1,12.011,2.2" transform="translate(-286.584 -161.578)" fill="none" stroke="#fff" stroke-linecap="round" stroke-linejoin="round" stroke-width="1"/>
            </g>
            <g id="Grupo_56961" data-name="Grupo 56961" transform="translate(131.487 18.369)">
              <path id="Trazado_103029" data-name="Trazado 103029" d="M297.954,178.42s-3.071,10.707-2.457,12.284a35.428,35.428,0,0,1,1.389,5.282l-4.182,7.05s.694,2.639,2.081,2.8,4.723,2.1,4.723,2.1,4.031,14.833,5.464,15.325,4.722,2.1,5.975,1.252,16.532-11.776,18.366-13.387,1.092-9.711,1.092-9.711,4.7-5.751,2.817-9.6-6.154-2.594-7.474.316-1.81,4.341-1.81,4.341-3.267,1.12-3.872-.849l-.6-1.97s-5.707-4.361-5.841-5.367,1.876-11.525,1.876-11.525Z" transform="translate(-292.704 -176.759)" fill="#fff"/>
              <g id="Grupo_56960" data-name="Grupo 56960" clip-path="url(#clip-path-5)">
                <path id="Trazado_103030" data-name="Trazado 103030" d="M328.488,191.812c-1.881-3.848-6.154-2.594-7.474.316s-1.81,4.341-1.81,4.341-3.267,1.12-3.872-.849l-.6-1.97s-5.707-4.361-5.841-5.367,1.876-11.525,1.876-11.525l-5.19.491c-2.317,5.841-4.323,12.245-3.133,14.627,2.4,4.791,4.791,7.186,4.791,10.54s1.917,6.228,2.4,9.1c.384,2.3-3.532,10.131-5.105,13.157a2.426,2.426,0,0,0,1.691-.166c1.252-.852,16.532-11.776,18.366-13.387s1.092-9.711,1.092-9.711S330.369,195.661,328.488,191.812Z" transform="translate(-287.969 -176.759)" fill="#4dd0e1"/>
                <path id="Trazado_103031" data-name="Trazado 103031" d="M328.488,191.812c-1.881-3.848-6.154-2.594-7.474.316s-1.81,4.341-1.81,4.341-3.267,1.12-3.872-.849l-.6-1.97s-5.707-4.361-5.841-5.367,1.876-11.525,1.876-11.525l-5.19.491c-2.317,5.841-4.323,12.245-3.133,14.627,2.4,4.791,4.791,7.186,4.791,10.54s1.917,6.228,2.4,9.1c.384,2.3-3.532,10.131-5.105,13.157a2.426,2.426,0,0,0,1.691-.166c1.252-.852,16.532-11.776,18.366-13.387s1.092-9.711,1.092-9.711S330.369,195.661,328.488,191.812Z" transform="translate(-287.969 -176.759)" fill="#fff" opacity="0.5"/>
              </g>
              <path id="Trazado_103033" data-name="Trazado 103033" d="M297.954,178.42s-3.071,10.707-2.457,12.284a35.428,35.428,0,0,1,1.389,5.282l-4.182,7.05s.694,2.639,2.081,2.8,4.723,2.1,4.723,2.1,4.031,14.833,5.464,15.325,4.722,2.1,5.975,1.252,16.532-11.776,18.366-13.387,1.092-9.711,1.092-9.711,4.7-5.751,2.817-9.6-6.154-2.594-7.474.316-1.81,4.341-1.81,4.341-3.267,1.12-3.872-.849l-.6-1.97s-5.707-4.361-5.841-5.367,1.876-11.525,1.876-11.525Z" transform="translate(-292.704 -176.759)" fill="none" stroke="#263238" stroke-miterlimit="10" stroke-width="1"/>
            </g>
            <path id="Trazado_103034" data-name="Trazado 103034" d="M226.953,203.418s-6.353,3.583-8.9,4.949-6.287,1.523-5.056,3.067,8.055-1.077,8.055-1.077,7.855-.024,10.875-.427a5.179,5.179,0,0,0,4-3.268" transform="translate(-201.569 -144.935)" fill="#fff" stroke="#263238" stroke-linecap="round" stroke-linejoin="round" stroke-width="1"/>
            <g id="Grupo_56962" data-name="Grupo 56962" transform="translate(271.889 309.039)">
              <path id="Trazado_103035" data-name="Trazado 103035" d="M396.1,378.486,395.386,393s-8.62,17.852-9.216,19.069.5,3.729,3.381,2.585,8.947-6.889,12.376-9.624,8.6-9.5,11.705-11.812,6.61-7.335,6.46-8.453-16.784-14.835-16.784-14.835Z" transform="translate(-386.012 -369.933)" fill="#9af3ff" stroke="#263238" stroke-linecap="round" stroke-linejoin="round" stroke-width="1"/>
              <path id="Trazado_103036" data-name="Trazado 103036" d="M413.364,388.955c3.106-2.313,6.61-7.335,6.46-8.453a9.575,9.575,0,0,0-1.956-2.116c-2.257,2.493-6.765,7.457-10.793,11.789-4.558,4.9-16.221,15.957-20.53,20.02a2.59,2.59,0,0,0,2.739.2c2.883-1.145,8.947-6.889,12.376-9.624S410.257,391.268,413.364,388.955Z" transform="translate(-385.744 -365.667)" fill="#263238" stroke="#263238" stroke-linecap="round" stroke-linejoin="round" stroke-width="1"/>
            </g>
            <g id="Grupo_56963" data-name="Grupo 56963" transform="translate(300.952 243.678)">
              <path id="Trazado_103037" data-name="Trazado 103037" d="M405.327,337.91l8.007,8.8,12.537,25.651s3.131.719,4.523-.226-.98-32.887-1.627-37.734.221-6.861-1.792-7.731-19.489,1.846-19.489,1.846Z" transform="translate(-405.327 -326.495)" fill="#9af3ff" stroke="#263238" stroke-linecap="round" stroke-linejoin="round" stroke-width="1"/>
              <path id="Trazado_103038" data-name="Trazado 103038" d="M420.512,326.666a7.325,7.325,0,0,0-2.379-.156c.989,8.863,3.494,31.22,4.13,35.978a57.024,57.024,0,0,1,.212,10.089,3.206,3.206,0,0,0,1.455-.445c1.392-.945-.98-32.887-1.627-37.734S422.525,327.536,420.512,326.666Z" transform="translate(-398.864 -326.494)" fill="#263238" stroke="#263238" stroke-linecap="round" stroke-linejoin="round" stroke-width="1"/>
            </g>
          </g>
        </g>
      </g>
      <g id="Graphics" transform="translate(77.33 79.472)">
        <g id="Grupo_56972" data-name="Grupo 56972">
          <g id="Grupo_56971" data-name="Grupo 56971">
            <g id="Grupo_56966" data-name="Grupo 56966" transform="translate(37.395 269.012)">
              <line id="Línea_206" data-name="Línea 206" y2="13.347" transform="translate(6.673)" fill="none" stroke="#263238" stroke-linecap="round" stroke-linejoin="round" stroke-width="1"/>
              <line id="Línea_207" data-name="Línea 207" x1="13.347" transform="translate(0 6.673)" fill="none" stroke="#263238" stroke-linecap="round" stroke-linejoin="round" stroke-width="1"/>
            </g>
            <g id="Grupo_56967" data-name="Grupo 56967" transform="translate(409.28 103.323)">
              <line id="Línea_208" data-name="Línea 208" y2="13.347" transform="translate(6.674)" fill="none" stroke="#263238" stroke-linecap="round" stroke-linejoin="round" stroke-width="1"/>
              <line id="Línea_209" data-name="Línea 209" x1="13.347" transform="translate(0 6.673)" fill="none" stroke="#263238" stroke-linecap="round" stroke-linejoin="round" stroke-width="1"/>
            </g>
            <g id="Grupo_56968" data-name="Grupo 56968" transform="translate(388.144 451.57)">
              <line id="Línea_210" data-name="Línea 210" y2="13.347" transform="translate(6.674)" fill="none" stroke="#263238" stroke-linecap="round" stroke-linejoin="round" stroke-width="1"/>
              <line id="Línea_211" data-name="Línea 211" x1="13.347" transform="translate(0 6.673)" fill="none" stroke="#263238" stroke-linecap="round" stroke-linejoin="round" stroke-width="1"/>
            </g>
            <g id="Grupo_56969" data-name="Grupo 56969" transform="translate(219.687)">
              <line id="Línea_212" data-name="Línea 212" y2="13.347" transform="translate(6.674)" fill="none" stroke="#263238" stroke-linecap="round" stroke-linejoin="round" stroke-width="1"/>
              <line id="Línea_213" data-name="Línea 213" x1="13.347" transform="translate(0 6.674)" fill="none" stroke="#263238" stroke-linecap="round" stroke-linejoin="round" stroke-width="1"/>
            </g>
            <g id="Grupo_56970" data-name="Grupo 56970" transform="translate(0 367.149)">
              <line id="Línea_214" data-name="Línea 214" y2="13.347" transform="translate(6.674)" fill="none" stroke="#263238" stroke-linecap="round" stroke-linejoin="round" stroke-width="1"/>
              <line id="Línea_215" data-name="Línea 215" x1="13.347" transform="translate(0 6.674)" fill="none" stroke="#263238" stroke-linecap="round" stroke-linejoin="round" stroke-width="1"/>
            </g>
            <circle id="Elipse_4094" data-name="Elipse 4094" cx="11.035" cy="11.035" r="11.035" transform="translate(385.676 63.432) rotate(-76.76)" fill="none" stroke="#263238" stroke-linecap="round" stroke-linejoin="round" stroke-width="1"/>
            <circle id="Elipse_4095" data-name="Elipse 4095" cx="11.034" cy="11.034" r="11.034" transform="translate(4.713 284.642) rotate(-22.5)" fill="none" stroke="#263238" stroke-linecap="round" stroke-linejoin="round" stroke-width="1"/>
            <path id="Trazado_103039" data-name="Trazado 103039" d="M376.947,185.09a2.508,2.508,0,1,1-2.508-2.507A2.509,2.509,0,0,1,376.947,185.09Z" transform="translate(83.19 -17.02)" fill="none" stroke="#263238" stroke-linecap="round" stroke-linejoin="round" stroke-width="1"/>
            <path id="Trazado_103040" data-name="Trazado 103040" d="M320.286,387.929a2.508,2.508,0,1,1-2.507-2.508A2.508,2.508,0,0,1,320.286,387.929Z" transform="translate(54.594 85.354)" fill="none" stroke="#263238" stroke-linecap="round" stroke-linejoin="round" stroke-width="1"/>
            <path id="Trazado_103041" data-name="Trazado 103041" d="M411.925,294.3a2.508,2.508,0,1,1-2.508-2.508A2.507,2.507,0,0,1,411.925,294.3Z" transform="translate(100.845 38.096)" fill="none" stroke="#263238" stroke-linecap="round" stroke-linejoin="round" stroke-width="1"/>
            <path id="Trazado_103042" data-name="Trazado 103042" d="M319.617,269.874a2.508,2.508,0,1,1-2.507-2.507A2.507,2.507,0,0,1,319.617,269.874Z" transform="translate(54.256 25.771)" fill="none" stroke="#263238" stroke-linecap="round" stroke-linejoin="round" stroke-width="1"/>
            <path id="Trazado_103043" data-name="Trazado 103043" d="M203.569,87.935a2.508,2.508,0,1,1-2.507-2.508A2.507,2.507,0,0,1,203.569,87.935Z" transform="translate(-4.314 -66.055)" fill="none" stroke="#263238" stroke-linecap="round" stroke-linejoin="round" stroke-width="1"/>
          </g>
        </g>
      </g>
    </g>
  </g>
</svg>
