<svg xmlns="http://www.w3.org/2000/svg" width="820" height="601.482" viewBox="0 0 820 601.482">
  <g id="Grupo_57068" data-name="Grupo 57068" transform="translate(-469 -2091.449)">
    <rect id="dylan-shaw-UxyWwU6n_ts-unsplash" width="820" height="601.482" transform="translate(469 2091.449)" fill="#4dd0e1"/>
    <g id="Grupo_57067" data-name="Grupo 57067" transform="translate(502.177 2062.306)">
      <g id="Grupo_57066" data-name="Grupo 57066" transform="translate(71.356 68.87)">
        <g id="Grupo_57024" data-name="Grupo 57024" transform="translate(24.291 106.704)">
          <ellipse id="Elipse_4106" data-name="Elipse 4106" cx="293.322" cy="23.228" rx="293.322" ry="23.228" transform="translate(0 368.869)" fill="#3ab5c5"/>
          <g id="Grupo_57011" data-name="Grupo 57011" transform="translate(351.549)">
            <path id="Trazado_103095" data-name="Trazado 103095" d="M317.131,161.509s39.854-49.194,71.077-34.467c19.879,9.376,6.948,30.813,26.505,26.526,19.511-4.277,37.417-3.508,51.839,12.663,15.688,17.592.514,45.7-14.422,65.29-14.81,19.429-5.456,69.768-5.456,69.768L321.5,302.512Z" transform="translate(-306.522 -124.291)" fill="#d5e4fa"/>
            <path id="Trazado_103096" data-name="Trazado 103096" d="M330.978,290.281s47.6-42.439,81.06-29.839c17.717,6.671-4.7,30.9,24.824,33.61,25.457,2.339,77.584-23.072,82.575,6.309,5.436,32-35.876,102.882-104.812,118.806-63.576,14.687-104.737,3.873-104.737,3.873Z" transform="translate(-309.888 -62.096)" fill="#d5e4fa"/>
          </g>
          <g id="Grupo_57023" data-name="Grupo 57023" transform="translate(60.974 56.909)">
            <path id="Trazado_103100" data-name="Trazado 103100" d="M254.073,196.79s-81.01-64.421-128.1-14.985c-40.926,42.962,11.692,145.874,74.835,182.949,51.089,30,63.789,21.55,63.789,21.55Z" transform="translate(-111.515 -163.142)" fill="#d5e4fa"/>
          </g>
        </g>
        <path id="Trazado_103109" data-name="Trazado 103109" d="M69.654,201.712a8.174,8.174,0,1,1-8.174-8.174A8.175,8.175,0,0,1,69.654,201.712Z" transform="translate(-53.305 14.599)" fill="#d5e4fa"/>
        <path id="Trazado_103110" data-name="Trazado 103110" d="M465.247,248.453a8.174,8.174,0,1,1-8.173-8.173A8.173,8.173,0,0,1,465.247,248.453Z" transform="translate(130.563 36.323)" fill="#d5e4fa"/>
        <g id="Grupo_57036" data-name="Grupo 57036" transform="translate(187.29 87.046)">
          <g id="Grupo_57030" data-name="Grupo 57030">
            <g id="Grupo_57025" data-name="Grupo 57025" transform="translate(15.653)">
              <rect id="Rectángulo_11934" data-name="Rectángulo 11934" width="219.524" height="406.015" rx="15.425" fill="#559ac9"/>
            </g>
            <g id="Grupo_57026" data-name="Grupo 57026">
              <path id="Rectángulo_11935" data-name="Rectángulo 11935" d="M10.971,0H208.553a10.972,10.972,0,0,1,10.972,10.972V395.044a10.971,10.971,0,0,1-10.971,10.971H10.971A10.971,10.971,0,0,1,0,395.044V10.971A10.971,10.971,0,0,1,10.971,0Z" fill="#a4cff2"/>
            </g>
            <g id="Grupo_57027" data-name="Grupo 57027" transform="translate(5.406 39.441)">
              <rect id="Rectángulo_11936" data-name="Rectángulo 11936" width="206.01" height="327.134" fill="#d3e6f8"/>
            </g>
            <g id="Grupo_57028" data-name="Grupo 57028" transform="translate(78.78 15.742)">
              <path id="Trazado_103111" data-name="Trazado 103111" d="M243.558,125.921a4.3,4.3,0,1,1-4.3-4.3A4.305,4.305,0,0,1,243.558,125.921Z" transform="translate(-234.949 -121.617)" fill="#d3e6f8"/>
            </g>
            <g id="Grupo_57029" data-name="Grupo 57029" transform="translate(95.347 17.605)">
              <path id="Trazado_103112" data-name="Trazado 103112" d="M287.926,127.544h-39.34a2.328,2.328,0,0,1-2.328-2.328h0a2.329,2.329,0,0,1,2.328-2.328h39.34a2.328,2.328,0,0,1,2.328,2.328h0A2.327,2.327,0,0,1,287.926,127.544Z" transform="translate(-246.259 -122.889)" fill="#d3e6f8"/>
            </g>
          </g>
          <g id="Grupo_57035" data-name="Grupo 57035" transform="translate(15.187 191.034)">
            <g id="Grupo_57032" data-name="Grupo 57032" transform="translate(0.104 76.169)">
              <rect id="Rectángulo_11937" data-name="Rectángulo 11937" width="186.332" height="54.428" rx="4.119" fill="#7babf1"/>
              <path id="Trazado_103113" data-name="Trazado 103113" d="M277.492,304.2h-73.2a2.671,2.671,0,0,1-2.67-2.67h0a2.67,2.67,0,0,1,2.67-2.67h73.2a2.67,2.67,0,0,1,2.67,2.67h0A2.671,2.671,0,0,1,277.492,304.2Z" transform="translate(-186.949 -290.699)" fill="#d3e6f8"/>
              <rect id="Rectángulo_11938" data-name="Rectángulo 11938" width="12.903" height="12.328" rx="0.885" transform="translate(159.989 4.663)" fill="#d3e6f8"/>
              <g id="Grupo_57031" data-name="Grupo 57031" transform="translate(14.674 25.202)">
                <path id="Trazado_103114" data-name="Trazado 103114" d="M345.341,333.858H213.306a11.683,11.683,0,0,1-11.683-11.682h0a11.682,11.682,0,0,1,11.683-11.682H345.341a11.683,11.683,0,0,1,11.683,11.683h0A11.683,11.683,0,0,1,345.341,333.858Z" transform="translate(-201.623 -310.493)" fill="#fd919d"/>
                <path id="Trazado_103115" data-name="Trazado 103115" d="M310.311,310.493H275.817v23.365h34.494a11.695,11.695,0,1,0,0-23.365Z" transform="translate(-167.138 -310.493)" fill="#d3e6f8"/>
              </g>
            </g>
            <g id="Grupo_57033" data-name="Grupo 57033" transform="translate(0 0)">
              <rect id="Rectángulo_11939" data-name="Rectángulo 11939" width="186.332" height="54.428" rx="4.123" transform="translate(0 0.452) rotate(-0.139)" fill="#7babf1"/>
              <path id="Trazado_103116" data-name="Trazado 103116" d="M324.79,265.034l-79.777.195a3.761,3.761,0,0,1-3.769-3.751h0A3.76,3.76,0,0,1,245,257.708l79.775-.193a3.759,3.759,0,0,1,3.769,3.751h0A3.758,3.758,0,0,1,324.79,265.034Z" transform="translate(-168.429 -233.745)" fill="#d3e6f8"/>
              <path id="Trazado_103117" data-name="Trazado 103117" d="M225.594,282l-1.542,0a16.536,16.536,0,0,1-16.578-16.5h0a16.536,16.536,0,0,1,16.5-16.578l1.542,0a16.537,16.537,0,0,1,16.578,16.5h0A16.539,16.539,0,0,1,225.594,282Z" transform="translate(-184.126 -237.737)" fill="#d3e6f8"/>
            </g>
            <g id="Grupo_57034" data-name="Grupo 57034" transform="translate(0.467 155.151)">
              <path id="Trazado_103118" data-name="Trazado 103118" d="M211.726,360.741H198.62a6.767,6.767,0,0,1-6.767-6.767h0a6.766,6.766,0,0,1,6.767-6.766h13.105a6.766,6.766,0,0,1,6.766,6.766h0A6.766,6.766,0,0,1,211.726,360.741Z" transform="translate(-191.853 -347.208)" fill="#a4cff2"/>
              <path id="Trazado_103119" data-name="Trazado 103119" d="M245.716,360.741H232.61a6.767,6.767,0,0,1-6.767-6.767h0a6.766,6.766,0,0,1,6.767-6.766h13.105a6.767,6.767,0,0,1,6.767,6.766h0A6.767,6.767,0,0,1,245.716,360.741Z" transform="translate(-176.055 -347.208)" fill="#7babf1"/>
              <path id="Trazado_103120" data-name="Trazado 103120" d="M281.584,360.741H268.478a6.767,6.767,0,0,1-6.767-6.767h0a6.766,6.766,0,0,1,6.767-6.766h13.105a6.767,6.767,0,0,1,6.767,6.766h0A6.767,6.767,0,0,1,281.584,360.741Z" transform="translate(-159.384 -347.208)" fill="#a4cff2"/>
              <path id="Trazado_103121" data-name="Trazado 103121" d="M317.451,360.741H304.346a6.766,6.766,0,0,1-6.766-6.767h0a6.766,6.766,0,0,1,6.766-6.766h13.105a6.766,6.766,0,0,1,6.767,6.766h0A6.767,6.767,0,0,1,317.451,360.741Z" transform="translate(-142.712 -347.208)" fill="#a4cff2"/>
            </g>
          </g>
        </g>
        <g id="Grupo_57046" data-name="Grupo 57046" transform="translate(200.792)">
          <g id="Grupo_57041" data-name="Grupo 57041" transform="translate(0 160.706)">
            <g id="Grupo_57037" data-name="Grupo 57037" transform="translate(0 0)">
              <rect id="Rectángulo_11940" data-name="Rectángulo 11940" width="140.266" height="132.828" rx="2.571" transform="translate(31.018 0) rotate(13.504)" fill="#a4cff2"/>
            </g>
            <g id="Grupo_57038" data-name="Grupo 57038" transform="translate(37.807 36.405)">
              <path id="Trazado_103122" data-name="Trazado 103122" d="M261.1,275.838a44.907,44.907,0,1,1,43.66-34.421A44.893,44.893,0,0,1,261.1,275.838Zm0-81.488a36.579,36.579,0,1,0,35.564,45.121h0A36.6,36.6,0,0,0,261.1,194.35Z" transform="translate(-216.195 -186.011)" fill="#fff"/>
            </g>
            <g id="Grupo_57039" data-name="Grupo 57039" transform="translate(90.281 33.617)">
              <path id="Trazado_103123" data-name="Trazado 103123" d="M260.621,278.143l-5.5-15.716a32.416,32.416,0,0,0-3.1-62.129l3.889-16.19a49.068,49.068,0,0,1,4.714,94.035Z" transform="translate(-252.018 -184.108)" fill="#ffae1e"/>
            </g>
            <g id="Grupo_57040" data-name="Grupo 57040" transform="translate(64.47 69.006)">
              <path id="Rectángulo_11941" data-name="Rectángulo 11941" d="M1.274,0h32.57a1.272,1.272,0,0,1,1.272,1.272V12.958a1.273,1.273,0,0,1-1.273,1.273H1.272A1.272,1.272,0,0,1,0,12.959V1.274A1.274,1.274,0,0,1,1.274,0Z" transform="translate(3.323 0) rotate(13.504)" fill="#4c4372"/>
            </g>
          </g>
          <g id="Grupo_57043" data-name="Grupo 57043" transform="translate(64.493 99.362)">
            <path id="Trazado_103124" data-name="Trazado 103124" d="M268.057,175.776c2.478-6.372,4.891-12.77,7.09-19.237,1.091-3.236,2.121-6.492,2.988-9.783a39.1,39.1,0,0,0,1.009-4.969,17.665,17.665,0,0,0,.064-5.026,24.526,24.526,0,0,0-3.116-9.54,15.424,15.424,0,0,0-7.148-6.785,7.15,7.15,0,0,0-4.816-.214,7.491,7.491,0,0,0-2.18,1.134,17.166,17.166,0,0,0-1.834,1.7,17.687,17.687,0,0,0-4.052,9.105c-1,6.745.269,13.615,1.86,20.221.217.823.369,1.679.54,2.522a22.905,22.905,0,0,1,.264,2.572,19.256,19.256,0,0,1-.565,5.128,18.76,18.76,0,0,1-5.184,8.8.113.113,0,0,1-.16-.006.112.112,0,0,1,0-.16l.007-.007a18.494,18.494,0,0,0,5.045-8.7,18.913,18.913,0,0,0,.521-5.042,22.427,22.427,0,0,0-.275-2.525c-.176-.832-.328-1.661-.552-2.492-1.638-6.618-2.975-13.507-2-20.388a18.188,18.188,0,0,1,4.122-9.408,17.463,17.463,0,0,1,1.909-1.8,8.064,8.064,0,0,1,2.344-1.238,7.773,7.773,0,0,1,5.232.192,16.059,16.059,0,0,1,7.533,7.024,25.292,25.292,0,0,1,3.278,9.813,18.48,18.48,0,0,1-.031,5.2,39.738,39.738,0,0,1-1,5.087c-.853,3.332-1.866,6.611-2.938,9.865-2.164,6.505-4.538,12.931-6.977,19.329C267.231,181.426,266.255,180.939,268.057,175.776Z" transform="translate(-225.872 -119.279)" fill="#4c4372"/>
            <rect id="Rectángulo_11942" data-name="Rectángulo 11942" width="8.645" height="8.645" transform="matrix(0.972, 0.235, -0.235, 0.972, 38.672, 55.354)" fill="#4c4372"/>
            <rect id="Rectángulo_11943" data-name="Rectángulo 11943" width="14.408" height="4.322" transform="translate(1.016 65.141) rotate(13.601)" fill="#4c4372"/>
            <rect id="Rectángulo_11944" data-name="Rectángulo 11944" width="14.408" height="4.322" transform="matrix(0.972, 0.235, -0.235, 0.972, 58.172, 78.969)" fill="#4c4372"/>
            <g id="Grupo_57042" data-name="Grupo 57042" transform="translate(7.284 59.968)">
              <path id="Trazado_103125" data-name="Trazado 103125" d="M296.3,183.488,274.318,161.7l-34.6,8.773-.329-1.293,35.338-8.958,22.514,22.322Z" transform="translate(-239.385 -160.219)" fill="#4c4372"/>
            </g>
          </g>
          <g id="Grupo_57045" data-name="Grupo 57045" transform="translate(22.256)">
            <path id="Trazado_103126" data-name="Trazado 103126" d="M232.173,91.956s-9.751,15.184-12.811,20.727-5.109,20.226-4.427,24.3,5.94,11.352,4.513,12.6-3.1-5.218-4.457-4.926,3.893,7.279,2.243,7.9c-1.623.609-4.1-5.918-5.248-6s3.2,4.887,1.525,5.79c-1.642.885-3.674-5.185-4.248-5.207-1.145-.047,1.157,3.766-.858,4.192-2.528.532-3.328-26.973-2.527-38.795.584-8.625,11.874-26.587,11.874-26.587Z" transform="translate(-205.578 -35.408)" fill="#f1a36d"/>
            <path id="Trazado_103127" data-name="Trazado 103127" d="M259.374,79.784s9.944,15.134,11.283,22.975,1.626,29.069,3.968,31.937,4.638,5.354,3.681,8.223-1.816,8.8-3.681,8.031-7.51-4.116-7.843-7.252c-.417-3.946-3.3-12.254-4.781-22.2s-10.087-26.773-13.337-30.406S259.374,79.784,259.374,79.784Z" transform="translate(-185.78 -38.273)" fill="#f1a36d"/>
            <path id="Trazado_103128" data-name="Trazado 103128" d="M238.777,74.5c-6.12,0-12.432.192-17.213,4.973s-12.238,13-9.178,16.255,3.668,3.22,5.354,7.218c1.582,3.751,4.207,8.464,6.312,8.08s5.382-3.4,6.611.02,2.568,7.63,2.568,7.63l38.057-1.721s-2.676-11.332.192-12.288,6.407-.1,10.04-2.007,6.789-4.208,6.6-6.312-3.871-9.753-7.172-14.343c-4.148-5.771-6.98-8.08-12.717-8.844s-17.976-.287-17.976-.287Z" transform="translate(-202.746 -41.552)" fill="#7babf1"/>
            <path id="Trazado_103129" data-name="Trazado 103129" d="M228.282,67.507s.847,12.342,1.053,14.535c.286,3.06,9.083,8.414,12.335,8.319s9.275-6.885,9.848-9.657,1.721-15.2,1.721-15.2l-4.971-6.312Z" transform="translate(-195.025 -47.846)" fill="#f1a36d"/>
            <path id="Trazado_103130" data-name="Trazado 103130" d="M228.489,71.461c-.167-2.3,2.1-.119,2.957,1.219s3.98,2.638,5.259,1.865a7.236,7.236,0,0,1,6.706-.179,4.034,4.034,0,0,0,4.517-.144c.933-.5,3.242-4.777,4.2-4.554,1.028.24.706,6.933-1.141,9.514-1.928,2.7-5.385,7.844-11.982,6.313s-10.04-5.395-10.327-8.1A51.161,51.161,0,0,1,228.489,71.461Z" transform="translate(-194.938 -42.979)" fill="#6667ac"/>
            <path id="Trazado_103131" data-name="Trazado 103131" d="M226.316,132.192l.1,8.026h8.353v-8.026Z" transform="translate(-195.939 -13.914)" fill="#f1a36d"/>
            <path id="Trazado_103132" data-name="Trazado 103132" d="M244.157,131.445v8.318h8.648v-7.881Z" transform="translate(-187.647 -14.262)" fill="#f1a36d"/>
            <path id="Trazado_103133" data-name="Trazado 103133" d="M234.112,89.8c-9.736.054-13.933,8.677-13.3,28.36s3.949,32.521,7.107,34.159c1.909.989,9.776,1.449,11.887-.833,3.428-3.7,5.156-29.934,5.782-39.4C246.465,98.776,241.851,89.757,234.112,89.8Z" transform="translate(-198.528 -33.619)" fill="#f9626d"/>
            <path id="Trazado_103134" data-name="Trazado 103134" d="M249.009,89.785c-9.714.668-13.357,9.54-11.487,29.143s6,32.206,9.25,33.64c1.967.867,8,1.151,10.845-.1,3.149-1.38,4.219-31.686,4.246-41.171C261.9,97.963,256.729,89.255,249.009,89.785Z" transform="translate(-190.951 -33.635)" fill="#f9626d"/>
            <path id="Trazado_103135" data-name="Trazado 103135" d="M228.658,137.672S217.8,152.3,222.81,154.737c5.749,2.8,13.129-9.791,14.2-11.834s0-5.231,0-5.231Z" transform="translate(-198.183 -11.367)" fill="#4c4372"/>
            <path id="Trazado_103136" data-name="Trazado 103136" d="M244.409,137.124s-2.48,4.523,1.321,7.488c3,2.342,10.278,10.642,14.39,8.034,4.077-2.584-7.063-15.522-7.063-15.522Z" transform="translate(-187.899 -11.622)" fill="#4c4372"/>
            <g id="Grupo_57044" data-name="Grupo 57044" transform="translate(25.367)">
              <path id="Trazado_103137" data-name="Trazado 103137" d="M224.188,57.535c4.295-5.125,6.455-.409,9.372-1.554,2.007-.788,2.612-2.65,7.315-2.7,5.641-.06,6.933,4.592,7.888,4.208,4.8-1.936,7.268,2.12,8.2,4.618.855,2.294.047,9.165-1.507,9.146-1.361-.018-4.974-6.408-5.689-5.661-1.578,1.649-6.788,4.375-9.036,2.654s-3.617,1.717-7.6,2.266C223.02,71.9,221.225,61.073,224.188,57.535Z" transform="translate(-222.896 -50.592)" fill="#6667ac"/>
              <path id="Trazado_103138" data-name="Trazado 103138" d="M248.408,61.545a10.793,10.793,0,0,0-1.192-4.132,13.409,13.409,0,0,0-1.074-1.846,9.353,9.353,0,0,0-1.434-1.551,6.953,6.953,0,0,0-3.691-1.768,6.243,6.243,0,0,0-3.937.926,12.073,12.073,0,0,0-1.712,1.238,13.644,13.644,0,0,1-1.79,1.364,3.87,3.87,0,0,1-1.134.428,3.268,3.268,0,0,1-1.223-.023,4.794,4.794,0,0,1-1.112-.394,4.142,4.142,0,0,0-.946-.33,4.394,4.394,0,0,0-3.829,1.071,7.823,7.823,0,0,0-2.188,3.643,8.964,8.964,0,0,1,.662-2.093,6.1,6.1,0,0,1,1.252-1.843,4.912,4.912,0,0,1,4.217-1.4,4.365,4.365,0,0,1,1.128.335,4.065,4.065,0,0,0,.949.311,2.58,2.58,0,0,0,1.841-.371c1.144-.7,2.142-1.9,3.489-2.623a6.953,6.953,0,0,1,4.428-.989,7.512,7.512,0,0,1,4.031,2.033,9.975,9.975,0,0,1,1.456,1.714,12.107,12.107,0,0,1,1.017,1.986,11.178,11.178,0,0,1,.643,2.118A7.274,7.274,0,0,1,248.408,61.545Z" transform="translate(-222.78 -51.445)" fill="#6667ac"/>
              <path id="Trazado_103139" data-name="Trazado 103139" d="M241.534,61.408a8.205,8.205,0,0,1,1.9,2.367,7.648,7.648,0,0,1,.9,2.962,7.494,7.494,0,0,1,.006.791c-.032.259-.056.536-.1.775-.081.489-.173.976-.237,1.46a4.176,4.176,0,0,0,.3,2.831,2.929,2.929,0,0,1-.722-1.342,6.187,6.187,0,0,1-.122-1.535c.021-.507.054-1.006.1-1.5a7.94,7.94,0,0,0,0-1.409A14.9,14.9,0,0,0,241.534,61.408Z" transform="translate(-214.233 -46.814)" fill="#6667ac"/>
            </g>
          </g>
        </g>
        <g id="Grupo_57065" data-name="Grupo 57065" transform="translate(356.271 189.718)">
          <g id="Grupo_57062" data-name="Grupo 57062" transform="translate(8.851)">
            <g id="Grupo_57047" data-name="Grupo 57047">
              <path id="Trazado_103140" data-name="Trazado 103140" d="M303.421,500.814a.779.779,0,0,1-.174-.019.845.845,0,0,1-.658-1l65.75-318.157a.855.855,0,0,1,1-.658.846.846,0,0,1,.658,1l-65.75,318.158A.846.846,0,0,1,303.421,500.814Z" transform="translate(-302.571 -180.964)" fill="#4c4372"/>
            </g>
            <g id="Grupo_57054" data-name="Grupo 57054" transform="translate(65.768 0.674)">
              <g id="Grupo_57048" data-name="Grupo 57048" transform="translate(81.34 0)">
                <rect id="Rectángulo_11945" data-name="Rectángulo 11945" width="1.693" height="324.879" transform="matrix(0.979, -0.202, 0.202, 0.979, 0, 0.343)" fill="#f9626d"/>
              </g>
              <g id="Grupo_57049" data-name="Grupo 57049" transform="translate(0 0)">
                <rect id="Rectángulo_11946" data-name="Rectángulo 11946" width="1.693" height="324.879" transform="translate(0 0.343) rotate(-11.676)" fill="#f9626d"/>
              </g>
              <g id="Grupo_57050" data-name="Grupo 57050" transform="translate(40.725 192.379)">
                <rect id="Rectángulo_11947" data-name="Rectángulo 11947" width="81.34" height="1.695" fill="#f9626d"/>
              </g>
              <g id="Grupo_57051" data-name="Grupo 57051" transform="translate(8.157 34.781)">
                <rect id="Rectángulo_11948" data-name="Rectángulo 11948" width="81.34" height="1.695" fill="#f9626d"/>
              </g>
              <g id="Grupo_57052" data-name="Grupo 57052" transform="translate(29.869 139.847)">
                <rect id="Rectángulo_11949" data-name="Rectángulo 11949" width="81.34" height="1.695" fill="#f9626d"/>
              </g>
              <g id="Grupo_57053" data-name="Grupo 57053" transform="translate(19.013 87.314)">
                <rect id="Rectángulo_11950" data-name="Rectángulo 11950" width="81.34" height="1.695" fill="#f9626d"/>
              </g>
            </g>
            <g id="Grupo_57055" data-name="Grupo 57055" transform="translate(81.341)">
              <path id="Trazado_103141" data-name="Trazado 103141" d="M358.95,500.814a.787.787,0,0,1-.174-.019.843.843,0,0,1-.656-1l65.748-318.157a.855.855,0,0,1,1-.658.844.844,0,0,1,.656,1L359.778,500.139A.849.849,0,0,1,358.95,500.814Z" transform="translate(-358.101 -180.964)" fill="#4c4372"/>
            </g>
            <g id="Grupo_57056" data-name="Grupo 57056" transform="translate(58.869 35.455)">
              <path id="Trazado_103142" data-name="Trazado 103142" d="M424.278,206.864H343.607a.847.847,0,0,1,0-1.695h80.672a.847.847,0,1,1,0,1.695Z" transform="translate(-342.76 -205.169)" fill="#4c4372"/>
            </g>
            <g id="Grupo_57057" data-name="Grupo 57057" transform="translate(47.566 87.989)">
              <path id="Trazado_103143" data-name="Trazado 103143" d="M417.23,242.728h-81.34a.847.847,0,0,1,0-1.695h81.34a.847.847,0,1,1,0,1.695Z" transform="translate(-335.044 -241.033)" fill="#4c4372"/>
            </g>
            <g id="Grupo_57058" data-name="Grupo 57058" transform="translate(36.709 140.522)">
              <path id="Trazado_103144" data-name="Trazado 103144" d="M409.82,278.59H328.48a.847.847,0,1,1,0-1.693h81.34a.847.847,0,1,1,0,1.693Z" transform="translate(-327.632 -276.897)" fill="#4c4372"/>
            </g>
            <g id="Grupo_57059" data-name="Grupo 57059" transform="translate(26.122 193.054)">
              <path id="Trazado_103145" data-name="Trazado 103145" d="M401.956,314.455h-80.7a.847.847,0,1,1,0-1.695h80.7a.847.847,0,1,1,0,1.695Z" transform="translate(-320.404 -312.76)" fill="#4c4372"/>
            </g>
            <g id="Grupo_57060" data-name="Grupo 57060" transform="translate(14.997 245.585)">
              <path id="Trazado_103146" data-name="Trazado 103146" d="M395,350.318h-81.34a.847.847,0,0,1,0-1.695H395a.847.847,0,1,1,0,1.695Z" transform="translate(-312.809 -348.623)" fill="#4c4372"/>
            </g>
            <g id="Grupo_57061" data-name="Grupo 57061" transform="translate(117.35 245.586)">
              <rect id="Rectángulo_11951" data-name="Rectángulo 11951" width="81.34" height="1.694" fill="#f9626d"/>
            </g>
          </g>
          <g id="Grupo_57064" data-name="Grupo 57064" transform="translate(0 0.674)">
            <path id="Trazado_103147" data-name="Trazado 103147" d="M325.147,227.963c-.085.281-12.921-14.342-14.31-16.7-1.961-3.327-.28-6.7-4.9-9.42-1.437-.848-5.779-3.494-6.3-2.808-.743.983,5.175,5.042,4.466,5.1s-6.521-4.867-7.1-3.356c-.529,1.387,6.126,4.583,5.781,4.787-.435.256-5.723-3.558-6.24-1.89-.382,1.23,5.8,3.269,5.553,3.549-.423.486-3.934-1.26-4.163-.343-.28,1.119,5.811,3,6.452,3.893,2.547,3.532,3.776,7.361,5.719,11.11,2.651,5.117,12.852,17.5,12.852,17.5Z" transform="translate(-296.528 -173.29)" fill="#f1c48a"/>
            <path id="Trazado_103148" data-name="Trazado 103148" d="M351.8,289.426s-.861,5.068.729,14.519c.731,4.343,1.459,12.963,1.459,12.963l6.53.218,2.8-23.856Z" transform="translate(-270.946 -131.226)" fill="#f1c48a"/>
            <path id="Trazado_103149" data-name="Trazado 103149" d="M372.567,226.249c.186-.391,8.121-11.767,9.455-14.627,1.6-3.435.617-4.966.617-6.567,0-2.557,10.856-2.328,9.082,1.222-1.455,2.908-4.057,5.538-5.683,9.887s-7.183,16.212-7.183,16.212Z" transform="translate(-261.186 -171.237)" fill="#f1c48a"/>
            <path id="Trazado_103150" data-name="Trazado 103150" d="M341.926,288.029c-.548,6.152-1.277,10.938.167,20.163.892,5.7,1.094,9.845,1.094,9.845h5.88s3.143-22.835,3.964-26.936l.82-4.1Z" transform="translate(-275.743 -132.354)" fill="#f1c48a"/>
            <path id="Trazado_103151" data-name="Trazado 103151" d="M343.174,186.568s-7.891,15.048-5.42,17.582,7.595,2.207,7.463,5.745-.892,8.663-.892,8.663l16.1-.921-2.694-27.469Z" transform="translate(-277.59 -179.034)" fill="#f1c48a"/>
            <path id="Trazado_103152" data-name="Trazado 103152" d="M360.3,207.563s-11.726-1.866-17.687,4.34-5.4,9.439-11.364,10.28-13.078-3.983-15.033-1.476c-2.177,2.792-.543,4.872-1.308,7.412-.668,2.222-5.122,6.183-2.631,9.155,1.266,1.512,4.409,2.143,10.479,4.142a17.092,17.092,0,0,0,15.594-2.7c4.057-3.288,5.663-5.785,7.93-2.289a16.67,16.67,0,0,1,1.954,12.427c-1.03,3.691.089,11.269,2.969,11.882s26.582,5.045,31.818-2.146-1.643-19.567.155-21.67,2.247,5.533,7.034,9.7,8.3,5.231,10.921,2.19,6.879-8.4,7.028-13.973,4.963-7.733,4.5-9.319-6.318-5.679-7.971-6.69-4.39,2.635-5.395,4.553c-1.588,3.035-2.808,7.424-4.368,6.952S390.4,215.3,387.5,210.466c-2.663-4.446-6.316-4.463-13.541-4.514A59.8,59.8,0,0,0,360.3,207.563Z" transform="translate(-289.556 -170.025)" fill="#4c4372"/>
            <path id="Trazado_103153" data-name="Trazado 103153" d="M342.636,308.188s-1.368,6.836,3.007,6.836,12.741.937,12.533-.565-9.66-6.271-9.66-6.271Z" transform="translate(-275.192 -122.506)" fill="#ffae1e"/>
            <path id="Trazado_103154" data-name="Trazado 103154" d="M353.242,308.188s-.74,7.2,2.916,7.073,13.734.393,13.765-1.258c.032-1.824-10.151-5.6-10.151-5.6Z" transform="translate(-270.197 -122.506)" fill="#ffae1e"/>
            <g id="Grupo_57063" data-name="Grupo 57063" transform="translate(62.433)">
              <path id="Trazado_103155" data-name="Trazado 103155" d="M340.63,184.252c-2.891,3.523-1.482,8.579,3.682,10.65s8.1,6.215,6.851,11.961-8.855,11.855-7.4,20.32c1.176,6.829,10.548,6.35,8.165,15.827-2.131,8.477-2.2,20.328,6.209,22.766s17.12-9.117,14.006-20.378c-1.885-6.819-7.091-11.6-8.266-17.422-1.261-6.258,2.238-11.686,3.394-15.752,2.975-10.475,1.3-19.647-8.322-26.13S343.5,180.752,340.63,184.252Z" transform="translate(-339.151 -181.424)" fill="#f9626d"/>
              <path id="Trazado_103156" data-name="Trazado 103156" d="M355.454,186.916a16.725,16.725,0,0,1,2.664,3.612,26.719,26.719,0,0,1,1.878,4.1,29.022,29.022,0,0,1,1.642,8.865,28.182,28.182,0,0,1-.227,4.526c-.192,1.507-.54,2.971-.807,4.434a46.631,46.631,0,0,0-1.039,8.828,14.341,14.341,0,0,0,.624,4.314,11.843,11.843,0,0,0,2.068,3.811,22.509,22.509,0,0,0,3.145,3.114,15.854,15.854,0,0,1,2.884,3.532,27.012,27.012,0,0,1,3.212,8.427,31.291,31.291,0,0,1,.587,4.468,12.713,12.713,0,0,1-.362,4.465,7.9,7.9,0,0,0,.261-2.216,21.437,21.437,0,0,0-.1-2.232,30.837,30.837,0,0,0-.75-4.4,26.693,26.693,0,0,0-3.343-8.2,16.647,16.647,0,0,0-2.83-3.354,23.16,23.16,0,0,1-3.245-3.17,12.559,12.559,0,0,1-2.219-4.019,15.03,15.03,0,0,1-.693-4.531,47.235,47.235,0,0,1,1.119-8.967c.283-1.478.639-2.928.835-4.391a32.172,32.172,0,0,0,.294-4.428,28.725,28.725,0,0,0-1.409-8.755A22.336,22.336,0,0,0,355.454,186.916Z" transform="translate(-331.574 -178.872)" fill="#f9626d"/>
              <path id="Trazado_103157" data-name="Trazado 103157" d="M359.406,195.973a37.331,37.331,0,0,1,.675,5.533c.105,1.854.19,3.7.438,5.53s.582,3.64,1.006,5.434c.221.895.45,1.788.71,2.673a16.152,16.152,0,0,0,.905,2.572,18.025,18.025,0,0,0,2.971,4.55c1.2,1.389,2.562,2.641,3.848,3.992a25.66,25.66,0,0,1,3.5,4.38,15.456,15.456,0,0,1,1.948,5.222,16.494,16.494,0,0,0-2.272-5.017,25.126,25.126,0,0,0-3.6-4.161c-1.329-1.283-2.691-2.555-3.948-3.952a17.759,17.759,0,0,1-3.129-4.708,17.034,17.034,0,0,1-.908-2.684c-.252-.9-.473-1.8-.685-2.713a41.657,41.657,0,0,1-.9-5.527C359.573,203.37,359.916,199.658,359.406,195.973Z" transform="translate(-329.737 -174.662)" fill="#f9626d"/>
              <path id="Trazado_103158" data-name="Trazado 103158" d="M357.028,206.092a27.164,27.164,0,0,0-.155,6.612,18.807,18.807,0,0,0,1.649,6.321,13.891,13.891,0,0,0,1.7,2.76c.674.858,1.419,1.727,2.035,2.663a24.971,24.971,0,0,1,3.072,5.988,23.275,23.275,0,0,1,1.266,6.616,17.39,17.39,0,0,1-.918,6.669,17.585,17.585,0,0,1-3.508,5.714,18.881,18.881,0,0,1-5.311,4.009,18.718,18.718,0,0,0,8.294-9.908,20.623,20.623,0,0,0-.523-12.855,26.4,26.4,0,0,0-2.957-5.834c-.6-.929-1.292-1.75-1.979-2.644a14.13,14.13,0,0,1-1.746-2.916A22.032,22.032,0,0,1,357.028,206.092Z" transform="translate(-331.117 -169.959)" fill="#f9626d"/>
              <path id="Trazado_103159" data-name="Trazado 103159" d="M341.1,189.241A19.093,19.093,0,0,1,347.155,194a10.992,10.992,0,0,1,1.991,3.39,9.307,9.307,0,0,1,.464,3.94A9.459,9.459,0,0,1,348.4,205.1a11.986,11.986,0,0,1-2.515,3.016,25.953,25.953,0,0,1-6.584,4.016c1.093-.672,2.194-1.327,3.231-2.067a21.516,21.516,0,0,0,2.956-2.377,10.36,10.36,0,0,0,3.372-6.438,8.706,8.706,0,0,0-.388-3.627,11.4,11.4,0,0,0-1.77-3.266,18.5,18.5,0,0,0-2.577-2.771A24.926,24.926,0,0,0,341.1,189.241Z" transform="translate(-339.084 -177.791)" fill="#f9626d"/>
            </g>
            <path id="Trazado_103160" data-name="Trazado 103160" d="M341.545,240.426c0,.82-7.778,18.884-4.828,34.236,3.212,16.724-4.822,35.873,4.066,40.519,9.736,5.089,18,1.542,28.732,5.915,7.035,2.867,12.849,10.621,13.4,5.426s-8.575-10.555-8.323-33.265c.277-24.86.586-42.927-7.254-51.284C362.967,237.318,341.545,240.426,341.545,240.426Z" transform="translate(-278.16 -154.473)" fill="#f9626d"/>
          </g>
        </g>
      </g>
    </g>
  </g>
</svg>
